<?xml version="1.0" encoding="utf-8"?>
<!-- Generator: Adobe Illustrator 26.5.0, SVG Export Plug-In . SVG Version: 6.00 Build 0)  -->
<svg version="1.1" xmlns="http://www.w3.org/2000/svg" xmlns:xlink="http://www.w3.org/1999/xlink" x="0px" y="0px"
	 viewBox="0 0 74.89 311.3" style="enable-background:new 0 0 74.89 311.3;" xml:space="preserve">
<style type="text/css">
	.st0{opacity:0.51;}
	.st1{fill:#8D8DA5;}
	.st2{opacity:0.8;fill:#ABABBA;}
	.st3{fill:#80A3D0;}
	.st4{fill:#9CB9DB;}
	.st5{fill:#7E9CC7;}
	.st6{fill:#DCBAAF;}
	.st7{fill:#AFA9B9;}
	.st8{fill:#BDB4D3;}
	.st9{fill:#E1BF89;}
	.st10{fill:#F3B186;}
	.st11{fill:#9A827A;}
	.st12{fill:#C3A479;}
	.st13{fill:#D4A594;}
	.st14{fill:#DFB88B;}
	.st15{fill:#CEA887;}
	.st16{fill:#C19977;}
	.st17{fill:#AB8658;}
	.st18{fill:#FFFFFF;}
	.st19{fill:#D77466;}
	.st20{opacity:0.8;fill:#D77466;}
	.st21{fill:none;stroke:#FFFFFF;stroke-width:3;stroke-linecap:round;stroke-linejoin:round;stroke-miterlimit:10;}
	.st22{fill:none;stroke:#D77466;stroke-width:3;stroke-linecap:round;stroke-linejoin:round;stroke-miterlimit:10;}
	.st23{opacity:0.5;fill:none;stroke:#88889F;stroke-miterlimit:10;}
	.st24{fill:#BEBEC9;}
	.st25{opacity:0.5;fill:none;stroke:#88889F;stroke-width:0.5;stroke-miterlimit:10;}
	.st26{fill:#31314F;}
	.st27{opacity:0.09;fill:url(#SVGID_1_);}
	.st28{fill:#275C73;}
	.st29{fill:none;stroke:#275C73;stroke-miterlimit:10;}
	.st30{opacity:0.09;fill:url(#SVGID_00000183945758120857567290000011420961857948864686_);}
	.st31{opacity:0.09;fill:url(#SVGID_00000055671802965016013450000008406236451507246269_);}
	.st32{opacity:0.09;fill:url(#SVGID_00000079464524455783538450000004524772918453219463_);}
	.st33{opacity:0.09;fill:url(#SVGID_00000000214110724163327220000014048423734878919052_);}
	.st34{opacity:0.09;fill:url(#SVGID_00000038414511174552358400000003508999739726518154_);}
	.st35{opacity:0.09;fill:url(#SVGID_00000154406625363700241270000013674666635854256291_);}
	.st36{opacity:0.09;fill:url(#SVGID_00000021838016966055047670000016620841375005043845_);}
	.st37{opacity:0.09;fill:url(#SVGID_00000158018226220647004600000009639923497780526223_);}
	.st38{opacity:0.09;fill:url(#SVGID_00000055694384095139395720000016973535598620960189_);}
	.st39{fill:none;}
	.st40{opacity:0.15;fill:#D77466;}
	.st41{fill:#F5D4C3;}
	.st42{fill:#262C57;}
	.st43{fill:none;stroke:#262C57;stroke-miterlimit:10;}
	.st44{opacity:0.08;}
	.st45{opacity:0.08;fill:#275C73;}
	.st46{opacity:0.08;fill:#D77466;}
	.st47{opacity:0.53;fill:#D77466;}
	.st48{opacity:0.21;fill:#275C73;}
	.st49{fill:#EAE3CD;}
	.st50{fill:none;stroke:#D77466;stroke-width:1.5;stroke-linecap:round;stroke-miterlimit:10;}
	.st51{fill-rule:evenodd;clip-rule:evenodd;fill:#E0E0EB;}
	.st52{fill-rule:evenodd;clip-rule:evenodd;fill:#313151;}
	.st53{fill-rule:evenodd;clip-rule:evenodd;fill:#FFFFFF;}
	.st54{fill-rule:evenodd;clip-rule:evenodd;fill:#B7C9E6;}
	.st55{fill-rule:evenodd;clip-rule:evenodd;fill:#8A8D89;}
	.st56{fill-rule:evenodd;clip-rule:evenodd;fill:#F1EDE1;}
	.st57{fill-rule:evenodd;clip-rule:evenodd;fill:#2F3230;}
	.st58{fill:#F7DC7A;}
	.st59{fill:#E1706C;}
	.st60{fill:#624F2D;}
	.st61{fill:#8DBCAE;}
	.st62{clip-path:url(#SVGID_00000094599572548180922280000006117100752406179772_);fill:#8DBCAE;}
	.st63{fill:#E8E8EF;}
	.st64{fill:none;stroke:#262C57;stroke-linecap:round;stroke-linejoin:round;stroke-miterlimit:10;}
	.st65{fill:none;stroke:#E8E8EF;stroke-miterlimit:10;}
	.st66{fill:none;stroke:#262C57;stroke-width:4;stroke-linecap:round;stroke-miterlimit:10;}
	.st67{fill:none;stroke:#D77466;stroke-width:1.5;stroke-miterlimit:10;}
	.st68{fill:none;stroke:#262C57;stroke-width:1.5;stroke-linecap:round;stroke-linejoin:round;stroke-miterlimit:10;}
	.st69{clip-path:url(#SVGID_00000154386601459504162030000008818985054952283290_);fill:#8DBCAE;}
	.st70{clip-path:url(#SVGID_00000142873203558911305090000009277300978497172905_);fill:#8DBCAE;}
	.st71{opacity:0.09;fill:url(#SVGID_00000036957406893327727500000005033103469424117387_);}
	.st72{fill:url(#SVGID_00000175292295918433271710000011089961600649819818_);}
	.st73{opacity:0.39;clip-path:url(#SVGID_00000084493276964260372550000007299141826134989707_);fill:#D77466;}
	.st74{opacity:0.21;clip-path:url(#SVGID_00000084493276964260372550000007299141826134989707_);fill:#EAE3CD;}
	.st75{clip-path:url(#SVGID_00000084493276964260372550000007299141826134989707_);}
	.st76{fill:#FBF2DC;}
	.st77{clip-path:url(#SVGID_00000084493276964260372550000007299141826134989707_);fill:#DA7466;}
	.st78{clip-path:url(#SVGID_00000084493276964260372550000007299141826134989707_);fill:#080B10;}
	.st79{fill:#DA7466;}
	.st80{fill:none;stroke:#FFFFFF;stroke-linecap:round;stroke-linejoin:round;stroke-miterlimit:10;}
	.st81{fill:#DB5946;}
	.st82{fill:#96C254;}
	.st83{fill:#6C863D;}
	.st84{fill:#F4D2CE;}
	.st85{fill:url(#SVGID_00000075134451631638269790000016613763261961558414_);}
	.st86{opacity:0.22;clip-path:url(#SVGID_00000058579305378007637560000006487505733300707980_);fill:#EAE3CD;}
	.st87{clip-path:url(#SVGID_00000058579305378007637560000006487505733300707980_);}
	.st88{fill:#5A6DD1;}
	.st89{clip-path:url(#SVGID_00000058579305378007637560000006487505733300707980_);fill:#DA7466;}
	.st90{clip-path:url(#SVGID_00000058579305378007637560000006487505733300707980_);fill:#FCFAF1;}
	.st91{clip-path:url(#SVGID_00000058579305378007637560000006487505733300707980_);fill:#080B10;}
	.st92{fill:#8BD2F9;}
	.st93{fill:#F5D0AF;}
	.st94{fill:#D5A479;}
	.st95{fill:none;stroke:#FFFFFF;stroke-miterlimit:10;}
	.st96{clip-path:url(#SVGID_00000082329190997446365720000008799982954008843661_);fill:#8DBCAE;}
	.st97{fill:url(#SVGID_00000031179663478934853380000009756170918243737476_);}
	.st98{clip-path:url(#SVGID_00000153674502287752047920000016763565798320950434_);}
	.st99{opacity:0.53;fill:#EAE3CD;}
	.st100{opacity:0.31;fill:#D77466;}
	.st101{fill:#FCFAF1;}
	.st102{clip-path:url(#SVGID_00000153674502287752047920000016763565798320950434_);fill:#080B10;}
	.st103{fill:#F6F1DA;}
	.st104{fill:#DDD8C6;}
	.st105{fill:#F8E1A0;}
	.st106{fill:#EDEDED;}
	.st107{fill:#646477;}
	.st108{fill:none;stroke:#D77466;stroke-miterlimit:10;}
	.st109{clip-path:url(#SVGID_00000044141784925487048400000011326646659168974490_);fill:#8DBCAE;}
	.st110{fill:url(#SVGID_00000154401863698021563260000004665832716985972885_);}
	.st111{clip-path:url(#SVGID_00000099634186868167614920000011553630326317248664_);}
	.st112{clip-path:url(#SVGID_00000099634186868167614920000011553630326317248664_);fill:#080B10;}
	.st113{fill:none;stroke:#E8E8EF;stroke-width:0.75;stroke-miterlimit:10;}
	.st114{clip-path:url(#SVGID_00000144324537411324514100000003016237576932754876_);fill:#8DBCAE;}
	.st115{clip-path:url(#SVGID_00000082338942835375113430000010106619092552514230_);fill:#8DBCAE;}
	.st116{fill:#4599D6;}
	.st117{fill:#642673;}
	.st118{fill:#BE286F;}
	.st119{clip-path:url(#SVGID_00000029013692109142999700000007207338692068274596_);fill:#8DBCAE;}
	.st120{opacity:0.54;fill:#E8E8EF;}
	.st121{clip-path:url(#SVGID_00000018201279645578981970000009219462558494002586_);fill:#8DBCAE;}
	.st122{fill:#80808B;}
	.st123{clip-path:url(#SVGID_00000119079509716422088970000004098587750635281053_);fill:#8DBCAE;}
	.st124{fill:none;stroke:#B5AFAE;stroke-linecap:round;stroke-linejoin:round;stroke-miterlimit:10;}
</style>
<g id="Background">
</g>
<g id="Content">
	<g>
		<path class="st39" d="M4.47,144.69c2.06,1.15,0.79,3.07-1.67,1.5C0.58,144.75,1.92,143.26,4.47,144.69z M25.79,61.94
			c-2.07,0.69-2.81-1.32-0.81-1.6C27.1,60.02,27.46,61.39,25.79,61.94z M28.16,43.22c1.64,1.03,0.36,2.44-1.51,1.72
			C24.35,44.06,26.35,42.11,28.16,43.22z M26.62,68.29c2.14,2.16-0.92,2.74-2.38,0.74C23.18,67.59,24.68,66.33,26.62,68.29z
			 M26.47,88.33c-1.22-0.32-0.5-1.86,1.14-2.03C29.59,86.08,29.24,89.04,26.47,88.33z M29.33,95.24c0.87,1.4-0.62,2.67-2.27,0.66
			C25.71,94.27,28.03,93.14,29.33,95.24z M28.16,102.55c0.86,2.12-0.9,2.23-1.62,0.75C25.58,101.28,27.32,100.35,28.16,102.55z
			 M27.1,125.97c-2.12-1.38-0.72-2.71,0.56-2.02C29.55,124.95,28.57,126.92,27.1,125.97z M27.18,197.45
			c2.25,0.54-0.16,5.87-2.44,4.24C23.35,200.69,25.53,197.05,27.18,197.45z M30.17,164.96c2.75,1.47,0.81,3.93-2.09,1.61
			C26.8,165.54,27.91,163.75,30.17,164.96z M28.33,77.83c-2.29-1.11-0.96-3.05,0.28-2.26C31.27,77.31,29.98,78.96,28.33,77.83z
			 M26.81,112.61c1.59,1.52,0.11,3.09-1.53,1.14C24.22,112.48,25.23,111.13,26.81,112.61z M23.95,156.78
			c-2.26-0.62-0.68-2.53,1.1-1.94C26.98,155.45,26.11,157.36,23.95,156.78z M22.03,148.22c-1.7-1.75-0.59-3.16,0.78-2.21
			C24.49,147.18,23.96,150.2,22.03,148.22z M22.23,181.47c3.23,1.78,1.6,4.74-2.5,2.31C16.66,182.12,18.89,179.64,22.23,181.47z
			 M16.27,194.37c-1.38-1.74,3.71-3.14,4.62-1.79C21.86,194.07,17.71,196.22,16.27,194.37z M16.27,206.75
			c-2.51,2.67-4.54-0.99-1.14-3.14C17.18,202.32,18.94,203.82,16.27,206.75z M16.77,139.3c1.95,1.24,0.16,3.02-2.35,1.15
			C13.13,139.46,13.98,137.51,16.77,139.3z M14.95,112.34c1.93,1.73,0.93,3.77-0.85,1.81C12.59,112.51,13.91,111.4,14.95,112.34z
			 M17.67,71.02c1.76,1.3,0.99,3.41-0.96,2.03C14.64,71.58,15.68,69.54,17.67,71.02z M17.72,64c2.09,1.61,1.13,3.37-0.66,2.14
			C14.75,64.57,15.79,62.49,17.72,64z M17.05,167.69c-1.02-2.51,1.3-2.89,2.15-1.24C20.86,169.73,18.04,170.12,17.05,167.69z
			 M17.69,127.57c-1.64-1.27-0.3-2.65,1.04-1.27C20.08,127.75,19.19,128.73,17.69,127.57z M18.31,80.29
			c2.63-0.33,2.95,1.76,1.16,2.16C17.29,82.91,16.28,80.53,18.31,80.29z M17.96,55.59c-1.48-1.12,0.02-2.38,2.05-1.45
			C22.7,55.36,19.96,57.1,17.96,55.59z M17.93,47.68c-1.74-0.38-1.82-2.21,0.04-1.98C20.23,45.99,20.64,48.24,17.93,47.68z
			 M17.92,38.16c-0.9,1.43-3.93-0.51-2.87-1.95C15.81,35.18,18.47,36.76,17.92,38.16z M15.86,93.71c1.76,2.63-0.83,3.12-2.18,0.98
			C12.53,92.85,14.41,91.52,15.86,93.71z M14.2,149.47c2.29,2.03,0.42,4.1-2.03,1.72C9.73,148.8,12.26,147.72,14.2,149.47z
			 M11.8,219.28c2.59,0.08,2.66,2.73-0.97,3.05C7.85,222.6,8.45,219.2,11.8,219.28z M6.35,171.14c-2.06-2.13,0.63-3.95,3.42-1.44
			C12.51,172.18,9.54,174.42,6.35,171.14z M6.2,181.31c4.08,3.24,1.32,7.34-0.92,3.62c-0.01-0.01-0.01-0.02-0.02-0.02
			C3.3,182.26,4.44,179.91,6.2,181.31z M3.73,159.1c-2.82-1.56-1.39-3.02,0.99-1.86C7.13,158.47,6.02,160.38,3.73,159.1z
			 M6.98,137.97c-1.37-1.05-0.92-2.69,1.23-1.6C10.13,137.34,9.43,139.87,6.98,137.97z M6.27,84.32c-2.47-1.85-1.11-4.26,1.52-2.19
			C9.87,83.76,9.1,86.47,6.27,84.32z M10.61,64.14c1.52,0.85,0.98,2.43-0.83,1.66C7.46,64.83,8.52,62.97,10.61,64.14z M5.21,47.4
			c-0.82-1.11,0.09-3.01,2.36-1.56C10.16,47.49,7.04,49.88,5.21,47.4z M5.86,38.27c-2.31-0.55-2.08-2.49-0.04-2.15
			C9.18,36.7,7.31,38.63,5.86,38.27z M5.13,108.44c2.07,1.17,2.06,4.09-0.23,2.62C2.09,109.24,3.72,107.63,5.13,108.44z
			 M4.68,126.27c0.77,1.51-0.79,2.36-2.44,0.23C0.95,124.78,3.59,124.09,4.68,126.27z M2.9,229.08c-1.35,1.86-3.97,1.35-2.15-2.38
			C2.43,223.24,5.43,225.53,2.9,229.08z M4.32,202.5c-2.36,1.11-3.67-1.17-0.36-2.76C6.85,198.36,6.85,201.32,4.32,202.5z
			 M3.6,280.76c3.94,1.07,2.59,3.43-0.5,2.66C0.03,282.66,0.57,279.94,3.6,280.76z M4.15,310.08c-2.22,2.72-5.57,0.41-2.52-2.13
			C4.61,305.47,6.74,308.13,4.15,310.08z M7.64,298.03c-2.7,1.74-4.68,0.15-2.11-1.74C8.29,294.21,10.1,296.44,7.64,298.03z
			 M5.84,266.57c-1.86-2.52-0.18-5.11,2.73-1.79C11.17,267.77,7.98,269.45,5.84,266.57z M11.06,237.94
			c-2.37-0.69-1.78-3.13,1.85-2.84C16.71,235.42,15.03,239.11,11.06,237.94z M17.81,247c1.73,1.41-1.43,3.91-3.65,2.98
			C10.83,248.54,16.04,245.56,17.81,247z M16.15,274.71c3.78-0.03,3.25,2.72,0.06,2.83C12.26,277.67,12.64,274.74,16.15,274.71z
			 M15.78,289.21c-2.96-0.09-2.9-2.85,0.93-2.45C19.46,287.04,19.87,289.28,15.78,289.21z M18.55,260.86
			c-2.27,2.09-4.05,0.46-2.78-1.07C18.33,256.74,20.42,259.15,18.55,260.86z M20.71,213.99c1.75-2.33,4.55-0.38,2.39,2.34
			C21.14,218.79,17.7,217.94,20.71,213.99z M21.25,227.86c1.3-2.66,3.29,0.41,2.35,2.75C22.72,232.82,20.19,230.05,21.25,227.86z
			 M27.58,239.34c0.13,1.64-2.68,2.23-3.9,1.44C20.59,238.81,27.39,236.78,27.58,239.34z M26.63,250.96c3.33,0.86,1.99,3.02-0.02,3
			C23.27,253.91,22.84,250,26.63,250.96z M28.35,268.47c-3.1,2.7-5.76-0.15-1.92-2.89C29.72,263.26,31.03,266.19,28.35,268.47z
			 M33.66,177.6c2.08,1.04,0.17,2.95-2.55,1.74C28.17,178.04,30.82,176.18,33.66,177.6z M34.86,66.72c0.99,1.3,0.29,4.14-1.56,1.97
			C31.89,67.01,33.24,64.61,34.86,66.72z M34.24,58.65c2.17-0.78,3.03,0.6,1.23,1.71C33.06,61.81,31.91,59.51,34.24,58.65z
			 M34.61,102.94c2.16,1.35-0.39,2.69-1.72,1.53C31.67,103.39,32.71,101.74,34.61,102.94z M34.54,126.99
			c-0.7-2.19,0.78-2.66,1.67-1.31C37.44,127.61,35.26,129.29,34.54,126.99z M33.62,153.05c-2.03-0.99-1.39-2.79,0.34-1.69
			C35.82,152.55,35.41,153.85,33.62,153.05z M37.28,162.19c1.17,1.32-0.35,2.19-1.68,0.49C34.79,161.65,35.75,160.46,37.28,162.19z
			 M35.68,95.72c-0.81-0.42-1.11-1.79,1.17-1.93C39.12,93.72,37.18,96.48,35.68,95.72z M34.07,135.96c1.85,2.33-0.18,3.47-1.35,1.89
			C31.48,136.18,33,134.61,34.07,135.96z M32.12,205.42c3.35-2.24,5.13,0.33,3.37,1.9C32,210.39,29.19,207.36,32.12,205.42z
			 M36.52,234.12c-2.72,2.22-4.15-1.33-0.85-2.65C37.52,230.75,38.67,232.37,36.52,234.12z M31.89,219.94
			c0.65-3.85,4.6-3.78,3.39-0.31C34.24,222.57,31.44,222.68,31.89,219.94z M35.85,247.79c-2.58,1.26-4.13-1.17-1.03-2.97
			C37.84,243.1,39.15,246.17,35.85,247.79z M35.15,192.62c-0.58-0.77,1.1-4.41,2.47-3.1C38.91,190.78,36.3,194.16,35.15,192.62z
			 M36.3,88.86c-2.17-0.68-1.71-2.73,0.82-2.04C39.21,87.37,38.56,89.55,36.3,88.86z M36.62,78.53c-1.92-1.17-0.71-3.31,1.25-1.44
			C39.32,78.45,37.77,79.25,36.62,78.53z M37.47,46.05c-2.11-0.94-0.99-3.03,0.85-2.08C40.81,44.52,39.93,47.12,37.47,46.05z
			 M41.18,53.28c2.37,0.88,1.29,2.62-0.22,2.24C37.91,54.77,38.22,52.12,41.18,53.28z M41.46,63.94c2.49,1.58,0.99,3-0.94,1.79
			C38.51,64.47,39.83,62.89,41.46,63.94z M61.28,166.86c1.44,1.73,0.16,2.75-0.95,2.06C57.76,167.28,59.41,164.55,61.28,166.86z
			 M59.76,103.83c3.05,0.06,2.44,2.06,0.75,2.23C57.75,106.32,57.61,103.79,59.76,103.83z M59.81,136.27
			c-0.49-2.3,1.31-3.04,1.97-0.97C62.81,138.53,60.26,138.33,59.81,136.27z M61.9,126.05c-2.01-1-1.22-3.27,1.21-1.7
			C64.96,125.57,63.12,126.65,61.9,126.05z M64.43,108.93c1.9,0.51,2.28,1.98,1.25,2.34C63.48,112.05,62.52,108.44,64.43,108.93z
			 M65.38,118.36c2.31,0,2.32,1.71,0.58,1.85C64.34,120.36,63.71,118.38,65.38,118.36z M68.96,79.55c1.77,0.98,0.82,2.5-1.16,1.83
			C65.74,80.67,67.01,78.45,68.96,79.55z M66.77,90.19c0.07,1.18-1.89,1.27-3.01,0.05C61.32,87.58,66.66,88.13,66.77,90.19z
			 M63.25,96.98c1.56,1.8-1.78,1.72-2.13,0.19C60.85,96.05,62.36,95.97,63.25,96.98z M60.63,73.05c-1.78-1.32-1.02-3.01,0.09-2.75
			C63,70.82,63.41,75.06,60.63,73.05z M59.97,54.5c-1.2-2.55,1.75-2.86,1.96-0.81C62.13,55.46,60.97,56.64,59.97,54.5z M57.77,63.04
			c-1.84-1.37-0.43-2.76,0.94-1.97C60.99,62.38,60.13,64.8,57.77,63.04z M58.28,80.85c2.17,1.4,0.91,2.97-0.34,2.23
			C56.06,81.98,56.61,79.81,58.28,80.85z M57.14,110.82c2.2,1.03,0.95,2.59-0.44,1.7C55.18,111.54,55.81,110.21,57.14,110.82z
			 M56.47,154.8c-1.35-1.74,0.02-3.39,1.1-2.27C59.01,154.03,57.8,156.54,56.47,154.8z M55.98,120.56c-2.22-0.47-2.3-3.31-0.27-2.24
			C58.24,119.63,57.02,120.78,55.98,120.56z M55.97,126.78c0.9,2.23-3.12,1.37-3.25-0.26C52.6,125.01,55.47,125.51,55.97,126.78z
			 M42.07,139.83c-1.75-1.12-0.91-3.29,1.05-1.58C44.91,139.82,43.78,141.39,42.07,139.83z M41.25,107.65
			c-1.66-0.48-1.2-2.56,1.24-2C43.98,106.01,42.7,108.08,41.25,107.65z M43.91,149c0.97,0.88,0.15,2.68-2.07,1.23
			C39.86,148.97,41.79,147.06,43.91,149z M44.73,197.47c1.78-2.96,4.6-1.71,2.28,1.95C45.66,201.55,42.91,200.52,44.73,197.47z
			 M50,58.42c-1.59-1.67-0.14-3.93,1.73-1.37C53.11,58.97,51.78,60.29,50,58.42z M49.38,68.64c-1.11-1.7,0.07-3.83,1.78-1.89
			C53.12,68.97,50.65,70.57,49.38,68.64z M48.47,51.41c-2.25-1.33-0.04-2.96,1.91-1.47C51.97,51.18,49.97,52.3,48.47,51.41z
			 M49.17,112.81c1.36,2.17-0.66,3.26-1.64,1.33C46.52,112.19,48.17,111.17,49.17,112.81z M45.36,84.39
			c-0.98-1.35,0.05-2.71,1.4-1.43C48.65,84.77,46.76,86.29,45.36,84.39z M44.98,128.81c-1.43-1.63-0.18-3.03,1.47-1.19
			C48.01,129.38,46.56,130.64,44.98,128.81z M46.02,168.57c-0.6-1.58,0.79-2.59,2.01-0.5c0.02,0.03,0.04,0.06,0.06,0.1
			C49.18,170.09,46.77,170.62,46.02,168.57z M45.72,159.43c0.2-0.93,1.93-0.67,2.92,0C51.11,161.12,45.27,161.58,45.72,159.43z
			 M48.03,150.74c-0.67-1.32,0.38-1.97,1.28-0.56C50.49,151.95,48.83,152.31,48.03,150.74z M50.75,105.22
			c1.72-0.43,2.97,1.2,0.3,2.19C49.1,108.1,48.79,105.7,50.75,105.22z M53.69,139.76c1.86,1.88,0.86,3.62-1.46,1.65
			C50.23,139.67,52.22,138.3,53.69,139.76z M51.78,99.15c-2.17-0.62-0.22-2.37,1.65-1.9C54.8,97.6,53.27,99.55,51.78,99.15z
			 M51.14,26.03c-2.91-0.68-1.78-3.16,0.42-2.11C53.58,24.87,52.95,26.5,51.14,26.03z M48.6,44.25c-2.69,0.14-2.85-2.85-0.51-2.19
			C49.86,42.57,50.12,44.18,48.6,44.25z M46.9,73.61c2.16,1.59-0.87,2.71-2.22,0.88C43.93,73.47,45.23,72.35,46.9,73.61z
			 M45.42,90.56c2.73,0.45-0.4,3.44-2.1,2.07C42.28,91.79,43.79,90.27,45.42,90.56z M43.65,98.41c2.77,0.22,2.19,2.84-0.06,2.13
			C41.18,99.82,41.89,98.25,43.65,98.41z M41.29,115.96c2.98,0.97,1.3,3.38-0.84,1.6C38.88,116.25,39.85,115.29,41.29,115.96z
			 M43.61,175.39c1.26,1.01,0.11,2.72-2.12,1.4C39.52,175.63,41.41,173.67,43.61,175.39z M44.48,223.54
			c-3.08,2.54-4.87,0.64-2.84-1.27C44.18,219.91,46.51,221.89,44.48,223.54z M48.51,209.9c-1.73,2.18-3.86,0.86-2.27-1.85
			C48.64,203.99,50.64,207.21,48.51,209.9z M51.64,186.36c-0.28,2.78-2.64,2.76-2.67,0.98C48.91,184.07,51.97,183.03,51.64,186.36z
			 M51.48,179.49c-1.68-1.57,1.62-2.69,3.05-0.39C55.81,181.19,53.29,181.19,51.48,179.49z M53.47,171.82
			c-0.74-0.83,0.11-2.26,2.23-0.73C57.28,172.21,55.18,173.78,53.47,171.82z M59.36,190.48c-1.74,2.82-4.46,1.54-2.28-1.78
			C59.21,185.47,61.25,187.42,59.36,190.48z M60.87,178.57c-2.62,0.66-3.1-1.76-0.46-2.03C62.3,176.35,62.86,178.06,60.87,178.57z
			 M63.01,147.97c-1.36-1.64,0.47-3.12,2.04-0.79C65.87,148.4,64.63,149.94,63.01,147.97z M65.17,161.15
			c-1.64-1.82,0.42-4.91,1.77-2.99C68.26,160.04,66.64,162.78,65.17,161.15z M67.96,142.21c-0.7-1.36,0.2-2.75,1.27-1.68
			C71.52,142.84,68.97,144.26,67.96,142.21z M68.5,131.87c-1.88-1.7-0.26-3.56,1.28-2.06C71.24,131.23,70.67,133.8,68.5,131.87z
			 M71.92,104.65c0.95,0.85,0.24,2.39-1.57,1.7C68.2,105.54,69.28,102.29,71.92,104.65z M72.11,114.95
			c-1.91-0.46-1.88-2.95-0.54-2.65C73.53,112.74,73.98,115.4,72.11,114.95z M73.18,89.62c1.57,0.34,2.4,3.11,1.01,3.55
			C72.48,93.72,71.45,89.26,73.18,89.62z M72.45,74.42c1.09,1.53-0.46,4.1-1.91,1.04C69.77,73.84,71.23,72.71,72.45,74.42z
			 M70.37,97.28c0.41,1.18-2.15,2.26-2.6,1.04C67.5,97.55,69.96,96.08,70.37,97.28z M69.15,46.84c1.38,0.79,1.39,4.42-0.23,3.64
			C66.81,49.47,67.56,45.95,69.15,46.84z M68.06,54c1.98,1.48,0.52,3.4-0.94,2C65.48,54.41,66.76,53.03,68.06,54z M68.05,63.13
			c0.53,2.51-1.63,2.9-2.17,0.66C65.4,61.83,67.52,60.89,68.05,63.13z M62.02,32.21c-1.32-1.56-0.22-3.07,1.69-1.2
			C65.2,32.43,63.82,34.34,62.02,32.21z M62.81,23.94c0.51,1.99-1.28,2.35-2.03,0.54C60,22.64,62.18,21.5,62.81,23.94z M62.39,38.57
			c0.68,1.44-1.05,2.97-2.51,0.4C58.64,36.83,61.14,35.9,62.39,38.57z M57.99,44.96c2.79,1.12,2.1,2.85,0.61,2.65
			C55.97,47.28,55.98,44.16,57.99,44.96z M55.15,88.85c1.97-0.12,1.92,1.87-0.08,2.18C52.86,91.39,52.62,89.01,55.15,88.85z
			 M52.68,12.42c1.9,1.71,0.38,2.9-1.17,1.89C49.22,12.79,50.95,10.84,52.68,12.42z M50.09,4.66c2.23,1.56,0.66,3.29-1.49,1.82
			C46.7,5.18,47.97,3.19,50.09,4.66z M48.74,32.92c1.83,1.04,0.06,2.58-1.78,1.72C44.72,33.6,46.57,31.67,48.74,32.92z M45.38,17.83
			c0.65,2.23-1.6,2.81-2.96,0.64C40.69,15.71,44.35,14.32,45.38,17.83z M40.74,6.16c2.91,0.61,1.5,3.47-1.22,2.7
			C37.45,8.29,37.26,5.43,40.74,6.16z M39.32,24.92c2.53,1.4,0.21,2.85-1.79,1.59C35.78,25.4,37.3,23.79,39.32,24.92z M35.92,35.31
			c1.74,0.4,0.76,2.64-1.64,2.37C32.18,37.17,34.18,34.91,35.92,35.31z M34.14,0.93c1.95,1.09-1.17,3.14-2.99,1.74
			C29.6,1.51,32.3-0.11,34.14,0.93z M33.33,13.93c0.81,1.32-0.21,2.4-1.96,1.33C28.54,13.57,31.22,10.53,33.33,13.93z M30.15,52.79
			c-2.47,1.41-3.75-0.42-2.15-1.25C30.28,50.38,31.63,51.93,30.15,52.79z M26.42,26.61c-2.97-0.58-0.78-3.06,1.95-2.18
			C30.61,25.14,29.2,27.15,26.42,26.61z M28.27,6.38c1.98,1.47-2.08,2.96-3.17,1.15C24.2,6.03,26.96,5.42,28.27,6.38z M24.97,33.49
			c2.31-0.26,2.6,1.81,0.58,2C22.57,35.78,23.24,33.68,24.97,33.49z M23.82,137.74c2.37,1.13,0.82,3.25-1.33,1.91
			C20.96,138.69,22.2,136.98,23.82,137.74z M20.79,92.85c-2.62-1.7-1.92-3.62,0.19-2.53C23.33,91.54,22.34,93.84,20.79,92.85z
			 M19.8,16.15c-3.16-1.27-1.46-4.23,1.35-2.28C23.28,15.36,21.56,16.87,19.8,16.15z M21.48,0.62c1.55,1.73-2.79,2.72-3.58,1.25
			C16.99,0.23,20.1-0.68,21.48,0.62z M17.87,24.09c1.99,1.49,1.23,4.52-1.15,2.84C14.33,25.24,15.6,22.43,17.87,24.09z M15.24,6.47
			c2.32,1.42-0.91,3.39-2.74,1.5C11.28,6.73,13.08,5.15,15.24,6.47z M9.54,125.16c-0.39-2.12,1.38-3.07,2.24-0.8
			C12.97,127.56,10.13,128.27,9.54,125.16z M10.81,58.55c-2.8,0.35-2.77-1.5-1.06-1.71C12.24,56.54,12.68,58.34,10.81,58.55z
			 M8.07,30.81c-1.99-0.74-1.96-2.95,0.63-2.67C12.66,28.62,11.66,32.16,8.07,30.81z M9.78,17.34c2.09,0.66,1.21,2.6-1.03,2.47
			C6.11,19.67,6.67,16.36,9.78,17.34z M6.23,0.35c2.69,0.94,0.55,3.81-2.01,2.5C2.17,1.82,3.43-0.63,6.23,0.35z M5.43,8.73
			c1.3,0.95,0.89,3.23-2.14,1.45C2.41,9.64,2.41,6.63,5.43,8.73z M3.91,70.4c1.04,2.33-2.54,1.49-2.52-0.4
			C1.4,68.45,3.26,69.04,3.91,70.4z"/>
		<path class="st41" d="M23.61,230.61c0.94-2.34-1.06-5.41-2.35-2.75C20.19,230.05,22.72,232.82,23.61,230.61z"/>
		<path class="st41" d="M23.1,216.33c2.15-2.72-0.64-4.67-2.39-2.34C17.7,217.94,21.14,218.79,23.1,216.33z"/>
		<path class="st41" d="M15.76,259.79c-1.27,1.53,0.51,3.16,2.78,1.07C20.42,259.15,18.33,256.74,15.76,259.79z"/>
		<path class="st41" d="M16.71,286.76c-3.83-0.4-3.89,2.36-0.93,2.45C19.87,289.28,19.46,287.04,16.71,286.76z"/>
		<path class="st41" d="M33.3,68.7c1.85,2.17,2.55-0.67,1.56-1.97C33.24,64.61,31.89,67.01,33.3,68.7z"/>
		<path class="st41" d="M26.43,265.59c-3.84,2.74-1.18,5.59,1.92,2.89C31.03,266.19,29.72,263.26,26.43,265.59z"/>
		<path class="st41" d="M16.21,277.54c3.18-0.11,3.72-2.86-0.06-2.83C12.64,274.74,12.26,277.67,16.21,277.54z"/>
		<path class="st41" d="M33.66,177.6c-2.84-1.42-5.49,0.44-2.55,1.74C33.83,180.55,35.74,178.63,33.66,177.6z"/>
		<path class="st41" d="M26.63,250.96c-3.8-0.97-3.36,2.95-0.02,3C28.63,253.98,29.96,251.83,26.63,250.96z"/>
		<path class="st41" d="M27.58,239.34c-0.19-2.56-6.99-0.53-3.9,1.44C24.9,241.57,27.71,240.98,27.58,239.34z"/>
		<path class="st41" d="M0.75,226.7c-1.82,3.73,0.8,4.25,2.15,2.38C5.43,225.53,2.43,223.24,0.75,226.7z"/>
		<path class="st41" d="M3.96,199.75c-3.31,1.59-2,3.87,0.36,2.76C6.85,201.32,6.85,198.36,3.96,199.75z"/>
		<path class="st41" d="M2.24,126.51c1.65,2.12,3.21,1.27,2.44-0.23C3.59,124.09,0.95,124.78,2.24,126.51z"/>
		<path class="st41" d="M4.91,111.06c2.29,1.47,2.29-1.45,0.23-2.62C3.72,107.63,2.09,109.24,4.91,111.06z"/>
		<path class="st41" d="M17.81,247c-1.77-1.45-6.97,1.54-3.65,2.98C16.38,250.91,19.54,248.41,17.81,247z"/>
		<path class="st41" d="M3.1,283.42c3.09,0.77,4.44-1.59,0.5-2.66C0.57,279.94,0.03,282.66,3.1,283.42z"/>
		<path class="st41" d="M1.63,307.95c-3.05,2.54,0.3,4.85,2.52,2.13C6.74,308.13,4.61,305.47,1.63,307.95z"/>
		<path class="st41" d="M12.91,235.1c-3.63-0.29-4.23,2.14-1.85,2.84C15.03,239.11,16.71,235.42,12.91,235.1z"/>
		<path class="st41" d="M5.84,266.57c2.14,2.88,5.34,1.2,2.73-1.79C5.66,261.46,3.98,264.06,5.84,266.57z"/>
		<path class="st41" d="M5.53,296.29c-2.57,1.88-0.58,3.48,2.11,1.74C10.1,296.44,8.29,294.21,5.53,296.29z"/>
		<path class="st41" d="M5.82,36.12c-2.03-0.34-2.27,1.6,0.04,2.15C7.31,38.63,9.18,36.7,5.82,36.12z"/>
		<path class="st41" d="M38.32,43.97c-1.84-0.95-2.96,1.14-0.85,2.08C39.93,47.12,40.81,44.52,38.32,43.97z"/>
		<path class="st41" d="M35.15,192.62c1.15,1.54,3.76-1.84,2.47-3.1C36.25,188.21,34.58,191.85,35.15,192.62z"/>
		<path class="st41" d="M41.18,53.28c-2.97-1.16-3.27,1.49-0.22,2.24C42.48,55.9,43.55,54.16,41.18,53.28z"/>
		<path class="st41" d="M36.62,78.53c1.15,0.72,2.7-0.07,1.25-1.44C35.91,75.22,34.7,77.36,36.62,78.53z"/>
		<path class="st41" d="M35.47,60.36c1.8-1.11,0.93-2.49-1.23-1.71C31.91,59.51,33.06,61.81,35.47,60.36z"/>
		<path class="st41" d="M40.52,65.72c1.93,1.21,3.42-0.21,0.94-1.79C39.83,62.89,38.51,64.47,40.52,65.72z"/>
		<path class="st41" d="M61.79,135.3c-0.66-2.07-2.47-1.33-1.97,0.97C60.26,138.33,62.81,138.53,61.79,135.3z"/>
		<path class="st41" d="M63.11,124.35c-2.43-1.58-3.22,0.7-1.21,1.7C63.12,126.65,64.96,125.57,63.11,124.35z"/>
		<path class="st41" d="M60.34,168.92c1.11,0.7,2.39-0.33,0.95-2.06C59.41,164.55,57.76,167.28,60.34,168.92z"/>
		<path class="st41" d="M60.51,106.05c1.69-0.17,2.3-2.17-0.75-2.23C57.61,103.79,57.75,106.32,60.51,106.05z"/>
		<path class="st41" d="M37.12,86.82c-2.53-0.69-2.99,1.35-0.82,2.04C38.56,89.55,39.21,87.37,37.12,86.82z"/>
		<path class="st41" d="M37.28,162.19c-1.53-1.73-2.49-0.54-1.68,0.49C36.93,164.38,38.45,163.51,37.28,162.19z"/>
		<path class="st41" d="M33.96,151.36c-1.73-1.09-2.37,0.7-0.34,1.69C35.41,153.85,35.82,152.55,33.96,151.36z"/>
		<path class="st41" d="M36.85,93.8c-2.28,0.14-1.97,1.51-1.17,1.93C37.18,96.48,39.12,93.72,36.85,93.8z"/>
		<path class="st41" d="M32.88,104.47c1.33,1.16,3.89-0.18,1.72-1.53C32.71,101.74,31.67,103.39,32.88,104.47z"/>
		<path class="st41" d="M36.21,125.69c-0.88-1.35-2.37-0.88-1.67,1.31C35.26,129.29,37.44,127.61,36.21,125.69z"/>
		<path class="st41" d="M35.27,219.63c1.21-3.47-2.73-3.54-3.39,0.31C31.44,222.68,34.24,222.57,35.27,219.63z"/>
		<path class="st41" d="M36.52,234.12c2.15-1.75,1-3.36-0.85-2.65C32.37,232.79,33.8,236.34,36.52,234.12z"/>
		<path class="st41" d="M34.82,244.83c-3.1,1.8-1.55,4.23,1.03,2.97C39.15,246.17,37.84,243.1,34.82,244.83z"/>
		<path class="st41" d="M32.72,137.85c1.17,1.58,3.2,0.44,1.35-1.89C33,134.61,31.48,136.18,32.72,137.85z"/>
		<path class="st41" d="M35.48,207.31c1.76-1.57-0.01-4.13-3.37-1.9C29.19,207.36,32,210.39,35.48,207.31z"/>
		<path class="st41" d="M10.61,64.14c-2.09-1.17-3.15,0.69-0.83,1.66C11.58,66.57,12.13,65,10.61,64.14z"/>
		<path class="st41" d="M24.74,201.68c2.28,1.64,4.69-3.7,2.44-4.24C25.53,197.05,23.35,200.69,24.74,201.68z"/>
		<path class="st41" d="M27.1,125.97c1.47,0.95,2.45-1.02,0.56-2.02C26.38,123.27,24.98,124.6,27.1,125.97z"/>
		<path class="st41" d="M27.62,86.3c-1.64,0.17-2.37,1.71-1.14,2.03C29.24,89.04,29.59,86.08,27.62,86.3z"/>
		<path class="st41" d="M27.06,95.91c1.65,2,3.14,0.73,2.27-0.66C28.03,93.14,25.71,94.27,27.06,95.91z"/>
		<path class="st41" d="M28.16,102.55c-0.84-2.2-2.59-1.26-1.62,0.75C27.26,104.78,29.02,104.67,28.16,102.55z"/>
		<path class="st41" d="M30.17,164.96c-2.26-1.21-3.38,0.58-2.09,1.61C30.98,168.89,32.92,166.44,30.17,164.96z"/>
		<path class="st41" d="M28.61,75.57c-1.24-0.79-2.57,1.16-0.28,2.26C29.98,78.96,31.27,77.31,28.61,75.57z"/>
		<path class="st41" d="M23.95,156.78c2.16,0.58,3.03-1.33,1.1-1.94C23.27,154.25,21.68,156.16,23.95,156.78z"/>
		<path class="st41" d="M22.81,146.01c-1.37-0.95-2.48,0.46-0.78,2.21C23.96,150.2,24.49,147.18,22.81,146.01z"/>
		<path class="st41" d="M26.81,112.61c-1.58-1.48-2.59-0.13-1.53,1.14C26.92,115.71,28.4,114.13,26.81,112.61z"/>
		<path class="st41" d="M0,212.72v3.63c0.45-0.07,0.97-0.34,1.47-0.88C3.95,212.79,1.99,210.88,0,212.72z"/>
		<path class="st41" d="M1.32,191.5c-0.46-0.57-0.91-0.95-1.32-1.19v3.38C1.69,194.57,2.99,193.47,1.32,191.5z"/>
		<path class="st41" d="M26.62,68.29c-1.94-1.96-3.43-0.7-2.38,0.74C25.69,71.03,28.76,70.45,26.62,68.29z"/>
		<path class="st41" d="M0.32,65.42C0.21,65.32,0.1,65.24,0,65.17v2.12C0.91,67.45,1.53,66.5,0.32,65.42z"/>
		<path class="st41" d="M0,54.56v0.06C0,54.6,0,54.58,0,54.56z"/>
		<path class="st41" d="M0,24.49v2.46C0.59,26.64,0.84,25.69,0,24.49z"/>
		<path class="st41" d="M19.73,183.78c4.1,2.42,5.73-0.53,2.5-2.31C18.89,179.64,16.66,182.12,19.73,183.78z"/>
		<path class="st41" d="M25.79,61.94c1.67-0.56,1.32-1.93-0.81-1.6C22.98,60.63,23.72,62.64,25.79,61.94z"/>
		<path class="st41" d="M26.65,44.94c1.86,0.72,3.15-0.7,1.51-1.72C26.35,42.11,24.35,44.06,26.65,44.94z"/>
		<path class="st41" d="M2.68,253.25c2.52-0.45,3.03-2.98,0.13-3.11c-1.45-0.06-2.39,0.46-2.81,1.09v1.43
			C0.39,253.18,1.26,253.5,2.68,253.25z"/>
		<path class="st41" d="M2.8,146.19c2.47,1.57,3.74-0.35,1.67-1.5C1.92,143.26,0.58,144.75,2.8,146.19z"/>
		<path class="st41" d="M17.98,45.7c-1.86-0.23-1.78,1.6-0.04,1.98C20.64,48.24,20.23,45.99,17.98,45.7z"/>
		<path class="st41" d="M6.35,171.14c3.18,3.28,6.15,1.05,3.42-1.44C6.98,167.19,4.29,169.01,6.35,171.14z"/>
		<path class="st41" d="M10.82,222.33c3.63-0.31,3.56-2.97,0.97-3.05C8.45,219.2,7.85,222.6,10.82,222.33z"/>
		<path class="st41" d="M5.29,184.93c2.24,3.72,5-0.38,0.92-3.62c-1.76-1.4-2.9,0.95-0.93,3.59C5.28,184.91,5.28,184.92,5.29,184.93
			z"/>
		<path class="st41" d="M12.16,151.18c2.45,2.38,4.32,0.31,2.03-1.72C12.26,147.72,9.73,148.8,12.16,151.18z"/>
		<path class="st41" d="M13.68,94.68c1.35,2.15,3.94,1.66,2.18-0.98C14.41,91.52,12.53,92.85,13.68,94.68z"/>
		<path class="st41" d="M65.68,111.27c1.03-0.36,0.65-1.83-1.25-2.34C62.52,108.44,63.48,112.05,65.68,111.27z"/>
		<path class="st41" d="M7.79,82.13c-2.64-2.07-3.99,0.34-1.52,2.19C9.1,86.47,9.87,83.76,7.79,82.13z"/>
		<path class="st41" d="M15.06,36.2c-1.06,1.44,1.96,3.38,2.87,1.95C18.47,36.76,15.81,35.18,15.06,36.2z"/>
		<path class="st41" d="M4.72,157.24c-2.38-1.16-3.81,0.3-0.99,1.86C6.02,160.38,7.13,158.47,4.72,157.24z"/>
		<path class="st41" d="M8.2,136.37c-2.15-1.09-2.6,0.55-1.23,1.6C9.43,139.87,10.13,137.34,8.2,136.37z"/>
		<path class="st41" d="M17.69,127.57c1.51,1.16,2.39,0.17,1.04-1.27C17.39,124.92,16.05,126.3,17.69,127.57z"/>
		<path class="st41" d="M17.05,66.14c1.8,1.23,2.75-0.53,0.66-2.14C15.79,62.49,14.75,64.57,17.05,66.14z"/>
		<path class="st41" d="M16.71,73.05c1.95,1.38,2.72-0.73,0.96-2.03C15.68,69.54,14.64,71.58,16.71,73.05z"/>
		<path class="st41" d="M14.95,112.34c-1.03-0.94-2.35,0.17-0.85,1.81C15.87,116.1,16.88,114.07,14.95,112.34z"/>
		<path class="st41" d="M15.13,203.6c-3.39,2.15-1.36,5.81,1.14,3.14C18.94,203.82,17.18,202.32,15.13,203.6z"/>
		<path class="st41" d="M17.05,167.69c0.99,2.43,3.81,2.04,2.15-1.24C18.35,164.8,16.03,165.18,17.05,167.69z"/>
		<path class="st41" d="M20.01,54.14c-2.03-0.93-3.53,0.33-2.05,1.45C19.96,57.1,22.7,55.36,20.01,54.14z"/>
		<path class="st41" d="M18.31,80.29c-2.03,0.25-1.01,2.62,1.16,2.16C21.26,82.05,20.94,79.96,18.31,80.29z"/>
		<path class="st41" d="M7.57,45.84c-2.27-1.45-3.18,0.45-2.36,1.56C7.04,49.88,10.16,47.49,7.57,45.84z"/>
		<path class="st41" d="M20.89,192.58c-0.91-1.36-6,0.05-4.62,1.79C17.71,196.22,21.86,194.07,20.89,192.58z"/>
		<path class="st41" d="M14.42,140.45c2.51,1.87,4.3,0.09,2.35-1.15C13.98,137.51,13.13,139.46,14.42,140.45z"/>
		<path class="st41" d="M58.6,47.61c1.49,0.2,2.18-1.53-0.61-2.65C55.98,44.16,55.97,47.28,58.6,47.61z"/>
		<path class="st41" d="M55.07,91.03c2-0.32,2.05-2.3,0.08-2.18C52.62,89.01,52.86,91.39,55.07,91.03z"/>
		<path class="st41" d="M62.02,32.21c1.8,2.12,3.17,0.21,1.69-1.2C61.81,29.14,60.7,30.65,62.02,32.21z"/>
		<path class="st41" d="M51.51,14.31c1.54,1.01,3.07-0.18,1.17-1.89C50.95,10.84,49.22,12.79,51.51,14.31z"/>
		<path class="st41" d="M62.81,23.94c-0.62-2.44-2.8-1.29-2.03,0.54C61.53,26.29,63.32,25.92,62.81,23.94z"/>
		<path class="st41" d="M62.39,38.57c-1.25-2.67-3.75-1.74-2.51,0.4C61.34,41.54,63.07,40.01,62.39,38.57z"/>
		<path class="st41" d="M42.42,18.46c1.36,2.17,3.61,1.59,2.96-0.64C44.35,14.32,40.69,15.71,42.42,18.46z"/>
		<path class="st41" d="M39.52,8.87c2.72,0.76,4.13-2.09,1.22-2.7C37.26,5.43,37.45,8.29,39.52,8.87z"/>
		<path class="st41" d="M46.97,34.64c1.83,0.86,3.6-0.68,1.78-1.72C46.57,31.67,44.72,33.6,46.97,34.64z"/>
		<path class="st41" d="M48.6,6.49c2.14,1.46,3.72-0.26,1.49-1.82C47.97,3.19,46.7,5.18,48.6,6.49z"/>
		<path class="st41" d="M68.91,50.47c1.62,0.79,1.61-2.85,0.23-3.64C67.56,45.95,66.81,49.47,68.91,50.47z"/>
		<path class="st41" d="M74.18,93.17c1.39-0.44,0.56-3.21-1.01-3.55C71.45,89.26,72.48,93.72,74.18,93.17z"/>
		<path class="st41" d="M71.92,104.65c-2.64-2.37-3.72,0.89-1.57,1.7C72.16,107.04,72.87,105.5,71.92,104.65z"/>
		<path class="st41" d="M71.56,112.3c-1.34-0.3-1.37,2.19,0.54,2.65C73.98,115.4,73.53,112.74,71.56,112.3z"/>
		<path class="st41" d="M68.5,131.87c2.16,1.93,2.74-0.65,1.28-2.06C68.24,128.32,66.62,130.17,68.5,131.87z"/>
		<path class="st41" d="M68.05,63.13c-0.53-2.24-2.65-1.3-2.17,0.66C66.42,66.03,68.58,65.64,68.05,63.13z"/>
		<path class="st41" d="M67.96,142.21c1.01,2.04,3.56,0.63,1.27-1.68C68.16,139.46,67.26,140.85,67.96,142.21z"/>
		<path class="st41" d="M37.53,26.51c2,1.26,4.32-0.19,1.79-1.59C37.3,23.79,35.78,25.4,37.53,26.51z"/>
		<path class="st41" d="M68.06,54c-1.3-0.97-2.58,0.41-0.94,2C68.57,57.4,70.04,55.49,68.06,54z"/>
		<path class="st41" d="M67.77,98.32c0.45,1.22,3.01,0.15,2.6-1.04C69.96,96.08,67.5,97.55,67.77,98.32z"/>
		<path class="st41" d="M72.45,74.42c-1.22-1.71-2.68-0.58-1.91,1.04C72,78.52,73.55,75.95,72.45,74.42z"/>
		<path class="st41" d="M65.96,120.21c1.74-0.14,1.73-1.86-0.58-1.85C63.71,118.38,64.34,120.36,65.96,120.21z"/>
		<path class="st41" d="M65.17,161.15c1.48,1.63,3.09-1.11,1.77-2.99C65.58,156.24,63.52,159.32,65.17,161.15z"/>
		<path class="st41" d="M21.48,0.62c-1.38-1.31-4.49-0.4-3.58,1.25C18.69,3.34,23.03,2.35,21.48,0.62z"/>
		<path class="st41" d="M9.75,56.84c-1.71,0.21-1.74,2.06,1.06,1.71C12.68,58.34,12.24,56.54,9.75,56.84z"/>
		<path class="st41" d="M16.72,26.93c2.38,1.68,3.15-1.35,1.15-2.84C15.6,22.43,14.33,25.24,16.72,26.93z"/>
		<path class="st41" d="M15.24,6.47c-2.16-1.32-3.96,0.26-2.74,1.5C14.34,9.86,17.56,7.89,15.24,6.47z"/>
		<path class="st41" d="M8.7,28.15c-2.59-0.28-2.63,1.92-0.63,2.67C11.66,32.16,12.66,28.62,8.7,28.15z"/>
		<path class="st41" d="M3.29,10.17c3.02,1.79,3.44-0.5,2.14-1.45C2.41,6.63,2.41,9.64,3.29,10.17z"/>
		<path class="st41" d="M3.91,70.4C3.26,69.04,1.4,68.45,1.39,70C1.37,71.89,4.95,72.72,3.91,70.4z"/>
		<path class="st41" d="M4.22,2.85c2.57,1.31,4.71-1.57,2.01-2.5C3.43-0.63,2.17,1.82,4.22,2.85z"/>
		<path class="st41" d="M8.75,19.81c2.24,0.12,3.11-1.81,1.03-2.47C6.67,16.36,6.11,19.67,8.75,19.81z"/>
		<path class="st41" d="M9.54,125.16c0.59,3.11,3.44,2.4,2.24-0.8C10.92,122.09,9.15,123.04,9.54,125.16z"/>
		<path class="st41" d="M31.37,15.26c1.75,1.08,2.77,0,1.96-1.33C31.22,10.53,28.54,13.57,31.37,15.26z"/>
		<path class="st41" d="M30.15,52.79c1.48-0.86,0.12-2.42-2.15-1.25C26.4,52.38,27.68,54.21,30.15,52.79z"/>
		<path class="st41" d="M26.42,26.61c2.78,0.54,4.19-1.47,1.95-2.18C25.64,23.55,23.45,26.03,26.42,26.61z"/>
		<path class="st41" d="M31.15,2.67c1.82,1.4,4.95-0.65,2.99-1.74C32.3-0.11,29.6,1.51,31.15,2.67z"/>
		<path class="st41" d="M21.15,13.87c-2.81-1.95-4.51,1.01-1.35,2.28C21.56,16.87,23.28,15.36,21.15,13.87z"/>
		<path class="st41" d="M22.49,139.65c2.15,1.34,3.7-0.78,1.33-1.91C22.2,136.98,20.96,138.69,22.49,139.65z"/>
		<path class="st41" d="M20.98,90.32c-2.11-1.09-2.81,0.83-0.19,2.53C22.34,93.84,23.33,91.54,20.98,90.32z"/>
		<path class="st41" d="M28.27,6.38c-1.31-0.96-4.07-0.35-3.17,1.15C26.19,9.34,30.25,7.85,28.27,6.38z"/>
		<path class="st41" d="M25.56,35.49c2.02-0.19,1.73-2.26-0.58-2C23.24,33.68,22.57,35.78,25.56,35.49z"/>
		<path class="st41" d="M34.28,37.68c2.39,0.26,3.38-1.97,1.64-2.37C34.18,34.91,32.18,37.17,34.28,37.68z"/>
		<path class="st41" d="M51.73,57.05c-1.87-2.56-3.32-0.3-1.73,1.37C51.78,60.29,53.11,58.97,51.73,57.05z"/>
		<path class="st41" d="M41.84,150.23c2.22,1.46,3.04-0.35,2.07-1.23C41.79,147.06,39.86,148.97,41.84,150.23z"/>
		<path class="st41" d="M52.72,126.53c0.13,1.63,4.15,2.49,3.25,0.26C55.47,125.51,52.6,125.01,52.72,126.53z"/>
		<path class="st41" d="M42.5,105.65c-2.45-0.57-2.9,1.52-1.24,2C42.7,108.08,43.98,106.01,42.5,105.65z"/>
		<path class="st41" d="M42.07,139.83c1.71,1.56,2.84-0.01,1.05-1.58C41.16,136.55,40.32,138.71,42.07,139.83z"/>
		<path class="st41" d="M47.01,199.42c2.32-3.66-0.5-4.91-2.28-1.95C42.91,200.52,45.66,201.55,47.01,199.42z"/>
		<path class="st41" d="M47.54,114.15c0.98,1.93,3,0.84,1.64-1.33C48.17,111.17,46.52,112.19,47.54,114.15z"/>
		<path class="st41" d="M45.36,84.39c1.39,1.91,3.29,0.39,1.4-1.43C45.41,81.68,44.38,83.04,45.36,84.39z"/>
		<path class="st41" d="M49.38,68.64c1.26,1.93,3.74,0.34,1.78-1.89C49.45,64.8,48.28,66.94,49.38,68.64z"/>
		<path class="st41" d="M50.38,49.93c-1.94-1.49-4.16,0.15-1.91,1.47C49.97,52.3,51.97,51.18,50.38,49.93z"/>
		<path class="st41" d="M60.71,70.3c-1.1-0.26-1.87,1.43-0.09,2.75C63.41,75.06,63,70.82,60.71,70.3z"/>
		<path class="st41" d="M44.98,128.81c1.59,1.83,3.03,0.56,1.47-1.19C44.79,125.79,43.55,127.18,44.98,128.81z"/>
		<path class="st41" d="M55.98,120.56c1.04,0.23,2.27-0.92-0.27-2.24C53.68,117.24,53.76,120.08,55.98,120.56z"/>
		<path class="st41" d="M68.96,79.55c-1.95-1.1-3.22,1.12-1.16,1.83C69.77,82.05,70.73,80.53,68.96,79.55z"/>
		<path class="st41" d="M59.97,54.5c1,2.14,2.17,0.96,1.96-0.81C61.72,51.64,58.77,51.95,59.97,54.5z"/>
		<path class="st41" d="M63.77,90.25c1.12,1.21,3.07,1.12,3.01-0.05C66.66,88.13,61.32,87.58,63.77,90.25z"/>
		<path class="st41" d="M61.12,97.17c0.35,1.53,3.7,1.61,2.13-0.19C62.36,95.97,60.85,96.05,61.12,97.17z"/>
		<path class="st41" d="M56.7,112.52c1.38,0.89,2.64-0.66,0.44-1.7C55.81,110.21,55.18,111.54,56.7,112.52z"/>
		<path class="st41" d="M56.47,154.8c1.33,1.74,2.54-0.77,1.1-2.27C56.48,151.41,55.12,153.07,56.47,154.8z"/>
		<path class="st41" d="M57.94,83.09c1.25,0.74,2.51-0.83,0.34-2.23C56.61,79.81,56.06,81.98,57.94,83.09z"/>
		<path class="st41" d="M58.72,61.07c-1.37-0.8-2.79,0.6-0.94,1.97C60.13,64.8,60.99,62.38,58.72,61.07z"/>
		<path class="st41" d="M60.4,176.54c-2.63,0.28-2.16,2.69,0.46,2.03C62.86,178.06,62.3,176.35,60.4,176.54z"/>
		<path class="st41" d="M41.64,222.28c-2.04,1.9-0.24,3.8,2.84,1.27C46.51,221.89,44.18,219.91,41.64,222.28z"/>
		<path class="st41" d="M46.24,208.05c-1.58,2.71,0.54,4.03,2.27,1.85C50.64,207.21,48.64,203.99,46.24,208.05z"/>
		<path class="st41" d="M43.59,100.54c2.24,0.71,2.82-1.91,0.06-2.13C41.89,98.25,41.18,99.82,43.59,100.54z"/>
		<path class="st41" d="M48.98,187.34c0.03,1.78,2.39,1.8,2.67-0.98C51.97,183.03,48.91,184.07,48.98,187.34z"/>
		<path class="st41" d="M41.29,115.96c-1.44-0.67-2.41,0.29-0.84,1.6C42.59,119.34,44.27,116.92,41.29,115.96z"/>
		<path class="st41" d="M41.49,176.79c2.23,1.32,3.38-0.39,2.12-1.4C41.41,173.67,39.52,175.63,41.49,176.79z"/>
		<path class="st41" d="M51.48,179.49c1.81,1.7,4.33,1.7,3.05-0.39C53.1,176.79,49.8,177.92,51.48,179.49z"/>
		<path class="st41" d="M65.06,147.18c-1.57-2.34-3.4-0.85-2.04,0.79C64.63,149.94,65.87,148.4,65.06,147.18z"/>
		<path class="st41" d="M48.08,168.16c-0.02-0.03-0.04-0.07-0.06-0.1c-1.21-2.08-2.6-1.07-2.01,0.5
			C46.77,170.62,49.18,170.09,48.08,168.16z"/>
		<path class="st41" d="M55.7,171.09c-2.13-1.53-2.98-0.1-2.23,0.73C55.18,173.78,57.28,172.21,55.7,171.09z"/>
		<path class="st41" d="M57.08,188.71c-2.18,3.32,0.54,4.6,2.28,1.78C61.25,187.42,59.21,185.47,57.08,188.71z"/>
		<path class="st41" d="M49.31,150.18c-0.9-1.41-1.95-0.75-1.28,0.56C48.83,152.31,50.49,151.95,49.31,150.18z"/>
		<path class="st41" d="M52.23,141.41c2.31,1.97,3.32,0.23,1.46-1.65C52.22,138.3,50.23,139.67,52.23,141.41z"/>
		<path class="st41" d="M51.05,107.4c2.67-0.98,1.42-2.61-0.3-2.19C48.79,105.7,49.1,108.1,51.05,107.4z"/>
		<path class="st41" d="M43.32,92.63c1.7,1.38,4.83-1.61,2.1-2.07C43.79,90.27,42.28,91.79,43.32,92.63z"/>
		<path class="st41" d="M48.64,159.43c-0.99-0.67-2.71-0.92-2.92,0C45.27,161.58,51.11,161.12,48.64,159.43z"/>
		<path class="st41" d="M48.09,42.07c-2.34-0.66-2.18,2.32,0.51,2.19C50.12,44.18,49.86,42.57,48.09,42.07z"/>
		<path class="st41" d="M53.43,97.25c-1.87-0.47-3.82,1.28-1.65,1.9C53.27,99.55,54.8,97.6,53.43,97.25z"/>
		<path class="st41" d="M44.68,74.49c1.35,1.83,4.39,0.71,2.22-0.88C45.23,72.35,43.93,73.47,44.68,74.49z"/>
		<path class="st41" d="M51.56,23.92c-2.2-1.05-3.32,1.42-0.42,2.11C52.95,26.5,53.58,24.87,51.56,23.92z"/>
	</g>
</g>
</svg>
