<?xml version="1.0" encoding="utf-8"?>
<!-- Generator: Adobe Illustrator 26.5.0, SVG Export Plug-In . SVG Version: 6.00 Build 0)  -->
<svg version="1.1" xmlns="http://www.w3.org/2000/svg" xmlns:xlink="http://www.w3.org/1999/xlink" x="0px" y="0px"
	 viewBox="0 0 142.64 792.64" style="enable-background:new 0 0 142.64 792.64;" xml:space="preserve">
<style type="text/css">
	.st0{opacity:0.51;}
	.st1{fill:#8D8DA5;}
	.st2{opacity:0.8;fill:#ABABBA;}
	.st3{fill:#80A3D0;}
	.st4{fill:#9CB9DB;}
	.st5{fill:#7E9CC7;}
	.st6{fill:#DCBAAF;}
	.st7{fill:#AFA9B9;}
	.st8{fill:#BDB4D3;}
	.st9{fill:#E1BF89;}
	.st10{fill:#F3B186;}
	.st11{fill:#9A827A;}
	.st12{fill:#C3A479;}
	.st13{fill:#D4A594;}
	.st14{fill:#DFB88B;}
	.st15{fill:#CEA887;}
	.st16{fill:#C19977;}
	.st17{fill:#AB8658;}
	.st18{fill:#FFFFFF;}
	.st19{fill:#D77466;}
	.st20{opacity:0.8;fill:#D77466;}
	.st21{fill:none;stroke:#FFFFFF;stroke-width:3;stroke-linecap:round;stroke-linejoin:round;stroke-miterlimit:10;}
	.st22{fill:none;stroke:#D77466;stroke-width:3;stroke-linecap:round;stroke-linejoin:round;stroke-miterlimit:10;}
	.st23{opacity:0.5;fill:none;stroke:#88889F;stroke-miterlimit:10;}
	.st24{fill:#BEBEC9;}
	.st25{opacity:0.5;fill:none;stroke:#88889F;stroke-width:0.5;stroke-miterlimit:10;}
	.st26{fill:#31314F;}
	.st27{opacity:0.09;fill:url(#SVGID_1_);}
	.st28{fill:#275C73;}
	.st29{fill:none;stroke:#275C73;stroke-miterlimit:10;}
	.st30{opacity:0.09;fill:url(#SVGID_00000042725858060345156880000010763994957657137077_);}
	.st31{opacity:0.09;fill:url(#SVGID_00000032621763666748637250000010267386679788955835_);}
	.st32{opacity:0.09;fill:url(#SVGID_00000004524893995422567270000003845227777454330515_);}
	.st33{opacity:0.09;fill:url(#SVGID_00000067953687902014595210000003965025933060252591_);}
	.st34{opacity:0.09;fill:url(#SVGID_00000152985130726330621270000005443945579654033803_);}
	.st35{opacity:0.09;fill:url(#SVGID_00000066505268332091027560000004812954979370786208_);}
	.st36{opacity:0.09;fill:url(#SVGID_00000172406053199566471350000003523085954298961294_);}
	.st37{opacity:0.09;fill:url(#SVGID_00000013892222913985930220000012189179436792597930_);}
	.st38{opacity:0.09;fill:url(#SVGID_00000151502686848939012400000000338005231884055957_);}
	.st39{fill:none;}
	.st40{opacity:0.15;fill:#D77466;}
	.st41{fill:#F5D4C3;}
	.st42{fill:#262C57;}
	.st43{fill:none;stroke:#262C57;stroke-miterlimit:10;}
	.st44{opacity:0.08;}
	.st45{opacity:0.08;fill:#275C73;}
	.st46{opacity:0.08;fill:#D77466;}
	.st47{opacity:0.53;fill:#D77466;}
	.st48{opacity:0.21;fill:#275C73;}
	.st49{fill:#EAE3CD;}
	.st50{fill:none;stroke:#D77466;stroke-width:1.5;stroke-linecap:round;stroke-miterlimit:10;}
	.st51{fill-rule:evenodd;clip-rule:evenodd;fill:#E0E0EB;}
	.st52{fill-rule:evenodd;clip-rule:evenodd;fill:#313151;}
	.st53{fill-rule:evenodd;clip-rule:evenodd;fill:#FFFFFF;}
	.st54{fill-rule:evenodd;clip-rule:evenodd;fill:#B7C9E6;}
	.st55{fill-rule:evenodd;clip-rule:evenodd;fill:#8A8D89;}
	.st56{fill-rule:evenodd;clip-rule:evenodd;fill:#F1EDE1;}
	.st57{fill-rule:evenodd;clip-rule:evenodd;fill:#2F3230;}
	.st58{fill:#F7DC7A;}
	.st59{fill:#E1706C;}
	.st60{fill:#624F2D;}
	.st61{fill:#8DBCAE;}
	.st62{clip-path:url(#SVGID_00000141439033865617668770000004630297898240477625_);fill:#8DBCAE;}
	.st63{fill:#E8E8EF;}
	.st64{fill:none;stroke:#262C57;stroke-linecap:round;stroke-linejoin:round;stroke-miterlimit:10;}
	.st65{fill:none;stroke:#E8E8EF;stroke-miterlimit:10;}
	.st66{fill:none;stroke:#262C57;stroke-width:4;stroke-linecap:round;stroke-miterlimit:10;}
	.st67{fill:none;stroke:#D77466;stroke-width:1.5;stroke-miterlimit:10;}
	.st68{fill:none;stroke:#262C57;stroke-width:1.5;stroke-linecap:round;stroke-linejoin:round;stroke-miterlimit:10;}
	.st69{clip-path:url(#SVGID_00000129916262549405498930000016503601041691030934_);fill:#8DBCAE;}
	.st70{clip-path:url(#SVGID_00000020387418361580892200000013619660933038302119_);fill:#8DBCAE;}
	.st71{opacity:0.09;fill:url(#SVGID_00000180326736591552669690000012919613602987014828_);}
	.st72{fill:url(#SVGID_00000091694743693207226940000014443665068445000847_);}
	.st73{opacity:0.39;clip-path:url(#SVGID_00000169516158695017367780000013798438599613044375_);fill:#D77466;}
	.st74{opacity:0.21;clip-path:url(#SVGID_00000169516158695017367780000013798438599613044375_);fill:#EAE3CD;}
	.st75{clip-path:url(#SVGID_00000169516158695017367780000013798438599613044375_);}
	.st76{fill:#FBF2DC;}
	.st77{clip-path:url(#SVGID_00000169516158695017367780000013798438599613044375_);fill:#DA7466;}
	.st78{clip-path:url(#SVGID_00000169516158695017367780000013798438599613044375_);fill:#080B10;}
	.st79{fill:#DA7466;}
	.st80{fill:none;stroke:#FFFFFF;stroke-linecap:round;stroke-linejoin:round;stroke-miterlimit:10;}
	.st81{fill:#DB5946;}
	.st82{fill:#96C254;}
	.st83{fill:#6C863D;}
	.st84{fill:#F4D2CE;}
	.st85{fill:url(#SVGID_00000116921614854366046180000017999480428222068667_);}
	.st86{opacity:0.22;clip-path:url(#SVGID_00000080168861522181064910000012040588973614956198_);fill:#EAE3CD;}
	.st87{clip-path:url(#SVGID_00000080168861522181064910000012040588973614956198_);}
	.st88{fill:#5A6DD1;}
	.st89{clip-path:url(#SVGID_00000080168861522181064910000012040588973614956198_);fill:#DA7466;}
	.st90{clip-path:url(#SVGID_00000080168861522181064910000012040588973614956198_);fill:#FCFAF1;}
	.st91{clip-path:url(#SVGID_00000080168861522181064910000012040588973614956198_);fill:#080B10;}
	.st92{fill:#8BD2F9;}
	.st93{fill:#F5D0AF;}
	.st94{fill:#D5A479;}
	.st95{fill:none;stroke:#FFFFFF;stroke-miterlimit:10;}
	.st96{clip-path:url(#SVGID_00000158009763494849623840000006713983273990697095_);fill:#8DBCAE;}
	.st97{fill:url(#SVGID_00000070109001672103428390000013906979548103272625_);}
	.st98{clip-path:url(#SVGID_00000036245788227478349900000005797050953564739204_);}
	.st99{opacity:0.53;fill:#EAE3CD;}
	.st100{opacity:0.31;fill:#D77466;}
	.st101{fill:#FCFAF1;}
	.st102{clip-path:url(#SVGID_00000036245788227478349900000005797050953564739204_);fill:#080B10;}
	.st103{fill:#F6F1DA;}
	.st104{fill:#DDD8C6;}
	.st105{fill:#F8E1A0;}
	.st106{fill:#EDEDED;}
	.st107{fill:#646477;}
	.st108{fill:none;stroke:#D77466;stroke-miterlimit:10;}
	.st109{clip-path:url(#SVGID_00000065790174367664415470000005835739218192491916_);fill:#8DBCAE;}
	.st110{fill:url(#SVGID_00000096022908641794250760000003731547056468997035_);}
	.st111{clip-path:url(#SVGID_00000090984626654980711630000007585225510487659948_);}
	.st112{clip-path:url(#SVGID_00000090984626654980711630000007585225510487659948_);fill:#080B10;}
	.st113{fill:none;stroke:#E8E8EF;stroke-width:0.75;stroke-miterlimit:10;}
	.st114{clip-path:url(#SVGID_00000059291330707941361810000005459133984599163541_);fill:#8DBCAE;}
	.st115{clip-path:url(#SVGID_00000129928674935124563410000011394582737006824333_);fill:#8DBCAE;}
	.st116{fill:#4599D6;}
	.st117{fill:#642673;}
	.st118{fill:#BE286F;}
	.st119{clip-path:url(#SVGID_00000065772628103840447570000011967614256323230391_);fill:#8DBCAE;}
	.st120{opacity:0.54;fill:#E8E8EF;}
	.st121{clip-path:url(#SVGID_00000007390755977349232370000014019421053598120592_);fill:#8DBCAE;}
	.st122{fill:#80808B;}
	.st123{clip-path:url(#SVGID_00000070819341635812101610000013134302860522853008_);fill:#8DBCAE;}
	.st124{fill:none;stroke:#B5AFAE;stroke-linecap:round;stroke-linejoin:round;stroke-miterlimit:10;}
</style>
<g id="Background">
</g>
<g id="Content">
	<g>
		<g class="st44">
			<path class="st28" d="M105.38,660.59c13.05-48.28,8.22-101.11-13.01-146.36c-11.85,8.73-25.97,15.85-37.78,22.32
				c-10.36,5.68-21.59,9.85-32.2,14.61c-7.32,3.28-15.06,5.56-22.39,8.81v13.61c3.05-2.19,6.07-4.43,9.01-6.79
				c7.06-5.65,14.54-10.44,24.07-9.11c6.14,0.85,12.22,4.42,8.91,11.45c-4.21,8.95-26.93,16.31-35.97,19.06
				c-2.07,0.63-4.07,1.21-6.03,1.79v17.05c8.38-2.36,16.06-4.33,22.57-5.78c56.17-12.51,71.41,2.46,64.84,14.82
				c-3.26,6.13-12.3,7.29-20.78,6.09c-14.99-2.12-39.53-6.63-66.63-5.34v19.15c10.1-1.06,20.26-1.69,30.38-2.31
				c-8.42,8.47-19.08,14.16-30.38,18.25v140.73c3.2-1.52,6.32-3.25,9.32-5.05C55.99,759.63,91.18,713.1,105.38,660.59z"/>
		</g>
		<g class="st44">
			<path class="st28" d="M55.29,449.06c-1.3-2.8-2.5-5.64-3.59-8.52c-5.51,9.11-10.46,19.49-15.63,33.57
				C42.31,465.63,48.69,457.26,55.29,449.06z"/>
		</g>
		<g class="st44">
			<path class="st28" d="M63.19,503.88c5.03-5.07,10.29-9.75,15.77-14.12c-6.47-10.54-13.34-20.91-19.15-31.69
				c-3.59,2.9-6.94,5.92-9.88,9.14c-8.59,9.42-15.15,20.68-22.34,31.05c-5.81,8.38-10.3,17.61-16.15,26.03
				c-3.61,5.2-7.58,10.59-11.44,16v9.86c4.98-4.04,9.94-8.21,14.22-11.07C31.08,527.81,48.74,518.43,63.19,503.88z"/>
		</g>
		<g class="st44">
			<path class="st28" d="M11.91,477.12c-1.46-31.32-11.89-67.16,3.35-110.29c8.31-23.53,19.66-36.97,35.31-51.95
				c-0.22,11.46,3.53,25.34-19.33,86.99c-10.12,27.29-12.19,36.22-12.3,65.7c-0.03,8.62-0.44,20.84,0.92,30.78
				c10.25-19.58,13.59-34.03,22.48-50.88c2.27-4.31,4.79-8.47,7.41-12.57c-0.68-2.16-1.29-4.35-1.82-6.57
				c-4.73-19.98-2.46-41.06,2.72-60.93c9.37-35.92,27.87-68.67,45.74-101.21c17.87-32.54,35.51-65.92,42.89-102.3
				c7.38-36.38,3.27-76.76-19.22-106.3C92.54,21.41,45,8.96,0,0v530.95c5.21-7.27,10.79-14.84,12.49-23.54
				C14.45,497.39,12.38,487.18,11.91,477.12z"/>
		</g>
		<path class="st45" d="M99.86,379.32c22.7-28.6,42.47-64.06,35.68-99.94c-22.64,7.58-36.64,30.42-44.1,53.1
			c-7.46,22.68-10.43,46.93-20.82,68.43c-5.79,11.98-13.71,22.75-20.87,33.97c0.6,1.91,1.25,3.79,1.95,5.66
			C63.05,421.77,76.78,408.4,99.86,379.32z"/>
		<path class="st45" d="M91.19,435.78c7.88-5.86,38.02-30.73,30.91-43.25c-5.3-10.79-32.2,17.77-35.4,21.02
			c-11.13,11.29-21.51,23.21-31.4,35.52c1.41,3.04,2.92,6.04,4.52,9.01C69.65,450.13,81.28,443.16,91.19,435.78z"/>
		<path class="st45" d="M92.38,514.23c5.91-4.35,11.26-9.11,15.48-14.39c9.24-11.57,22.13-29.76,26.73-43.21
			c-9.11,0.94-20.24,10.17-28.25,14.72c-9.66,5.49-18.79,11.56-27.37,18.41c2.58,4.2,5.09,8.42,7.45,12.71
			C88.53,506.33,90.51,510.25,92.38,514.23z"/>
		<g class="st44">
			<path class="st28" d="M66.63,622.16c8.47,1.2,17.52,0.04,20.78-6.09c6.57-12.36-8.67-27.32-64.84-14.82
				c-6.51,1.45-14.19,3.43-22.57,5.78v9.78C27.1,615.53,51.64,620.04,66.63,622.16z"/>
		</g>
		<path class="st45" d="M66.63,622.16c8.47,1.2,17.52,0.04,20.78-6.09c6.57-12.36-8.67-27.32-64.84-14.82
			c-6.51,1.45-14.19,3.43-22.57,5.78v9.78C27.1,615.53,51.64,620.04,66.63,622.16z"/>
		<g class="st44">
			<path class="st28" d="M42,569.14c3.31-7.03-2.77-10.6-8.91-11.45c-9.53-1.33-17.01,3.46-24.07,9.11
				c-2.94,2.36-5.96,4.59-9.01,6.79v16.41c1.96-0.58,3.96-1.17,6.03-1.79C15.06,585.45,37.78,578.09,42,569.14z"/>
		</g>
		<path class="st45" d="M42,569.14c3.31-7.03-2.77-10.6-8.91-11.45c-9.53-1.33-17.01,3.46-24.07,9.11
			c-2.94,2.36-5.96,4.59-9.01,6.79v16.41c1.96-0.58,3.96-1.17,6.03-1.79C15.06,585.45,37.78,578.09,42,569.14z"/>
		<g class="st44">
			<path class="st28" d="M0,635.97v15.94c11.31-4.09,21.96-9.78,30.38-18.25C20.26,634.28,10.1,634.91,0,635.97z"/>
		</g>
		<path class="st45" d="M0,635.97v15.94c11.31-4.09,21.96-9.78,30.38-18.25C20.26,634.28,10.1,634.91,0,635.97z"/>
		<g class="st44">
			<path class="st28" d="M27.59,498.26c7.19-10.37,13.75-21.63,22.34-31.05c2.94-3.22,6.29-6.25,9.88-9.14
				c-1.6-2.97-3.12-5.96-4.52-9.01c-6.6,8.2-12.98,16.56-19.22,25.05c5.18-14.08,10.12-24.45,15.63-33.57
				c-0.7-1.87-1.35-3.75-1.95-5.66c-2.62,4.11-5.14,8.27-7.41,12.57c-8.89,16.85-12.23,31.3-22.48,50.88
				c-1.36-9.94-0.95-22.16-0.92-30.78c0.11-29.47,2.18-38.4,12.3-65.7c22.85-61.64,19.11-75.53,19.33-86.99
				c-15.65,14.98-27,28.42-35.31,51.95c-15.24,43.13-4.81,78.98-3.35,110.29c0.47,10.06,2.54,20.27,0.58,30.29
				c-1.7,8.7-7.28,16.27-12.49,23.54v9.34c3.86-5.41,7.84-10.8,11.44-16C17.29,515.87,21.78,506.64,27.59,498.26z"/>
		</g>
		<path class="st45" d="M27.59,498.26c7.19-10.37,13.75-21.63,22.34-31.05c2.94-3.22,6.29-6.25,9.88-9.14
			c-1.6-2.97-3.12-5.96-4.52-9.01c-6.6,8.2-12.98,16.56-19.22,25.05c5.18-14.08,10.12-24.45,15.63-33.57
			c-0.7-1.87-1.35-3.75-1.95-5.66c-2.62,4.11-5.14,8.27-7.41,12.57c-8.89,16.85-12.23,31.3-22.48,50.88
			c-1.36-9.94-0.95-22.16-0.92-30.78c0.11-29.47,2.18-38.4,12.3-65.7c22.85-61.64,19.11-75.53,19.33-86.99
			c-15.65,14.98-27,28.42-35.31,51.95c-15.24,43.13-4.81,78.98-3.35,110.29c0.47,10.06,2.54,20.27,0.58,30.29
			c-1.7,8.7-7.28,16.27-12.49,23.54v9.34c3.86-5.41,7.84-10.8,11.44-16C17.29,515.87,21.78,506.64,27.59,498.26z"/>
		<g class="st44">
			<path class="st28" d="M54.6,536.55c11.81-6.47,25.93-13.59,37.78-22.32c-1.87-3.98-3.84-7.9-5.96-11.75
				c-2.36-4.29-4.88-8.51-7.45-12.71c-5.48,4.37-10.74,9.05-15.77,14.12c-14.45,14.54-32.11,23.92-48.97,35.2
				c-4.28,2.86-9.24,7.03-14.22,11.07v9.82c7.33-3.25,15.08-5.53,22.39-8.81C33,546.4,44.24,542.22,54.6,536.55z"/>
		</g>
		<path class="st45" d="M54.6,536.55c11.81-6.47,25.93-13.59,37.78-22.32c-1.87-3.98-3.84-7.9-5.96-11.75
			c-2.36-4.29-4.88-8.51-7.45-12.71c-5.48,4.37-10.74,9.05-15.77,14.12c-14.45,14.54-32.11,23.92-48.97,35.2
			c-4.28,2.86-9.24,7.03-14.22,11.07v9.82c7.33-3.25,15.08-5.53,22.39-8.81C33,546.4,44.24,542.22,54.6,536.55z"/>
	</g>
</g>
</svg>
