<?xml version="1.0" encoding="utf-8"?>
<!-- Generator: Adobe Illustrator 26.5.0, SVG Export Plug-In . SVG Version: 6.00 Build 0)  -->
<svg version="1.1" xmlns="http://www.w3.org/2000/svg" xmlns:xlink="http://www.w3.org/1999/xlink" x="0px" y="0px"
	 viewBox="0 0 231.49 727.78" style="enable-background:new 0 0 231.49 727.78;" xml:space="preserve">
<style type="text/css">
	.st0{opacity:0.51;}
	.st1{fill:#8D8DA5;}
	.st2{opacity:0.8;fill:#ABABBA;}
	.st3{fill:#80A3D0;}
	.st4{fill:#9CB9DB;}
	.st5{fill:#7E9CC7;}
	.st6{fill:#DCBAAF;}
	.st7{fill:#AFA9B9;}
	.st8{fill:#BDB4D3;}
	.st9{fill:#E1BF89;}
	.st10{fill:#F3B186;}
	.st11{fill:#9A827A;}
	.st12{fill:#C3A479;}
	.st13{fill:#D4A594;}
	.st14{fill:#DFB88B;}
	.st15{fill:#CEA887;}
	.st16{fill:#C19977;}
	.st17{fill:#AB8658;}
	.st18{fill:#FFFFFF;}
	.st19{fill:#D77466;}
	.st20{opacity:0.8;fill:#D77466;}
	.st21{fill:none;stroke:#FFFFFF;stroke-width:3;stroke-linecap:round;stroke-linejoin:round;stroke-miterlimit:10;}
	.st22{fill:none;stroke:#D77466;stroke-width:3;stroke-linecap:round;stroke-linejoin:round;stroke-miterlimit:10;}
	.st23{opacity:0.5;fill:none;stroke:#88889F;stroke-miterlimit:10;}
	.st24{fill:#BEBEC9;}
	.st25{opacity:0.5;fill:none;stroke:#88889F;stroke-width:0.5;stroke-miterlimit:10;}
	.st26{fill:#31314F;}
	.st27{opacity:0.09;fill:url(#SVGID_1_);}
	.st28{fill:#275C73;}
	.st29{fill:none;stroke:#275C73;stroke-miterlimit:10;}
	.st30{opacity:0.09;fill:url(#SVGID_00000028313727887052422720000016884404955974768300_);}
	.st31{opacity:0.09;fill:url(#SVGID_00000044162541039087871470000018106564589847321766_);}
	.st32{opacity:0.09;fill:url(#SVGID_00000115495733140295590450000010380958690588171414_);}
	.st33{opacity:0.09;fill:url(#SVGID_00000039826896873390058690000017586732807110869387_);}
	.st34{opacity:0.09;fill:url(#SVGID_00000005963751541378320450000011919714677272520618_);}
	.st35{opacity:0.09;fill:url(#SVGID_00000027562319258505691550000009750794523413833611_);}
	.st36{opacity:0.09;fill:url(#SVGID_00000042707346758769832670000012664652412409435064_);}
	.st37{opacity:0.09;fill:url(#SVGID_00000007401870952572632420000017435333424161070991_);}
	.st38{opacity:0.09;fill:url(#SVGID_00000083809219978588544420000011699982654399266454_);}
	.st39{fill:none;}
	.st40{opacity:0.15;fill:#D77466;}
	.st41{fill:#F5D4C3;}
	.st42{fill:#262C57;}
	.st43{fill:none;stroke:#262C57;stroke-miterlimit:10;}
	.st44{opacity:0.08;}
	.st45{opacity:0.08;fill:#275C73;}
	.st46{opacity:0.08;fill:#D77466;}
	.st47{opacity:0.53;fill:#D77466;}
	.st48{opacity:0.21;fill:#275C73;}
	.st49{fill:#EAE3CD;}
	.st50{fill:none;stroke:#D77466;stroke-width:1.5;stroke-linecap:round;stroke-miterlimit:10;}
	.st51{fill-rule:evenodd;clip-rule:evenodd;fill:#E0E0EB;}
	.st52{fill-rule:evenodd;clip-rule:evenodd;fill:#313151;}
	.st53{fill-rule:evenodd;clip-rule:evenodd;fill:#FFFFFF;}
	.st54{fill-rule:evenodd;clip-rule:evenodd;fill:#B7C9E6;}
	.st55{fill-rule:evenodd;clip-rule:evenodd;fill:#8A8D89;}
	.st56{fill-rule:evenodd;clip-rule:evenodd;fill:#F1EDE1;}
	.st57{fill-rule:evenodd;clip-rule:evenodd;fill:#2F3230;}
	.st58{fill:#F7DC7A;}
	.st59{fill:#E1706C;}
	.st60{fill:#624F2D;}
	.st61{fill:#8DBCAE;}
	.st62{clip-path:url(#SVGID_00000030450883065440751370000011691632261540601503_);fill:#8DBCAE;}
	.st63{fill:#E8E8EF;}
	.st64{fill:none;stroke:#262C57;stroke-linecap:round;stroke-linejoin:round;stroke-miterlimit:10;}
	.st65{fill:none;stroke:#E8E8EF;stroke-miterlimit:10;}
	.st66{fill:none;stroke:#262C57;stroke-width:4;stroke-linecap:round;stroke-miterlimit:10;}
	.st67{fill:none;stroke:#D77466;stroke-width:1.5;stroke-miterlimit:10;}
	.st68{fill:none;stroke:#262C57;stroke-width:1.5;stroke-linecap:round;stroke-linejoin:round;stroke-miterlimit:10;}
	.st69{clip-path:url(#SVGID_00000108306380856406314790000010765816883291929246_);fill:#8DBCAE;}
	.st70{clip-path:url(#SVGID_00000001659588923815387360000003635412927255536036_);fill:#8DBCAE;}
	.st71{opacity:0.09;fill:url(#SVGID_00000174601264675661733540000010784277805528359848_);}
	.st72{fill:url(#SVGID_00000030485188193024627020000001678484183156439967_);}
	.st73{opacity:0.39;clip-path:url(#SVGID_00000064327425450695303360000016176697339701298062_);fill:#D77466;}
	.st74{opacity:0.21;clip-path:url(#SVGID_00000064327425450695303360000016176697339701298062_);fill:#EAE3CD;}
	.st75{clip-path:url(#SVGID_00000064327425450695303360000016176697339701298062_);}
	.st76{fill:#FBF2DC;}
	.st77{clip-path:url(#SVGID_00000064327425450695303360000016176697339701298062_);fill:#DA7466;}
	.st78{clip-path:url(#SVGID_00000064327425450695303360000016176697339701298062_);fill:#080B10;}
	.st79{fill:#DA7466;}
	.st80{fill:none;stroke:#FFFFFF;stroke-linecap:round;stroke-linejoin:round;stroke-miterlimit:10;}
	.st81{fill:#DB5946;}
	.st82{fill:#96C254;}
	.st83{fill:#6C863D;}
	.st84{fill:#F4D2CE;}
	.st85{fill:url(#SVGID_00000101062980475083202580000011823595591585188532_);}
	.st86{opacity:0.22;clip-path:url(#SVGID_00000018238672567280001490000014325671301821947313_);fill:#EAE3CD;}
	.st87{clip-path:url(#SVGID_00000018238672567280001490000014325671301821947313_);}
	.st88{fill:#5A6DD1;}
	.st89{clip-path:url(#SVGID_00000018238672567280001490000014325671301821947313_);fill:#DA7466;}
	.st90{clip-path:url(#SVGID_00000018238672567280001490000014325671301821947313_);fill:#FCFAF1;}
	.st91{clip-path:url(#SVGID_00000018238672567280001490000014325671301821947313_);fill:#080B10;}
	.st92{fill:#8BD2F9;}
	.st93{fill:#F5D0AF;}
	.st94{fill:#D5A479;}
	.st95{fill:none;stroke:#FFFFFF;stroke-miterlimit:10;}
	.st96{clip-path:url(#SVGID_00000172440370248284437100000000259134382365104568_);fill:#8DBCAE;}
	.st97{fill:url(#SVGID_00000137841546609422196250000011238559324929785742_);}
	.st98{clip-path:url(#SVGID_00000087400936279611755500000013084178497124602510_);}
	.st99{opacity:0.53;fill:#EAE3CD;}
	.st100{opacity:0.31;fill:#D77466;}
	.st101{fill:#FCFAF1;}
	.st102{clip-path:url(#SVGID_00000087400936279611755500000013084178497124602510_);fill:#080B10;}
	.st103{fill:#F6F1DA;}
	.st104{fill:#DDD8C6;}
	.st105{fill:#F8E1A0;}
	.st106{fill:#EDEDED;}
	.st107{fill:#646477;}
	.st108{fill:none;stroke:#D77466;stroke-miterlimit:10;}
	.st109{clip-path:url(#SVGID_00000134937946412368863820000015062368312474107790_);fill:#8DBCAE;}
	.st110{fill:url(#SVGID_00000142151888657482905240000003558239497426613686_);}
	.st111{clip-path:url(#SVGID_00000110439425937076698140000011276765772159234465_);}
	.st112{clip-path:url(#SVGID_00000110439425937076698140000011276765772159234465_);fill:#080B10;}
	.st113{fill:none;stroke:#E8E8EF;stroke-width:0.75;stroke-miterlimit:10;}
	.st114{clip-path:url(#SVGID_00000101075290112302307560000000481609637455208889_);fill:#8DBCAE;}
	.st115{clip-path:url(#SVGID_00000134939933198399256520000016097536387628747665_);fill:#8DBCAE;}
	.st116{fill:#4599D6;}
	.st117{fill:#642673;}
	.st118{fill:#BE286F;}
	.st119{clip-path:url(#SVGID_00000170244343537462469500000013712810595171992473_);fill:#8DBCAE;}
	.st120{opacity:0.54;fill:#E8E8EF;}
	.st121{clip-path:url(#SVGID_00000054946788245301143370000001575499092575167386_);fill:#8DBCAE;}
	.st122{fill:#80808B;}
	.st123{clip-path:url(#SVGID_00000039112613193873618510000010006176673842522556_);fill:#8DBCAE;}
	.st124{fill:none;stroke:#B5AFAE;stroke-linecap:round;stroke-linejoin:round;stroke-miterlimit:10;}
</style>
<g id="Background">
</g>
<g id="Content">
	<g>
		<g class="st44">
			<path class="st19" d="M151.07,294.49c-6.37-12.91-12.5-25.94-18.35-39.09c-0.54-1.21-1.22-2.59-1.96-4.06
				c-15.48-23.44-31.78-50.89-44.17-88.36c-2.74-8.29-4.88-16.64-6.58-25.04c-8.2,8.41-15.46,17.69-21.42,27.98
				c-8.89,15.34-14.56,32.42-17.37,49.94c19.55,6.2,38.43,15.43,52.16,22.96C121.03,253.98,132.36,265.25,151.07,294.49z"/>
		</g>
		<g class="st44">
			<path class="st19" d="M105.28,331.07c22.09-1.2,44.17-1.73,65.78,1.95c-4.98-9.14-9.82-18.34-14.53-27.62
				c-0.1-0.19-0.19-0.39-0.29-0.58c-9.24-3.59-18.51-7.39-27.54-11.44c-18.51-8.29-39.34-6.37-57.21-19.05
				c-12.19-8.64-22.33-16.44-32.26-26.76c0.39,12.35,2.11,24.66,5.14,36.64c10.05,6.81,19.32,14.36,26.64,20.74
				C82.24,314.76,93.45,323.32,105.28,331.07z"/>
		</g>
		<g class="st44">
			<path class="st19" d="M161.89,373.56c-15-4.96-31.11-8.93-46.77-14.01c-3.78,1.37-7.79,2.79-12.07,4.25
				c-5.2,1.77-9.98,2.95-14.53,3.59c21.38,28.09,45.28,54.85,61.45,86.13c28.21,54.54,30.83,118.15,43.49,178.24
				c7.04,33.41,19.03,67.91,38.02,96.02V439.34c-8.52-14.9-17.04-29.81-25.56-44.71C190.27,386.25,168.83,375.86,161.89,373.56z"/>
		</g>
		<g class="st44">
			<path class="st19" d="M117.34,108.52c5.42,19.79,8.84,40.07,10.48,60.72c1.36,17.25,2.4,54.78,6.11,79.98
				c8.58,21.95,31.52,64.78,54.51,106.3c-11.56-34.13-10.79-88.94-6.22-112.88c7.18-37.57,23.14-71.99,33.52-108.5
				c9.61,15.1-1.31,51.04-3.36,67.77c-2.4,19.62-3.12,39.39-4.69,59.08c-2.89,36.11-5.54,38.85-9.89,56.66
				c-3.94,16.09-6.45,36.17-6.96,42.19c12.33,22.22,24.52,43.83,34.37,61.41c2.1,3.75,4.2,6.15,6.3,7.46V60.96
				c-22.73,6.72-45.04,14.84-66.6,23.71C148.61,91.37,132.41,99.18,117.34,108.52z"/>
		</g>
		<g class="st44">
			<path class="st19" d="M171.6,334.02c-6.83,3.7-16.11,9.09-32.62,16.16c27.15,13.42,48.18,24.74,65.86,42.56
				c-4.01-7.02-8.03-14.04-12.04-21.07C185.65,359.17,178.51,346.66,171.6,334.02z"/>
		</g>
		<path class="st46" d="M117.34,108.52c-3.59-13.11-8.05-26-13.49-38.64C95.19,49.73,81.38,14.09,64.86,0
			c-0.94,10.56,2.66,19.84,4.52,30.05C71.01,38.96,70.72,48,71.44,57c2.16,27.18,3.17,54.29,8.58,80.95
			C91,126.68,103.7,116.97,117.34,108.52z"/>
		<path class="st46" d="M39.97,225.39c0.32-3.19,0.75-6.36,1.25-9.53c-10.07-3.2-20.32-5.59-30.13-6.52
			c7.48,12.23,11.06,19.15,23.35,33.06c1.59,1.8,3.18,3.52,4.78,5.18C38.99,240.18,39.23,232.76,39.97,225.39z"/>
		<path class="st46" d="M44.37,284.21c-14.33-9.7-30.25-17.9-44.37-19.03c22.53,20.97,40.66,49.08,64.74,68.72
			c-19.2,3.19-36.96,11.77-56.13,12.61c12.71,6.62,29.25,7.07,42.87,13.7c13.12,6.4,24.14,9,37.04,7.18
			c-14.63-19.22-28.08-39.07-37.09-61.42C48.58,298.89,46.24,291.61,44.37,284.21z"/>
		<g class="st44">
			<g>
				<path class="st19" d="M225.19,421.25c-9.85-17.58-22.04-39.19-34.37-61.41c0.51-6.02,3.02-26.1,6.96-42.19
					c4.36-17.81,7.01-20.55,9.89-56.66c1.57-19.69,2.29-39.46,4.69-59.08c2.05-16.73,12.97-52.67,3.36-67.77
					c-10.37,36.51-26.34,70.93-33.52,108.5c-4.57,23.95-5.34,78.75,6.22,112.88c-22.99-41.52-45.93-84.35-54.51-106.3
					c-3.7-25.2-4.74-62.73-6.11-79.98c-1.63-20.66-5.05-40.93-10.48-60.72c-13.63,8.45-26.33,18.15-37.32,29.42
					c1.7,8.39,3.83,16.74,6.58,25.04c12.4,37.47,28.7,64.92,44.17,88.36c0.74,1.47,1.42,2.85,1.96,4.06
					c5.85,13.15,11.98,26.18,18.35,39.09c-18.71-29.23-30.04-40.5-57.69-55.66c-13.74-7.53-32.61-16.76-52.16-22.96
					c-0.51,3.17-0.93,6.34-1.25,9.53c-0.74,7.37-0.98,14.78-0.74,22.19c9.93,10.31,20.07,18.12,32.26,26.76
					c17.87,12.67,38.71,10.75,57.21,19.05c9.04,4.05,18.3,7.85,27.54,11.44c0.1,0.19,0.19,0.39,0.29,0.58
					c4.71,9.28,9.56,18.48,14.53,27.62c-21.61-3.68-43.69-3.15-65.78-1.95c-11.83-7.75-23.05-16.31-34.28-26.12
					c-7.31-6.38-16.58-13.93-26.64-20.74c1.87,7.4,4.22,14.68,7.07,21.76c9,22.35,22.46,42.2,37.09,61.42
					c4.55-0.64,9.33-1.82,14.53-3.59c4.29-1.46,8.29-2.88,12.07-4.25c15.66,5.09,31.77,9.05,46.77,14.01
					c6.94,2.29,28.38,12.69,44.04,21.07c8.52,14.9,17.04,29.81,25.56,44.71v-10.63C229.39,427.4,227.29,424.99,225.19,421.25z
					 M138.98,350.17c16.51-7.06,25.79-12.45,32.62-16.16c6.9,12.64,14.05,25.15,21.2,37.66c4.02,7.02,8.03,14.04,12.04,21.07
					C187.16,374.92,166.13,363.59,138.98,350.17z"/>
			</g>
		</g>
		<path class="st46" d="M225.19,421.25c-9.85-17.58-22.04-39.19-34.37-61.41c0.51-6.02,3.02-26.1,6.96-42.19
			c4.36-17.81,7.01-20.55,9.89-56.66c1.57-19.69,2.29-39.46,4.69-59.08c2.05-16.73,12.97-52.67,3.36-67.77
			c-10.37,36.51-26.34,70.93-33.52,108.5c-4.57,23.95-5.34,78.75,6.22,112.88c-22.99-41.52-45.93-84.35-54.51-106.3
			c-3.7-25.2-4.74-62.73-6.11-79.98c-1.63-20.66-5.05-40.93-10.48-60.72c-13.63,8.45-26.33,18.15-37.32,29.42
			c1.7,8.39,3.83,16.74,6.58,25.04c12.4,37.47,28.7,64.92,44.17,88.36c0.74,1.47,1.42,2.85,1.96,4.06
			c5.85,13.15,11.98,26.18,18.35,39.09c-18.71-29.23-30.04-40.5-57.69-55.66c-13.74-7.53-32.61-16.76-52.16-22.96
			c-0.51,3.17-0.93,6.34-1.25,9.53c-0.74,7.37-0.98,14.78-0.74,22.19c9.93,10.31,20.07,18.12,32.26,26.76
			c17.87,12.67,38.71,10.75,57.21,19.05c9.04,4.05,18.3,7.85,27.54,11.44c0.1,0.19,0.19,0.39,0.29,0.58
			c4.71,9.28,9.56,18.48,14.53,27.62c-21.61-3.68-43.69-3.15-65.78-1.95c-11.83-7.75-23.05-16.31-34.28-26.12
			c-7.31-6.38-16.58-13.93-26.64-20.74c1.87,7.4,4.22,14.68,7.07,21.76c9,22.35,22.46,42.2,37.09,61.42
			c4.55-0.64,9.33-1.82,14.53-3.59c4.29-1.46,8.29-2.88,12.07-4.25c15.66,5.09,31.77,9.05,46.77,14.01
			c6.94,2.29,28.38,12.69,44.04,21.07c8.52,14.9,17.04,29.81,25.56,44.71v-10.63C229.39,427.4,227.29,424.99,225.19,421.25z
			 M138.98,350.17c16.51-7.06,25.79-12.45,32.62-16.16c6.9,12.64,14.05,25.15,21.2,37.66c4.02,7.02,8.03,14.04,12.04,21.07
			C187.16,374.92,166.13,363.59,138.98,350.17z"/>
	</g>
</g>
</svg>
