<?xml version="1.0" encoding="utf-8"?>
<!-- Generator: Adobe Illustrator 26.5.0, SVG Export Plug-In . SVG Version: 6.00 Build 0)  -->
<svg version="1.1" id="Capa_1" xmlns="http://www.w3.org/2000/svg" xmlns:xlink="http://www.w3.org/1999/xlink" x="0px" y="0px"
	 viewBox="0 0 348.88 60.12" style="enable-background:new 0 0 348.88 60.12;" xml:space="preserve">
<style type="text/css">
	.st0{fill:#CB6D61;}
</style>
<g id="Background">
</g>
<g>
	<path class="st0" d="M103.87,30.2c-0.62,0.55-1.31,1.17-1.99,1.72c-0.14,0.07-0.34,0.21-0.48,0.34c-0.07,0.07-0.07,0.07-0.14,0.14
		l-0.21,0.14c-0.34,0.27-0.69,0.55-1.03,0.76c-1.44,1.03-2.88,2.06-4.33,2.95c-1.17,0.76-2.34,1.58-3.5,2.27
		c-1.1,0.69-2.13,1.31-3.23,1.79c-0.76,0.27-1.58,0.62-2.34,0.41c-0.76-0.21-1.03-1.17-1.03-1.85c0-0.82,0.21-1.72,0.48-2.47
		c0.07-0.21,0.14-0.41,0.21-0.62c0,0,0.21,0,0.41,0c0.82,0.07,2.82-0.14,4.53-1.72c0.62-0.62,1.1-1.37,1.24-2.2
		c0.27-1.99-1.92-3.16-3.57-2.75c-0.96,0.2-1.77,0.67-2.47,1.29c-1.8,1.08-5.58,3.51-6.8,4.41c-1.85,1.24-3.71,2.54-5.56,3.85h-0.07
		l-2.13,1.51l-0.62,0.41l-0.27,0.14l-0.55,0.41l-0.55,0.41c0-0.14,0.14-0.41,0.34-0.76c0,0,0-0.07,0.07-0.14c0,0,0,0,0-0.07
		c0.21-0.34,0.41-0.62,0.41-0.62c0.48-0.75,0.96-1.51,1.44-2.27c0.96-1.58,1.92-3.09,2.82-4.67c0.41-0.69,0.69-1.37,0.69-2.06
		c0-0.96-0.76-1.51-1.79-1.31c-0.48,0.14-1.03,0.34-1.44,0.55c-0.76,0.41-1.58,0.89-2.27,1.37c-1.79,1.37-3.64,2.82-5.43,4.19
		c-0.21,0.14-0.41,0.27-0.62,0.41c0-0.21,0.14-0.41,0.21-0.62c0.34-0.89,0.82-1.85,1.1-2.75c0.48-1.65-0.82-2.4-2.47-1.51
		c-0.55,0.27-1.1,0.69-1.65,1.1c-1.31,1.1-2.68,2.2-3.98,3.37c-0.14,0.07-0.27,0.21-0.55,0.41c0.34-0.82,0.62-1.51,0.96-2.2
		c0.14-0.41,0.34-0.89,0.55-1.31c0.07-0.21,0.14-0.34,0.27-0.55c0.21-0.48,0.41-1.17,0.48-1.72c0-0.34-0.21-0.76-0.55-0.89
		c-0.84-0.54-1.69,0.13-1.88,0.3c-0.06,0.01-0.11,0.02-0.18,0.04c-0.34,0.07-0.69,0.21-1.03,0.34c-1.1,0.48-2.2,0.96-3.3,1.44
		c-1.65,0.76-3.37,1.24-5.22,1.51c-0.14,0.07-0.34,0.07-0.55,0.07c-0.07,0-0.14,0-0.21,0.07c-0.27,0-0.48,0-0.76,0
		c-0.14-0.62-0.27-0.96-0.27-1.03c-0.07-0.21-0.21-0.41-0.34-0.62c-0.21-0.21-0.41-0.41-0.76-0.48c-0.21-0.14-0.21-0.27-0.27-0.41
		c-0.14-0.48-0.41-0.82-0.89-0.96c-0.14-0.07-0.27-0.14-0.41-0.14c-0.82-0.14-1.51,0-1.79,0.14c-2.41,0.8-4.32,3.53-5.44,5.51
		c-1.03,1.03-2.05,2.05-3.08,3.08c-1.37,1.37-2.68,2.75-4.05,4.12c-0.62,0.62-1.24,1.24-1.85,1.85c-2.95,2.89-5.98,5.56-9.2,8.04
		c-1.72,1.24-3.37,2.4-5.22,3.3c-1.31,0.62-2.68,1.17-4.12,1.24c-0.55,0-1.1,0-1.65-0.14c-0.96-0.27-1.65-1.1-2.13-2.06
		c-0.55-1.03-0.82-2.2-1.03-3.37c-0.27-1.79-0.21-3.64-0.07-5.5c0.21-2.75,0.76-5.43,1.58-8.04c1.44-4.81,3.3-9.27,5.56-13.53
		c3.37-6.59,7.49-12.43,12.5-17.31c1.24-1.17,2.47-2.33,3.92-3.16c0.55-0.27,1.03-0.48,1.58-0.62c0.96-0.21,1.58,0.14,2.13,1.17
		c0.48,0.76,0.55,1.58,0.62,2.47c0,0.62-0.07,1.17-0.07,1.72c0.07,0.89,0.55,1.65,1.24,1.72c0.76,0.14,1.37-0.41,1.37-1.3
		c0.14-1.24,0.14-2.47-0.14-3.71c-0.14-0.82-0.41-1.65-0.76-2.33c-1.24-2.27-3.09-3.3-5.15-2.82c-1.1,0.21-2.06,0.82-3.02,1.44
		c-1.37,0.96-2.61,2.06-3.85,3.3C11.49,13.78,5.24,24.91,1.39,38.17c-0.96,3.5-1.51,7.14-1.37,10.92c0.07,2.27,0.41,4.4,1.31,6.46
		c0.69,1.58,1.65,2.89,2.95,3.71c1.24,0.75,2.54,0.96,3.85,0.82c1.99-0.21,3.85-0.96,5.63-1.92c2.54-1.37,4.95-3.16,7.21-5.08
		c3.98-3.3,7.69-6.87,11.4-10.58c0.43-0.45,0.87-0.89,1.3-1.34c0.28,1.68,1.52,2.86,3.37,2.98c1.72,0.14,3.23-0.41,4.6-1.44
		c1.44-1.1,2.54-2.47,3.16-4.19c0.21-0.41,0.34-0.82,0.48-1.31c0-0.07,0.07-0.21,0.07-0.34c0.07-0.34,0.14-0.69,0.14-1.03
		c0.96,0,1.65-0.14,1.65-0.14c2.47-0.34,4.95-1.17,7.21-2.27c0.27-0.13,0.54-0.28,0.81-0.43c-0.63,1.4-1.23,2.88-1.29,3.04
		c-0.62,1.31-1.17,2.54-1.72,3.78c-0.34,0.82-0.76,1.58-1.03,2.4c-0.27,0.69,0,1.24,0.62,1.44c0.55,0.21,1.24,0,1.85-0.55
		c0.14-0.14,0.27-0.27,0.41-0.41c1.92-2.47,4.33-4.53,6.73-6.59c0.07-0.07,0.21-0.14,0.41-0.27c-0.07,0.14-0.14,0.27-0.14,0.34
		c-0.62,1.1-1.31,2.27-1.85,3.37c-0.27,0.55-0.55,1.03-0.76,1.58c-0.27,0.75-0.07,1.37,0.55,1.65c0.62,0.27,1.31,0.07,1.92-0.48
		c0.41-0.27,0.76-0.55,1.1-0.89c2.68-2.47,5.56-4.81,8.52-7.01c0.27-0.21,0.62-0.41,0.89-0.55c-0.21,0.48-0.48,0.89-0.69,1.31
		c-1.17,1.79-2.27,3.57-3.37,5.43c-0.48,0.69-0.76,1.44-0.89,2.2c-0.21,1.1,0.27,1.79,1.24,1.92c2.2,0.34,5.98-2.06,5.98-2.06
		c0.76-0.48,1.44-0.96,2.13-1.44c2.27-1.58,4.53-3.23,6.8-4.81l0.69-0.47c-0.55,1.64-0.86,3.39-0.35,5.01
		c0.76,2.47,3.57,2.88,5.84,2.27c2.61-0.76,4.95-2.4,7.21-3.91c1.58-1.03,3.09-1.99,4.6-3.09c1.79-1.24,3.57-2.61,5.22-4.12
		c0.55-0.48,0.48-1.44,0-1.85C105.25,29.65,104.42,29.65,103.87,30.2z M42.67,34.87c-0.14,2.4-1.03,4.33-3.09,5.77
		c-0.62,0.41-1.31,0.62-2.06,0.62c-0.69,0-0.96-0.21-0.96-0.96c-0.07-0.41,0-0.89,0.14-1.31c0.15-0.51,0.33-1,0.52-1.47
		c1.06-1.09,2.13-2.18,3.19-3.27c0.41-0.41,0.82-0.82,1.17-1.31c0.06-0.07,0.11-0.15,0.16-0.23c0.06,0.68,0.37,1.18,0.8,1.67
		C42.67,34.46,42.74,34.73,42.67,34.87z M88.56,32.26c0,0,0.06-0.05,0.13-0.14c0.23-0.16,0.48-0.29,0.76-0.34
		c0.07,0,0.07,0,0.07,0.07c-0.27,0.21-0.55,0.41-0.76,0.69c-0.07,0-0.14,0.07-0.14,0.07c-0.14,0.07-0.21,0.14-0.34,0.21
		c-0.07,0.07-0.21,0.14-0.27,0.21c-0.07,0-0.21,0.07-0.27,0.14c0,0,0,0-0.07,0c0.2-0.25,0.41-0.5,0.64-0.72L88.56,32.26z"/>
	<path class="st0" d="M201.47,29.79c-0.21,0-0.34,0-0.55,0.07c-0.34,0.07-0.69,0.21-1.03,0.34c-1.1,0.48-2.2,0.96-3.3,1.44
		c-1.65,0.76-3.37,1.24-5.22,1.51c-0.14,0.07-0.34,0.07-0.55,0.07c-0.07,0-0.14,0-0.21,0.07c-0.27,0-0.48,0-0.76,0
		c-0.14-0.62-0.27-0.96-0.27-1.03c-0.07-0.21-0.21-0.41-0.34-0.62c-0.21-0.21-0.41-0.41-0.76-0.48c-0.21-0.14-0.21-0.27-0.27-0.41
		c-0.14-0.48-0.41-0.82-0.89-0.96c-0.14-0.07-0.27-0.14-0.41-0.14c-0.82-0.14-1.51,0-1.79,0.14c-1.02,0.34-1.94,1.02-2.76,1.84
		c-1.81,1.15-3.94,2.53-4.8,3.17c-1.85,1.24-3.71,2.54-5.56,3.85h-0.07l-2.13,1.51l-0.62,0.41l-0.27,0.14l-0.55,0.41l-0.55,0.41
		c0-0.14,0.14-0.41,0.34-0.76c0,0,0-0.07,0.07-0.14c0,0,0,0,0-0.07c0.21-0.34,0.41-0.62,0.41-0.62c0.48-0.75,0.96-1.51,1.44-2.27
		c0.96-1.58,1.92-3.09,2.82-4.67c0.41-0.69,0.69-1.37,0.69-2.06c0-0.96-0.76-1.51-1.79-1.31c-0.48,0.14-1.03,0.34-1.44,0.55
		c-0.76,0.41-1.58,0.89-2.27,1.37c-1.79,1.37-3.64,2.82-5.43,4.19c-0.21,0.14-0.41,0.27-0.62,0.41c0-0.21,0.14-0.41,0.21-0.62
		c0.34-0.89,0.82-1.85,1.1-2.75c0.48-1.65-0.82-2.4-2.47-1.51c-0.55,0.27-1.1,0.69-1.65,1.1c-1.31,1.1-2.68,2.2-3.98,3.37
		c-0.14,0.07-0.27,0.21-0.55,0.41c0.34-0.82,0.62-1.51,0.96-2.2c0.14-0.41,0.34-0.89,0.55-1.31c0.07-0.21,0.14-0.34,0.27-0.55
		c0.21-0.48,0.41-1.17,0.48-1.72c0-0.34-0.21-0.76-0.55-0.89c-0.84-0.54-1.69,0.13-1.88,0.3c-0.06,0.01-0.11,0.02-0.18,0.04
		c-0.34,0.07-0.69,0.21-1.03,0.34c-1.1,0.48-2.2,0.96-3.3,1.44c-1.65,0.76-3.37,1.24-5.22,1.51c-0.14,0.07-0.34,0.07-0.55,0.07
		c-0.07,0-0.14,0-0.21,0.07c-0.27,0-0.48,0-0.76,0c-0.14-0.62-0.27-0.96-0.27-1.03c-0.07-0.21-0.21-0.41-0.34-0.62
		c-0.21-0.21-0.41-0.41-0.76-0.48c-0.21-0.14-0.21-0.27-0.27-0.41c-0.14-0.48-0.41-0.82-0.89-0.96c-0.14-0.07-0.27-0.14-0.41-0.14
		c-0.82-0.14-1.51,0-1.79,0.14c-1.64,0.55-3.04,1.98-4.13,3.47c-0.02,0.01-0.04,0.03-0.06,0.04c-1.37,1.03-2.82,2.06-4.26,2.95
		c-1.17,0.76-2.34,1.58-3.57,2.27c-1.03,0.69-2.06,1.31-3.23,1.79c-0.69,0.27-1.51,0.62-2.34,0.41c-0.69-0.21-0.96-1.17-0.96-1.85
		c0-0.82,0.21-1.72,0.48-2.47c0.34-0.96,0.76-1.92,1.31-2.82c0.48-0.76,1.1-1.65,2.06-1.79c0.14,0.14,0.21,0.21,0.27,0.34
		c0.41,0.48,0.96,0.62,1.51,0.48c0.55-0.21,0.96-0.69,1.03-1.31c0-0.69-0.21-1.24-0.76-1.65c-0.41-0.27-0.82-0.48-1.31-0.62h-0.07
		c-0.07,0-0.07,0-0.07-0.07c-1.72-0.21-3.43,1.24-3.64,1.37c-1.03,0.89-1.72,2.13-2.27,3.3c-0.96,2.2-2.06,4.88-1.31,7.28
		c0.82,2.47,3.64,2.88,5.84,2.27c2.68-0.76,5.01-2.4,7.28-3.91c0.46-0.32,0.94-0.62,1.41-0.93c-0.17,0.75-0.25,1.49-0.25,2.24
		c0.07,1.99,1.37,3.43,3.43,3.57c1.72,0.14,3.23-0.41,4.6-1.44c1.44-1.1,2.54-2.47,3.16-4.19c0.21-0.41,0.34-0.82,0.48-1.31
		c0-0.07,0.07-0.21,0.07-0.34c0.07-0.34,0.14-0.69,0.14-1.03c0.96,0,1.65-0.14,1.65-0.14c2.47-0.34,4.95-1.17,7.21-2.27
		c0.27-0.13,0.54-0.28,0.81-0.43c-0.63,1.4-1.23,2.88-1.29,3.04c-0.62,1.31-1.17,2.54-1.72,3.78c-0.34,0.82-0.76,1.58-1.03,2.4
		c-0.27,0.69,0,1.24,0.62,1.44c0.55,0.21,1.24,0,1.85-0.55c0.14-0.14,0.27-0.27,0.41-0.41c1.92-2.47,4.33-4.53,6.73-6.59
		c0.07-0.07,0.21-0.14,0.41-0.27c-0.07,0.14-0.14,0.27-0.14,0.34c-0.62,1.1-1.31,2.27-1.85,3.37c-0.27,0.55-0.55,1.03-0.76,1.58
		c-0.27,0.75-0.07,1.37,0.55,1.65c0.62,0.27,1.31,0.07,1.92-0.48c0.41-0.27,0.76-0.55,1.1-0.89c2.68-2.47,5.56-4.81,8.52-7.01
		c0.27-0.21,0.62-0.41,0.89-0.55c-0.21,0.48-0.48,0.89-0.69,1.31c-1.17,1.79-2.27,3.57-3.37,5.43c-0.48,0.69-0.76,1.44-0.89,2.2
		c-0.21,1.1,0.27,1.79,1.24,1.92c2.2,0.34,5.98-2.06,5.98-2.06c0.76-0.48,1.44-0.96,2.13-1.44c1.59-1.11,3.19-2.25,4.78-3.38
		c-0.27,0.92-0.39,1.84-0.39,2.76c0.07,1.99,1.37,3.43,3.43,3.57c1.72,0.14,3.23-0.41,4.6-1.44c1.44-1.1,2.54-2.47,3.16-4.19
		c0.21-0.41,0.34-0.82,0.48-1.31c0-0.07,0.07-0.21,0.07-0.34c0.07-0.34,0.14-0.69,0.14-1.03c0.96,0,1.65-0.14,1.65-0.14
		c2.47-0.34,4.95-1.17,7.21-2.27c0.82-0.41,1.65-0.89,2.47-1.37c0.27-0.14,0.55-0.34,0.69-0.62c0.14-0.27,0.14-0.62,0.07-0.96
		C202.02,30.13,201.81,29.86,201.47,29.79z M140.62,34.87c-0.14,2.4-1.03,4.33-3.09,5.77c-0.62,0.41-1.31,0.62-2.06,0.62
		c-0.69,0-0.96-0.21-0.96-0.96c-0.07-0.41,0-0.89,0.14-1.31c0.44-1.47,1.07-2.79,1.93-3.98c1.06-0.78,2.09-1.61,3.09-2.49
		c0.01,0.79,0.35,1.34,0.82,1.87C140.62,34.46,140.69,34.73,140.62,34.87z M187.18,34.87c-0.14,2.4-1.03,4.33-3.09,5.77
		c-0.62,0.41-1.31,0.62-2.06,0.62c-0.69,0-0.96-0.21-0.96-0.96c-0.07-0.41,0-0.89,0.14-1.31c0.57-1.9,1.46-3.56,2.78-5l2.2-1.52
		c0.01,0,0.02-0.01,0.03-0.01c0,0.82,0.34,1.37,0.82,1.92C187.18,34.46,187.25,34.73,187.18,34.87z"/>
	<path class="st0" d="M259.3,29.79c-0.48,0.27-6.11,3.85-7.69,5.02c-1.85,1.24-3.71,2.54-5.56,3.85h-0.07l-2.13,1.51l-0.62,0.41
		l-0.27,0.14l-0.55,0.41l-0.62,0.41c0.07-0.14,0.21-0.41,0.34-0.76c0.07,0,0.07-0.07,0.07-0.14c0.07,0,0.07,0,0.07-0.07
		c0.21-0.34,0.41-0.62,0.41-0.62c0.48-0.75,0.96-1.51,1.44-2.27c0.96-1.58,1.92-3.09,2.82-4.67c0.41-0.69,0.69-1.37,0.69-2.06
		c0-0.96-0.76-1.51-1.79-1.31c-0.48,0.14-1.03,0.34-1.44,0.55c-0.82,0.41-1.58,0.89-2.27,1.37c-0.82,0.62-1.65,1.24-2.4,1.85
		l-4.74,3.71c0.34-0.89,0.76-1.79,1.17-2.61c0.34-0.89,0.76-1.79,1.1-2.61c0.01-0.01,0.01-0.02,0.01-0.03
		c0.11-0.15,0.18-0.32,0.21-0.5c0.07-0.21,0.12-0.41,0.12-0.64c0-0.34-0.07-0.62-0.34-0.89c-0.07-0.07-0.14-0.14-0.27-0.21
		c-0.55-0.27-1.51-0.21-1.85,0.48c-0.03,0.07-0.06,0.14-0.09,0.21c-0.58,0.51-1.2,1.07-1.83,1.57c-0.14,0.07-0.34,0.21-0.48,0.34
		c-0.07,0.07-0.07,0.07-0.14,0.14l-0.21,0.14c-0.34,0.27-0.69,0.55-1.03,0.76c-1.44,1.03-2.88,2.06-4.33,2.95
		c-1.17,0.76-2.34,1.58-3.5,2.27c-1.1,0.69-2.13,1.31-3.23,1.79c-0.76,0.27-1.58,0.62-2.34,0.41c-0.76-0.21-1.03-1.17-1.03-1.85
		c0-0.82,0.21-1.72,0.48-2.47c0.07-0.21,0.14-0.41,0.21-0.62c0,0,0.21,0,0.41,0c0.82,0.07,2.82-0.14,4.53-1.72
		c0.62-0.62,1.1-1.37,1.24-2.2c0.27-1.99-1.92-3.16-3.57-2.75c-2.34,0.48-3.85,2.54-4.74,4.53c-0.96,2.2-1.99,4.88-1.24,7.28
		c0.76,2.47,3.57,2.88,5.84,2.27c2.61-0.76,4.95-2.4,7.21-3.91c1.58-1.03,3.09-1.99,4.6-3.09c0.27-0.19,0.53-0.4,0.8-0.59
		c-0.13,0.29-0.26,0.57-0.39,0.87l-1.92,4.4c0,0-0.34,1.03,0.07,1.51c0.14,0.21,0.27,0.27,0.48,0.41c0.62,0.27,1.31,0.07,1.92-0.48
		c0.34-0.27,0.69-0.55,1.03-0.89c2.75-2.47,5.63-4.81,8.59-7.01c0.27-0.21,0.55-0.41,0.82-0.55c-0.14,0.48-0.41,0.89-0.62,1.31
		c-1.17,1.79-2.27,3.57-3.43,5.43c-0.41,0.69-0.69,1.44-0.82,2.2c-0.21,1.1,0.27,1.79,1.24,1.92c2.13,0.34,5.98-2.06,5.98-2.06
		c0.76-0.48,1.44-0.96,2.13-1.44c2.27-1.58,4.53-3.23,6.8-4.81l5.98-4.12c0,0,0.96-0.82,0.27-1.85
		C260.26,29.65,259.51,29.79,259.3,29.79z M220.77,31.78c0.07,0,0.07,0,0.07,0.07c-0.27,0.21-0.55,0.41-0.76,0.69
		c-0.07,0-0.14,0.07-0.14,0.07c-0.14,0.07-0.21,0.14-0.34,0.21c-0.07,0.07-0.21,0.14-0.27,0.21c-0.07,0-0.21,0.07-0.27,0.14
		c0,0,0,0-0.07,0C219.46,32.54,220.01,31.92,220.77,31.78z"/>
	<path class="st0" d="M348.52,30.2c-0.55-0.55-1.37-0.55-1.92,0c-2.54,2.47-5.01,4.95-7.69,7.28c-1.31,1.1-2.54,2.2-3.98,3.16
		c-0.27,0.14-0.55,0.34-0.82,0.48c-1.1,0.48-0.96-0.96-0.82-1.58c0.14-1.1,0.41-2.13,0.76-3.16c0.27-1.03,0.62-1.99,0.96-3.02
		c0.34-1.03,0.34-1.99-0.34-2.75c-0.14-0.07-0.14-0.27-0.21-0.41c-0.27-2.2-2.75-2.13-4.05-1.72c-1.92,0.62-3.57,1.85-4.74,3.57
		c0,0.01-0.01,0.01-0.01,0.02c-0.29,0.25-0.58,0.5-0.88,0.74c-0.48,0.41-1.03,0.82-1.51,1.24c-0.27,0.21-0.48,0.41-0.76,0.62
		c-0.14,0.07-0.27,0.21-0.41,0.27c-0.07,0.07-0.14,0.14-0.21,0.21c-0.07,0-0.07,0-0.07,0.07c-2.13,1.58-4.33,3.16-6.53,4.67
		c-0.14,0.14-0.34,0.27-0.55,0.41c-0.07-0.07-0.07-0.14-0.07-0.21c-0.27-0.69-1.17-2.75-1.37-3.37c-0.21-0.48-0.41-1.03-0.62-1.58
		c-0.07-0.34-0.14-0.82-0.07-1.24c0.02-0.08,0.05-0.16,0.07-0.24c0.48-0.47,0.96-0.93,1.44-1.41c0.32-0.04,0.65,0.01,0.97,0.2
		c0.07,0,0.07,0.07,0.14,0.07l0.07,0.07c0.21,0.14,1.03,0.75,2.13-0.34c0.76-0.75,0.48-1.44,0-1.92c-1.51-1.37-4.26-1.17-5.7,0.27
		c-0.51,0.47-0.9,0.95-1.2,1.43c-1.9,1.85-3.79,3.68-5.8,5.44c-1.31,1.1-2.54,2.2-3.98,3.16c-0.27,0.14-0.55,0.34-0.82,0.48
		c-1.1,0.48-0.96-0.96-0.82-1.58c0.14-1.1,0.41-2.13,0.76-3.16c0.27-1.03,0.62-1.99,0.96-3.02c0.34-1.03,0.34-1.99-0.34-2.75
		c-0.14-0.07-0.14-0.27-0.21-0.41c-0.27-2.2-2.75-2.13-4.05-1.72c-1.84,0.59-3.43,1.76-4.58,3.36c-0.03,0.02-0.06,0.05-0.08,0.07
		c-0.21,0.07-0.34,0.21-0.48,0.34c-0.07,0.07-0.14,0.07-0.14,0.14c-0.07,0-0.21,0.14-0.21,0.14c-0.34,0.27-0.69,0.55-1.1,0.76
		c-1.37,1.03-2.82,2.06-4.26,2.95c-1.17,0.76-2.34,1.58-3.57,2.27c-1.03,0.69-2.06,1.31-3.23,1.79c-0.69,0.27-1.51,0.62-2.34,0.41
		c-0.69-0.21-0.96-1.17-0.96-1.85c0-0.82,0.21-1.72,0.48-2.47c0.34-0.96,0.76-1.92,1.31-2.82c0.48-0.76,1.1-1.65,2.06-1.79
		c0.14,0.14,0.21,0.21,0.27,0.34c0.41,0.48,0.96,0.62,1.51,0.48c0.55-0.21,0.96-0.69,1.03-1.31c0-0.69-0.21-1.24-0.76-1.65
		c-0.41-0.27-0.82-0.48-1.31-0.62h-0.07c-0.07,0-0.07,0-0.07-0.07c-1.72-0.21-3.43,1.24-3.64,1.37c-1.03,0.89-1.72,2.13-2.27,3.3
		c-0.96,2.2-2.06,4.88-1.31,7.28c0.82,2.47,3.64,2.88,5.84,2.27c2.68-0.76,5.01-2.4,7.28-3.91c1.24-0.85,2.52-1.66,3.78-2.53
		c-0.16,1.18-0.12,2.75,0.82,3.69c0.76,0.82,1.92,0.76,2.68,0.55c1.31-0.41,2.34-1.24,3.37-2.06c-0.07,0.07-0.07,0.48-0.07,0.55
		c0,0.27,0.07,0.55,0.07,0.82c0.07,0.55,0.14,1.03,0.27,1.58c0.41,1.24,1.37,1.99,2.75,2.06c1.31,0,2.47-0.69,3.5-1.51
		c0.82-0.62,1.58-1.24,2.4-1.85c1.51-1.24,2.95-2.61,4.4-3.92c0.09-0.09,0.19-0.18,0.28-0.27c0.02,0.07,0.04,0.14,0.06,0.2
		c0.14,0.34,0.27,0.69,0.41,0.96c0.14,0.34,0.27,0.69,0.41,1.03c0.27,0.62,0.55,1.31,0.76,1.92c0.27,0.55,0.48,1.03,0.69,1.58
		l-1.17,0.76c-0.76,0.55-1.51,1.03-2.34,1.58c-1.03,0.69-2.06,1.37-3.09,2.2c-0.96,0.75-1.92,1.58-2.54,2.68
		c-0.27,0.48-0.55,1.03-0.62,1.58c-0.14,0.62-0.07,1.31,0.21,1.85c0.48,1.03,1.65,1.51,2.75,1.51c1.65,0.07,3.09-0.55,4.53-1.37
		c1.24-0.69,2.4-1.72,3.3-2.88c0.62-0.76,1.1-1.65,1.58-2.47c0.21-0.48,0.34-0.96,0.41-1.37c0.21-1.03,0.21-1.99,0.14-2.95
		c2.61-1.85,5.22-3.64,7.69-5.63c0.17-0.13,0.33-0.27,0.5-0.4c-0.09,1.12,0.03,2.44,0.87,3.28c0.76,0.82,1.92,0.76,2.68,0.55
		c1.31-0.41,2.34-1.24,3.37-2.06c-0.07,0.07-0.07,0.48-0.07,0.55c0,0.27,0.07,0.55,0.07,0.82c0.07,0.55,0.14,1.03,0.27,1.58
		c0.41,1.24,1.37,1.99,2.75,2.06c1.31,0,2.47-0.69,3.5-1.51c0.82-0.62,1.58-1.24,2.4-1.85c1.51-1.24,2.95-2.61,4.4-3.92
		c1.58-1.51,3.16-3.02,4.74-4.6C349,31.58,349,30.68,348.52,30.2z M295.29,36.31c-0.41,0.41-0.82,0.76-1.24,1.1
		c-0.41,0.27-0.76,0.48-1.17,0.69c-0.69,0.21-0.07-1.17,0-1.31c0.82-1.92,2.88-5.7,5.63-6.04c0.07,0,0.07,0,0.07,0
		S298.38,33.22,295.29,36.31z M311.16,48.34c-1.03,1.24-2.4,2.4-3.92,3.02c-0.48,0.21-1.65,0.55-1.92-0.14
		c-0.14-0.27,0-0.62,0.14-0.82c0.21-0.27,0.48-0.55,0.69-0.75c0.55-0.55,1.1-1.03,1.72-1.44c1.51-1.1,3.09-2.06,4.6-3.09
		C312.46,46.21,312.05,47.3,311.16,48.34z M329.5,36.31c-0.41,0.41-0.82,0.76-1.24,1.1c-0.41,0.27-0.76,0.48-1.17,0.69
		c-0.69,0.21-0.07-1.17,0-1.31c0.82-1.92,2.88-5.7,5.63-6.04c0.07,0,0.07,0,0.07,0S332.59,33.22,329.5,36.31z"/>
</g>
</svg>
