<?xml version="1.0" encoding="utf-8"?>
<!-- Generator: Adobe Illustrator 26.5.0, SVG Export Plug-In . SVG Version: 6.00 Build 0)  -->
<svg version="1.1" xmlns="http://www.w3.org/2000/svg" xmlns:xlink="http://www.w3.org/1999/xlink" x="0px" y="0px"
	 viewBox="0 0 80.09 152.51" style="enable-background:new 0 0 80.09 152.51;" xml:space="preserve">
<style type="text/css">
	.st0{opacity:0.51;}
	.st1{fill:#8D8DA5;}
	.st2{opacity:0.8;fill:#ABABBA;}
	.st3{fill:#80A3D0;}
	.st4{fill:#9CB9DB;}
	.st5{fill:#7E9CC7;}
	.st6{fill:#DCBAAF;}
	.st7{fill:#AFA9B9;}
	.st8{fill:#BDB4D3;}
	.st9{fill:#E1BF89;}
	.st10{fill:#F3B186;}
	.st11{fill:#9A827A;}
	.st12{fill:#C3A479;}
	.st13{fill:#D4A594;}
	.st14{fill:#DFB88B;}
	.st15{fill:#CEA887;}
	.st16{fill:#C19977;}
	.st17{fill:#AB8658;}
	.st18{fill:#FFFFFF;}
	.st19{fill:#D77466;}
	.st20{opacity:0.8;fill:#D77466;}
	.st21{fill:none;stroke:#FFFFFF;stroke-width:3;stroke-linecap:round;stroke-linejoin:round;stroke-miterlimit:10;}
	.st22{fill:none;stroke:#D77466;stroke-width:3;stroke-linecap:round;stroke-linejoin:round;stroke-miterlimit:10;}
	.st23{opacity:0.5;fill:none;stroke:#88889F;stroke-miterlimit:10;}
	.st24{fill:#BEBEC9;}
	.st25{opacity:0.5;fill:none;stroke:#88889F;stroke-width:0.5;stroke-miterlimit:10;}
	.st26{fill:#31314F;}
	.st27{opacity:0.09;fill:url(#SVGID_1_);}
	.st28{fill:#275C73;}
	.st29{fill:none;stroke:#275C73;stroke-miterlimit:10;}
	.st30{opacity:0.09;fill:url(#SVGID_00000096762647222755670900000008038540422115391900_);}
	.st31{opacity:0.09;fill:url(#SVGID_00000179632097107207317430000012551802541736129718_);}
	.st32{opacity:0.09;fill:url(#SVGID_00000170968942863276725930000011020427626907737491_);}
	.st33{opacity:0.09;fill:url(#SVGID_00000152238208602185326210000012784378250845282726_);}
	.st34{opacity:0.09;fill:url(#SVGID_00000062899791552201700840000007730663863250490302_);}
	.st35{opacity:0.09;fill:url(#SVGID_00000183219486459255181070000006102793947869228953_);}
	.st36{opacity:0.09;fill:url(#SVGID_00000168818051543129444880000002738492406831828882_);}
	.st37{opacity:0.09;fill:url(#SVGID_00000142860970942578341560000003434012583783271836_);}
	.st38{opacity:0.09;fill:url(#SVGID_00000020357860521420730290000012229879294169590454_);}
	.st39{fill:none;}
	.st40{opacity:0.15;fill:#D77466;}
	.st41{fill:#F5D4C3;}
	.st42{fill:#262C57;}
	.st43{fill:none;stroke:#262C57;stroke-miterlimit:10;}
	.st44{opacity:0.08;}
	.st45{opacity:0.08;fill:#275C73;}
	.st46{opacity:0.08;fill:#D77466;}
	.st47{opacity:0.53;fill:#D77466;}
	.st48{opacity:0.21;fill:#275C73;}
	.st49{fill:#EAE3CD;}
	.st50{fill:none;stroke:#D77466;stroke-width:1.5;stroke-linecap:round;stroke-miterlimit:10;}
	.st51{fill-rule:evenodd;clip-rule:evenodd;fill:#E0E0EB;}
	.st52{fill-rule:evenodd;clip-rule:evenodd;fill:#313151;}
	.st53{fill-rule:evenodd;clip-rule:evenodd;fill:#FFFFFF;}
	.st54{fill-rule:evenodd;clip-rule:evenodd;fill:#B7C9E6;}
	.st55{fill-rule:evenodd;clip-rule:evenodd;fill:#8A8D89;}
	.st56{fill-rule:evenodd;clip-rule:evenodd;fill:#F1EDE1;}
	.st57{fill-rule:evenodd;clip-rule:evenodd;fill:#2F3230;}
	.st58{fill:#F7DC7A;}
	.st59{fill:#E1706C;}
	.st60{fill:#624F2D;}
	.st61{fill:#8DBCAE;}
	.st62{clip-path:url(#SVGID_00000125588246377134592180000003320166178156413845_);fill:#8DBCAE;}
	.st63{fill:#E8E8EF;}
	.st64{fill:none;stroke:#262C57;stroke-linecap:round;stroke-linejoin:round;stroke-miterlimit:10;}
	.st65{fill:none;stroke:#E8E8EF;stroke-miterlimit:10;}
	.st66{fill:none;stroke:#262C57;stroke-width:4;stroke-linecap:round;stroke-miterlimit:10;}
	.st67{fill:none;stroke:#D77466;stroke-width:1.5;stroke-miterlimit:10;}
	.st68{fill:none;stroke:#262C57;stroke-width:1.5;stroke-linecap:round;stroke-linejoin:round;stroke-miterlimit:10;}
	.st69{clip-path:url(#SVGID_00000098195517260172120620000002972031578139463863_);fill:#8DBCAE;}
	.st70{clip-path:url(#SVGID_00000092441805748844307370000003052844579154503348_);fill:#8DBCAE;}
	.st71{opacity:0.09;fill:url(#SVGID_00000059990569999310049770000017077915387970651304_);}
	.st72{fill:url(#SVGID_00000070108992481099163520000017017461146457755785_);}
	.st73{opacity:0.39;clip-path:url(#SVGID_00000055695843107015586280000011145695576827602304_);fill:#D77466;}
	.st74{opacity:0.21;clip-path:url(#SVGID_00000055695843107015586280000011145695576827602304_);fill:#EAE3CD;}
	.st75{clip-path:url(#SVGID_00000055695843107015586280000011145695576827602304_);}
	.st76{fill:#FBF2DC;}
	.st77{clip-path:url(#SVGID_00000055695843107015586280000011145695576827602304_);fill:#DA7466;}
	.st78{clip-path:url(#SVGID_00000055695843107015586280000011145695576827602304_);fill:#080B10;}
	.st79{fill:#DA7466;}
	.st80{fill:none;stroke:#FFFFFF;stroke-linecap:round;stroke-linejoin:round;stroke-miterlimit:10;}
	.st81{fill:#DB5946;}
	.st82{fill:#96C254;}
	.st83{fill:#6C863D;}
	.st84{fill:#F4D2CE;}
	.st85{fill:url(#SVGID_00000088097655485816131650000011478234345574163642_);}
	.st86{opacity:0.22;clip-path:url(#SVGID_00000062893290744809869550000014358849508502871215_);fill:#EAE3CD;}
	.st87{clip-path:url(#SVGID_00000062893290744809869550000014358849508502871215_);}
	.st88{fill:#5A6DD1;}
	.st89{clip-path:url(#SVGID_00000062893290744809869550000014358849508502871215_);fill:#DA7466;}
	.st90{clip-path:url(#SVGID_00000062893290744809869550000014358849508502871215_);fill:#FCFAF1;}
	.st91{clip-path:url(#SVGID_00000062893290744809869550000014358849508502871215_);fill:#080B10;}
	.st92{fill:#8BD2F9;}
	.st93{fill:#F5D0AF;}
	.st94{fill:#D5A479;}
	.st95{fill:none;stroke:#FFFFFF;stroke-miterlimit:10;}
	.st96{clip-path:url(#SVGID_00000054974867367728098530000002471186814679439282_);fill:#8DBCAE;}
	.st97{fill:url(#SVGID_00000052100691107650502150000010716514606840755088_);}
	.st98{clip-path:url(#SVGID_00000165941956852942675680000013599681309227650721_);}
	.st99{opacity:0.53;fill:#EAE3CD;}
	.st100{opacity:0.31;fill:#D77466;}
	.st101{fill:#FCFAF1;}
	.st102{clip-path:url(#SVGID_00000165941956852942675680000013599681309227650721_);fill:#080B10;}
	.st103{fill:#F6F1DA;}
	.st104{fill:#DDD8C6;}
	.st105{fill:#F8E1A0;}
	.st106{fill:#EDEDED;}
	.st107{fill:#646477;}
	.st108{fill:none;stroke:#D77466;stroke-miterlimit:10;}
	.st109{clip-path:url(#SVGID_00000180324346103671206640000003572127947176958610_);fill:#8DBCAE;}
	.st110{fill:url(#SVGID_00000164506391680215293390000018105683697415233411_);}
	.st111{clip-path:url(#SVGID_00000128487121193184199470000015744771909269127830_);}
	.st112{clip-path:url(#SVGID_00000128487121193184199470000015744771909269127830_);fill:#080B10;}
	.st113{fill:none;stroke:#E8E8EF;stroke-width:0.75;stroke-miterlimit:10;}
	.st114{clip-path:url(#SVGID_00000101781375919322746960000007901767637070971536_);fill:#8DBCAE;}
	.st115{clip-path:url(#SVGID_00000118374349310896679050000008579885127338742455_);fill:#8DBCAE;}
	.st116{fill:#4599D6;}
	.st117{fill:#642673;}
	.st118{fill:#BE286F;}
	.st119{clip-path:url(#SVGID_00000026126704030055052670000003610402787994291870_);fill:#8DBCAE;}
	.st120{opacity:0.54;fill:#E8E8EF;}
	.st121{clip-path:url(#SVGID_00000170979987383294831920000006303606551122733727_);fill:#8DBCAE;}
	.st122{fill:#80808B;}
	.st123{clip-path:url(#SVGID_00000000914976869023827580000010569325475877074090_);fill:#8DBCAE;}
	.st124{fill:none;stroke:#B5AFAE;stroke-linecap:round;stroke-linejoin:round;stroke-miterlimit:10;}
</style>
<g id="Background">
</g>
<g id="Content">
	<g>
		<path class="st39" d="M63.37,35.13c1.11,2.65,2.16,5.33,3.23,8c0.2,0.5-0.56,0.81-0.76,0.3c-1.07-2.67-2.11-5.34-3.17-8.02
			C62.48,34.95,63.17,34.67,63.37,35.13z M57.54,1.51c1.22,2.3,2.3,4.57,3.73,8.19c0.09,0.23-0.3,0.43-0.41,0.12
			c-1.09-2.76-2.26-5.42-3.64-8.11C57.1,1.46,57.44,1.31,57.54,1.51z M57.45,17.13c-0.1-0.32,0.35-0.45,0.44-0.17
			c0.9,2.73,1.78,6.03,2.5,8.81c0.1,0.38-0.4,0.48-0.48,0.19C58.95,22.26,58.25,19.64,57.45,17.13z M59.29,77.4
			c0.04,0.58-0.77,0.6-0.81,0.1c-0.44-6-0.55-7.41-0.98-10.93c-0.06-0.48,0.67-0.59,0.74-0.09C58.79,70.31,58.95,72.9,59.29,77.4z
			 M49.04,6.6c0.32,7.22,0.25,5.85,0.67,12.27c0.04,0.54-0.84,0.65-0.89,0.02c-0.37-5.52-0.41-6.71-0.6-12.27
			C48.2,6.09,49.01,6.04,49.04,6.6z M37.06,1.48c0.01-0.4,0.57-0.38,0.57-0.02c-0.07,6.42-0.11,6.23-0.33,12.71
			c-0.02,0.43-0.63,0.41-0.62,0.01C36.85,9.68,36.96,7.63,37.06,1.48z M16.06,96.38c0.16,0.95-1.09,1.05-1.2,0.35
			c-0.57-3.31-0.76-5.87-0.97-8.3c-0.06-0.69,1.04-0.86,1.14-0.03C15.82,94.77,15.69,94.16,16.06,96.38z M14.66,69.6
			c-0.18-3.32-0.51-8.91-0.82-13.09c-0.04-0.56,0.84-0.66,0.9-0.03c0.26,2.78,0.65,8.59,0.9,13.09
			C15.68,70.18,14.69,70.29,14.66,69.6z M14.09,24.46c0.48,3.2,0.54,3.5,0.95,6.33c0.09,0.6-0.94,0.84-1.07,0.03
			c-0.3-2.11-0.62-4.22-0.89-6.34C13.01,23.93,13.96,23.68,14.09,24.46z M7.86,28.22c0.15,5.23,0.15,7.43,0.12,13.06
			c0,0.79-1.16,0.78-1.16,0.03c0.03-7.45,0.05-6.85-0.09-13.06C6.72,27.51,7.84,27.48,7.86,28.22z M1.53,103.6
			c-0.04,0.5-0.69,0.38-0.65,0.02c0.01-0.12,0.47-5.69,0.55-5.77c0.19-0.21,0.53-0.05,0.52,0.2C1.86,99.78,1.78,101.01,1.53,103.6z
			 M2.26,21.49c-0.01,0.79-1.16,0.76-1.15,0.03c0.02-2.27,0-3.76-0.09-7.97C1,12.9,1.98,12.82,2.03,13.52
			C2.27,17.25,2.27,19.41,2.26,21.49z M5.29,87.18c-0.45-5.53-0.77-7.65-1.87-13.91c-0.14-0.8,0.88-0.92,1.03-0.3
			c1.31,5.47,1.77,9.11,2.19,14.17C6.71,87.97,5.37,88.15,5.29,87.18z M5.83,138.61c-0.04-3.38-0.16-10.37-0.19-11.41
			c-0.02-0.83,1.25-0.93,1.3-0.03c0.17,2.74,0.24,5.78,0.29,11.41C7.25,139.52,5.84,139.54,5.83,138.61z M8.01,58.67
			c-0.43-2.74-0.63-4.16-1.04-8.43c-0.05-0.53,0.81-0.67,0.88-0.02c0.43,3.57,0.58,5.1,1.07,8.18C9.05,59.15,8.09,59.2,8.01,58.67z
			 M9.23,18.28c-0.16-3.67-0.43-7.26-0.9-11.21C8.27,6.52,9.19,6.31,9.29,7.04c0.55,3.63,0.85,7.54,1.01,11.21
			C10.33,18.93,9.25,19.01,9.23,18.28z M11.13,114.34c0.03,1.02-1.55,1.1-1.58,0.04c-0.14-4.64-0.23-8.71,0.2-13.65
			c0.1-1.1,1.49-0.85,1.44-0.04C10.96,105.6,11,109.74,11.13,114.34z M14.1,151.98c0.03,0.69-0.91,0.68-0.93,0.11
			c-0.11-2.53-0.2-4.87,0.13-7.37c0.06-0.51,0.85-0.46,0.81,0.11C13.93,147.13,13.98,149.2,14.1,151.98z M15.39,133.32
			c-0.08,0.6-1.02,0.5-0.93-0.13c0.82-6.11,0.72-5.32,1.29-12.13c0.05-0.55,0.91-0.5,0.87,0.12
			C16.22,127.32,16.08,128.24,15.39,133.32z M18.45,47.68c-0.04,0.96-1.38,0.85-1.33,0.03c0.15-3.52,0.03-4.73-0.83-9.57
			c-0.17-0.95,1.08-1.06,1.22-0.36C18.63,43.46,18.58,44.84,18.45,47.68z M20.51,24.33c-1.83-7.35-2.46-10-2.63-10.68
			c-0.08-0.34,0.4-0.44,0.48-0.14c0.98,3.9,2.58,10.34,2.67,10.67C21.12,24.53,20.6,24.67,20.51,24.33z M21.82,108.84
			c-0.08,0.56-0.93,0.44-0.85-0.12c0.54-3.9,0.62-5.66,0.71-7.54c0.02-0.46,0.76-0.47,0.75,0.1
			C22.41,103.44,22.32,105.23,21.82,108.84z M21.45,81.9c0.31-8.51-0.85-9.86,0.36-9.89c0.35-0.01,0.59,0.26,0.62,0.59
			c0.39,4.07,0.41,6.52,0.31,9.27C22.7,82.78,21.41,82.71,21.45,81.9z M23.55,148.84c-0.02,0.51-0.89,0.55-0.87-0.12
			c0.29-9,0.13-0.64,0.34-12.03c0-0.43,0.76-0.44,0.76,0C23.84,140.32,23.84,139.86,23.55,148.84z M23.16,63.77
			c-0.11-2.03-0.14-2.65-0.29-6.32c-0.02-0.44,0.67-0.49,0.69-0.02c0.1,2.11,0.19,4.21,0.31,6.32
			C23.89,64.2,23.19,64.27,23.16,63.77z M24.41,39.6c-0.21-2.75-0.42-5.51-0.63-8.26c-0.03-0.51,0.77-0.6,0.82-0.02
			c0.25,2.75,0.46,5.5,0.68,8.26C25.32,40.11,24.46,40.21,24.41,39.6z M26.87,126.5c-0.05,0.82-1.47,0.88-1.42-0.19
			c0.28-4.85,0.39-6.94,0.68-10.84c0.06-0.75,1.26-0.76,1.25,0.17C27.28,118.98,27.06,123.19,26.87,126.5z M27.78,94.49
			c-0.04,0.61-1.05,0.6-1.01-0.14c0.18-3.34,0.44-6.3,0.9-9.67c0.07-0.53,0.88-0.47,0.83,0.11C28.19,88.41,27.97,91,27.78,94.49z
			 M29.38,24.77c-0.67-4.37-0.66-4.44-1.74-9.88c-0.11-0.62,0.7-0.75,0.82-0.24c1.34,5.81,1.91,10.1,1.91,10.1
			C30.47,25.3,29.51,25.54,29.38,24.77z M31.13,74.6c-0.22,0.03-0.45-0.14-0.47-0.37c-0.25-3.41-0.56-7.9-0.69-11.32
			c-0.03-0.56,0.75-0.58,0.78-0.09C31.37,74.34,31.78,74.52,31.13,74.6z M31.96,52.88c-0.4-2.41-0.83-5.08-1.15-7.53
			c-0.09-0.72,1.12-0.99,1.27-0.03c0.34,2.36,0.71,4.64,1.15,7.19C33.39,53.52,32.08,53.6,31.96,52.88z M34.07,139.51
			c-0.02,0.35-0.61,0.37-0.59-0.08c0.25-5.47,0.38-8.06,0.42-12.21c0-0.29,0.5-0.28,0.5,0C34.46,131.36,34.19,136.66,34.07,139.51z
			 M34.21,101.24c0.26-2.78,0.42-4.9,0.15-8.16c-0.03-0.36,0.49-0.39,0.52-0.06c0.36,3.39,0.16,5.79-0.07,8.31
			C34.78,101.7,34.17,101.66,34.21,101.24z M35.41,119.38c-0.04-5.31,0.05-5.92-0.45-10.81c-0.04-0.33,0.45-0.38,0.49-0.06
			c0.51,4.24,0.48,6.51,0.5,10.81C35.95,119.74,35.4,119.68,35.41,119.38z M37.2,33.37c0.26,2.42,0.48,4.24,1,6.7
			c0.13,0.66-0.79,0.86-0.91,0.27c-0.53-2.58-0.7-4.12-0.93-6.94C36.31,32.88,37.13,32.77,37.2,33.37z M38.57,85.84
			c-0.05,0.81-1.39,0.8-1.34-0.18c0.16-2.87,0.22-4-0.28-7.87c-0.1-0.73,1.02-0.96,1.17-0.14C38.73,81.01,38.75,82.46,38.57,85.84z
			 M42.24,17.9c0.32,3.26,0.62,5.92,1,8.83c0.04,0.33-0.5,0.43-0.56,0.01c-0.36-2.85-0.7-5.85-0.96-8.83
			C41.69,17.59,42.21,17.53,42.24,17.9z M42.48,119.81c-0.18-6.05-0.21-7.62-0.38-9.57c-0.03-0.31,0.41-0.33,0.44-0.05
			c0.21,1.96,0.22,3.26,0.43,9.56C42.99,120.12,42.49,120.11,42.48,119.81z M43.15,133.63c-0.24-3.29-0.26-3.84-0.35-5.38
			c-0.02-0.38,0.51-0.4,0.54-0.06c0.15,1.79,0.28,3.58,0.4,5.37C43.77,133.98,43.18,134,43.15,133.63z M43.8,68.56
			c-0.79-3.77-0.64-4.51-1.37-9c-0.15-0.9,1.28-1.25,1.49-0.18c0.84,3.94,0.68,5.01,1.51,8.98C45.63,69.27,44.05,69.78,43.8,68.56z
			 M45.1,103.73c-0.04-1.31-0.09-3.99-0.96-9.13c-0.09-0.53,0.72-0.7,0.84-0.1c0.61,2.96,0.98,5.98,1.07,9.11
			C46.08,104.3,45.12,104.32,45.1,103.73z M46.62,50.8c-0.28-3.92-0.66-8.93-1.25-12.77c-0.08-0.5,0.7-0.68,0.82-0.1
			c0.79,3.85,1.13,8.69,1.43,12.75C47.67,51.37,46.67,51.45,46.62,50.8z M51.07,121.62c-0.19,0.24-0.56,0.1-0.57-0.16
			c-0.14-5.14-0.17-6.07-0.43-8.98c-0.04-0.4,0.54-0.44,0.58-0.07C50.69,112.86,51.34,121.27,51.07,121.62z M50.26,89.78
			c-0.48-2.91-1.29-8.13-2.08-11.95c-0.13-0.65,0.92-0.96,1.11-0.14c0.8,3.47,1.3,6.75,2.16,11.94
			C51.58,90.37,50.41,90.64,50.26,89.78z M52.08,134.71c-0.07-2.68-0.14-3.55-0.13-5.96c0-0.32,0.42-0.31,0.42-0.05
			c0.06,3.04,0.14,3.26,0.21,5.95C52.6,135.03,52.08,135,52.08,134.71z M52.58,39.84c-1.2-5-2.46-7.8-3.46-10.06
			c-0.26-0.56,0.62-0.99,0.91-0.36c1.64,3.55,2.43,5.67,3.59,10.29C53.76,40.29,52.78,40.65,52.58,39.84z M55.35,60.24
			c-1.08-4.39-1.31-5.19-1.64-7.42c-0.05-0.38,0.54-0.5,0.61-0.07c0.37,2.23,0.64,3.22,1.69,7.42
			C56.09,60.53,55.47,60.74,55.35,60.24z M56.75,108.58c-0.09-3.54-0.26-5.27-0.72-10.3c-0.07-0.78,1.05-0.87,1.14-0.14
			c0.63,5.07,0.76,7.32,0.84,10.28C58.03,109.39,56.77,109.31,56.75,108.58z M59.13,123.12c-0.46-4.49-0.22-2.13-0.62-6.58
			c-0.03-0.33,0.44-0.35,0.47-0.06c0.32,3.17,0.09,1.07,0.65,6.58C59.66,123.4,59.17,123.44,59.13,123.12z M60.02,91.8
			c-0.95-3.45-1.71-5.96-2.2-7.48c-0.11-0.35,0.4-0.51,0.51-0.18c0.8,2.39,1.56,5.06,2.23,7.47C60.67,91.99,60.12,92.14,60.02,91.8z
			 M61.41,135.62c-0.26-3.44-0.44-5.52-0.45-7.8c0-0.42,0.53-0.38,0.54-0.06c0.09,2.41,0.25,3.83,0.54,7.79
			C62.08,135.99,61.44,136.02,61.41,135.62z M62.04,55.13c-0.33-2.64-2-7.92-2.35-9.44c-0.18-0.71,1.03-1.11,1.31-0.33
			c0.95,2.71,2.34,6.72,2.7,9.57C63.83,56,62.18,56.24,62.04,55.13z M64.74,114.49c-0.46,0.59-0.24-1.21-1.07-6.24
			c-0.04-0.2,0.3-0.28,0.33-0.04C64.04,108.43,64.87,114.31,64.74,114.49z M66.7,97.46c-0.79-5.67-0.91-6.58-0.89-8.37
			c0.09-0.65,1.03-0.55,1.04,0.01c0.01,1.49,0.02,1.64,0.91,8.23C67.85,98,66.79,98.18,66.7,97.46z M68.26,129.57
			c-0.29-1.68-0.66-3.71-0.97-6.57c-0.06-0.59,0.81-0.7,0.9-0.11c0.4,2.85,0.63,4.34,1.02,6.57
			C69.32,130.03,68.38,130.25,68.26,129.57z M68.82,76.43c-1.06-6.36-1.67-8.1-2.23-11.18c-0.16-0.82,1.17-1.2,1.4-0.17
			c1,4.38,1.32,5.15,2.33,11.17C70.48,77.15,69,77.5,68.82,76.43z M70.21,110.54c-0.2-1.42-0.4-2.83-0.58-4.25
			c-0.08-0.66,0.92-0.8,1.01-0.12c0.2,1.42,0.41,2.83,0.6,4.25C71.34,111.07,70.3,111.26,70.21,110.54z M73.27,95.34
			c-1.13-6.16-1.61-8.79-1.91-10.65c-0.05-0.3,0.41-0.39,0.48-0.06c0.28,1.59,1.86,10.13,1.96,10.65
			C73.85,95.6,73.34,95.71,73.27,95.34z M75.4,128.11c-0.86-5.62-0.7-4.24-1.58-8.74c-0.1-0.48,0.67-0.66,0.78-0.1
			c1.28,6.04,1,4.92,1.59,8.74C76.26,128.51,75.49,128.66,75.4,128.11z M79.25,114.63c-0.56-3.91-1.03-5.83-1.85-8.47
			c-0.18-0.57,0.62-0.81,0.78-0.31c1.01,3.14,1.44,5.38,1.91,8.68C80.15,115.06,79.33,115.2,79.25,114.63z"/>
		<path class="st61" d="M6.97,50.24c0.41,4.27,0.61,5.69,1.04,8.43c0.08,0.52,1.04,0.47,0.92-0.27c-0.5-3.08-0.64-4.61-1.07-8.18
			C7.78,49.58,6.92,49.71,6.97,50.24z"/>
		<path class="st61" d="M5.64,127.2c0.03,1.05,0.14,8.03,0.19,11.41c0.01,0.93,1.42,0.91,1.41-0.04c-0.05-5.63-0.12-8.67-0.29-11.41
			C6.89,126.28,5.63,126.37,5.64,127.2z"/>
		<path class="st61" d="M10.29,18.25c-0.16-3.66-0.46-7.58-1.01-11.21c-0.1-0.73-1.02-0.52-0.96,0.02c0.47,3.95,0.73,7.54,0.9,11.21
			C9.25,19.01,10.33,18.93,10.29,18.25z"/>
		<path class="st61" d="M9.76,100.73c-0.44,4.93-0.35,9.01-0.2,13.65c0.03,1.06,1.61,0.98,1.58-0.04c-0.14-4.6-0.18-8.74,0.07-13.64
			C11.24,99.88,9.86,99.63,9.76,100.73z"/>
		<path class="st61" d="M6.65,87.15c-0.42-5.07-0.88-8.7-2.19-14.17c-0.15-0.61-1.17-0.5-1.03,0.3c1.1,6.25,1.42,8.38,1.87,13.91
			C5.37,88.15,6.71,87.97,6.65,87.15z"/>
		<path class="st61" d="M1.43,97.84c-0.08,0.09-0.54,5.65-0.55,5.77c-0.03,0.36,0.61,0.49,0.65-0.02c0.24-2.59,0.33-3.82,0.42-5.56
			C1.97,97.79,1.63,97.64,1.43,97.84z"/>
		<path class="st61" d="M1.01,13.54c0.09,4.21,0.11,5.71,0.09,7.97c-0.01,0.73,1.14,0.76,1.15-0.03c0.01-2.08,0.01-4.24-0.23-7.97
			C1.98,12.82,1,12.9,1.01,13.54z"/>
		<path class="st61" d="M6.82,41.31c0,0.75,1.16,0.76,1.16-0.03c0.03-5.63,0.04-7.83-0.12-13.06c-0.02-0.75-1.15-0.72-1.13,0.03
			C6.87,34.46,6.85,33.87,6.82,41.31z"/>
		<path class="st61" d="M22.42,72.6c-0.03-0.33-0.27-0.6-0.62-0.59c-1.21,0.03-0.05,1.38-0.36,9.89c-0.03,0.81,1.25,0.87,1.28-0.03
			C22.84,79.12,22.82,76.68,22.42,72.6z"/>
		<path class="st61" d="M21.68,101.19c-0.09,1.88-0.17,3.65-0.71,7.54c-0.08,0.56,0.77,0.68,0.85,0.12c0.5-3.62,0.58-5.4,0.61-7.56
			C22.44,100.72,21.7,100.73,21.68,101.19z"/>
		<path class="st61" d="M13.3,144.72c-0.33,2.51-0.24,4.84-0.13,7.37c0.02,0.57,0.96,0.57,0.93-0.11c-0.11-2.78-0.17-4.85,0.01-7.15
			C14.15,144.26,13.36,144.21,13.3,144.72z"/>
		<path class="st61" d="M23.78,31.34c0.21,2.75,0.42,5.51,0.63,8.26c0.05,0.62,0.91,0.52,0.87-0.02c-0.22-2.75-0.43-5.51-0.68-8.26
			C24.55,30.74,23.75,30.82,23.78,31.34z"/>
		<path class="st61" d="M23.02,136.7c-0.21,11.39-0.05,3.03-0.34,12.03c-0.02,0.67,0.85,0.63,0.87,0.12
			c0.29-8.99,0.29-8.52,0.23-12.14C23.78,136.26,23.02,136.27,23.02,136.7z"/>
		<path class="st61" d="M15.74,121.06c-0.57,6.81-0.47,6.02-1.29,12.13c-0.09,0.62,0.85,0.73,0.93,0.13c0.69-5.08,0.83-6,1.23-12.13
			C16.66,120.56,15.79,120.52,15.74,121.06z"/>
		<path class="st61" d="M16.29,38.14c0.86,4.84,0.98,6.05,0.83,9.57c-0.04,0.81,1.29,0.92,1.33-0.03c0.13-2.84,0.18-4.22-0.94-9.89
			C17.37,37.08,16.12,37.19,16.29,38.14z"/>
		<path class="st61" d="M21.03,24.18c-0.08-0.33-1.69-6.77-2.67-10.67c-0.08-0.3-0.56-0.2-0.48,0.14c0.17,0.69,0.8,3.34,2.63,10.68
			C20.6,24.67,21.12,24.53,21.03,24.18z"/>
		<path class="st61" d="M22.87,57.46c0.15,3.67,0.18,4.29,0.29,6.32c0.02,0.5,0.73,0.42,0.71-0.02c-0.11-2.11-0.21-4.21-0.31-6.32
			C23.54,56.96,22.85,57.02,22.87,57.46z"/>
		<path class="st61" d="M1,41.19c-0.35-4.87-0.41-5.64-0.79-8.65C0.19,32.38,0.1,32.29,0,32.25v5.06c0.07,0.97,0.16,2.19,0.28,3.91
			C0.33,41.73,1.04,41.63,1,41.19z"/>
		<path class="st61" d="M65.83,43.43c0.2,0.51,0.96,0.2,0.76-0.3c-1.06-2.67-2.12-5.35-3.23-8c-0.2-0.47-0.89-0.18-0.71,0.28
			C63.72,38.08,64.77,40.76,65.83,43.43z"/>
		<path class="st61" d="M0.8,119.88c-0.05-3.15-0.01-3.84-0.1-6.75c-0.01-0.45-0.69-0.45-0.69,0.02c0,1.11-0.01,1.95-0.01,2.65v3.33
			c0,0.24,0.01,0.49,0.01,0.77C0.02,120.42,0.81,120.4,0.8,119.88z"/>
		<path class="st61" d="M0.48,148.59c0.02-3.24,0.07-4.14-0.48-8.29v8.88C0.25,149.13,0.48,148.94,0.48,148.59z"/>
		<path class="st61" d="M0,53.72v3.06C0.04,55.93,0.04,54.93,0,53.72z"/>
		<path class="st61" d="M24.55,6.71c-0.12-2.91-0.21-5-0.31-6.71h-1.07c0.07,1.48,0.15,3.54,0.29,6.74
			C23.49,7.5,24.58,7.41,24.55,6.71z"/>
		<path class="st61" d="M5.15,0H4.31C4.56,0.17,4.91,0.18,5.15,0z"/>
		<path class="st61" d="M16.89,2.46C16.88,1.64,16.86,0.82,16.85,0h-0.43c0.01,0.82,0.03,1.65,0.04,2.47
			C16.46,2.76,16.89,2.75,16.89,2.46z"/>
		<path class="st61" d="M57.5,66.57c0.43,3.52,0.55,4.93,0.98,10.93c0.04,0.5,0.85,0.48,0.81-0.1c-0.34-4.5-0.5-7.09-1.05-10.92
			C58.17,65.98,57.44,66.09,57.5,66.57z"/>
		<path class="st61" d="M37.31,14.18c0.22-6.48,0.26-6.29,0.33-12.71c0-0.36-0.57-0.38-0.57,0.02c-0.1,6.15-0.21,8.2-0.37,12.71
			C36.68,14.59,37.29,14.6,37.31,14.18z"/>
		<path class="st61" d="M13.88,88.43c0.21,2.43,0.4,4.99,0.97,8.3c0.12,0.7,1.36,0.6,1.2-0.35c-0.37-2.21-0.24-1.61-1.04-7.97
			C14.93,87.58,13.82,87.75,13.88,88.43z"/>
		<path class="st61" d="M13.84,56.51c0.31,4.18,0.64,9.76,0.82,13.09c0.04,0.69,1.02,0.58,0.98-0.03
			c-0.25-4.49-0.64-10.31-0.9-13.09C14.67,55.86,13.79,55.95,13.84,56.51z"/>
		<path class="st61" d="M60.39,25.77c-0.73-2.79-1.6-6.08-2.5-8.81c-0.09-0.28-0.54-0.15-0.44,0.17c0.8,2.51,1.51,5.14,2.47,8.83
			C59.99,26.24,60.49,26.15,60.39,25.77z"/>
		<path class="st61" d="M60.86,9.82c0.11,0.31,0.5,0.11,0.41-0.12c-1.43-3.62-2.51-5.89-3.73-8.19c-0.1-0.21-0.44-0.05-0.32,0.2
			C58.6,4.4,59.77,7.06,60.86,9.82z"/>
		<path class="st61" d="M49.71,18.87c-0.42-6.42-0.35-5.05-0.67-12.27c-0.03-0.56-0.84-0.51-0.82,0.02
			c0.19,5.56,0.23,6.75,0.6,12.27C48.87,19.52,49.75,19.41,49.71,18.87z"/>
		<path class="st61" d="M15.04,30.79c-0.41-2.84-0.48-3.13-0.95-6.33c-0.12-0.78-1.08-0.52-1,0.03c0.27,2.11,0.58,4.22,0.89,6.34
			C14.1,31.63,15.13,31.39,15.04,30.79z"/>
		<path class="st61" d="M48.19,77.83c0.78,3.82,1.59,9.04,2.08,11.95c0.14,0.85,1.31,0.58,1.2-0.15c-0.86-5.19-1.36-8.47-2.16-11.94
			C49.11,76.88,48.06,77.19,48.19,77.83z"/>
		<path class="st61" d="M60.96,127.82c0,2.28,0.19,4.36,0.45,7.8c0.03,0.4,0.67,0.37,0.63-0.08c-0.3-3.95-0.45-5.37-0.54-7.79
			C61.49,127.45,60.96,127.41,60.96,127.82z"/>
		<path class="st61" d="M58.33,84.14c-0.11-0.33-0.62-0.17-0.51,0.18c0.49,1.52,1.25,4.03,2.2,7.48c0.1,0.35,0.66,0.2,0.54-0.19
			C59.89,89.2,59.13,86.52,58.33,84.14z"/>
		<path class="st61" d="M63.67,108.25c0.82,5.02,0.6,6.83,1.07,6.24c0.14-0.18-0.7-6.06-0.73-6.28
			C63.97,107.98,63.63,108.05,63.67,108.25z"/>
		<path class="st61" d="M61,45.35c-0.28-0.78-1.49-0.38-1.31,0.33c0.35,1.52,2.02,6.8,2.35,9.44c0.14,1.12,1.79,0.88,1.66-0.2
			C63.34,52.07,61.95,48.06,61,45.35z"/>
		<path class="st61" d="M58.51,116.54c0.4,4.45,0.16,2.09,0.62,6.58c0.03,0.32,0.53,0.28,0.5-0.06c-0.56-5.51-0.33-3.41-0.65-6.58
			C58.95,116.18,58.49,116.21,58.51,116.54z"/>
		<path class="st61" d="M50.03,29.43c-0.29-0.63-1.17-0.2-0.91,0.36c0.99,2.25,2.25,5.05,3.46,10.06c0.2,0.8,1.18,0.45,1.04-0.13
			C52.46,35.09,51.68,32.98,50.03,29.43z"/>
		<path class="st61" d="M56.03,98.28c0.46,5.03,0.63,6.76,0.72,10.3c0.02,0.73,1.29,0.81,1.26-0.16c-0.08-2.97-0.21-5.21-0.84-10.28
			C57.08,97.4,55.96,97.5,56.03,98.28z"/>
		<path class="st61" d="M54.31,52.75c-0.07-0.42-0.66-0.31-0.61,0.07c0.33,2.23,0.56,3.02,1.64,7.42c0.12,0.5,0.75,0.29,0.66-0.08
			C54.95,55.96,54.68,54.98,54.31,52.75z"/>
		<path class="st61" d="M67.29,123c0.31,2.86,0.68,4.89,0.97,6.57c0.12,0.68,1.06,0.46,0.95-0.12c-0.39-2.22-0.63-3.71-1.02-6.57
			C68.1,122.3,67.23,122.41,67.29,123z"/>
		<path class="st61" d="M73.82,119.37c0.87,4.5,0.72,3.12,1.58,8.74c0.09,0.55,0.86,0.4,0.79-0.1c-0.59-3.82-0.31-2.7-1.59-8.74
			C74.49,118.71,73.73,118.89,73.82,119.37z"/>
		<path class="st61" d="M77.39,106.16c0.82,2.63,1.29,4.56,1.85,8.47c0.08,0.57,0.91,0.43,0.84-0.1c-0.47-3.29-0.89-5.53-1.91-8.68
			C78.01,105.35,77.21,105.59,77.39,106.16z"/>
		<path class="st61" d="M71.35,84.68c0.3,1.86,0.78,4.5,1.91,10.65c0.08,0.37,0.59,0.26,0.53-0.06c-0.1-0.51-1.68-9.05-1.96-10.65
			C71.77,84.29,71.31,84.39,71.35,84.68z"/>
		<path class="st61" d="M67.75,97.33c-0.9-6.59-0.9-6.74-0.91-8.23c0-0.56-0.95-0.66-1.04-0.01c-0.02,1.79,0.11,2.7,0.89,8.37
			C66.79,98.18,67.85,98,67.75,97.33z"/>
		<path class="st61" d="M51.95,128.75c-0.01,2.41,0.06,3.28,0.13,5.96c0,0.29,0.52,0.32,0.5-0.06c-0.07-2.69-0.15-2.91-0.21-5.95
			C52.37,128.44,51.95,128.44,51.95,128.75z"/>
		<path class="st61" d="M69.63,106.29c0.18,1.42,0.38,2.84,0.58,4.25c0.1,0.72,1.13,0.53,1.04-0.13c-0.2-1.42-0.41-2.83-0.6-4.25
			C70.54,105.49,69.55,105.64,69.63,106.29z"/>
		<path class="st61" d="M70.32,76.25c-1.01-6.02-1.33-6.79-2.33-11.17c-0.24-1.03-1.56-0.65-1.4,0.17
			c0.56,3.08,1.17,4.82,2.23,11.18C69,77.5,70.48,77.15,70.32,76.25z"/>
		<path class="st61" d="M36.95,77.79c0.5,3.87,0.45,5,0.28,7.87c-0.05,0.98,1.29,1,1.34,0.18c0.18-3.38,0.16-4.83-0.45-8.19
			C37.97,76.83,36.86,77.05,36.95,77.79z"/>
		<path class="st61" d="M33.9,127.22c-0.03,4.15-0.17,6.75-0.42,12.21c-0.02,0.46,0.57,0.43,0.59,0.08
			c0.12-2.85,0.39-8.15,0.33-12.29C34.4,126.94,33.9,126.93,33.9,127.22z"/>
		<path class="st61" d="M30.81,45.35c0.32,2.44,0.75,5.12,1.15,7.53c0.12,0.71,1.43,0.64,1.26-0.37c-0.44-2.56-0.81-4.83-1.15-7.19
			C31.94,44.36,30.72,44.63,30.81,45.35z"/>
		<path class="st61" d="M34.88,93.01c-0.03-0.32-0.55-0.3-0.52,0.06c0.26,3.26,0.11,5.38-0.15,8.16c-0.04,0.43,0.56,0.46,0.6,0.08
			C35.04,98.8,35.24,96.39,34.88,93.01z"/>
		<path class="st61" d="M38.2,40.07c-0.52-2.46-0.73-4.28-1-6.7c-0.07-0.6-0.88-0.5-0.84,0.02c0.23,2.83,0.4,4.36,0.93,6.94
			C37.41,40.93,38.33,40.74,38.2,40.07z"/>
		<path class="st61" d="M34.96,108.57c0.5,4.9,0.41,5.5,0.45,10.81c0,0.3,0.55,0.36,0.54-0.07c-0.01-4.29,0.01-6.56-0.5-10.81
			C35.41,108.19,34.92,108.24,34.96,108.57z"/>
		<path class="st61" d="M29.97,62.91c0.13,3.42,0.44,7.91,0.69,11.32c0.01,0.23,0.25,0.39,0.47,0.37c0.65-0.08,0.24-0.26-0.38-11.78
			C30.72,62.34,29.94,62.35,29.97,62.91z"/>
		<path class="st61" d="M27.68,84.68c-0.46,3.37-0.72,6.33-0.9,9.67c-0.04,0.74,0.97,0.75,1.01,0.14c0.18-3.49,0.41-6.08,0.73-9.7
			C28.56,84.21,27.75,84.15,27.68,84.68z"/>
		<path class="st61" d="M30.38,24.75c0,0-0.57-4.29-1.91-10.1c-0.12-0.51-0.94-0.38-0.82,0.24c1.08,5.43,1.07,5.5,1.74,9.88
			C29.51,25.54,30.47,25.3,30.38,24.75z"/>
		<path class="st61" d="M26.14,115.47c-0.29,3.9-0.4,5.99-0.68,10.84c-0.06,1.07,1.37,1.01,1.42,0.19
			c0.19-3.32,0.41-7.53,0.51-10.86C27.4,114.72,26.2,114.72,26.14,115.47z"/>
		<path class="st61" d="M44.14,94.6c0.87,5.14,0.92,7.82,0.96,9.13c0.02,0.59,0.98,0.58,0.95-0.12c-0.09-3.13-0.45-6.15-1.07-9.11
			C44.86,93.9,44.05,94.07,44.14,94.6z"/>
		<path class="st61" d="M45.44,68.36c-0.83-3.97-0.67-5.04-1.51-8.98c-0.22-1.06-1.64-0.72-1.49,0.18c0.73,4.49,0.57,5.23,1.37,9
			C44.05,69.78,45.63,69.27,45.44,68.36z"/>
		<path class="st61" d="M45.38,38.03c0.59,3.84,0.96,8.85,1.25,12.77c0.05,0.65,1.05,0.57,1-0.12c-0.3-4.06-0.65-8.89-1.43-12.75
			C46.07,37.35,45.3,37.53,45.38,38.03z"/>
		<path class="st61" d="M50.07,112.49c0.26,2.91,0.29,3.84,0.43,8.98c0.01,0.26,0.39,0.4,0.57,0.16c0.27-0.35-0.38-8.76-0.42-9.21
			C50.6,112.05,50.03,112.09,50.07,112.49z"/>
		<path class="st61" d="M43.24,26.74c-0.37-2.91-0.68-5.58-1-8.83c-0.03-0.37-0.55-0.31-0.52,0.01c0.26,2.98,0.6,5.98,0.96,8.83
			C42.74,27.16,43.28,27.06,43.24,26.74z"/>
		<path class="st61" d="M42.97,119.75c-0.2-6.3-0.22-7.6-0.43-9.56c-0.03-0.28-0.47-0.25-0.44,0.05c0.17,1.95,0.19,3.52,0.38,9.57
			C42.49,120.11,42.99,120.12,42.97,119.75z"/>
		<path class="st61" d="M42.8,128.25c0.09,1.54,0.11,2.09,0.35,5.38c0.03,0.37,0.62,0.35,0.59-0.07c-0.13-1.79-0.25-3.58-0.4-5.37
			C43.31,127.85,42.78,127.87,42.8,128.25z"/>
	</g>
</g>
</svg>
