<?xml version="1.0" encoding="utf-8"?>
<!-- Generator: Adobe Illustrator 26.5.0, SVG Export Plug-In . SVG Version: 6.00 Build 0)  -->
<svg version="1.1" xmlns="http://www.w3.org/2000/svg" xmlns:xlink="http://www.w3.org/1999/xlink" x="0px" y="0px"
	 viewBox="0 0 54.71 54.71" style="enable-background:new 0 0 54.71 54.71;" xml:space="preserve">
<style type="text/css">
	.st0{opacity:0.51;}
	.st1{fill:#8D8DA5;}
	.st2{opacity:0.8;fill:#ABABBA;}
	.st3{fill:#80A3D0;}
	.st4{fill:#9CB9DB;}
	.st5{fill:#7E9CC7;}
	.st6{fill:#DCBAAF;}
	.st7{fill:#AFA9B9;}
	.st8{fill:#BDB4D3;}
	.st9{fill:#E1BF89;}
	.st10{fill:#F3B186;}
	.st11{fill:#9A827A;}
	.st12{fill:#C3A479;}
	.st13{fill:#D4A594;}
	.st14{fill:#DFB88B;}
	.st15{fill:#CEA887;}
	.st16{fill:#C19977;}
	.st17{fill:#AB8658;}
	.st18{fill:#FFFFFF;}
	.st19{fill:#D77466;}
	.st20{opacity:0.8;fill:#D77466;}
	.st21{fill:none;stroke:#FFFFFF;stroke-width:3;stroke-linecap:round;stroke-linejoin:round;stroke-miterlimit:10;}
	.st22{fill:none;stroke:#D77466;stroke-width:3;stroke-linecap:round;stroke-linejoin:round;stroke-miterlimit:10;}
	.st23{opacity:0.5;fill:none;stroke:#88889F;stroke-miterlimit:10;}
	.st24{fill:#BEBEC9;}
	.st25{opacity:0.5;fill:none;stroke:#88889F;stroke-width:0.5;stroke-miterlimit:10;}
	.st26{fill:#31314F;}
	.st27{opacity:0.09;fill:url(#SVGID_1_);}
	.st28{fill:#275C73;}
	.st29{fill:none;stroke:#275C73;stroke-miterlimit:10;}
	.st30{opacity:0.09;fill:url(#SVGID_00000054240461916375035220000017729819983232574603_);}
	.st31{opacity:0.09;fill:url(#SVGID_00000029047201458083211210000017541248863703320511_);}
	.st32{opacity:0.09;fill:url(#SVGID_00000056428943468387393970000004568607611193556642_);}
	.st33{opacity:0.09;fill:url(#SVGID_00000098189853546609227260000011993399999893746070_);}
	.st34{opacity:0.09;fill:url(#SVGID_00000016066617005470675530000002072304907606777761_);}
	.st35{opacity:0.09;fill:url(#SVGID_00000118396964333943327360000011833325269139174057_);}
	.st36{opacity:0.09;fill:url(#SVGID_00000046339680183399804680000006285699433322736831_);}
	.st37{opacity:0.09;fill:url(#SVGID_00000183946083102775130300000006389084998360570028_);}
	.st38{opacity:0.09;fill:url(#SVGID_00000053533581734870304680000002868431801538647954_);}
	.st39{fill:none;}
	.st40{opacity:0.15;fill:#D77466;}
	.st41{fill:#F5D4C3;}
	.st42{fill:#262C57;}
	.st43{fill:none;stroke:#262C57;stroke-miterlimit:10;}
	.st44{opacity:0.08;}
	.st45{opacity:0.08;fill:#275C73;}
	.st46{opacity:0.08;fill:#D77466;}
	.st47{opacity:0.53;fill:#D77466;}
	.st48{opacity:0.21;fill:#275C73;}
	.st49{fill:#EAE3CD;}
	.st50{fill:none;stroke:#D77466;stroke-width:1.5;stroke-linecap:round;stroke-miterlimit:10;}
	.st51{fill-rule:evenodd;clip-rule:evenodd;fill:#E0E0EB;}
	.st52{fill-rule:evenodd;clip-rule:evenodd;fill:#313151;}
	.st53{fill-rule:evenodd;clip-rule:evenodd;fill:#FFFFFF;}
	.st54{fill-rule:evenodd;clip-rule:evenodd;fill:#B7C9E6;}
	.st55{fill-rule:evenodd;clip-rule:evenodd;fill:#8A8D89;}
	.st56{fill-rule:evenodd;clip-rule:evenodd;fill:#F1EDE1;}
	.st57{fill-rule:evenodd;clip-rule:evenodd;fill:#2F3230;}
	.st58{fill:#F7DC7A;}
	.st59{fill:#E1706C;}
	.st60{fill:#624F2D;}
	.st61{fill:#8DBCAE;}
	.st62{clip-path:url(#SVGID_00000035530054272457281980000015073078772596444073_);fill:#8DBCAE;}
	.st63{fill:#E8E8EF;}
	.st64{fill:none;stroke:#262C57;stroke-linecap:round;stroke-linejoin:round;stroke-miterlimit:10;}
	.st65{fill:none;stroke:#E8E8EF;stroke-miterlimit:10;}
	.st66{fill:none;stroke:#262C57;stroke-width:4;stroke-linecap:round;stroke-miterlimit:10;}
	.st67{fill:none;stroke:#D77466;stroke-width:1.5;stroke-miterlimit:10;}
	.st68{fill:none;stroke:#262C57;stroke-width:1.5;stroke-linecap:round;stroke-linejoin:round;stroke-miterlimit:10;}
	.st69{clip-path:url(#SVGID_00000105423724275355727760000006241416176326851003_);fill:#8DBCAE;}
	.st70{clip-path:url(#SVGID_00000118362164539108553970000016623466974186317242_);fill:#8DBCAE;}
	.st71{opacity:0.09;fill:url(#SVGID_00000068660367459337255240000006975438108500909450_);}
	.st72{fill:url(#SVGID_00000086659599958886804700000001060560618690804926_);}
	.st73{opacity:0.39;clip-path:url(#SVGID_00000061473487602659733330000004076172584831823255_);fill:#D77466;}
	.st74{opacity:0.21;clip-path:url(#SVGID_00000061473487602659733330000004076172584831823255_);fill:#EAE3CD;}
	.st75{clip-path:url(#SVGID_00000061473487602659733330000004076172584831823255_);}
	.st76{fill:#FBF2DC;}
	.st77{clip-path:url(#SVGID_00000061473487602659733330000004076172584831823255_);fill:#DA7466;}
	.st78{clip-path:url(#SVGID_00000061473487602659733330000004076172584831823255_);fill:#080B10;}
	.st79{fill:#DA7466;}
	.st80{fill:none;stroke:#FFFFFF;stroke-linecap:round;stroke-linejoin:round;stroke-miterlimit:10;}
	.st81{fill:#DB5946;}
	.st82{fill:#96C254;}
	.st83{fill:#6C863D;}
	.st84{fill:#F4D2CE;}
	.st85{fill:url(#SVGID_00000177442879264921938060000001497066165304718245_);}
	.st86{opacity:0.22;clip-path:url(#SVGID_00000067943326346896817280000001308955627743197325_);fill:#EAE3CD;}
	.st87{clip-path:url(#SVGID_00000067943326346896817280000001308955627743197325_);}
	.st88{fill:#5A6DD1;}
	.st89{clip-path:url(#SVGID_00000067943326346896817280000001308955627743197325_);fill:#DA7466;}
	.st90{clip-path:url(#SVGID_00000067943326346896817280000001308955627743197325_);fill:#FCFAF1;}
	.st91{clip-path:url(#SVGID_00000067943326346896817280000001308955627743197325_);fill:#080B10;}
	.st92{fill:#8BD2F9;}
	.st93{fill:#F5D0AF;}
	.st94{fill:#D5A479;}
	.st95{fill:none;stroke:#FFFFFF;stroke-miterlimit:10;}
	.st96{clip-path:url(#SVGID_00000006706251893553023290000001396116904995559578_);fill:#8DBCAE;}
	.st97{fill:url(#SVGID_00000178898210698280409220000011617290931035714715_);}
	.st98{clip-path:url(#SVGID_00000082369939321742131880000011722464585566522796_);}
	.st99{opacity:0.53;fill:#EAE3CD;}
	.st100{opacity:0.31;fill:#D77466;}
	.st101{fill:#FCFAF1;}
	.st102{clip-path:url(#SVGID_00000082369939321742131880000011722464585566522796_);fill:#080B10;}
	.st103{fill:#F6F1DA;}
	.st104{fill:#DDD8C6;}
	.st105{fill:#F8E1A0;}
	.st106{fill:#EDEDED;}
	.st107{fill:#646477;}
	.st108{fill:none;stroke:#D77466;stroke-miterlimit:10;}
	.st109{clip-path:url(#SVGID_00000173150101929777947010000013015250574728968114_);fill:#8DBCAE;}
	.st110{fill:url(#SVGID_00000166654182294102070570000001058630692194527126_);}
	.st111{clip-path:url(#SVGID_00000021833912283838805130000007303560951899190418_);}
	.st112{clip-path:url(#SVGID_00000021833912283838805130000007303560951899190418_);fill:#080B10;}
	.st113{fill:none;stroke:#E8E8EF;stroke-width:0.75;stroke-miterlimit:10;}
	.st114{clip-path:url(#SVGID_00000063604190067841896450000007264510686338415784_);fill:#8DBCAE;}
	.st115{clip-path:url(#SVGID_00000010989335072034524910000002382819040589053353_);fill:#8DBCAE;}
	.st116{fill:#4599D6;}
	.st117{fill:#642673;}
	.st118{fill:#BE286F;}
	.st119{clip-path:url(#SVGID_00000046300517256144346570000017261840530228930946_);fill:#8DBCAE;}
	.st120{opacity:0.54;fill:#E8E8EF;}
	.st121{clip-path:url(#SVGID_00000172419189561648008680000007709739670323103658_);fill:#8DBCAE;}
	.st122{fill:#80808B;}
	.st123{clip-path:url(#SVGID_00000147913138948052470410000012458648148510399646_);fill:#8DBCAE;}
	.st124{fill:none;stroke:#B5AFAE;stroke-linecap:round;stroke-linejoin:round;stroke-miterlimit:10;}
</style>
<g id="Background">
</g>
<g id="Content">
	<path class="st55" d="M35.39,14.78c-0.01,0.01-0.01,0.02-0.02,0.03C35.39,14.8,35.39,14.79,35.39,14.78L35.39,14.78L35.39,14.78z"
		/>
	<g>
		<path class="st51" d="M27.35,0c15.11,0,27.35,12.25,27.35,27.35S42.46,54.71,27.35,54.71C12.25,54.71,0,42.46,0,27.35
			S12.25,0,27.35,0L27.35,0z"/>
		<path class="st57" d="M41.9,40.1c0.03,0.01,0.06,0.01,0.09,0.02C41.96,40.11,41.93,40.11,41.9,40.1L41.9,40.1L41.9,40.1z"/>
		<path class="st57" d="M14.51,39.41c0.03-0.01,0.06-0.02,0.09-0.03C14.58,39.39,14.55,39.4,14.51,39.41L14.51,39.41L14.51,39.41z"
			/>
		<path class="st53" d="M38.69,38.48c-1.24-0.57-3.82-1.37-4.09-3.29c-0.15-1.09-0.16-2.16-0.16-2.39
			c-0.01-1.05,0.02-2.12,0.12-3.24c-1.4,2.61-3.71,4.27-7.07,4.2c-2.35-0.05-4.42-2.01-5.77-4.6c0.18,1.37,0.28,2.67,0.31,3.97
			c0,0.06-0.01,0.48-0.03,0.92c-0.07,1.92-2.18,3.29-4.06,3.94C22.75,46.37,33.5,46.55,38.69,38.48L38.69,38.48L38.69,38.48z"/>
		<path class="st53" d="M27.5,33.79c3.36,0.07,5.67-1.6,7.07-4.2c0.48-0.9,0.86-1.91,1.13-3c-0.01-0.57,0.18-1.48,0.26-2.71
			c0.06-0.93,0.19-1.79,0.39-2.45c0,0,0-0.01,0-0.01c-0.03,0.03-0.05,0.07-0.08,0.11c-0.15-2.36-0.95-6.47-1.29-7.48
			c-0.76-0.63-1.7-1.92-9.7-1.68c-0.93-0.27-3.48,1.67-3.51,1.72c-0.28,0.45-0.67,1.34-0.91,2.67c-0.78,4.4-0.39,3.17-0.65,4.78
			c-0.04-0.03-0.15-0.15-0.29-0.31c0.01,0.1,0.02,0.21,0.03,0.31c0.16,0.64,0.26,1.42,0.31,2.27c0.04,0.66,0.11,1.24,0.16,1.71
			c0.27,1.28,0.72,2.55,1.32,3.69C23.08,31.79,25.15,33.74,27.5,33.79L27.5,33.79L27.5,33.79z"/>
		<path class="st52" d="M19.83,21.12c0.03,0.03,0.06,0.06,0.09,0.09c0.14,0.16,0.25,0.28,0.29,0.31c0.26-1.61-0.14-0.38,0.65-4.78
			c0.24-1.33,0.62-2.22,0.91-2.67c0.53-0.84,12.99,1.51,13.03,1.54c0.34,1.01,1,3.89,1.47,5.91c0.03-0.04,0.06-0.07,0.08-0.11
			c0,0,0,0,0-0.01c0.26-0.87,0.65-1.42,1.17-1.39c0.05,0,0.1,0.01,0.15,0.03c0.17-1.78,0.11-3.71,0.02-5.68
			c0.05-5.67-6.29-7.9-10.84-7.62c-7.99,0.5-9.48,5.97-8.26,13.27C19.33,20.03,19.64,20.55,19.83,21.12L19.83,21.12L19.83,21.12z"/>
		<path class="st55" d="M34.7,15.57c0.03,0.01,0.06,0.03,0.09,0.04C34.79,15.6,34.76,15.58,34.7,15.57L34.7,15.57L34.7,15.57z"/>
		<path class="st55" d="M20.57,18.5c-0.01,0-0.02,0-0.03,0C20.55,18.5,20.56,18.5,20.57,18.5L20.57,18.5L20.57,18.5z"/>
		<path class="st53" d="M20.01,21.52c-0.04-0.14-0.08-0.28-0.12-0.4c-0.25-0.76-0.62-1.23-1.1-1.21c-0.12,0.01-0.23,0.05-0.34,0.12
			c-0.68,0.45-0.94,2.14-0.4,3.73c0.63,1.84,1.01,3.49,1.94,3.44c0.64-0.04,0.61-0.62,0.49-1.7c-0.05-0.48-0.12-1.05-0.16-1.71
			C20.27,22.94,20.17,22.16,20.01,21.52L20.01,21.52L20.01,21.52z M19.26,23.81c0.14,0.58,0.41,0.66,0.39,1.13
			c-0.08,1.85-0.55,0.34-0.84-0.22c-0.36-0.69-0.45-2.08-0.38-2.6c0.07-0.53,0.28-1.56,0.7-1.54c0.4,0.02,1,1.43,0.44,2.08
			C19.41,22.84,19.12,23.24,19.26,23.81L19.26,23.81L19.26,23.81z"/>
		<path class="st54" d="M19.12,20.59c-0.42-0.02-0.63,1.01-0.7,1.54c-0.07,0.53,0.02,1.91,0.38,2.6c0.29,0.56,0.77,2.07,0.84,0.22
			c0.02-0.47-0.25-0.56-0.39-1.13c-0.14-0.58,0.15-0.97,0.3-1.14C20.12,22.02,19.52,20.61,19.12,20.59L19.12,20.59L19.12,20.59z"/>
		<path class="st53" d="M36.35,21.4c0,0.01,0,0.01-0.01,0.02c-0.2,0.67-0.33,1.52-0.39,2.45c-0.08,1.23-0.27,2.14-0.26,2.71
			c0.01,0.44,0.14,0.69,0.55,0.71c0.92,0.06,1.32-1.6,1.97-3.42c0.61-1.73,0.27-3.57-0.55-3.83c-0.05-0.02-0.1-0.03-0.15-0.03
			C37,19.98,36.61,20.53,36.35,21.4L36.35,21.4L36.35,21.4z M37.46,24.83c-0.3,0.55-0.79,2.06-0.85,0.21
			c-0.01-0.47,0.25-0.55,0.4-1.13c0.14-0.57-0.14-0.97-0.28-1.14c-0.55-0.66,0.06-2.06,0.46-2.08c0.42-0.02,0.62,1.02,0.68,1.54
			C37.93,22.76,37.82,24.15,37.46,24.83L37.46,24.83L37.46,24.83z"/>
		<path class="st54" d="M37.18,20.69c-0.4,0.02-1.01,1.42-0.46,2.08c0.15,0.17,0.43,0.57,0.28,1.14c-0.14,0.57-0.41,0.65-0.4,1.13
			c0.06,1.85,0.55,0.34,0.85-0.21c0.37-0.69,0.47-2.07,0.41-2.6C37.8,21.71,37.6,20.67,37.18,20.69L37.18,20.69L37.18,20.69z"/>
		<path class="st54" d="M35.19,36.44c-6.06,0.79-12.36-3.71-13.46-7.25l0,0.01l0,0l0,0l0,0l0,0l0,0l0,0l0,0l0,0l0,0l0,0l0,0l0,0l0,0
			l0,0l0,0l0,0l0,0l0,0l0,0l0,0l0,0l0,0l0,0c0.01,0.02,0.02,0.04,0.03,0.06l0,0l0,0l0,0l0,0l0,0.01l0,0l0,0l0,0l0,0l0,0l0,0l0,0l0,0
			l0,0l0,0l0,0l0,0l0,0l0,0l0,0l0,0l0,0l0,0l0,0l0,0l0,0l0,0l0,0l0,0l0,0l0,0l0,0c0.01,0.02,0.02,0.03,0.03,0.05l0,0l0,0.01l0,0
			l0.01,0.01l0,0l0,0l0,0l0,0l0,0l0.01,0.01l0,0l0,0l0,0l0,0l0,0l0,0l0,0l0,0l0,0l0,0l0,0l0,0l0,0l0,0l0,0l0,0l0,0l0.03,0.05l0,0
			l0,0l0,0l0,0l0,0l0,0l0,0l0,0l0,0.01l0,0l0,0l0,0l0,0l0,0l0,0l0,0l0,0l0,0l0,0l0,0l0,0l0,0l0,0l0,0l0,0l0,0l0,0l0,0l0,0l0,0l0,0
			l0,0l0,0l0.03,0.06l0,0l0,0l0,0l0,0l0,0.01l0,0l0,0l0,0l0,0l0,0l0.01,0.02l0,0l0,0l0,0l0,0l0,0l0,0l0,0l0,0l0,0l0,0l0,0l0,0l0,0
			l0,0l0,0l0.03,0.05l0,0l0,0l0,0l0.01,0.01l0,0l0,0l0,0l0,0l0,0l0,0l0,0l0,0l0,0l0,0l0,0l0,0l0,0l0,0l0,0l0,0l0,0l0,0l0,0l0,0l0,0
			l0,0l0,0l0,0c0.01,0.02,0.02,0.04,0.04,0.06l0,0l0,0l0,0l0.01,0.01l0,0l0,0l0,0l0,0l0,0l0,0l0,0l0,0l0,0l0,0l0,0l0,0l0,0l0,0l0,0
			l0,0l0,0l0,0l0,0l0,0l0,0l0,0l0,0l0,0l0,0l0,0l0,0l0,0c0.01,0.02,0.02,0.04,0.03,0.05l0,0l0,0l0,0l0,0l0,0.01l0,0l0,0l0,0l0,0l0,0
			l0,0l0,0l0.01,0.02l0,0l0,0l0,0l0,0l0,0l0,0l0,0l0,0l0,0l0,0l0,0l0.03,0.05l0,0l0,0l0,0l0,0l0.01,0.02l0,0l0,0l0,0l0,0l0,0l0,0
			l0,0l0,0l0,0l0,0l0,0l0,0l0,0l0,0l0,0l0,0l0,0l0,0l0,0l0,0l0,0l0,0l0,0l0,0l0,0l0,0l0,0l0,0c0.01,0.01,0.02,0.03,0.03,0.04l0,0
			l0,0l0,0l0,0l0,0l0.01,0.02l0,0l0,0l0,0l0,0l0,0l0,0l0,0l0,0l0,0l0,0l0,0l0,0l0,0l0,0l0,0l0,0l0,0l0,0l0,0l0,0l0,0l0,0l0,0l0,0
			l0,0l0,0l0,0l0,0l0,0l0,0l0,0l0.03,0.04l0,0l0,0l0,0l0,0l0,0l0.01,0.02l0,0l0,0l0,0l0,0l0,0l0,0l0,0l0,0l0,0l0,0l0,0l0,0l0,0l0,0
			l0,0l0,0l0,0l0,0l0,0l0,0l0,0l0,0l0,0l0,0l0,0l0,0l0,0l0,0l0,0l0,0l0.03,0.04l0,0l0,0l0,0l0,0l0,0l0,0l0.01,0.01l0,0l0,0l0,0l0,0
			l0,0l0,0l0,0l0,0l0,0l0,0l0,0l0,0l0,0l0,0l0,0l0,0l0,0l0,0l0,0l0,0l0,0l0,0l0,0l0,0l0,0l0,0l0,0l0,0l0,0l0,0l0.03,0.04l0,0l0,0
			l0,0l0,0l0,0l0.01,0.01l0,0l0,0l0,0l0,0l0,0l0,0l0,0l0,0l0,0l0,0l0,0l0,0l0,0l0,0l0,0l0,0l0,0l0,0l0,0l0,0l0,0l0,0l0,0l0,0l0,0
			l0,0l0,0l0.04,0.05l0,0l0,0l0.01,0.01l0,0l0,0l0,0l0,0l0,0l0,0l0,0l0,0l0,0l0,0l0,0l0,0l0.01,0.01l0,0l0,0l0,0l0,0l0,0l0,0l0,0
			l0,0l0,0l0,0l0,0l0,0l0,0l0.03,0.04l0,0l0,0l0,0l0,0l0,0l0.01,0.01l0,0l0,0l0,0l0,0l0,0l0,0l0,0l0.01,0.02l0,0l0,0l0,0l0,0l0,0
			l0,0l0,0l0,0l0,0l0,0l0,0l0,0l0,0l0,0l0.03,0.04l0,0l0,0l0,0l0.01,0.02l0,0l0,0l0,0l0,0l0,0l0,0l0,0l0,0l0,0l0,0l0,0l0,0l0,0l0,0
			l0,0l0,0l0,0l0,0l0,0l0,0l0,0l0,0l0,0l0,0l0,0l0,0l0,0l0,0l0,0l0,0l0,0l0,0l0,0c0.01,0.01,0.02,0.02,0.03,0.03l0,0l0,0l0,0l0,0
			L22.88,31l0,0l0,0l0,0l0,0l0,0l0,0l0,0l0,0l0,0l0,0l0,0l0,0l0,0l0,0l0,0l0,0l0,0l0,0l0,0l0,0l0,0l0,0l0,0l0,0l0,0l0,0l0,0
			c0.01,0.02,0.02,0.03,0.04,0.05l0,0l0,0l0.01,0.01l0,0l0,0l0,0l0,0l0,0l0,0l0,0l0,0l0.01,0.02l0,0l0,0l0,0l0,0l0,0l0,0l0,0l0,0
			l0,0l0,0l0,0l0,0l0,0l0,0c0.01,0.01,0.02,0.02,0.03,0.03l0,0l0,0l0,0l0.01,0.01l0,0l0,0l0,0l0,0l0,0l0,0l0,0l0,0l0,0l0,0l0,0l0,0
			l0,0l0,0l0,0l0,0l0,0l0,0l0,0l0,0l0,0l0,0l0,0l0,0l0,0l0,0l0,0l0,0l0,0l0,0l0,0l0,0l0,0l0,0l0,0l0,0l0.02,0.03l0,0l0,0l0,0
			l0.01,0.02l0.03,0.03l0,0l0,0l0,0l0,0l0,0l0,0l0,0l0,0l0,0l0.03,0.03l0,0l0,0l0,0l0,0l0.01,0.01l0,0l0,0l0,0l0,0l0,0l0,0l0,0l0,0
			l0,0l0,0l0.01,0.02l0,0l0,0l0,0l0,0l0,0l0,0l0,0l0,0l0,0l0,0l0,0l0,0l0,0l0.03,0.03l0,0l0,0l0,0l0,0l0.02,0.02l0,0l0,0l0,0l0,0
			l0,0l0,0l0,0l0,0l0,0l0,0l0,0l0,0l0,0l0,0l0,0l0,0l0,0l0,0l0,0l0,0l0,0l0,0l0,0l0,0l0,0l0,0l0,0l0,0l0,0l0,0l0,0
			c0.01,0.01,0.02,0.02,0.03,0.03l0,0l0,0l0.02,0.02l0,0l0,0l0,0l0,0l0,0l0,0l0,0l0,0l0,0l0,0l0,0l0,0l0,0l0,0l0,0l0,0l0,0l0,0l0,0
			l0,0l0,0l0,0l0,0l0,0l0,0l0,0l0,0l0,0l0,0l0,0l0,0l0,0l0,0l0,0l0,0c0.01,0.01,0.02,0.02,0.03,0.03l0,0l0,0l0.02,0.02l0,0l0,0l0,0
			l0,0l0,0l0,0l0,0l0,0l0,0l0,0l0,0l0,0l0,0l0,0l0,0l0,0l0,0l0,0l0,0l0,0l0,0l0,0l0,0l0,0l0,0l0,0l0,0l0,0l0,0l0,0l0,0l0,0l0,0l0,0
			l0,0c0.01,0.01,0.02,0.02,0.03,0.03l0,0l0,0l0,0l0,0l0.02,0.02l0,0l0,0l0,0l0,0l0,0l0,0l0,0l0,0l0,0l0,0l0,0l0,0l0,0l0,0l0,0l0,0
			l0,0l0,0l0,0l0,0l0,0l0,0l0,0l0,0l0,0l0,0l0,0l0,0l0,0l0,0l0,0l0,0l0,0l0,0l0,0l0,0c0.01,0.01,0.02,0.02,0.02,0.02l0,0l0,0l0,0
			l0,0l0,0l0.02,0.02l0,0l0,0l0,0l0,0l0,0l0,0l0,0l0,0l0,0l0,0l0,0l0,0l0,0l0,0l0,0l0,0l0,0l0,0l0,0l0,0l0,0l0,0l0,0l0,0l0,0l0,0
			l0,0l0.03,0.03l0,0l0,0l0,0l0.02,0.02l0,0l0,0l0,0l0,0l0.03,0.03l0,0l0,0l0,0l0,0l0,0l0,0l0,0l0,0l0,0l0,0l0,0l0,0l0.02,0.02l0,0
			l0,0l0,0l0.02,0.02l0,0l0,0l0,0l0,0l0,0l0,0l0,0l0,0l0,0l0,0l0,0l0,0l0,0l0,0l0,0l0,0l0,0l0,0l0,0l0,0l0,0l0,0l0,0l0,0l0,0l0,0
			l0,0l0,0l0,0l0,0l0,0l0,0l0.03,0.03l0,0l0,0l0.02,0.02l0,0l0,0l0,0l0,0l0,0l0,0l0,0l0,0l0,0l0.01,0.01l0,0l0,0l0,0l0,0l0.01,0.01
			l0,0l0,0l0,0l0,0l0,0l0,0l0,0l0,0l0,0l0,0l0,0l0,0l0,0l0.02,0.02l0,0l0,0l0,0l0,0l0.02,0.02l0,0l0,0l0,0l0,0l0,0l0,0l0,0l0,0l0,0
			l0,0l0,0l0,0l0,0l0,0l0,0l0,0l0,0l0,0l0,0l0,0l0,0l0,0l0,0l0,0l0,0l0,0l0,0l0,0l0,0l0,0l0,0l0,0l0,0l0,0l0,0l0,0
			c0.01,0.01,0.02,0.02,0.03,0.03l0,0l0.02,0.02l0,0l0,0l0,0l0,0l0,0l0,0l0,0l0,0l0.03,0.02l0,0l0,0l0,0l0,0l0,0l0,0l0,0l0,0l0,0
			l0.02,0.02l0,0l0,0l0,0l0,0l0.03,0.02l0,0l0,0l0,0l0,0l0,0l0,0l0,0l0,0l0,0l0,0l0,0l0,0l0,0l0,0l0,0l0,0l0,0l0,0l0,0l0,0l0,0l0,0
			l0,0l0,0l0,0l0,0l0,0l0,0l0,0l0,0l0,0l0,0l0,0l0.02,0.02l0,0l0,0l0,0l0,0l0.03,0.03l0,0l0,0l0,0l0,0l0,0l0,0l0,0l0,0l0.01,0l0,0
			l0,0l0,0l0,0l0.01,0.01l0,0l0,0l0,0l0,0l0,0l0,0l0,0l0,0l0,0l0,0l0,0l0,0l0,0l0,0l0,0l0.02,0.01l0,0l0,0l0,0l0,0l0.02,0.02l0,0
			l0,0l0,0l0,0l0,0l0,0l0,0l0,0l0,0l0,0l0,0l0,0l0,0l0,0l0,0l0,0l0,0l0,0l0,0l0,0l0,0l0,0l0,0l0,0l0,0l0,0l0,0l0,0l0,0l0,0l0,0l0,0
			l0,0l0,0l0,0l0,0l0,0l0,0l0,0l0,0l0,0l0,0l0,0l0,0l0,0l0,0l0,0l0,0l0,0l0,0l0,0l0,0l0,0l0.02,0.02l0,0l0,0l0,0l0,0l0,0l0,0l0,0
			l0,0l0,0l0,0l0,0l0,0l0,0l0.01,0.01l0,0l0,0l0,0l0,0l0,0l0,0l0,0l0,0l0,0l0,0l0,0l0,0l0,0l0,0l0,0l0,0l0,0l0,0l0,0l0,0l0,0l0,0
			l0,0l0,0l0,0l0,0l0,0l0,0l0,0l0,0l0,0l0,0l0,0l0,0l0,0l0,0l0,0l0,0l0,0l0,0l0,0l0,0l0,0l0,0l0,0l0,0l0,0l0,0l0,0l0,0l0,0l0,0l0,0
			l0,0l0,0l0,0l0,0l0,0l0,0l0.02,0.01l0,0l0,0l0.03,0.02l0,0l0,0l0,0l0,0l0,0l0,0l0,0l0,0l0,0l0,0l0,0l0,0l0.01,0.01l0,0l0.01,0.01
			l0,0l0,0l0,0l0,0l0,0l0,0l0,0l0,0l0,0l0,0l0,0l0,0l0,0l0,0l0.02,0.01l0,0l0,0l0,0l0,0l0,0l0,0l0,0l0,0l0,0l0.01,0.01l0,0l0,0l0,0
			l0,0l0,0l0,0l0,0l0,0l0,0l0,0l0,0l0,0l0,0l0,0l0,0l0,0l0,0l0,0l0,0l0,0l0,0l0,0l0,0l0,0v0l0,0l0,0l0,0l0,0l0,0l0,0l0,0l0,0
			l0.01,0.01l0,0l0.01,0l0,0l0,0l0,0l0,0l0,0l0,0l0,0l0,0l0,0l0,0l0,0l0,0l0,0l0,0l0,0l0.02,0.01l0.03,0.02l0,0l0,0l0,0l0,0l0,0l0,0
			l0,0c0.01,0.01,0.02,0.02,0.04,0.02l0,0l0,0l0,0l0,0l0,0l0,0l0,0l0,0l0,0l0.01,0.01l0,0l0,0l0,0l0,0l0,0l0,0l0,0l0,0l0,0
			l0.01,0.01l0,0l0,0l0,0l0,0l0,0l0,0l0,0l0,0l0,0l0,0l0,0l0,0l0,0l0,0l0,0l0,0l0,0l0,0l0,0l0,0l0,0l0,0l0,0l0,0l0,0l0,0l0,0l0,0
			l0,0l0,0l0,0l0,0l0,0l0,0l0,0l0,0l0,0l0,0l0,0l0,0l0,0l0,0l0,0l0.01,0l0,0l0,0l0,0l0,0l0,0l0,0l0,0l0,0l0,0l0,0l0,0l0,0l0,0l0,0
			l0,0l0,0l0.01,0.01l0,0l0,0l0,0l0,0l0,0l0,0l0,0l0,0l0,0l0,0l0.01,0.01l0,0l0,0l0,0l0,0l0,0l0,0l0,0l0,0l0,0l0,0l0,0l0,0l0,0l0,0
			l0,0l0,0l0,0l0,0l0,0l0,0l0,0l0,0l0,0l0,0l0,0l0,0l0,0l0,0l0,0l0,0l0,0l0,0l0,0l0,0l0,0l0.04,0.02l0,0l0,0l0,0l0,0l0,0l0,0l0,0
			l0.01,0.01l0,0l0,0l0,0l0,0l0,0l0,0c0.01,0,0.01,0.01,0.02,0.01l0,0l0,0l0,0l0,0l0,0l0,0l0,0l0,0l0,0l0,0l0,0l0,0l0,0l0,0l0,0l0,0
			l0,0l0,0l0,0l0,0l0,0l0,0l0,0l0,0l0,0l0,0l0,0l0,0l0,0l0,0l0,0l0,0l0,0l0,0l0,0l0.03,0.02l0,0l0,0l0,0l0,0l0,0l0,0l0,0l0,0
			l0.01,0.01l0,0l0,0l0,0l0,0l0,0l0,0l0.03,0.02l0,0l0,0l0,0l0,0l0,0l0,0l0,0l0,0l0,0l0,0l0,0l0,0l0,0l0,0l0,0l0,0l0,0l0,0l0,0l0,0
			l0,0l0,0l0,0l0,0l0,0l0,0l0,0l0,0l0,0l0,0l0,0l0,0l0,0l0,0l0,0l0.01,0l0,0l0,0l0,0l0,0l0,0l0,0l0,0l0,0l0,0l0,0l0,0l0,0l0.01,0.01
			l0,0l0,0l0,0l0,0l0,0l0.03,0.01l0,0l0,0l0,0l0,0l0,0l0,0l0,0l0,0l0,0l0,0l0,0l0,0l0,0l0,0l0,0l0,0l0,0l0,0l0,0l0,0l0,0l0,0l0,0
			l0,0l0,0l0,0l0,0l0,0l0,0l0,0l0,0l0,0l0,0l0,0l0,0l0,0l0,0l0,0l0,0l0,0l0,0l0,0l0,0l0,0l0,0l0,0l0,0l0,0l0.01,0l0,0l0,0l0,0l0,0
			l0,0l0,0l0,0l0,0l0,0l0,0l0,0l0,0l0,0l0,0l0,0l0,0l0,0l0,0l0,0l0,0l0.01,0l0,0l0,0l0,0l0,0l0,0l0,0l0.03,0.01l0,0l0,0l0,0l0,0l0,0
			l0,0l0,0l0,0l0,0l0,0l0,0l0,0l0,0l0,0l0,0l0,0l0,0l0,0l0,0l0,0l0,0l0,0l0,0l0,0l0,0l0,0l0,0l0,0l0,0l0,0l0,0l0,0l0,0l0,0l0,0l0,0
			l0,0l0,0l0,0l0,0l0,0l0,0l0,0l0,0l0,0l0,0l0,0l0,0l0,0l0,0l0,0l0,0l0,0l0,0l0,0l0,0l0,0l0,0l0,0l0,0l0,0l0,0l0,0l0,0l0,0
			c0,0,0.01,0.01,0.01,0.01l0,0l0,0l0,0l0,0l0,0l0,0l0,0l0,0l0,0l0,0l0,0l0.02,0.01l0,0l0,0l0,0l0,0l0,0l0,0l0,0l0,0l0,0l0,0l0,0
			l0,0l0,0l0,0l0,0l0,0l0,0l0,0l0,0l0,0l0,0l0,0l0,0l0,0l0,0l0,0l0.03,0.02l0,0l0,0l0,0l0,0l0,0l0,0l0,0l0,0l0,0l0.01,0.01l0,0l0,0
			l0,0l0,0l0,0l0,0l0,0l0,0l0.02,0.01l0,0l0,0l0,0l0,0l0,0l0,0l0,0l0,0l0,0l0,0l0,0l0,0l0,0l0,0l0,0l0,0l0,0l0,0l0,0l0,0l0,0
			l0.04,0.02l0,0l0,0l0,0l0,0l0,0l0,0l0,0l0,0l0.01,0l0,0l0,0l0,0l0,0l0.02,0.01l0,0l0,0l0,0l0,0l0,0l0,0l0,0l0,0l0,0l0,0l0,0l0,0
			l0,0l0,0l0,0l0,0l0,0l0,0l0,0l0,0l0,0l0,0l0,0l0,0l0,0l0,0l0,0l0,0l0,0l0,0l0,0l0,0l0,0l0,0l0,0l0,0l0,0l0,0l0,0l0.02,0.01l0,0
			l0,0l0,0l0,0l0,0l0,0l0,0l0,0l0,0l0,0l0,0l0,0l0.01,0l0,0l0,0l0,0l0,0l0,0l0,0l0,0l0,0l0.03,0.01l0,0l0,0l0,0l0,0l0,0l0,0l0,0l0,0
			l0,0l0,0l0,0l0,0l0,0l0,0l0,0l0,0l0,0l0,0l0,0l0,0l0,0l0,0l0,0l0,0l0,0l0,0l0,0l0,0l0,0l0,0l0,0l0,0l0.02,0.01l0,0l0,0l0,0l0,0
			l0,0l0,0l0,0l0,0l0,0l0,0l0,0l0,0l0,0l0.01,0l0,0l0,0l0,0l0,0l0,0l0,0c0.01,0,0.02,0.01,0.03,0.01l0,0l0,0l0,0l0,0l0,0l0,0l0,0
			l0,0l0,0l0,0l0,0l0,0l0,0l0,0l0,0l0,0l0,0l0,0l0,0l0,0l0,0l0,0l0,0l0,0l0,0l0,0l0,0l0,0l0,0l0,0l0,0l0,0l0,0l0,0l0,0l0,0l0,0l0,0
			l0,0l0,0l0,0l0,0l0,0l0,0l0,0l0,0l0,0l0,0l0,0l0,0l0,0l0,0l0,0l0,0l0,0l0,0l0,0l0,0l0,0l0,0l0,0l0,0l0,0l0,0l0,0l0,0l0,0l0.01,0
			l0,0l0,0l0,0l0,0l0,0l0,0l0.04,0.01l0,0l0,0l0,0l0,0l0,0l0,0l0,0l0,0l0,0l0,0l0,0l0,0l0,0l0,0l0,0l0,0l0,0l0,0l0,0l0,0l0,0l0,0
			l0,0l0,0l0,0l0,0l0,0l0,0l0,0l0,0l0,0l0.02,0.01l0,0l0,0l0,0l0,0l0,0l0,0l0,0l0,0l0,0l0,0l0,0l0,0l0,0l0,0
			c0.01,0.01,0.03,0.01,0.04,0.02l0,0l0,0l0,0l0,0l0,0l0,0l0,0l0,0l0,0l0,0l0,0l0,0l0,0l0,0l0,0l0,0l0,0l0,0l0,0l0,0l0,0l0,0l0,0
			l0,0l0,0l0,0l0,0l0,0l0,0l0,0l0,0l0,0l0,0l0,0l0,0l0,0l0,0l0,0l0,0l0,0l0,0l0,0l0,0l0,0l0,0l0,0l0,0l0,0l0,0l0,0l0,0l0,0l0,0l0,0
			l0,0l0,0l0,0l0,0c0.01,0,0.03,0.01,0.04,0.01l0,0l0,0l0,0l0,0l0,0l0,0l0,0l0,0l0,0l0,0l0,0l0,0l0,0l0,0l0,0l0,0l0,0l0,0l0,0l0,0
			l0,0l0,0l0,0l0,0l0,0l0,0l0,0l0,0l0,0l0,0l0,0l0.02,0.01l0,0l0,0l0,0l0,0l0,0l0,0l0,0l0,0l0,0h0l0,0l0,0l0,0l0,0l0,0
			c0.02,0,0.03,0.01,0.05,0.01l0,0l0,0l0,0l0,0l0,0l0,0l0,0l0,0l0,0l0,0l0,0l0,0l0,0l0,0l0,0l0,0l0,0l0,0l0,0l0,0l0,0l0,0l0,0l0,0
			l0,0l0,0l0,0l0,0l0,0l0,0l0,0l0,0l0,0l0,0l0,0l0,0l0,0l0,0l0,0l0.01,0l0,0l0,0l0,0l0,0l0,0l0,0l0,0l0,0l0,0l0,0l0,0l0,0l0,0l0,0
			c0.01,0,0.02,0.01,0.03,0.01l0,0l0,0l0,0l0,0l0,0l0,0l0,0l0,0l0,0l0,0l0,0l0,0l0,0l0,0l0,0l0,0l0,0l0,0l0,0l0,0l0,0l0,0l0,0l0,0
			l0,0l0,0l0,0l0,0l0,0l0,0l0,0l0,0l0,0l0,0l0,0l0,0l0.03,0.01l0,0l0,0l0,0l0,0l0,0l0,0l0,0l0,0l0,0l0,0l0,0l0,0l0.02,0.01l0,0l0,0
			l0,0l0,0l0,0l0,0l0,0l0,0l0,0l0,0l0,0l0,0l0,0l0,0l0,0l0,0l0,0l0,0l0,0l0,0l0,0l0,0l0,0l0,0l0,0l0,0l0,0l0,0l0,0l0,0l0,0l0,0l0,0
			l0,0c0.01,0,0.03,0.01,0.04,0.01l0,0l0,0l0,0l0,0l0,0l0,0l0,0l0,0l0,0l0,0l0,0l0,0l0,0c0.01,0,0.03,0.01,0.04,0.01l0,0l0,0l0,0
			l0,0l0,0l0,0l0,0l0,0l0,0l0,0l0,0l0,0l0,0l0,0l0,0l0,0l0,0l0,0l0,0l0,0l0,0l0,0l0,0l0,0l0,0l0,0l0,0l0,0l0,0l0,0l0,0l0,0l0,0l0,0
			l0,0l0,0l0,0l0,0l0.02,0.01l0,0l0,0l0,0l0,0l0,0l0,0l0,0l0,0l0,0c0.02,0,0.04,0.01,0.05,0.01l0,0l0,0l0,0l0,0l0,0l0,0l0,0l0,0l0,0
			l0,0l0,0l0,0l0,0l0,0l0,0l0,0l0,0l0,0l0,0l0,0l0,0l0,0l0,0l0,0l0,0l0.02,0l0,0l0,0l0,0l0,0l0,0l0,0l0,0l0,0l0,0l0,0l0,0l0,0
			c0.02,0,0.04,0.01,0.06,0.01l0,0l0,0l0,0l0,0l0,0l0,0l0,0l0,0l0,0l0,0l0,0l0,0l0,0l0,0l0,0l0,0l0,0l0,0l0,0l0,0l0,0l0,0l0,0l0,0h0
			l0,0l0,0l0,0l0,0l0,0l0,0l0,0l0,0l0.02,0l0,0l0,0l0,0l0,0l0,0l0,0l0,0l0,0l0,0l0,0c0.02,0,0.03,0.01,0.05,0.01l0,0l0,0l0,0l0,0
			l0,0l0,0l0,0l0,0l0,0l0,0l0,0l0,0l0,0l0,0l0,0l0,0l0,0l0,0l0,0l0,0l0,0l0,0l0,0l0,0l0,0l0,0l0,0l0,0l0,0l0,0l0,0l0.02,0l0,0l0,0
			l0,0l0,0l0,0l0,0l0,0l0,0l0,0l0,0l0,0c0.03,0.01,0.07,0.01,0.11,0.01h0l0,0l0,0l0,0c0.02,0,0.05,0.01,0.07,0.01l0,0l0,0l0,0l0,0
			l0,0l0,0h0l0,0l0,0l0,0h0l0,0l0,0l0,0l0,0l0,0l0,0h0l0,0l0,0l0,0l0,0l0,0l0,0h0l0,0l0,0l0,0l0,0l0,0l0,0h0l0,0l0.01,0l0,0l0,0l0,0
			l0,0h0l0,0l0,0l0,0c0.04,0,0.07,0.01,0.11,0.01l0,0c0.04,0,0.07,0,0.11,0.01l0,0c0.04,0,0.07,0,0.11,0
			c3.36,0.07,5.67-1.6,7.07-4.2c-0.1,1.12-0.13,2.19-0.12,3.24c0,0.23,0.01,1.3,0.16,2.39C34.67,35.67,34.88,36.09,35.19,36.44
			L35.19,36.44L35.19,36.44z"/>
		<path class="st52" d="M49.69,43.15c-0.14-0.11-0.28-0.21-0.43-0.31c-3.64-2.44-10.75-4.21-13.41-5.79
			c-2.87,8.75-14.95,6.89-16.42-0.14c-3.11,1.14-11.38,3.08-14.61,5.94C9.74,50.01,18,54.71,27.35,54.71
			C36.58,54.71,44.74,50.14,49.69,43.15L49.69,43.15z"/>
		<path class="st52" d="M19.99,20.16c0.35-0.09,0.5-0.13,0.91-0.25c2.24-0.67,5.07-0.38,6.34,0.34c0.22,0.13,0.56,0.17,0.91,0.17
			c0.34,0,0.69-0.05,0.91-0.17c1.28-0.72,4.1-1.01,6.34-0.34c0.29,0.08,0.56,0.16,0.81,0.23c0.11,0.29,0.16,0.77-0.06,1.43
			l-0.71,0.02c0,0-0.18,0.59-0.87,1.5c-0.69,0.91-3.57,0.82-4.46,0.61c-0.89-0.21-1.68-2.23-1.68-2.23c-0.21-0.02-0.35-0.02-0.56,0
			c0,0-0.79,2.03-1.68,2.23c-0.89,0.21-3.77,0.3-4.46-0.61c-0.69-0.91-0.87-1.49-0.87-1.49c-0.27-0.43-0.46-0.55-0.96-0.49
			C19.86,20.25,19.9,20.83,19.99,20.16L19.99,20.16L19.99,20.16z M29.09,20.83c0.05-0.68,5.85-1.72,5.88-0.1
			c0.02,1.04-0.12,2.05-0.94,2.52c-0.49,0.28-1.31,0.36-2.51,0.39C28.34,23.73,29.09,20.83,29.09,20.83L29.09,20.83L29.09,20.83z
			 M27.22,20.83c-0.13-0.79-5.85-1.68-5.88-0.1c-0.02,1.04,0.12,2.05,0.94,2.52c0.49,0.28,1.31,0.36,2.51,0.39
			C27.97,23.73,27.22,20.85,27.22,20.83L27.22,20.83z"/>
		<path class="st52" d="M20.5,26.22c0.04,0.08,1.83,3.81,2.74,2.49c0.92-1.32,3.15-2.47,3.64-2.26c1.05,0.29,1.75,0.18,2.74,0
			c0.49-0.21,2.72,0.94,3.64,2.26c0.92,1.32,2.51-2.18,2.54-2.26c-0.26,1.76-0.17,2.84-1.22,4.65c-1.85,1.96-3.61,3.24-5.6,3.29
			c-0.25,0.01-0.49,0-0.73-0.01c-0.24,0.01-0.48,0.02-0.73,0.01c-1.97-0.04-4.31-1.66-5.57-3.39C20.9,28.45,20.87,28.47,20.5,26.22
			L20.5,26.22L20.5,26.22z M24.75,29.09l0.69,0.74c0.93,0.99,0.73,1.66,2.58,1.79c0.08,0,0.16,0,0.23,0c0.07,0,0.15,0,0.23,0
			c1.85-0.13,1.65-0.8,2.58-1.79l0.69-0.74C29.51,27.56,27.03,27.55,24.75,29.09L24.75,29.09L24.75,29.09z"/>
	</g>
</g>
</svg>
