<?xml version="1.0" encoding="utf-8"?>
<!-- Generator: Adobe Illustrator 26.5.0, SVG Export Plug-In . SVG Version: 6.00 Build 0)  -->
<svg version="1.1" xmlns="http://www.w3.org/2000/svg" xmlns:xlink="http://www.w3.org/1999/xlink" x="0px" y="0px"
	 viewBox="0 0 55.17 55.17" style="enable-background:new 0 0 55.17 55.17;" xml:space="preserve">
<style type="text/css">
	.st0{opacity:0.51;}
	.st1{fill:#8D8DA5;}
	.st2{opacity:0.8;fill:#ABABBA;}
	.st3{fill:#80A3D0;}
	.st4{fill:#9CB9DB;}
	.st5{fill:#7E9CC7;}
	.st6{fill:#DCBAAF;}
	.st7{fill:#AFA9B9;}
	.st8{fill:#BDB4D3;}
	.st9{fill:#E1BF89;}
	.st10{fill:#F3B186;}
	.st11{fill:#9A827A;}
	.st12{fill:#C3A479;}
	.st13{fill:#D4A594;}
	.st14{fill:#DFB88B;}
	.st15{fill:#CEA887;}
	.st16{fill:#C19977;}
	.st17{fill:#AB8658;}
	.st18{fill:#FFFFFF;}
	.st19{fill:#D77466;}
	.st20{opacity:0.8;fill:#D77466;}
	.st21{fill:none;stroke:#FFFFFF;stroke-width:3;stroke-linecap:round;stroke-linejoin:round;stroke-miterlimit:10;}
	.st22{fill:none;stroke:#D77466;stroke-width:3;stroke-linecap:round;stroke-linejoin:round;stroke-miterlimit:10;}
	.st23{opacity:0.5;fill:none;stroke:#88889F;stroke-miterlimit:10;}
	.st24{fill:#BEBEC9;}
	.st25{opacity:0.5;fill:none;stroke:#88889F;stroke-width:0.5;stroke-miterlimit:10;}
	.st26{fill:#31314F;}
	.st27{opacity:0.09;fill:url(#SVGID_1_);}
	.st28{fill:#275C73;}
	.st29{fill:none;stroke:#275C73;stroke-miterlimit:10;}
	.st30{opacity:0.09;fill:url(#SVGID_00000105400601487168983110000010254537819933849274_);}
	.st31{opacity:0.09;fill:url(#SVGID_00000070819741239111466500000009020187615355460496_);}
	.st32{opacity:0.09;fill:url(#SVGID_00000106138887998568608970000007359086422436879288_);}
	.st33{opacity:0.09;fill:url(#SVGID_00000020358958994299273080000005671629072155240069_);}
	.st34{opacity:0.09;fill:url(#SVGID_00000008143255848215497280000015948271288940942511_);}
	.st35{opacity:0.09;fill:url(#SVGID_00000006684209860159847720000004846412840475909014_);}
	.st36{opacity:0.09;fill:url(#SVGID_00000079450911563646721650000009751182456375791806_);}
	.st37{opacity:0.09;fill:url(#SVGID_00000064323053132435820170000015549972375745120416_);}
	.st38{opacity:0.09;fill:url(#SVGID_00000074434572084754358980000009659524646724732805_);}
	.st39{fill:none;}
	.st40{opacity:0.15;fill:#D77466;}
	.st41{fill:#F5D4C3;}
	.st42{fill:#262C57;}
	.st43{fill:none;stroke:#262C57;stroke-miterlimit:10;}
	.st44{opacity:0.08;}
	.st45{opacity:0.08;fill:#275C73;}
	.st46{opacity:0.08;fill:#D77466;}
	.st47{opacity:0.53;fill:#D77466;}
	.st48{opacity:0.21;fill:#275C73;}
	.st49{fill:#EAE3CD;}
	.st50{fill:none;stroke:#D77466;stroke-width:1.5;stroke-linecap:round;stroke-miterlimit:10;}
	.st51{fill-rule:evenodd;clip-rule:evenodd;fill:#E0E0EB;}
	.st52{fill-rule:evenodd;clip-rule:evenodd;fill:#313151;}
	.st53{fill-rule:evenodd;clip-rule:evenodd;fill:#FFFFFF;}
	.st54{fill-rule:evenodd;clip-rule:evenodd;fill:#B7C9E6;}
	.st55{fill-rule:evenodd;clip-rule:evenodd;fill:#8A8D89;}
	.st56{fill-rule:evenodd;clip-rule:evenodd;fill:#F1EDE1;}
	.st57{fill-rule:evenodd;clip-rule:evenodd;fill:#2F3230;}
	.st58{fill:#F7DC7A;}
	.st59{fill:#E1706C;}
	.st60{fill:#624F2D;}
	.st61{fill:#8DBCAE;}
	.st62{clip-path:url(#SVGID_00000127016112866693004800000009300171039748350368_);fill:#8DBCAE;}
	.st63{fill:#E8E8EF;}
	.st64{fill:none;stroke:#262C57;stroke-linecap:round;stroke-linejoin:round;stroke-miterlimit:10;}
	.st65{fill:none;stroke:#E8E8EF;stroke-miterlimit:10;}
	.st66{fill:none;stroke:#262C57;stroke-width:4;stroke-linecap:round;stroke-miterlimit:10;}
	.st67{fill:none;stroke:#D77466;stroke-width:1.5;stroke-miterlimit:10;}
	.st68{fill:none;stroke:#262C57;stroke-width:1.5;stroke-linecap:round;stroke-linejoin:round;stroke-miterlimit:10;}
	.st69{clip-path:url(#SVGID_00000097488654953040648870000007157147801757842879_);fill:#8DBCAE;}
	.st70{clip-path:url(#SVGID_00000072978256826422960520000016884066872453856654_);fill:#8DBCAE;}
	.st71{opacity:0.09;fill:url(#SVGID_00000067957221931235739210000007450356863528076969_);}
	.st72{fill:url(#SVGID_00000128480087642404961860000008165064120504803982_);}
	.st73{opacity:0.39;clip-path:url(#SVGID_00000029007241049806020260000016113350180198805938_);fill:#D77466;}
	.st74{opacity:0.21;clip-path:url(#SVGID_00000029007241049806020260000016113350180198805938_);fill:#EAE3CD;}
	.st75{clip-path:url(#SVGID_00000029007241049806020260000016113350180198805938_);}
	.st76{fill:#FBF2DC;}
	.st77{clip-path:url(#SVGID_00000029007241049806020260000016113350180198805938_);fill:#DA7466;}
	.st78{clip-path:url(#SVGID_00000029007241049806020260000016113350180198805938_);fill:#080B10;}
	.st79{fill:#DA7466;}
	.st80{fill:none;stroke:#FFFFFF;stroke-linecap:round;stroke-linejoin:round;stroke-miterlimit:10;}
	.st81{fill:#DB5946;}
	.st82{fill:#96C254;}
	.st83{fill:#6C863D;}
	.st84{fill:#F4D2CE;}
	.st85{fill:url(#SVGID_00000024687296919877270580000016398971903723782046_);}
	.st86{opacity:0.22;clip-path:url(#SVGID_00000041276260233356120870000003451292221348999063_);fill:#EAE3CD;}
	.st87{clip-path:url(#SVGID_00000041276260233356120870000003451292221348999063_);}
	.st88{fill:#5A6DD1;}
	.st89{clip-path:url(#SVGID_00000041276260233356120870000003451292221348999063_);fill:#DA7466;}
	.st90{clip-path:url(#SVGID_00000041276260233356120870000003451292221348999063_);fill:#FCFAF1;}
	.st91{clip-path:url(#SVGID_00000041276260233356120870000003451292221348999063_);fill:#080B10;}
	.st92{fill:#8BD2F9;}
	.st93{fill:#F5D0AF;}
	.st94{fill:#D5A479;}
	.st95{fill:none;stroke:#FFFFFF;stroke-miterlimit:10;}
	.st96{clip-path:url(#SVGID_00000083775095763173847710000017183561736826577599_);fill:#8DBCAE;}
	.st97{fill:url(#SVGID_00000071524560850239570130000015053236946425879728_);}
	.st98{clip-path:url(#SVGID_00000044898458706672223490000017990127374109468853_);}
	.st99{opacity:0.53;fill:#EAE3CD;}
	.st100{opacity:0.31;fill:#D77466;}
	.st101{fill:#FCFAF1;}
	.st102{clip-path:url(#SVGID_00000044898458706672223490000017990127374109468853_);fill:#080B10;}
	.st103{fill:#F6F1DA;}
	.st104{fill:#DDD8C6;}
	.st105{fill:#F8E1A0;}
	.st106{fill:#EDEDED;}
	.st107{fill:#646477;}
	.st108{fill:none;stroke:#D77466;stroke-miterlimit:10;}
	.st109{clip-path:url(#SVGID_00000075847099528157607790000003190941835080405934_);fill:#8DBCAE;}
	.st110{fill:url(#SVGID_00000067215731903885420840000001558033875768324758_);}
	.st111{clip-path:url(#SVGID_00000131363302246498817540000001561577841733519492_);}
	.st112{clip-path:url(#SVGID_00000131363302246498817540000001561577841733519492_);fill:#080B10;}
	.st113{fill:none;stroke:#E8E8EF;stroke-width:0.75;stroke-miterlimit:10;}
	.st114{clip-path:url(#SVGID_00000128458591761382544940000008901949349634088118_);fill:#8DBCAE;}
	.st115{clip-path:url(#SVGID_00000140712900135374374050000008432520678529924751_);fill:#8DBCAE;}
	.st116{fill:#4599D6;}
	.st117{fill:#642673;}
	.st118{fill:#BE286F;}
	.st119{clip-path:url(#SVGID_00000019647780078855823670000007522446484726160531_);fill:#8DBCAE;}
	.st120{opacity:0.54;fill:#E8E8EF;}
	.st121{clip-path:url(#SVGID_00000165928073629571500410000003300903532737404048_);fill:#8DBCAE;}
	.st122{fill:#80808B;}
	.st123{clip-path:url(#SVGID_00000038415478090026384230000017761446918075892097_);fill:#8DBCAE;}
	.st124{fill:none;stroke:#B5AFAE;stroke-linecap:round;stroke-linejoin:round;stroke-miterlimit:10;}
</style>
<g id="Background">
</g>
<g id="Content">
	<g>
		<path class="st51" d="M27.58,0C43.4,0,56.11,13.31,55.11,29.34c-0.85,13.74-12.03,24.92-25.77,25.77C13.31,56.11,0,43.4,0,27.58
			C0,12.35,12.35,0,27.58,0L27.58,0z"/>
		<path class="st52" d="M20.8,54.33c-6.05-5.52-5.26-23.06-4.66-30.84c0.71-9.12,4.63-17.94,10.24-17.05
			c8.33-2.57,13.02,6.86,13.64,16.7c0.51,8.14,2.62,26.31-6.79,31.45c-1.83,0.38-3.72,0.58-5.66,0.58
			C25.24,55.17,22.97,54.87,20.8,54.33L20.8,54.33z"/>
		<path class="st53" d="M22.95,25.53c0,0,1.04,7.21-0.17,9.24c-1.99,2.53-5.29,3.25-10,5.54c3.36,7.84,7.08,12.5,10.81,14.57
			c1.3,0.19,2.63,0.29,3.99,0.29c2.07,0,4.09-0.23,6.03-0.66c3.83-2.41,7.29-7.3,9.93-13.9c-7.3-4.14-7.67-3.87-9.49-5.82
			c-1-1.07-1.38-3.81-1.53-9.67L22.95,25.53L22.95,25.53z"/>
		<path class="st54" d="M23.07,26.47l9.55,1.35c0.2,4.14,0.62,6.18,1.5,7.03c0,0,0,0,0,0c-6.59,2.07-9.81-2.3-10.83-5.93
			C23.23,27.97,23.14,27.09,23.07,26.47L23.07,26.47L23.07,26.47z"/>
		<path class="st53" d="M20.06,18.53c-0.72,0-1.15,1.62-0.75,3.19c0.41,1.57,0.63,2.98,1.35,2.98c0.72,0,0.4-1.02,0.41-2.85
			C21.08,20.02,20.78,18.53,20.06,18.53L20.06,18.53L20.06,18.53z"/>
		<path class="st54" d="M20.29,19.11c-0.32-0.04-0.53,0.82-0.61,1.25c-0.08,0.44-0.07,1.61,0.18,2.2c0.2,0.48,0.5,1.77,0.65,0.23
			c0.04-0.4-0.17-0.48-0.25-0.97c-0.08-0.49,0.16-0.81,0.28-0.94C21,20.36,20.6,19.15,20.29,19.11L20.29,19.11L20.29,19.11z"/>
		<path class="st53" d="M36.37,18.55c0.72,0,1.14,1.63,0.73,3.2c-0.41,1.57-0.65,2.98-1.37,2.98c-0.72,0-0.4-1.02-0.39-2.85
			C35.34,20.04,35.64,18.55,36.37,18.55L36.37,18.55L36.37,18.55z"/>
		<path class="st54" d="M36.14,19.13c0.32-0.04,0.53,0.82,0.61,1.26c0.08,0.44,0.06,1.61-0.19,2.2c-0.2,0.48-0.51,1.77-0.65,0.22
			c-0.03-0.4,0.17-0.48,0.25-0.97c0.08-0.49-0.15-0.81-0.28-0.94C35.42,20.37,35.83,19.17,36.14,19.13L36.14,19.13L36.14,19.13z"/>
		<path class="st53" d="M28.17,9.04c8.23,0,7.52,4.9,7.5,11.6c-0.02,6.7-4.59,11.16-7.64,10.89c-2.75-0.1-7.35-3.99-7.33-10.69
			c0.01-5.12-0.58-9.3,2.97-10.99C24.78,9.33,26.24,9.04,28.17,9.04L28.17,9.04L28.17,9.04z"/>
		<path class="st52" d="M20.66,19.37c1.01-4.02,0.96-5.29,4.68-8.27c4.41,4.77,9.52,3.14,10.41,8.98c1.09-0.8,0.74-2.81,0.69-3.72
			c-0.14-4.43-4.22-9.23-8.32-8.72c-5.84,1.16-6.89,2.9-8.71,9.94L20.66,19.37L20.66,19.37z"/>
		<path class="st52" d="M48.54,45.52L48.4,44.8c-0.37-1.92-2.52-3.97-4.53-4.78c-2.67-1.3-4.6-1.75-7.05-3.17
			C33.86,49.09,20.53,45.49,20,36.92c-3.52,1.29-4.04,1.68-7.67,3.09c0,0-3.9,1.27-4.89,5.16L7.2,46.17c5.04,5.53,12.31,9,20.38,9
			C35.97,55.17,43.48,51.42,48.54,45.52L48.54,45.52z"/>
	</g>
</g>
</svg>
