<?xml version="1.0" encoding="utf-8"?>
<!-- Generator: Adobe Illustrator 26.5.0, SVG Export Plug-In . SVG Version: 6.00 Build 0)  -->
<svg version="1.1" xmlns="http://www.w3.org/2000/svg" xmlns:xlink="http://www.w3.org/1999/xlink" x="0px" y="0px"
	 viewBox="0 0 54.71 54.71" style="enable-background:new 0 0 54.71 54.71;" xml:space="preserve">
<style type="text/css">
	.st0{opacity:0.51;}
	.st1{fill:#8D8DA5;}
	.st2{opacity:0.8;fill:#ABABBA;}
	.st3{fill:#80A3D0;}
	.st4{fill:#9CB9DB;}
	.st5{fill:#7E9CC7;}
	.st6{fill:#DCBAAF;}
	.st7{fill:#AFA9B9;}
	.st8{fill:#BDB4D3;}
	.st9{fill:#E1BF89;}
	.st10{fill:#F3B186;}
	.st11{fill:#9A827A;}
	.st12{fill:#C3A479;}
	.st13{fill:#D4A594;}
	.st14{fill:#DFB88B;}
	.st15{fill:#CEA887;}
	.st16{fill:#C19977;}
	.st17{fill:#AB8658;}
	.st18{fill:#FFFFFF;}
	.st19{fill:#D77466;}
	.st20{opacity:0.8;fill:#D77466;}
	.st21{fill:none;stroke:#FFFFFF;stroke-width:3;stroke-linecap:round;stroke-linejoin:round;stroke-miterlimit:10;}
	.st22{fill:none;stroke:#D77466;stroke-width:3;stroke-linecap:round;stroke-linejoin:round;stroke-miterlimit:10;}
	.st23{opacity:0.5;fill:none;stroke:#88889F;stroke-miterlimit:10;}
	.st24{fill:#BEBEC9;}
	.st25{opacity:0.5;fill:none;stroke:#88889F;stroke-width:0.5;stroke-miterlimit:10;}
	.st26{fill:#31314F;}
	.st27{opacity:0.09;fill:url(#SVGID_1_);}
	.st28{fill:#275C73;}
	.st29{fill:none;stroke:#275C73;stroke-miterlimit:10;}
	.st30{opacity:0.09;fill:url(#SVGID_00000018204876606887260970000002151340001337023421_);}
	.st31{opacity:0.09;fill:url(#SVGID_00000034060288689084418330000004394726881694144180_);}
	.st32{opacity:0.09;fill:url(#SVGID_00000143592774903785682440000000618963995881141398_);}
	.st33{opacity:0.09;fill:url(#SVGID_00000035517483609708117360000003107348527109212307_);}
	.st34{opacity:0.09;fill:url(#SVGID_00000161598284331370061040000010888198771992998585_);}
	.st35{opacity:0.09;fill:url(#SVGID_00000161610453444675295590000000641740200504430270_);}
	.st36{opacity:0.09;fill:url(#SVGID_00000083090363488262322320000010773677685379298703_);}
	.st37{opacity:0.09;fill:url(#SVGID_00000098197395415856674320000014580264472768794812_);}
	.st38{opacity:0.09;fill:url(#SVGID_00000170240699508820845300000015131236454182623673_);}
	.st39{fill:none;}
	.st40{opacity:0.15;fill:#D77466;}
	.st41{fill:#F5D4C3;}
	.st42{fill:#262C57;}
	.st43{fill:none;stroke:#262C57;stroke-miterlimit:10;}
	.st44{opacity:0.08;}
	.st45{opacity:0.08;fill:#275C73;}
	.st46{opacity:0.08;fill:#D77466;}
	.st47{opacity:0.53;fill:#D77466;}
	.st48{opacity:0.21;fill:#275C73;}
	.st49{fill:#EAE3CD;}
	.st50{fill:none;stroke:#D77466;stroke-width:1.5;stroke-linecap:round;stroke-miterlimit:10;}
	.st51{fill-rule:evenodd;clip-rule:evenodd;fill:#E0E0EB;}
	.st52{fill-rule:evenodd;clip-rule:evenodd;fill:#313151;}
	.st53{fill-rule:evenodd;clip-rule:evenodd;fill:#FFFFFF;}
	.st54{fill-rule:evenodd;clip-rule:evenodd;fill:#B7C9E6;}
	.st55{fill-rule:evenodd;clip-rule:evenodd;fill:#8A8D89;}
	.st56{fill-rule:evenodd;clip-rule:evenodd;fill:#F1EDE1;}
	.st57{fill-rule:evenodd;clip-rule:evenodd;fill:#2F3230;}
	.st58{fill:#F7DC7A;}
	.st59{fill:#E1706C;}
	.st60{fill:#624F2D;}
	.st61{fill:#8DBCAE;}
	.st62{clip-path:url(#SVGID_00000097480436717501966850000016984811076594327728_);fill:#8DBCAE;}
	.st63{fill:#E8E8EF;}
	.st64{fill:none;stroke:#262C57;stroke-linecap:round;stroke-linejoin:round;stroke-miterlimit:10;}
	.st65{fill:none;stroke:#E8E8EF;stroke-miterlimit:10;}
	.st66{fill:none;stroke:#262C57;stroke-width:4;stroke-linecap:round;stroke-miterlimit:10;}
	.st67{fill:none;stroke:#D77466;stroke-width:1.5;stroke-miterlimit:10;}
	.st68{fill:none;stroke:#262C57;stroke-width:1.5;stroke-linecap:round;stroke-linejoin:round;stroke-miterlimit:10;}
	.st69{clip-path:url(#SVGID_00000183937382922632851380000002549163669436850610_);fill:#8DBCAE;}
	.st70{clip-path:url(#SVGID_00000038409072312947700470000002008640043196644007_);fill:#8DBCAE;}
	.st71{opacity:0.09;fill:url(#SVGID_00000104679966196122035590000017583582325777442711_);}
	.st72{fill:url(#SVGID_00000049934217647234014130000002061279645076507030_);}
	.st73{opacity:0.39;clip-path:url(#SVGID_00000078734608316125117840000001556779330527730596_);fill:#D77466;}
	.st74{opacity:0.21;clip-path:url(#SVGID_00000078734608316125117840000001556779330527730596_);fill:#EAE3CD;}
	.st75{clip-path:url(#SVGID_00000078734608316125117840000001556779330527730596_);}
	.st76{fill:#FBF2DC;}
	.st77{clip-path:url(#SVGID_00000078734608316125117840000001556779330527730596_);fill:#DA7466;}
	.st78{clip-path:url(#SVGID_00000078734608316125117840000001556779330527730596_);fill:#080B10;}
	.st79{fill:#DA7466;}
	.st80{fill:none;stroke:#FFFFFF;stroke-linecap:round;stroke-linejoin:round;stroke-miterlimit:10;}
	.st81{fill:#DB5946;}
	.st82{fill:#96C254;}
	.st83{fill:#6C863D;}
	.st84{fill:#F4D2CE;}
	.st85{fill:url(#SVGID_00000164480791731842254450000000550955066990993340_);}
	.st86{opacity:0.22;clip-path:url(#SVGID_00000175315455474268477590000008884599089681327799_);fill:#EAE3CD;}
	.st87{clip-path:url(#SVGID_00000175315455474268477590000008884599089681327799_);}
	.st88{fill:#5A6DD1;}
	.st89{clip-path:url(#SVGID_00000175315455474268477590000008884599089681327799_);fill:#DA7466;}
	.st90{clip-path:url(#SVGID_00000175315455474268477590000008884599089681327799_);fill:#FCFAF1;}
	.st91{clip-path:url(#SVGID_00000175315455474268477590000008884599089681327799_);fill:#080B10;}
	.st92{fill:#8BD2F9;}
	.st93{fill:#F5D0AF;}
	.st94{fill:#D5A479;}
	.st95{fill:none;stroke:#FFFFFF;stroke-miterlimit:10;}
	.st96{clip-path:url(#SVGID_00000093864310154325921840000009727921443617644425_);fill:#8DBCAE;}
	.st97{fill:url(#SVGID_00000172404079690928486570000012860907914515144325_);}
	.st98{clip-path:url(#SVGID_00000163062236981144104280000014043854302832534926_);}
	.st99{opacity:0.53;fill:#EAE3CD;}
	.st100{opacity:0.31;fill:#D77466;}
	.st101{fill:#FCFAF1;}
	.st102{clip-path:url(#SVGID_00000163062236981144104280000014043854302832534926_);fill:#080B10;}
	.st103{fill:#F6F1DA;}
	.st104{fill:#DDD8C6;}
	.st105{fill:#F8E1A0;}
	.st106{fill:#EDEDED;}
	.st107{fill:#646477;}
	.st108{fill:none;stroke:#D77466;stroke-miterlimit:10;}
	.st109{clip-path:url(#SVGID_00000084520474198390390250000011303105893189186716_);fill:#8DBCAE;}
	.st110{fill:url(#SVGID_00000000181544705054322550000003481400691454825909_);}
	.st111{clip-path:url(#SVGID_00000038401154583479040730000014126223468724437429_);}
	.st112{clip-path:url(#SVGID_00000038401154583479040730000014126223468724437429_);fill:#080B10;}
	.st113{fill:none;stroke:#E8E8EF;stroke-width:0.75;stroke-miterlimit:10;}
	.st114{clip-path:url(#SVGID_00000091716899742435858810000010945926604596273072_);fill:#8DBCAE;}
	.st115{clip-path:url(#SVGID_00000157289028409487541180000006059640544271554190_);fill:#8DBCAE;}
	.st116{fill:#4599D6;}
	.st117{fill:#642673;}
	.st118{fill:#BE286F;}
	.st119{clip-path:url(#SVGID_00000013195139685064094020000012932606306382214587_);fill:#8DBCAE;}
	.st120{opacity:0.54;fill:#E8E8EF;}
	.st121{clip-path:url(#SVGID_00000178884373764643745210000001213836542729483166_);fill:#8DBCAE;}
	.st122{fill:#80808B;}
	.st123{clip-path:url(#SVGID_00000170273319637712980640000006448290615291241345_);fill:#8DBCAE;}
	.st124{fill:none;stroke:#B5AFAE;stroke-linecap:round;stroke-linejoin:round;stroke-miterlimit:10;}
</style>
<g id="Background">
</g>
<g id="Content">
	<g>
		<path class="st51" d="M27.35,0c15.11,0,27.35,12.25,27.35,27.35S42.46,54.71,27.35,54.71S0,42.46,0,27.35S12.25,0,27.35,0L27.35,0
			z"/>
		<path class="st52" d="M17.68,32.21c-2.81-10.95,0.82-27.43,8.57-26.2C37.43,2.6,41.54,19.83,37.64,31.5
			C37.29,31.46,25.24,26.72,17.68,32.21L17.68,32.21L17.68,32.21z"/>
		<path class="st53" d="M22.84,24.94c0,0,1.03,7.15-0.17,9.16c-1.97,2.5-5.25,3.22-9.91,5.5c3.65,8.51,7.72,13.24,11.76,14.97
			c0.93,0.1,1.88,0.15,2.84,0.15c1.73,0,3.43-0.16,5.07-0.47c4.19-2.12,7.99-7.24,10.84-14.35c-7.24-4.1-7.61-3.84-9.41-5.77
			c-0.99-1.06-1.36-3.78-1.51-9.59L22.84,24.94L22.84,24.94z"/>
		<path class="st54" d="M22.96,25.88l9.48,1.34c0.2,4,0.59,6.02,1.42,6.9c0.02,0.02,0.05,0.05,0.07,0.07
			c-6.54,2.05-9.73-2.28-10.74-5.88C23.11,27.36,23.03,26.5,22.96,25.88L22.96,25.88L22.96,25.88z"/>
		<path class="st53" d="M19.97,18c-0.72,0-1.14,1.61-0.74,3.17c0.4,1.56,0.62,2.96,1.34,2.96c0.72,0,0.4-1.01,0.4-2.83
			C20.98,19.48,20.68,18.01,19.97,18L19.97,18L19.97,18z"/>
		<path class="st54" d="M20.19,18.58c-0.32-0.04-0.53,0.81-0.61,1.24c-0.08,0.43-0.07,1.59,0.18,2.18c0.2,0.48,0.5,1.76,0.64,0.22
			c0.04-0.39-0.17-0.48-0.25-0.96c-0.08-0.49,0.16-0.8,0.28-0.94C20.9,19.82,20.5,18.62,20.19,18.58L20.19,18.58L20.19,18.58z"/>
		<path class="st53" d="M36.14,18.02c0.72,0,1.13,1.62,0.72,3.17c-0.41,1.56-0.64,2.95-1.36,2.95c-0.72,0-0.39-1.01-0.39-2.83
			C35.12,19.5,35.42,18.02,36.14,18.02L36.14,18.02L36.14,18.02z"/>
		<path class="st54" d="M35.91,18.6c0.32-0.04,0.52,0.81,0.6,1.25c0.08,0.43,0.06,1.59-0.19,2.18c-0.2,0.48-0.51,1.76-0.64,0.22
			c-0.03-0.39,0.17-0.47,0.25-0.96c0.08-0.49-0.15-0.8-0.27-0.94C35.2,19.83,35.6,18.64,35.91,18.6L35.91,18.6L35.91,18.6z"/>
		<path class="st53" d="M28.01,8.6c8.16,0,7.46,4.86,7.44,11.5c-0.02,6.64-4.55,11.07-7.58,10.8c-2.73-0.1-7.28-3.95-7.27-10.6
			c0.01-5.08,0.51-9.54,4.04-11.22C25.74,8.56,26.09,8.6,28.01,8.6L28.01,8.6L28.01,8.6z"/>
		<path class="st52" d="M20.34,17.99c2.44-0.09,6.55-0.49,11.47-0.22c0.18-0.67,0.1-0.42,0.24-1.53c0.13,0.83,0.13,0.86,0.2,1.58
			c0.85,0.07,2.47,0.2,3.37,0.31c1.06-5.24-1.56-10.92-8.38-10.92C20.38,8.38,20.2,10.47,20.34,17.99L20.34,17.99L20.34,17.99z"/>
		<path class="st52" d="M48.25,45l-0.18-0.95c-0.36-1.91-2.5-3.94-4.5-4.74c-2.65-1.29-4.56-1.73-6.99-3.14
			c-2.94,12.13-16.15,8.56-16.68,0.06c-3.49,1.28-4,1.66-7.61,3.06c0,0-3.87,1.26-4.85,5.12l-0.33,1.36
			c5,5.49,12.21,8.94,20.23,8.94C35.74,54.71,43.23,50.94,48.25,45L48.25,45z"/>
	</g>
</g>
</svg>
