<?xml version="1.0" encoding="utf-8"?>
<!-- Generator: Adobe Illustrator 26.5.0, SVG Export Plug-In . SVG Version: 6.00 Build 0)  -->
<svg version="1.1" xmlns="http://www.w3.org/2000/svg" xmlns:xlink="http://www.w3.org/1999/xlink" x="0px" y="0px"
	 viewBox="0 0 18.62 13.59" style="enable-background:new 0 0 18.62 13.59;" xml:space="preserve">
<g id="Background">
</g>
<g id="Content">
	<g>
		<g>
			<path class="st18" d="M2.87,11.05H15.7c0.53,0,0.96-0.43,0.96-0.96V9.65c0-3.21-2.06-5.94-4.92-6.95
				c0.01-0.07,0.02-0.13,0.02-0.19C11.76,1.13,10.63,0,9.25,0C7.86,0,6.74,1.13,6.74,2.51c0,0.08,0.02,0.15,0.02,0.22
				C3.93,3.77,1.91,6.47,1.91,9.65v0.44C1.91,10.63,2.34,11.05,2.87,11.05z M9.25,0.9c0.87,0,1.57,0.69,1.6,1.55
				c-0.5-0.11-1.03-0.17-1.57-0.17c-0.57,0-1.12,0.07-1.65,0.19C7.67,1.6,8.38,0.9,9.25,0.9z"/>
			<path class="st18" d="M17.79,11.94H0.82C0.37,11.94,0,12.31,0,12.76c0,0.46,0.37,0.82,0.82,0.82h16.97
				c0.46,0,0.82-0.37,0.82-0.82C18.62,12.31,18.25,11.94,17.79,11.94z"/>
		</g>
	</g>
</g>
</svg>
