<?xml version="1.0" encoding="utf-8"?>
<!-- Generator: Adobe Illustrator 26.5.0, SVG Export Plug-In . SVG Version: 6.00 Build 0)  -->
<svg version="1.1" xmlns="http://www.w3.org/2000/svg" xmlns:xlink="http://www.w3.org/1999/xlink" x="0px" y="0px"
	 viewBox="0 0 21.41 21.41" style="enable-background:new 0 0 21.41 21.41;" xml:space="preserve">
<style type="text/css">
	.st0{opacity:0.51;}
	.st1{fill:#8D8DA5;}
	.st2{opacity:0.8;fill:#ABABBA;}
	.st3{fill:#80A3D0;}
	.st4{fill:#9CB9DB;}
	.st5{fill:#7E9CC7;}
	.st6{fill:#DCBAAF;}
	.st7{fill:#AFA9B9;}
	.st8{fill:#BDB4D3;}
	.st9{fill:#E1BF89;}
	.st10{fill:#F3B186;}
	.st11{fill:#9A827A;}
	.st12{fill:#C3A479;}
	.st13{fill:#D4A594;}
	.st14{fill:#DFB88B;}
	.st15{fill:#CEA887;}
	.st16{fill:#C19977;}
	.st17{fill:#AB8658;}
	.st18{fill:#FFFFFF;}
	.st19{fill:#D77466;}
	.st20{opacity:0.8;fill:#D77466;}
	.st21{fill:none;stroke:#FFFFFF;stroke-width:3;stroke-linecap:round;stroke-linejoin:round;stroke-miterlimit:10;}
	.st22{fill:none;stroke:#D77466;stroke-width:3;stroke-linecap:round;stroke-linejoin:round;stroke-miterlimit:10;}
	.st23{opacity:0.5;fill:none;stroke:#88889F;stroke-miterlimit:10;}
	.st24{fill:#BEBEC9;}
	.st25{opacity:0.5;fill:none;stroke:#88889F;stroke-width:0.5;stroke-miterlimit:10;}
	.st26{fill:#31314F;}
	.st27{opacity:0.09;fill:url(#SVGID_1_);}
	.st28{fill:#275C73;}
	.st29{fill:none;stroke:#275C73;stroke-miterlimit:10;}
	.st30{opacity:0.09;fill:url(#SVGID_00000046305805354545125030000007061745441691237293_);}
	.st31{opacity:0.09;fill:url(#SVGID_00000121989624467316210330000004230731189808503229_);}
	.st32{opacity:0.09;fill:url(#SVGID_00000116956260989144693230000003588477949278630311_);}
	.st33{opacity:0.09;fill:url(#SVGID_00000027595318083226354980000005921441468519476649_);}
	.st34{opacity:0.09;fill:url(#SVGID_00000134235903769613561700000004666013954943499688_);}
	.st35{opacity:0.09;fill:url(#SVGID_00000152978321251225734850000010964382854774035079_);}
	.st36{opacity:0.09;fill:url(#SVGID_00000107583524726268392960000018095651551865138873_);}
	.st37{opacity:0.09;fill:url(#SVGID_00000075154220454749388180000018059114400748940935_);}
	.st38{opacity:0.09;fill:url(#SVGID_00000076579511182170107860000000899522331759800255_);}
	.st39{fill:none;}
	.st40{opacity:0.15;fill:#D77466;}
	.st41{fill:#F5D4C3;}
	.st42{fill:#262C57;}
	.st43{fill:none;stroke:#262C57;stroke-miterlimit:10;}
	.st44{opacity:0.08;}
	.st45{opacity:0.08;fill:#275C73;}
	.st46{opacity:0.08;fill:#D77466;}
	.st47{opacity:0.53;fill:#D77466;}
	.st48{font-family:'Raleway-Regular';}
	.st49{font-size:19px;}
	.st50{fill:#FF7878;}
	.st51{font-family:'Raleway-Bold';}
	.st52{font-family:'Raleway-SemiBold';}
	.st53{opacity:0.21;fill:#275C73;}
	.st54{fill:#EAE3CD;}
	.st55{fill:none;stroke:#D77466;stroke-width:1.5;stroke-linecap:round;stroke-miterlimit:10;}
	.st56{fill-rule:evenodd;clip-rule:evenodd;fill:#E0E0EB;}
	.st57{fill-rule:evenodd;clip-rule:evenodd;fill:#313151;}
	.st58{fill-rule:evenodd;clip-rule:evenodd;fill:#FFFFFF;}
	.st59{fill-rule:evenodd;clip-rule:evenodd;fill:#B7C9E6;}
	.st60{fill-rule:evenodd;clip-rule:evenodd;fill:#8A8D89;}
	.st61{fill-rule:evenodd;clip-rule:evenodd;fill:#F1EDE1;}
	.st62{fill-rule:evenodd;clip-rule:evenodd;fill:#2F3230;}
	.st63{fill:#F7DC7A;}
	.st64{fill:#E1706C;}
	.st65{fill:#624F2D;}
	.st66{fill:#8DBCAE;}
	.st67{clip-path:url(#SVGID_00000011031522990093614890000017753375455483271611_);fill:#8DBCAE;}
	.st68{fill:#E8E8EF;}
	.st69{fill:none;stroke:#262C57;stroke-linecap:round;stroke-linejoin:round;stroke-miterlimit:10;}
	.st70{fill:none;stroke:#E8E8EF;stroke-miterlimit:10;}
	.st71{fill:none;stroke:#262C57;stroke-width:4;stroke-linecap:round;stroke-miterlimit:10;}
	.st72{fill:none;stroke:#D77466;stroke-width:1.5;stroke-miterlimit:10;}
	.st73{fill:none;stroke:#262C57;stroke-width:1.5;stroke-linecap:round;stroke-linejoin:round;stroke-miterlimit:10;}
	.st74{clip-path:url(#SVGID_00000135663709321862408270000006831280288695770293_);fill:#8DBCAE;}
	.st75{clip-path:url(#SVGID_00000118376811517925914660000006870516046649707141_);fill:#8DBCAE;}
	.st76{opacity:0.09;fill:url(#SVGID_00000101794179426081767600000009321224564692981890_);}
	.st77{fill:url(#SVGID_00000049905131415917916870000011165012927449952931_);}
	.st78{opacity:0.39;clip-path:url(#SVGID_00000003090477074993941890000010624780641555642289_);fill:#D77466;}
	.st79{opacity:0.21;clip-path:url(#SVGID_00000003090477074993941890000010624780641555642289_);fill:#EAE3CD;}
	.st80{clip-path:url(#SVGID_00000003090477074993941890000010624780641555642289_);}
	.st81{fill:#FBF2DC;}
	.st82{clip-path:url(#SVGID_00000003090477074993941890000010624780641555642289_);fill:#DA7466;}
	.st83{clip-path:url(#SVGID_00000003090477074993941890000010624780641555642289_);fill:#080B10;}
	.st84{fill:#DA7466;}
	.st85{fill:none;stroke:#FFFFFF;stroke-linecap:round;stroke-linejoin:round;stroke-miterlimit:10;}
	.st86{fill:#DB5946;}
	.st87{fill:#96C254;}
	.st88{fill:#6C863D;}
	.st89{fill:#F4D2CE;}
	.st90{fill:url(#SVGID_00000109730387440428751320000001423235924500393377_);}
	.st91{opacity:0.22;clip-path:url(#SVGID_00000106834743266700406670000004062281729568569523_);fill:#EAE3CD;}
	.st92{clip-path:url(#SVGID_00000106834743266700406670000004062281729568569523_);}
	.st93{fill:#5A6DD1;}
	.st94{clip-path:url(#SVGID_00000106834743266700406670000004062281729568569523_);fill:#DA7466;}
	.st95{clip-path:url(#SVGID_00000106834743266700406670000004062281729568569523_);fill:#FCFAF1;}
	.st96{clip-path:url(#SVGID_00000106834743266700406670000004062281729568569523_);fill:#080B10;}
	.st97{fill:#8BD2F9;}
	.st98{fill:#F5D0AF;}
	.st99{fill:#D5A479;}
	.st100{fill:none;stroke:#FFFFFF;stroke-miterlimit:10;}
	.st101{clip-path:url(#SVGID_00000044171906341568097820000017152496485876501678_);fill:#8DBCAE;}
	.st102{fill:url(#SVGID_00000046335915027849148920000006449026568055848891_);}
	.st103{clip-path:url(#SVGID_00000022528551866338048700000002252121464117349790_);}
	.st104{opacity:0.53;fill:#EAE3CD;}
	.st105{opacity:0.31;fill:#D77466;}
	.st106{fill:#FCFAF1;}
	.st107{clip-path:url(#SVGID_00000022528551866338048700000002252121464117349790_);fill:#080B10;}
	.st108{fill:#F6F1DA;}
	.st109{fill:#DDD8C6;}
	.st110{fill:#F8E1A0;}
	.st111{fill:#EDEDED;}
	.st112{fill:#646477;}
	.st113{fill:none;stroke:#D77466;stroke-miterlimit:10;}
	.st114{clip-path:url(#SVGID_00000044886866036609416300000017562804903184309914_);fill:#8DBCAE;}
	.st115{fill:url(#SVGID_00000168806275830953611520000017518719700086014605_);}
	.st116{clip-path:url(#SVGID_00000127762650357939516340000002017064225122016399_);}
	.st117{clip-path:url(#SVGID_00000127762650357939516340000002017064225122016399_);fill:#080B10;}
	.st118{fill:none;stroke:#E8E8EF;stroke-width:0.75;stroke-miterlimit:10;}
	.st119{clip-path:url(#SVGID_00000005240837759195260150000008433699925581698213_);fill:#8DBCAE;}
	.st120{clip-path:url(#SVGID_00000133504617497491836660000007892165863585898413_);fill:#8DBCAE;}
	.st121{fill:#4599D6;}
	.st122{fill:#642673;}
	.st123{fill:#BE286F;}
	.st124{clip-path:url(#SVGID_00000016073704465337817870000001608843247610714807_);fill:#8DBCAE;}
	.st125{opacity:0.54;fill:#E8E8EF;}
	.st126{clip-path:url(#SVGID_00000051358188982128008860000006026897154613408916_);fill:#8DBCAE;}
	.st127{fill:#80808B;}
	.st128{clip-path:url(#SVGID_00000073695060117651923480000000386786687298689424_);fill:#8DBCAE;}
	.st129{fill:none;stroke:#B5AFAE;stroke-linecap:round;stroke-linejoin:round;stroke-miterlimit:10;}
</style>
<g id="Background">
</g>
<g id="Content">
	<rect x="-413.64" y="-63.32" class="st39" width="623.78" height="125.45"/>
	<text transform="matrix(1 0 0 1 -413.6372 -47.08)"><tspan x="0" y="0" class="st42 st48 st49">Platos de primera, cocinados de manera artesanal con productos </tspan><tspan x="0" y="32" class="st42 st48 st49">seleccionados, </tspan><tspan x="135.81" y="32" class="st50 st51 st49">sin aditivos ni conservantes</tspan><tspan x="385.73" y="32" class="st42 st48 st49">. Recibe nuestra comida</tspan><tspan x="0" y="64" class="st42 st48 st49">directamente en tu casa. ¡</tspan><tspan x="226.08" y="64" class="st42 st52 st49">Garantía de calidad!</tspan></text>
	<g>
		<path class="st63" d="M21.41,10.7c0,5.91-4.79,10.7-10.7,10.7C4.79,21.41,0,16.62,0,10.7C0,4.79,4.79,0,10.7,0
			C16.62,0,21.41,4.79,21.41,10.7z"/>
		<path class="st64" d="M21.35,4c-0.17-0.95-0.72-1.74-1.59-1.98c-0.95-0.26-1.81,0.11-2.65,0.96c-0.47-1.3-1.19-2.26-2.33-2.75
			c-1.16-0.51-2.29-0.17-3.01,0.74c-0.74,0.94-1.04,2.38-0.24,4.27c0.74,1.77,4.07,5.36,4.17,5.46c0.13-0.08,3.84-2.4,4.75-3.54
			C21.33,6.06,21.52,4.95,21.35,4z"/>
		<path class="st64" d="M9.63,0.97c-0.71-0.9-1.84-1.24-3.01-0.74C5.49,0.73,4.77,1.69,4.3,2.99C3.46,2.14,2.59,1.76,1.65,2.02
			C0.78,2.26,0.22,3.06,0.05,4c-0.16,0.94,0.02,2.05,0.91,3.17c0.91,1.14,4.62,3.45,4.75,3.53c0.1-0.1,3.42-3.69,4.17-5.46
			C10.67,3.35,10.38,1.91,9.63,0.97z"/>
		<path class="st65" d="M16.77,12.86c0-0.29-0.17-0.65-0.65-0.74c-1.24-0.24-3.06-0.48-5.42-0.48h0c-2.35,0-4.18,0.24-5.41,0.48
			c-0.48,0.09-0.65,0.45-0.65,0.74c0,2.59,2,5.21,6.07,5.21h0C14.77,18.07,16.77,15.46,16.77,12.86z"/>
		<path class="st18" d="M15.23,12.95c-0.78-0.13-2.44-0.36-4.53-0.36s-3.75,0.23-4.53,0.36c-0.46,0.08-0.49,0.27-0.46,0.53
			c0.02,0.16,0.05,0.35,0.09,0.55c0.05,0.23,0.09,0.33,0.45,0.29c0.69-0.08,8.2-0.08,8.88,0c0.36,0.04,0.4-0.06,0.45-0.29
			c0.05-0.21,0.08-0.4,0.09-0.55C15.72,13.21,15.69,13.02,15.23,12.95z"/>
	</g>
</g>
</svg>
