<?xml version="1.0" encoding="utf-8"?>
<!-- Generator: Adobe Illustrator 26.5.0, SVG Export Plug-In . SVG Version: 6.00 Build 0)  -->
<svg version="1.1" xmlns="http://www.w3.org/2000/svg" xmlns:xlink="http://www.w3.org/1999/xlink" x="0px" y="0px"
	 viewBox="0 0 70.76 68.19" style="enable-background:new 0 0 70.76 68.19;" xml:space="preserve">
<style type="text/css">
	.st0{opacity:0.51;}
	.st1{fill:#8D8DA5;}
	.st2{opacity:0.8;fill:#ABABBA;}
	.st3{fill:#80A3D0;}
	.st4{fill:#9CB9DB;}
	.st5{fill:#7E9CC7;}
	.st6{fill:#DCBAAF;}
	.st7{fill:#AFA9B9;}
	.st8{fill:#BDB4D3;}
	.st9{fill:#E1BF89;}
	.st10{fill:#F3B186;}
	.st11{fill:#9A827A;}
	.st12{fill:#C3A479;}
	.st13{fill:#D4A594;}
	.st14{fill:#DFB88B;}
	.st15{fill:#CEA887;}
	.st16{fill:#C19977;}
	.st17{fill:#AB8658;}
	.st18{fill:#FFFFFF;}
	.st19{fill:#D77466;}
	.st20{opacity:0.8;fill:#D77466;}
	.st21{fill:none;stroke:#FFFFFF;stroke-width:3;stroke-linecap:round;stroke-linejoin:round;stroke-miterlimit:10;}
	.st22{fill:none;stroke:#D77466;stroke-width:3;stroke-linecap:round;stroke-linejoin:round;stroke-miterlimit:10;}
	.st23{opacity:0.5;fill:none;stroke:#88889F;stroke-miterlimit:10;}
	.st24{fill:#BEBEC9;}
	.st25{opacity:0.5;fill:none;stroke:#88889F;stroke-width:0.5;stroke-miterlimit:10;}
	.st26{fill:#31314F;}
	.st27{opacity:0.09;fill:url(#SVGID_1_);}
	.st28{fill:#275C73;}
	.st29{fill:none;stroke:#275C73;stroke-miterlimit:10;}
	.st30{opacity:0.09;fill:url(#SVGID_00000156577438429832896770000013590090371923352247_);}
	.st31{opacity:0.09;fill:url(#SVGID_00000116226526831262876000000017199684890552960919_);}
	.st32{opacity:0.09;fill:url(#SVGID_00000003086418804792385490000006528854363394215082_);}
	.st33{opacity:0.09;fill:url(#SVGID_00000083065514711967591380000000704629004543823762_);}
	.st34{opacity:0.09;fill:url(#SVGID_00000021829112483147265810000016147948532987676581_);}
	.st35{opacity:0.09;fill:url(#SVGID_00000001631688583297739910000012277108813608031920_);}
	.st36{opacity:0.09;fill:url(#SVGID_00000147910813125454025410000014414760011609184684_);}
	.st37{opacity:0.09;fill:url(#SVGID_00000162346654107954055300000006177637307408689586_);}
	.st38{opacity:0.09;fill:url(#SVGID_00000160873080091787946250000011671807484003100315_);}
	.st39{fill:none;}
	.st40{opacity:0.15;fill:#D77466;}
	.st41{fill:#F5D4C3;}
	.st42{fill:#262C57;}
	.st43{fill:none;stroke:#262C57;stroke-miterlimit:10;}
	.st44{opacity:0.08;}
	.st45{opacity:0.08;fill:#275C73;}
	.st46{opacity:0.08;fill:#D77466;}
	.st47{opacity:0.53;fill:#D77466;}
	.st48{opacity:0.21;fill:#275C73;}
	.st49{fill:#EAE3CD;}
	.st50{fill:none;stroke:#D77466;stroke-width:1.5;stroke-linecap:round;stroke-miterlimit:10;}
	.st51{fill-rule:evenodd;clip-rule:evenodd;fill:#E0E0EB;}
	.st52{fill-rule:evenodd;clip-rule:evenodd;fill:#313151;}
	.st53{fill-rule:evenodd;clip-rule:evenodd;fill:#FFFFFF;}
	.st54{fill-rule:evenodd;clip-rule:evenodd;fill:#B7C9E6;}
	.st55{fill-rule:evenodd;clip-rule:evenodd;fill:#8A8D89;}
	.st56{fill-rule:evenodd;clip-rule:evenodd;fill:#F1EDE1;}
	.st57{fill-rule:evenodd;clip-rule:evenodd;fill:#2F3230;}
	.st58{fill:#F7DC7A;}
	.st59{fill:#E1706C;}
	.st60{fill:#624F2D;}
	.st61{fill:#8DBCAE;}
	.st62{clip-path:url(#SVGID_00000035492220882639271870000008386145740559147683_);fill:#8DBCAE;}
	.st63{fill:#E8E8EF;}
	.st64{fill:none;stroke:#262C57;stroke-linecap:round;stroke-linejoin:round;stroke-miterlimit:10;}
	.st65{fill:none;stroke:#E8E8EF;stroke-miterlimit:10;}
	.st66{fill:none;stroke:#262C57;stroke-width:4;stroke-linecap:round;stroke-miterlimit:10;}
	.st67{fill:none;stroke:#D77466;stroke-width:1.5;stroke-miterlimit:10;}
	.st68{fill:none;stroke:#262C57;stroke-width:1.5;stroke-linecap:round;stroke-linejoin:round;stroke-miterlimit:10;}
	.st69{clip-path:url(#SVGID_00000099637270387676775170000013860256058547017897_);fill:#8DBCAE;}
	.st70{clip-path:url(#SVGID_00000129915484020776379970000016812134713799967901_);fill:#8DBCAE;}
	.st71{opacity:0.09;fill:url(#SVGID_00000087403682044776649690000007309531595900260998_);}
	.st72{fill:url(#SVGID_00000077315148847157782440000013386239054954571653_);}
	.st73{opacity:0.39;clip-path:url(#SVGID_00000039124711057857785540000010367140155552917667_);fill:#D77466;}
	.st74{opacity:0.21;clip-path:url(#SVGID_00000039124711057857785540000010367140155552917667_);fill:#EAE3CD;}
	.st75{clip-path:url(#SVGID_00000039124711057857785540000010367140155552917667_);}
	.st76{fill:#FBF2DC;}
	.st77{clip-path:url(#SVGID_00000039124711057857785540000010367140155552917667_);fill:#DA7466;}
	.st78{clip-path:url(#SVGID_00000039124711057857785540000010367140155552917667_);fill:#080B10;}
	.st79{fill:#DA7466;}
	.st80{fill:none;stroke:#FFFFFF;stroke-linecap:round;stroke-linejoin:round;stroke-miterlimit:10;}
	.st81{fill:#DB5946;}
	.st82{fill:#96C254;}
	.st83{fill:#6C863D;}
	.st84{fill:#F4D2CE;}
	.st85{fill:url(#SVGID_00000132773487040843002280000004639565269129888179_);}
	.st86{opacity:0.22;clip-path:url(#SVGID_00000003099747698984945670000001255850212198368703_);fill:#EAE3CD;}
	.st87{clip-path:url(#SVGID_00000003099747698984945670000001255850212198368703_);}
	.st88{fill:#5A6DD1;}
	.st89{clip-path:url(#SVGID_00000003099747698984945670000001255850212198368703_);fill:#DA7466;}
	.st90{clip-path:url(#SVGID_00000003099747698984945670000001255850212198368703_);fill:#FCFAF1;}
	.st91{clip-path:url(#SVGID_00000003099747698984945670000001255850212198368703_);fill:#080B10;}
	.st92{fill:#8BD2F9;}
	.st93{fill:#F5D0AF;}
	.st94{fill:#D5A479;}
	.st95{fill:none;stroke:#FFFFFF;stroke-miterlimit:10;}
	.st96{clip-path:url(#SVGID_00000000217663366778990290000014486462600153417369_);fill:#8DBCAE;}
	.st97{fill:url(#SVGID_00000025424095902890035130000013344506215231794102_);}
	.st98{clip-path:url(#SVGID_00000088109212091840789670000001551299219598112905_);}
	.st99{opacity:0.53;fill:#EAE3CD;}
	.st100{opacity:0.31;fill:#D77466;}
	.st101{fill:#FCFAF1;}
	.st102{clip-path:url(#SVGID_00000088109212091840789670000001551299219598112905_);fill:#080B10;}
	.st103{fill:#F6F1DA;}
	.st104{fill:#DDD8C6;}
	.st105{fill:#F8E1A0;}
	.st106{fill:#EDEDED;}
	.st107{fill:#646477;}
	.st108{fill:none;stroke:#D77466;stroke-miterlimit:10;}
	.st109{clip-path:url(#SVGID_00000046324653367598028340000013039049096014881207_);fill:#8DBCAE;}
	.st110{fill:url(#SVGID_00000098934083048690367960000008725218977635466165_);}
	.st111{clip-path:url(#SVGID_00000152266234720633894210000002997027576599485863_);}
	.st112{clip-path:url(#SVGID_00000152266234720633894210000002997027576599485863_);fill:#080B10;}
	.st113{fill:none;stroke:#E8E8EF;stroke-width:0.75;stroke-miterlimit:10;}
	.st114{clip-path:url(#SVGID_00000060012380838011120240000015188699469419492517_);fill:#8DBCAE;}
	.st115{clip-path:url(#SVGID_00000150077481764661897880000001817885503009922453_);fill:#8DBCAE;}
	.st116{fill:#4599D6;}
	.st117{fill:#642673;}
	.st118{fill:#BE286F;}
	.st119{clip-path:url(#SVGID_00000120518924566165534340000001977260613593234842_);fill:#8DBCAE;}
	.st120{opacity:0.54;fill:#E8E8EF;}
	.st121{clip-path:url(#SVGID_00000103251507459000818970000002124093929505092242_);fill:#8DBCAE;}
	.st122{fill:#80808B;}
	.st123{clip-path:url(#SVGID_00000113351741229375728490000015046992948837480125_);fill:#8DBCAE;}
	.st124{fill:none;stroke:#B5AFAE;stroke-linecap:round;stroke-linejoin:round;stroke-miterlimit:10;}
</style>
<g id="Background">
</g>
<g id="Content">
	<g>
		<path class="st47" d="M41.49,58.67l-29.27,0.18c0-0.06,0-0.12,0-0.18c0-12.65,13.21-23.05,29.27-23.05s29.27,10.41,29.27,23.05
			H41.49z"/>
		<path class="st42" d="M17.62,64.78h32.96c2.08,0,6.84-1.51,10.35-4.52c1.78-1.52,3.19-3.43,3.67-5.71H3.59
			c0.48,2.28,1.9,4.19,3.67,5.71C10.78,63.27,15.53,64.78,17.62,64.78L17.62,64.78z M38.01,2.9C37.34,2.24,37.34,1.17,38,0.5
			c0.66-0.66,1.74-0.67,2.4-0.01c4.28,4.27,2.3,8.24,0.32,12.19c-1.43,2.86-2.86,5.73-0.31,8.28c0.66,0.66,0.66,1.74-0.01,2.4
			c-0.66,0.66-1.74,0.66-2.4-0.01c-4.27-4.27-2.29-8.23-0.31-12.19C39.12,8.31,40.55,5.45,38.01,2.9L38.01,2.9z M27.78,2.9
			c-0.67-0.66-0.67-1.74-0.01-2.4c0.66-0.66,1.74-0.67,2.4-0.01c4.28,4.27,2.3,8.24,0.32,12.19c-1.43,2.86-2.86,5.73-0.31,8.28
			c0.66,0.66,0.66,1.74-0.01,2.4c-0.66,0.66-1.74,0.66-2.4-0.01c-4.27-4.27-2.29-8.23-0.31-12.19C28.89,8.31,30.32,5.45,27.78,2.9
			L27.78,2.9z M56.71,42.17c-0.53,1.27-0.97,2.61-1.31,3.95c-0.42,1.69-0.68,3.39-0.79,5.02h6.35
			C60.11,47.87,58.65,44.84,56.71,42.17L56.71,42.17z M51.19,51.14c0.12-1.88,0.42-3.87,0.91-5.85c0.52-2.07,1.25-4.13,2.2-6.02
			c-0.76-0.79-1.56-1.54-2.41-2.24c-1.22-1.01-2.54-1.91-3.93-2.7c-1.08,2.55-1.92,5.34-2.52,8.16c-0.62,2.92-0.98,5.87-1.09,8.65
			H51.19L51.19,51.14z M40.95,51.14c0.11-2.99,0.5-6.19,1.17-9.36c0.65-3.08,1.59-6.13,2.79-8.95c-2.57-1.07-5.33-1.77-8.23-2.03
			c-1.95,3.13-3.43,6.57-4.48,10.06c-1.04,3.48-1.64,6.99-1.79,10.28H40.95L40.95,51.14z M27,51.14c0.15-3.6,0.8-7.45,1.94-11.25
			c0.94-3.14,2.22-6.25,3.85-9.18c-3.25,0.15-6.35,0.85-9.22,2c-2.07,2.91-3.64,6.14-4.72,9.39c-1,3.06-1.59,6.14-1.76,9.03H27
			L27,51.14z M13.68,51.14c0.17-3.23,0.81-6.68,1.94-10.09c0.58-1.72,1.27-3.44,2.1-5.11c-0.49,0.35-0.96,0.72-1.42,1.09
			c-4.38,3.6-7.61,8.51-9.07,14.11H13.68L13.68,51.14z M3.73,51.14C5.27,44.48,9,38.64,14.14,34.41c2.29-1.88,4.86-3.45,7.64-4.64
			l0.03-0.02c3.77-1.59,7.92-2.48,12.27-2.48c7.59,0,14.55,2.68,19.96,7.13c5.13,4.23,8.87,10.07,10.41,16.73h2.03
			c0.94,0,1.71,0.76,1.71,1.7c0,4.2-2.17,7.52-5.05,9.99c-4.16,3.56-9.97,5.35-12.57,5.35H17.62c-2.59,0-8.41-1.78-12.56-5.35
			C2.17,60.37,0,57.04,0,52.85c0-0.94,0.76-1.7,1.71-1.7H3.73L3.73,51.14z"/>
	</g>
</g>
</svg>
