<?xml version="1.0" encoding="utf-8"?>
<!-- Generator: Adobe Illustrator 27.0.0, SVG Export Plug-In . SVG Version: 6.00 Build 0)  -->
<svg version="1.1" xmlns="http://www.w3.org/2000/svg" xmlns:xlink="http://www.w3.org/1999/xlink" x="0px" y="0px"
	 viewBox="0 0 19.92 16.13" style="enable-background:new 0 0 19.92 16.13;" xml:space="preserve">
<style type="text/css">
	.st0{opacity:0.08;fill:#355E74;}
	.st1{fill:#2B3059;}
	.st2{fill:#CB6D61;}
	.st3{fill:#CE6C61;}
</style>
<g id="Background">
</g>
<g id="Content">
	<path class="st2" d="M18.92,3.44c0-0.21-0.05-0.4-0.13-0.58c-2.37,0.07-4.17,0.23-5.87,0.73c-1.62,0.48-3.18,1.29-5.1,2.64
		c0.09,0.23,0.15,0.48,0.15,0.75c0,0.55-0.22,1.05-0.58,1.41C7.02,8.74,6.53,8.96,5.98,8.96c-0.55,0-1.05-0.22-1.41-0.58
		C4.21,8.02,3.98,7.52,3.98,6.97c0-0.55,0.22-1.05,0.58-1.41C4.93,5.2,5.43,4.98,5.98,4.98c0.48,0,0.91,0.17,1.26,0.44
		C9.26,4,10.91,3.15,12.64,2.63c1.57-0.46,3.19-0.65,5.21-0.74l-0.08-0.05C16.81,1.28,15.48,1,14.44,1c-1.96,0-3.92,0.12-5.74,0.54
		C6.9,1.95,5.23,2.65,3.8,3.82c-0.73,0.6-1.44,1.3-1.97,2.08C1.33,6.65,1,7.47,1,8.34C1,8.65,1.06,9,1.17,9.35
		c0.21,0.65,0.61,1.31,1.16,1.81c0.53,0.48,1.2,0.8,1.98,0.8c0.32,0,0.66-0.05,1.01-0.17c1.85-0.61,2.97-1.61,4.18-2.7
		c0.78-0.7,1.6-1.44,2.68-2.14c0.87-0.57,2.08-0.99,3.26-1.4C17.21,4.92,18.92,4.32,18.92,3.44L18.92,3.44z M0.99,11.15l0,0.37
		c0,0.31,0.06,0.66,0.18,1.01c0.21,0.65,0.61,1.31,1.16,1.81c0.53,0.48,1.2,0.8,1.98,0.8c0.32,0,0.66-0.05,1.01-0.17
		c1.85-0.61,2.97-1.61,4.18-2.7c0.78-0.7,1.6-1.44,2.68-2.15c0.87-0.57,2.08-0.99,3.26-1.4c1.78-0.62,3.49-1.22,3.49-2.1V5.08
		c-0.79,0.56-1.97,0.97-3.16,1.39c-1.12,0.39-2.26,0.79-3.04,1.3c-1.02,0.67-1.81,1.38-2.56,2.05c-1.29,1.16-2.48,2.23-4.53,2.9
		c-0.46,0.15-0.9,0.22-1.32,0.22c-1.05,0-1.95-0.43-2.64-1.06C1.42,11.67,1.19,11.41,0.99,11.15L0.99,11.15z M19.92,3.44v3.18
		c0,1.58-2.04,2.3-4.16,3.04c-1.12,0.39-2.26,0.79-3.04,1.3c-1.02,0.67-1.81,1.38-2.56,2.05c-1.29,1.16-2.48,2.23-4.53,2.9
		c-0.46,0.15-0.9,0.22-1.32,0.22c-1.05,0-1.95-0.42-2.64-1.06c-0.68-0.62-1.18-1.43-1.44-2.24C0.08,12.39,0,11.93,0,11.52l0.01-3
		C0,8.46,0,8.4,0,8.34c0-1.09,0.4-2.09,1.01-2.99c0.58-0.87,1.37-1.64,2.17-2.29c1.56-1.28,3.37-2.04,5.31-2.49
		C10.39,0.13,12.42,0,14.44,0c1.19,0,2.72,0.33,3.84,0.99c0.95,0.56,1.63,1.37,1.64,2.42V3.44L19.92,3.44z M6.68,6.27
		C6.5,6.09,6.25,5.98,5.98,5.98c-0.27,0-0.52,0.11-0.7,0.29C5.09,6.45,4.98,6.7,4.98,6.97c0,0.27,0.11,0.52,0.29,0.7
		c0.18,0.18,0.43,0.29,0.7,0.29c0.27,0,0.52-0.11,0.7-0.29c0.18-0.18,0.29-0.43,0.29-0.7C6.97,6.7,6.86,6.45,6.68,6.27L6.68,6.27z"
		/>
</g>
</svg>
