<svg width="64" height="64" viewBox="0 0 64 64" fill="none" xmlns="http://www.w3.org/2000/svg">
<path d="M61.0601 2.94C60.779 2.65862 60.3978 2.50035 60.0001 2.5L31.0001 2.82C30.8047 2.8204 30.6113 2.85948 30.4311 2.935C30.2509 3.01052 30.0874 3.12098 29.9501 3.26L4.00008 29.13C3.49871 29.6382 3.10691 30.2439 2.84891 30.9095C2.59091 31.5752 2.47218 32.2866 2.50008 33C2.53737 34.4305 3.12477 35.7916 4.14008 36.8L27.2001 59.86C28.2085 60.8753 29.5696 61.4627 31.0001 61.5H31.1101C31.8051 61.5129 32.4957 61.3869 33.1414 61.1293C33.7871 60.8717 34.3748 60.4878 34.8701 60L60.7401 34.1C60.8791 33.9627 60.9896 33.7992 61.0651 33.619C61.1406 33.4388 61.1797 33.2454 61.1801 33.05L61.5001 4C61.5033 3.80259 61.4659 3.60662 61.3902 3.42427C61.3146 3.24192 61.2022 3.07708 61.0601 2.94V2.94Z" fill="#ACB3BA" id="id_107"></path>
<path d="M52.7602 11.2401C51.3874 9.85283 49.5313 9.05018 47.5802 9.00015C46.6234 8.97178 45.6709 9.13995 44.7817 9.49427C43.8924 9.84859 43.0853 10.3815 42.4102 11.0601C41.7349 11.7377 41.2042 12.5453 40.8501 13.4339C40.496 14.3226 40.3259 15.2739 40.3502 16.2301C40.4056 18.1752 41.203 20.0254 42.5789 21.4014C43.9549 22.7773 45.8051 23.5748 47.7502 23.6301H47.9002C48.8458 23.6441 49.7843 23.4663 50.6593 23.1075C51.5343 22.7487 52.3275 22.2163 52.991 21.5425C53.6545 20.8686 54.1747 20.0674 54.52 19.187C54.8653 18.3066 55.0286 17.3654 55.0002 16.4201C54.9501 14.4691 54.1475 12.6129 52.7602 11.2401V11.2401Z" fill="#E6E6E6" id="id_108"></path>
</svg>