<?xml version="1.0" encoding="utf-8"?>
<!-- Generator: Adobe Illustrator 27.0.0, SVG Export Plug-In . SVG Version: 6.00 Build 0)  -->
<svg version="1.1" xmlns="http://www.w3.org/2000/svg" xmlns:xlink="http://www.w3.org/1999/xlink" x="0px" y="0px"
	 viewBox="0 0 18.9 16.84" style="enable-background:new 0 0 18.9 16.84;" xml:space="preserve">
<style type="text/css">
	.st0{opacity:0.08;fill:#355E74;}
	.st1{fill:#2B3059;}
	.st2{fill:#CB6D61;}
	.st3{fill:#CE6C61;}
</style>
<g id="Background">
</g>
<g id="Content">
	<g>
		<path class="st1" d="M1,4.04h2.17C3.59,5.22,4.7,6.08,6.03,6.08c1.32,0,2.44-0.86,2.86-2.04h9.02c0.55,0,1-0.45,1-1s-0.45-1-1-1
			H8.88C8.47,0.86,7.35,0,6.03,0C4.7,0,3.59,0.86,3.17,2.04H1c-0.55,0-1,0.45-1,1S0.45,4.04,1,4.04z M3.99,3.04
			c0-0.37,0.1-0.7,0.27-1C4.61,1.42,5.27,1,6.03,1c0.76,0,1.42,0.42,1.77,1.04c0.17,0.3,0.27,0.63,0.27,1s-0.1,0.7-0.27,1
			C7.44,4.66,6.79,5.08,6.03,5.08c-0.76,0-1.42-0.42-1.77-1.04C4.09,3.74,3.99,3.4,3.99,3.04z"/>
		<path class="st1" d="M17.9,7.42h-1.51c-0.42-1.18-1.53-2.04-2.86-2.04s-2.44,0.86-2.86,2.04H1c-0.55,0-1,0.45-1,1s0.45,1,1,1h9.68
			c0.42,1.18,1.53,2.04,2.86,2.04s2.44-0.86,2.86-2.04h1.51c0.55,0,1-0.45,1-1S18.45,7.42,17.9,7.42z M15.58,8.42
			c0,0.37-0.1,0.7-0.27,1c-0.35,0.62-1.01,1.04-1.77,1.04s-1.42-0.42-1.77-1.04c-0.17-0.3-0.27-0.63-0.27-1c0-0.37,0.1-0.7,0.27-1
			c0.35-0.62,1.01-1.04,1.77-1.04s1.42,0.42,1.77,1.04C15.47,7.72,15.58,8.05,15.58,8.42z"/>
		<path class="st1" d="M17.9,12.8H6.84c-0.42-1.18-1.53-2.04-2.86-2.04c-1.32,0-2.44,0.86-2.86,2.04H1c-0.55,0-1,0.45-1,1
			s0.45,1,1,1h0.13c0.42,1.18,1.53,2.04,2.86,2.04c1.32,0,2.44-0.86,2.86-2.04H17.9c0.55,0,1-0.45,1-1S18.45,12.8,17.9,12.8z
			 M6.03,13.8c0,0.37-0.1,0.7-0.27,1c-0.35,0.62-1.01,1.04-1.77,1.04c-0.76,0-1.42-0.42-1.77-1.04c-0.17-0.3-0.27-0.63-0.27-1
			c0-0.37,0.1-0.7,0.27-1c0.35-0.62,1.01-1.04,1.77-1.04c0.76,0,1.42,0.42,1.77,1.04C5.92,13.1,6.03,13.43,6.03,13.8z"/>
	</g>
</g>
</svg>
