<?xml version="1.0" encoding="utf-8"?>
<!-- Generator: Adobe Illustrator 27.0.0, SVG Export Plug-In . SVG Version: 6.00 Build 0)  -->
<svg version="1.1" xmlns="http://www.w3.org/2000/svg" xmlns:xlink="http://www.w3.org/1999/xlink" x="0px" y="0px"
	 viewBox="0 0 21.11 15.83" style="enable-background:new 0 0 21.11 15.83;" xml:space="preserve">
<style type="text/css">
	.st0{opacity:0.08;fill:#355E74;}
	.st1{fill:#2B3059;}
	.st2{fill:#CB6D61;}
	.st3{fill:#CE6C61;}
</style>
<g id="Background">
</g>
<g id="Content">
	<path class="st2" d="M18.98,7.33c-0.09,2.26-0.87,4.31-2.06,5.82c-1.31,1.65-3.12,2.68-5.12,2.68H9.3c-2,0-3.81-1.03-5.12-2.68
		c-1.2-1.52-1.97-3.57-2.06-5.82C1.63,7.21,1.17,6.94,0.81,6.57C0.33,6.09,0,5.43,0,4.75c0-0.29,0.23-0.53,0.52-0.53
		c0.29,0,0.53,0.24,0.53,0.53c0,0.38,0.2,0.77,0.51,1.08C1.75,6.02,1.97,6.16,2.2,6.25C2.65,4.8,4.69,3.88,7.23,3.48L7.4,3.45
		c-0.01-0.1-0.01-0.19-0.01-0.28c0-0.87,0.36-1.67,0.93-2.24C8.89,0.35,9.68,0,10.55,0c0.87,0,1.67,0.35,2.24,0.93
		c0.57,0.57,0.93,1.36,0.93,2.24c0,0.09,0,0.19-0.01,0.28l0.17,0.03c2.54,0.4,4.58,1.32,5.03,2.77c0.23-0.09,0.45-0.23,0.64-0.42
		c0.3-0.3,0.51-0.7,0.51-1.08c0-0.29,0.23-0.53,0.53-0.53c0.29,0,0.53,0.24,0.53,0.53c0,0.68-0.33,1.34-0.81,1.82
		C19.93,6.94,19.47,7.21,18.98,7.33L18.98,7.33z M8.44,3.32c0.69-0.07,1.4-0.1,2.11-0.1c0.71,0,1.42,0.03,2.11,0.1
		c0-0.05,0-0.1,0-0.16c0-0.58-0.24-1.11-0.62-1.49c-0.38-0.38-0.91-0.62-1.49-0.62c-0.58,0-1.11,0.24-1.49,0.62S8.44,2.58,8.44,3.17
		C8.44,3.22,8.44,3.27,8.44,3.32L8.44,3.32z M3.3,6.33h14.51c-0.47-0.89-2.1-1.5-4.1-1.82c-0.99-0.16-2.07-0.23-3.16-0.23
		c-1.09,0-2.17,0.08-3.15,0.23C5.4,4.83,3.76,5.45,3.3,6.33L3.3,6.33z M16.1,12.5c1.05-1.32,1.73-3.12,1.83-5.11H3.18
		c0.1,1.99,0.78,3.79,1.83,5.11c1.11,1.4,2.63,2.28,4.29,2.28h2.5C13.47,14.78,14.99,13.9,16.1,12.5L16.1,12.5z"/>
</g>
</svg>
