<?xml version="1.0" encoding="utf-8"?>
<!-- Generator: Adobe Illustrator 27.0.0, SVG Export Plug-In . SVG Version: 6.00 Build 0)  -->
<svg version="1.1" xmlns="http://www.w3.org/2000/svg" xmlns:xlink="http://www.w3.org/1999/xlink" x="0px" y="0px"
	 viewBox="0 0 14.13 17.62" style="enable-background:new 0 0 14.13 17.62;" xml:space="preserve">
<style type="text/css">
	.st0{opacity:0.08;fill:#355E74;}
	.st1{fill:#2B3059;}
	.st2{fill:#CB6D61;}
	.st3{fill:#CE6C61;}
</style>
<g id="Background">
</g>
<g id="Content">
	<g>
		<path class="st3" d="M13.22,2.41H7.98v-1.5C7.98,0.41,7.57,0,7.07,0S6.15,0.41,6.15,0.92v1.5H0.92C0.41,2.41,0,2.82,0,3.33
			c0,0.51,0.41,0.92,0.92,0.92h12.3c0.51,0,0.92-0.41,0.92-0.92C14.13,2.82,13.72,2.41,13.22,2.41z"/>
		<path class="st3" d="M1.41,15.54c0,1.15,0.93,2.08,2.08,2.08h7.15c1.15,0,2.08-0.93,2.08-2.08V5.36H1.41V15.54z M9.43,7.21h1.15
			v8.23H9.43V7.21z M6.49,7.21h1.15v8.23H6.49V7.21z M3.55,7.21H4.7v8.23H3.55V7.21z"/>
	</g>
</g>
</svg>
