<?xml version="1.0" encoding="utf-8"?>
<!-- Generator: Adobe Illustrator 26.5.0, SVG Export Plug-In . SVG Version: 6.00 Build 0)  -->
<svg version="1.1" xmlns="http://www.w3.org/2000/svg" xmlns:xlink="http://www.w3.org/1999/xlink" x="0px" y="0px"
	 viewBox="0 0 32.63 32.62" style="enable-background:new 0 0 32.63 32.62;" xml:space="preserve">
<style type="text/css">
	.st0{opacity:0.51;}
	.st1{fill:#8D8DA5;}
	.st2{opacity:0.8;fill:#ABABBA;}
	.st3{fill:#80A3D0;}
	.st4{fill:#9CB9DB;}
	.st5{fill:#7E9CC7;}
	.st6{fill:#DCBAAF;}
	.st7{fill:#AFA9B9;}
	.st8{fill:#BDB4D3;}
	.st9{fill:#E1BF89;}
	.st10{fill:#F3B186;}
	.st11{fill:#9A827A;}
	.st12{fill:#C3A479;}
	.st13{fill:#D4A594;}
	.st14{fill:#DFB88B;}
	.st15{fill:#CEA887;}
	.st16{fill:#C19977;}
	.st17{fill:#AB8658;}
	.st18{fill:#FFFFFF;}
	.st19{fill:#D77466;}
	.st20{opacity:0.8;fill:#D77466;}
	.st21{fill:none;stroke:#FFFFFF;stroke-width:3;stroke-linecap:round;stroke-linejoin:round;stroke-miterlimit:10;}
	.st22{fill:none;stroke:#D77466;stroke-width:3;stroke-linecap:round;stroke-linejoin:round;stroke-miterlimit:10;}
	.st23{opacity:0.5;fill:none;stroke:#88889F;stroke-miterlimit:10;}
	.st24{fill:#BEBEC9;}
	.st25{opacity:0.5;fill:none;stroke:#88889F;stroke-width:0.5;stroke-miterlimit:10;}
	.st26{fill:#31314F;}
	.st27{opacity:0.09;fill:url(#SVGID_1_);}
	.st28{fill:#275C73;}
	.st29{fill:none;stroke:#275C73;stroke-miterlimit:10;}
	.st30{opacity:0.09;fill:url(#SVGID_00000036940479586705257740000005802788146925990037_);}
	.st31{opacity:0.09;fill:url(#SVGID_00000155855861259347420740000006474261742407587001_);}
	.st32{opacity:0.09;fill:url(#SVGID_00000141453683936417431960000001339650758473933711_);}
	.st33{opacity:0.09;fill:url(#SVGID_00000131326470121144221410000008899715993600184977_);}
	.st34{opacity:0.09;fill:url(#SVGID_00000161608979008119573130000007097143524531146939_);}
	.st35{opacity:0.09;fill:url(#SVGID_00000013184833488076988040000006401206767964762814_);}
	.st36{opacity:0.09;fill:url(#SVGID_00000101799851027172210330000018158927775053098120_);}
	.st37{opacity:0.09;fill:url(#SVGID_00000183966811214307045020000005620677824464407963_);}
	.st38{opacity:0.09;fill:url(#SVGID_00000109011776708959932520000008624453514110812572_);}
	.st39{fill:none;}
	.st40{opacity:0.15;fill:#D77466;}
	.st41{fill:#F5D4C3;}
	.st42{fill:#262C57;}
	.st43{fill:none;stroke:#262C57;stroke-miterlimit:10;}
	.st44{opacity:0.08;}
	.st45{opacity:0.08;fill:#275C73;}
	.st46{opacity:0.08;fill:#D77466;}
	.st47{opacity:0.53;fill:#D77466;}
	.st48{opacity:0.21;fill:#275C73;}
	.st49{fill:#EAE3CD;}
	.st50{fill:none;stroke:#D77466;stroke-width:1.5;stroke-linecap:round;stroke-miterlimit:10;}
	.st51{fill-rule:evenodd;clip-rule:evenodd;fill:#E0E0EB;}
	.st52{fill-rule:evenodd;clip-rule:evenodd;fill:#313151;}
	.st53{fill-rule:evenodd;clip-rule:evenodd;fill:#FFFFFF;}
	.st54{fill-rule:evenodd;clip-rule:evenodd;fill:#B7C9E6;}
	.st55{fill-rule:evenodd;clip-rule:evenodd;fill:#8A8D89;}
	.st56{fill-rule:evenodd;clip-rule:evenodd;fill:#F1EDE1;}
	.st57{fill-rule:evenodd;clip-rule:evenodd;fill:#2F3230;}
	.st58{fill:#F7DC7A;}
	.st59{fill:#E1706C;}
	.st60{fill:#624F2D;}
	.st61{fill:#8DBCAE;}
	.st62{clip-path:url(#SVGID_00000161623776437589247360000009337645662050328486_);fill:#8DBCAE;}
	.st63{fill:#E8E8EF;}
	.st64{fill:none;stroke:#262C57;stroke-linecap:round;stroke-linejoin:round;stroke-miterlimit:10;}
	.st65{fill:none;stroke:#E8E8EF;stroke-miterlimit:10;}
	.st66{fill:none;stroke:#262C57;stroke-width:4;stroke-linecap:round;stroke-miterlimit:10;}
	.st67{fill:none;stroke:#D77466;stroke-width:1.5;stroke-miterlimit:10;}
	.st68{fill:none;stroke:#262C57;stroke-width:1.5;stroke-linecap:round;stroke-linejoin:round;stroke-miterlimit:10;}
	.st69{clip-path:url(#SVGID_00000177445188028364928640000005423388476665363887_);fill:#8DBCAE;}
	.st70{clip-path:url(#SVGID_00000066516538548909211430000012127042204136497557_);fill:#8DBCAE;}
	.st71{opacity:0.09;fill:url(#SVGID_00000043422397763152473030000001167109412568672137_);}
	.st72{fill:url(#SVGID_00000067931163300467550760000008209063757394437769_);}
	.st73{opacity:0.39;clip-path:url(#SVGID_00000182507450834485866850000006932911209422864273_);fill:#D77466;}
	.st74{opacity:0.21;clip-path:url(#SVGID_00000182507450834485866850000006932911209422864273_);fill:#EAE3CD;}
	.st75{clip-path:url(#SVGID_00000182507450834485866850000006932911209422864273_);}
	.st76{fill:#FBF2DC;}
	.st77{clip-path:url(#SVGID_00000182507450834485866850000006932911209422864273_);fill:#DA7466;}
	.st78{clip-path:url(#SVGID_00000182507450834485866850000006932911209422864273_);fill:#080B10;}
	.st79{fill:#DA7466;}
	.st80{fill:none;stroke:#FFFFFF;stroke-linecap:round;stroke-linejoin:round;stroke-miterlimit:10;}
	.st81{fill:#DB5946;}
	.st82{fill:#96C254;}
	.st83{fill:#6C863D;}
	.st84{fill:#F4D2CE;}
	.st85{fill:url(#SVGID_00000163792453843439138840000004804006877818306486_);}
	.st86{opacity:0.22;clip-path:url(#SVGID_00000134971358995655649030000002637026752486367126_);fill:#EAE3CD;}
	.st87{clip-path:url(#SVGID_00000134971358995655649030000002637026752486367126_);}
	.st88{fill:#5A6DD1;}
	.st89{clip-path:url(#SVGID_00000134971358995655649030000002637026752486367126_);fill:#DA7466;}
	.st90{clip-path:url(#SVGID_00000134971358995655649030000002637026752486367126_);fill:#FCFAF1;}
	.st91{clip-path:url(#SVGID_00000134971358995655649030000002637026752486367126_);fill:#080B10;}
	.st92{fill:#8BD2F9;}
	.st93{fill:#F5D0AF;}
	.st94{fill:#D5A479;}
	.st95{fill:none;stroke:#FFFFFF;stroke-miterlimit:10;}
	.st96{clip-path:url(#SVGID_00000030478588445156756470000000748240293186096558_);fill:#8DBCAE;}
	.st97{fill:url(#SVGID_00000100346698548863862290000008945723245088216726_);}
	.st98{clip-path:url(#SVGID_00000026161656857756509400000002687929179097054848_);}
	.st99{opacity:0.53;fill:#EAE3CD;}
	.st100{opacity:0.31;fill:#D77466;}
	.st101{fill:#FCFAF1;}
	.st102{clip-path:url(#SVGID_00000026161656857756509400000002687929179097054848_);fill:#080B10;}
	.st103{fill:#F6F1DA;}
	.st104{fill:#DDD8C6;}
	.st105{fill:#F8E1A0;}
	.st106{fill:#EDEDED;}
	.st107{fill:#646477;}
	.st108{fill:none;stroke:#D77466;stroke-miterlimit:10;}
	.st109{clip-path:url(#SVGID_00000066486876146495308090000010154719521873239178_);fill:#8DBCAE;}
	.st110{fill:url(#SVGID_00000066476323387804222050000001083674039098922880_);}
	.st111{clip-path:url(#SVGID_00000119117185669740820290000016845860002903135638_);}
	.st112{clip-path:url(#SVGID_00000119117185669740820290000016845860002903135638_);fill:#080B10;}
	.st113{fill:none;stroke:#E8E8EF;stroke-width:0.75;stroke-miterlimit:10;}
	.st114{clip-path:url(#SVGID_00000122679244050738659900000001441223610206422195_);fill:#8DBCAE;}
	.st115{clip-path:url(#SVGID_00000085928873081468078180000017518098317140016274_);fill:#8DBCAE;}
	.st116{fill:#4599D6;}
	.st117{fill:#642673;}
	.st118{fill:#BE286F;}
	.st119{clip-path:url(#SVGID_00000123423990366554054480000001252685628943462311_);fill:#8DBCAE;}
	.st120{opacity:0.54;fill:#E8E8EF;}
	.st121{clip-path:url(#SVGID_00000015356786684483161130000005378208423956445606_);fill:#8DBCAE;}
	.st122{fill:#80808B;}
	.st123{clip-path:url(#SVGID_00000061444065613284372610000000355846821949243805_);fill:#8DBCAE;}
	.st124{fill:none;stroke:#B5AFAE;stroke-linecap:round;stroke-linejoin:round;stroke-miterlimit:10;}
</style>
<g id="Background">
</g>
<g id="Content">
	<g>
		<path class="st28" d="M0,32.62c0.26-0.76,0.51-1.5,0.76-2.24c0.64-1.9,1.29-3.8,1.93-5.7c0.07-0.19,0.19-0.39,0.17-0.58
			c-0.02-0.18-0.18-0.35-0.28-0.52c-0.94-1.68-1.57-3.47-1.82-5.37C0.11,13.36,1.38,9.07,4.61,5.37c1.83-2.09,4.08-3.57,6.7-4.49
			c1.63-0.57,3.3-0.87,5.02-0.88c4.34-0.04,8.12,1.4,11.3,4.36c2.46,2.29,4.01,5.12,4.69,8.41c0.19,0.94,0.29,1.88,0.3,2.84
			c0.04,4.25-1.37,7.95-4.25,11.06c-2.33,2.53-5.22,4.11-8.59,4.8c-1.26,0.26-2.53,0.35-3.81,0.3c-2.47-0.1-4.8-0.73-6.98-1.9
			c-0.08-0.05-0.16-0.06-0.25-0.03c-2.86,0.91-5.72,1.82-8.58,2.73C0.12,32.59,0.07,32.6,0,32.62z M4.03,28.69
			c0.07-0.02,0.11-0.03,0.16-0.04c1.63-0.52,3.25-1.03,4.88-1.55c0.09-0.03,0.16-0.02,0.25,0.03c1.86,1.19,3.9,1.89,6.11,2.09
			c1.5,0.13,2.98,0.02,4.44-0.34c2.58-0.64,4.8-1.91,6.6-3.87c3.03-3.3,4.22-7.2,3.38-11.6c-0.85-4.43-3.43-7.61-7.47-9.59
			c-1.96-0.96-4.05-1.35-6.23-1.28c-0.78,0.03-1.54,0.11-2.3,0.27C10.97,3.43,8.52,4.8,6.58,7c-2.82,3.18-3.89,6.9-3.25,11.1
			c0.31,2.02,1.11,3.86,2.3,5.52c0.06,0.08,0.07,0.15,0.04,0.24c-0.48,1.39-0.95,2.79-1.42,4.19C4.17,28.25,4.11,28.46,4.03,28.69z"
			/>
		<path class="st28" d="M21.02,23.4c-0.65-0.02-1.14-0.15-1.62-0.3c-1.12-0.35-2.24-0.73-3.29-1.26c-1.11-0.57-2.1-1.33-3.01-2.19
			c-1.01-0.96-1.87-2.03-2.66-3.17c-0.45-0.65-0.87-1.3-1.18-2.02C8.97,13.73,8.78,13,8.8,12.21c0.03-1.12,0.44-2.08,1.19-2.91
			c0.39-0.43,0.88-0.61,1.43-0.68c0.17-0.02,0.35-0.04,0.52-0.05c0.3-0.03,0.54,0.09,0.7,0.35c0.1,0.16,0.18,0.33,0.26,0.51
			c0.41,0.96,0.81,1.91,1.21,2.87c0.09,0.21,0.08,0.42-0.01,0.63c-0.25,0.54-0.66,0.96-1.05,1.39c-0.22,0.25-0.25,0.44-0.08,0.72
			c1.05,1.75,2.42,3.17,4.25,4.12c0.4,0.21,0.81,0.39,1.23,0.57c0.31,0.13,0.51,0.09,0.72-0.17c0.42-0.51,0.84-1.03,1.26-1.55
			c0.19-0.23,0.36-0.33,0.64-0.22c0.39,0.14,0.77,0.3,1.14,0.48c0.73,0.35,1.46,0.71,2.19,1.06c0.26,0.12,0.39,0.3,0.39,0.59
			c-0.01,0.57-0.11,1.12-0.35,1.63c-0.1,0.22-0.27,0.42-0.44,0.59c-0.55,0.53-1.19,0.92-1.93,1.1
			C21.66,23.31,21.28,23.35,21.02,23.4z"/>
	</g>
	<path class="st29" d="M217.35,43.36H0.63c-14.94,0-27.05-12.11-27.05-27.05v0c0-14.94,12.11-27.05,27.05-27.05h216.72
		c14.94,0,27.05,12.11,27.05,27.05v0C244.39,31.25,232.28,43.36,217.35,43.36z"/>
</g>
</svg>
