<?xml version="1.0" encoding="utf-8"?>
<!-- Generator: Adobe Illustrator 26.5.0, SVG Export Plug-In . SVG Version: 6.00 Build 0)  -->
<svg version="1.1" id="Content" xmlns="http://www.w3.org/2000/svg" xmlns:xlink="http://www.w3.org/1999/xlink" x="0px" y="0px"
	 viewBox="0 0 44.74 47.1" style="enable-background:new 0 0 44.74 47.1;" xml:space="preserve">
<style type="text/css">
	.st0{fill:#355E74;}
</style>
<path class="st0" d="M11.92,39.98c1.67-0.14,3.56-0.59,4.95-1.63c0.9-0.67,1.59-1.62,1.85-2.96c-0.97,0.1-1.92,0.31-2.78,0.63
	c-0.16,0.07-0.31,0.13-0.46,0.18C13.72,36.97,12.36,38.22,11.92,39.98L11.92,39.98z M37.68,13.48V3.53c0-0.65,0.53-1.18,1.18-1.18
	c0.65,0,1.18,0.53,1.18,1.18v8.94c1.07-0.32,2.25-0.48,3.53-0.48c0.65,0,1.18,0.53,1.18,1.18c0,2.14-0.65,4.02-1.57,5.51
	c-0.08,0.12-0.15,0.24-0.24,0.36c0.21-0.01,0.42-0.01,0.63-0.01c0.65,0,1.18,0.53,1.18,1.18c0,2.14-0.65,4.02-1.57,5.51l-0.13,0.2
	c0.17-0.01,0.35-0.01,0.53-0.01c0.65,0,1.18,0.53,1.18,1.18c0,2.14-0.65,4.02-1.57,5.51c-0.08,0.13-0.17,0.26-0.25,0.39
	c0.22-0.01,0.43-0.01,0.65-0.01c0.65,0,1.18,0.53,1.18,1.18c0,2.86-1.2,4.79-2.91,6.07c-1.9,1.43-4.42,1.98-6.51,2.12v3.58
	c0,0.65-0.53,1.18-1.18,1.18c-0.65,0-1.18-0.53-1.18-1.18v-3.57c-2.09-0.14-4.6-0.7-6.51-2.13c-1.71-1.28-2.91-3.21-2.91-6.07
	c0-0.65,0.53-1.18,1.18-1.18c0.22,0,0.43,0,0.65,0.01c-0.09-0.13-0.17-0.26-0.26-0.39c-0.92-1.49-1.57-3.37-1.57-5.51
	c0-0.65,0.53-1.18,1.18-1.18c0.18,0,0.35,0,0.52,0.01l-0.13-0.2c-0.92-1.49-1.57-3.37-1.57-5.51c0-0.65,0.53-1.18,1.18-1.18
	c0.21,0,0.42,0,0.63,0.01c-0.08-0.12-0.16-0.24-0.24-0.36c-0.92-1.49-1.57-3.37-1.57-5.51c0-0.65,0.53-1.18,1.18-1.18
	c1.28,0,2.46,0.17,3.53,0.48V3.53c0-0.65,0.53-1.18,1.18-1.18c0.65,0,1.18,0.53,1.18,1.18v9.94c0.61,0.36,1.16,0.77,1.66,1.22
	c0.25,0.23,0.48,0.47,0.7,0.71V1.18C32.97,0.53,33.5,0,34.15,0c0.65,0,1.18,0.53,1.18,1.18v14.23c0.22-0.25,0.45-0.49,0.7-0.71
	C36.52,14.24,37.07,13.83,37.68,13.48L37.68,13.48z M37.59,20.57c0.14-0.23,0.36-0.41,0.64-0.5c0.91-0.29,2.07-1.22,2.94-2.63
	c0.53-0.85,0.94-1.88,1.12-3.03c-1.94,0.22-3.52,0.95-4.68,2.01c-1.45,1.33-2.26,3.22-2.29,5.29v0.73c0.22-0.25,0.45-0.49,0.7-0.71
	C36.5,21.3,37.02,20.91,37.59,20.57L37.59,20.57z M37.93,27.26c0.07-0.04,0.14-0.08,0.22-0.12c0.27-0.14,0.56-0.27,0.85-0.39
	c0.74-0.45,1.54-1.23,2.18-2.27c0.53-0.85,0.94-1.88,1.12-3.03c-1.94,0.22-3.52,0.95-4.68,2.01c-1.45,1.34-2.26,3.22-2.29,5.29v0.58
	c0.22-0.25,0.45-0.49,0.7-0.71C36.59,28.1,37.22,27.64,37.93,27.26L37.93,27.26z M39.97,28.89c-0.31,0.17-0.61,0.31-0.89,0.41
	c-0.54,0.29-1.03,0.64-1.46,1.04c-1.45,1.34-2.26,3.22-2.29,5.29v0.16c0.93-0.86,2.08-1.52,3.35-1.99c0.82-0.41,1.76-1.26,2.5-2.45
	c0.53-0.85,0.94-1.87,1.12-3.03C41.45,28.43,40.67,28.62,39.97,28.89L39.97,28.89z M39.49,36.02c-0.16,0.07-0.31,0.13-0.46,0.18
	c-1.76,0.76-3.12,2.02-3.56,3.78c1.67-0.14,3.56-0.59,4.95-1.63c0.9-0.67,1.59-1.62,1.85-2.96C41.3,35.49,40.36,35.7,39.49,36.02
	L39.49,36.02z M32.97,35.8v-0.16c-0.02-2.07-0.83-3.95-2.29-5.29c-0.43-0.4-0.92-0.74-1.46-1.04c-0.29-0.1-0.59-0.24-0.9-0.41
	c-0.7-0.27-1.48-0.47-2.32-0.56c0.18,1.16,0.59,2.17,1.12,3.03c0.74,1.19,1.68,2.04,2.5,2.45C30.89,34.28,32.04,34.94,32.97,35.8
	L32.97,35.8z M32.97,29.33v-0.58c-0.02-2.07-0.83-3.95-2.29-5.29c-1.16-1.06-2.74-1.79-4.68-2.01c0.18,1.15,0.59,2.17,1.12,3.03
	c0.64,1.04,1.44,1.82,2.18,2.27c0.29,0.12,0.57,0.25,0.85,0.39c0.08,0.03,0.15,0.07,0.22,0.12c0.7,0.39,1.34,0.84,1.9,1.36
	C32.52,28.84,32.75,29.08,32.97,29.33L32.97,29.33z M32.97,22.45v-0.73c-0.02-2.07-0.83-3.95-2.29-5.29
	c-1.16-1.06-2.74-1.79-4.68-2.01c0.18,1.15,0.59,2.17,1.12,3.03c0.87,1.41,2.03,2.34,2.94,2.63c0.28,0.09,0.5,0.27,0.64,0.5
	c0.57,0.34,1.09,0.73,1.57,1.17C32.52,21.96,32.75,22.2,32.97,22.45L32.97,22.45z M29.26,36.2c-0.15-0.05-0.3-0.11-0.46-0.18
	c-0.87-0.32-1.81-0.53-2.78-0.63c0.26,1.33,0.95,2.29,1.85,2.96c1.39,1.04,3.29,1.49,4.95,1.63C32.39,38.22,31.03,36.97,29.26,36.2
	L29.26,36.2z M14.13,13.48V3.53c0-0.65,0.53-1.18,1.18-1.18c0.65,0,1.18,0.53,1.18,1.18v8.94c1.07-0.32,2.26-0.48,3.53-0.48
	c0.65,0,1.18,0.53,1.18,1.18c0,2.14-0.65,4.02-1.57,5.51c-0.08,0.12-0.15,0.24-0.24,0.36c0.21-0.01,0.42-0.01,0.63-0.01
	c0.65,0,1.18,0.53,1.18,1.18c0,2.14-0.65,4.02-1.57,5.51l-0.13,0.2c0.17-0.01,0.35-0.01,0.52-0.01c0.65,0,1.18,0.53,1.18,1.18
	c0,2.14-0.65,4.02-1.57,5.51c-0.08,0.13-0.17,0.26-0.25,0.39c0.22-0.01,0.43-0.01,0.65-0.01c0.65,0,1.18,0.53,1.18,1.18
	c0,2.86-1.2,4.79-2.91,6.07c-1.9,1.43-4.42,1.98-6.51,2.12v3.58c0,0.65-0.53,1.18-1.18,1.18c-0.65,0-1.18-0.53-1.18-1.18v-3.57
	c-2.09-0.14-4.6-0.7-6.51-2.13C1.2,38.94,0,37.01,0,34.15c0-0.65,0.53-1.18,1.18-1.18c0.22,0,0.43,0,0.65,0.01
	c-0.09-0.13-0.17-0.26-0.26-0.39C0.65,31.1,0,29.23,0,27.08c0-0.65,0.53-1.18,1.18-1.18c0.18,0,0.35,0,0.53,0.01l-0.13-0.2
	C0.65,24.22,0,22.35,0,20.2c0-0.65,0.53-1.18,1.18-1.18c0.21,0,0.42,0,0.63,0.01c-0.08-0.12-0.16-0.24-0.24-0.36
	C0.65,17.19,0,15.31,0,13.17c0-0.65,0.53-1.18,1.18-1.18c1.28,0,2.46,0.17,3.53,0.48V3.53c0-0.65,0.53-1.18,1.18-1.18
	s1.18,0.53,1.18,1.18v9.94c0.61,0.36,1.16,0.77,1.66,1.22c0.25,0.23,0.48,0.47,0.7,0.71V1.18C9.42,0.53,9.95,0,10.6,0
	c0.65,0,1.18,0.53,1.18,1.18v14.23c0.22-0.25,0.45-0.49,0.7-0.71C12.97,14.24,13.52,13.83,14.13,13.48L14.13,13.48z M14.04,20.57
	c0.14-0.23,0.37-0.41,0.64-0.5c0.91-0.29,2.07-1.22,2.94-2.63c0.53-0.85,0.94-1.88,1.12-3.03c-1.94,0.22-3.52,0.95-4.68,2.01
	c-1.46,1.33-2.26,3.22-2.29,5.29v0.73c0.22-0.25,0.45-0.49,0.7-0.71C12.95,21.3,13.47,20.91,14.04,20.57L14.04,20.57z M14.38,27.26
	c0.07-0.04,0.14-0.08,0.22-0.12c0.27-0.14,0.56-0.27,0.85-0.39c0.74-0.45,1.54-1.23,2.18-2.27c0.53-0.85,0.94-1.88,1.12-3.03
	c-1.94,0.22-3.52,0.95-4.68,2.01c-1.46,1.34-2.26,3.22-2.29,5.29v0.58c0.22-0.25,0.45-0.49,0.7-0.71
	C13.04,28.1,13.67,27.64,14.38,27.26L14.38,27.26z M16.42,28.89c-0.3,0.17-0.61,0.31-0.89,0.41c-0.54,0.29-1.03,0.64-1.46,1.04
	c-1.46,1.34-2.26,3.22-2.29,5.29v0.16c0.93-0.86,2.08-1.52,3.35-1.99c0.82-0.41,1.76-1.26,2.5-2.45c0.53-0.85,0.94-1.87,1.12-3.03
	C17.9,28.43,17.12,28.62,16.42,28.89L16.42,28.89z M9.42,21.81v-0.1c-0.02-2.07-0.83-3.95-2.29-5.29c-1.16-1.06-2.74-1.79-4.68-2.01
	c0.18,1.15,0.59,2.17,1.12,3.03c0.87,1.41,2.03,2.34,2.94,2.63c0.28,0.09,0.5,0.27,0.64,0.5c0.57,0.34,1.09,0.73,1.57,1.17
	c0.25,0.23,0.48,0.47,0.7,0.71V21.81L9.42,21.81z M9.42,28.85v-0.1c-0.02-2.07-0.83-3.95-2.29-5.29c-1.16-1.06-2.74-1.79-4.68-2.01
	c0.18,1.15,0.59,2.17,1.12,3.03c0.64,1.04,1.44,1.82,2.18,2.27C6.04,26.87,6.33,27,6.6,27.14c0.08,0.03,0.15,0.07,0.22,0.12
	c0.7,0.39,1.34,0.84,1.9,1.36c0.25,0.23,0.48,0.47,0.7,0.71V28.85L9.42,28.85z M9.42,35.8v-0.16c-0.02-2.07-0.83-3.95-2.29-5.29
	c-0.43-0.4-0.92-0.74-1.46-1.04c-0.29-0.1-0.59-0.24-0.89-0.41c-0.7-0.27-1.48-0.47-2.32-0.56c0.18,1.16,0.59,2.17,1.12,3.03
	c0.74,1.19,1.68,2.04,2.5,2.45C7.34,34.28,8.49,34.94,9.42,35.8L9.42,35.8z M5.71,36.2c-0.15-0.05-0.3-0.11-0.46-0.18
	c-0.87-0.32-1.81-0.53-2.78-0.63c0.26,1.33,0.95,2.29,1.85,2.96c1.39,1.04,3.29,1.49,4.95,1.63C8.84,38.22,7.48,36.97,5.71,36.2
	L5.71,36.2z"/>
</svg>
