<?xml version="1.0" encoding="utf-8"?>
<!-- Generator: Adobe Illustrator 26.5.0, SVG Export Plug-In . SVG Version: 6.00 Build 0)  -->
<svg version="1.1" id="Content" xmlns="http://www.w3.org/2000/svg" xmlns:xlink="http://www.w3.org/1999/xlink" x="0px" y="0px"
	 viewBox="0 0 37.67 47.1" style="enable-background:new 0 0 37.67 47.1;" xml:space="preserve">
<style type="text/css">
	.st0{fill:#355E74;}
</style>
<path class="st0" d="M36.44,47.09l-11.63,0c-0.06,0-0.11,0-0.17,0l-23.46,0C0.53,47.1,0,46.57,0,45.92c0-0.07,0-0.15,0.02-0.22
	L7.06,8.15V3.53c0-0.97,0.4-1.85,1.04-2.49l0.02-0.02C8.75,0.39,9.63,0,10.59,0h16.49c0.97,0,1.86,0.4,2.49,1.04
	c0.64,0.64,1.04,1.53,1.04,2.5v4.63l7.04,37.55c0.12,0.64-0.3,1.25-0.94,1.37C36.62,47.09,36.53,47.1,36.44,47.09L36.44,47.09z
	 M9.41,7.07h18.84V3.53c0-0.32-0.13-0.62-0.35-0.83c-0.21-0.21-0.51-0.35-0.83-0.35H10.59c-0.32,0-0.62,0.13-0.83,0.34
	C9.55,2.91,9.41,3.21,9.41,3.53V7.07L9.41,7.07z M23.68,44.75L28.1,9.41l-18.89,0L2.59,44.75L23.68,44.75L23.68,44.75z M29.67,15.86
	l-3.61,28.89h9.03L29.67,15.86L29.67,15.86z"/>
</svg>
