<?xml version="1.0" encoding="utf-8"?>
<!-- Generator: Adobe Illustrator 26.5.0, SVG Export Plug-In . SVG Version: 6.00 Build 0)  -->
<svg version="1.1" xmlns="http://www.w3.org/2000/svg" xmlns:xlink="http://www.w3.org/1999/xlink" x="0px" y="0px"
	 viewBox="0 0 20.22 20.22" style="enable-background:new 0 0 20.22 20.22;" xml:space="preserve">
<style type="text/css">
	.st0{opacity:0.51;}
	.st1{fill:#8D8DA5;}
	.st2{opacity:0.8;fill:#ABABBA;}
	.st3{fill:#80A3D0;}
	.st4{fill:#9CB9DB;}
	.st5{fill:#7E9CC7;}
	.st6{fill:#DCBAAF;}
	.st7{fill:#AFA9B9;}
	.st8{fill:#BDB4D3;}
	.st9{fill:#E1BF89;}
	.st10{fill:#F3B186;}
	.st11{fill:#9A827A;}
	.st12{fill:#C3A479;}
	.st13{fill:#D4A594;}
	.st14{fill:#DFB88B;}
	.st15{fill:#CEA887;}
	.st16{fill:#C19977;}
	.st17{fill:#AB8658;}
	.st18{fill:#FFFFFF;}
	.st19{fill:#D77466;}
	.st20{opacity:0.8;fill:#D77466;}
	.st21{fill:none;stroke:#FFFFFF;stroke-width:3;stroke-linecap:round;stroke-linejoin:round;stroke-miterlimit:10;}
	.st22{fill:none;stroke:#D77466;stroke-width:3;stroke-linecap:round;stroke-linejoin:round;stroke-miterlimit:10;}
	.st23{opacity:0.5;fill:none;stroke:#88889F;stroke-miterlimit:10;}
	.st24{fill:#BEBEC9;}
	.st25{opacity:0.5;fill:none;stroke:#88889F;stroke-width:0.5;stroke-miterlimit:10;}
	.st26{fill:#31314F;}
	.st27{opacity:0.09;fill:url(#SVGID_1_);}
	.st28{fill:#275C73;}
	.st29{fill:none;stroke:#275C73;stroke-miterlimit:10;}
	.st30{opacity:0.09;fill:url(#SVGID_00000088125336171810329450000003552617177393276304_);}
	.st31{opacity:0.09;fill:url(#SVGID_00000076568863604342655200000010207026873817879720_);}
	.st32{opacity:0.09;fill:url(#SVGID_00000109725606013170414800000006284207139659244474_);}
	.st33{opacity:0.09;fill:url(#SVGID_00000107580261224520929770000008000613856180935559_);}
	.st34{opacity:0.09;fill:url(#SVGID_00000019674827900849973240000007206235833972365452_);}
	.st35{opacity:0.09;fill:url(#SVGID_00000125561040321279257120000000203115199391779463_);}
	.st36{opacity:0.09;fill:url(#SVGID_00000150818894867979251410000012222187116279096455_);}
	.st37{opacity:0.09;fill:url(#SVGID_00000119832270729825351870000004226862608735788168_);}
	.st38{opacity:0.09;fill:url(#SVGID_00000067211524912262477030000004236246435906600367_);}
	.st39{fill:none;}
	.st40{opacity:0.15;fill:#D77466;}
	.st41{fill:#F5D4C3;}
	.st42{fill:#262C57;}
	.st43{fill:none;stroke:#262C57;stroke-miterlimit:10;}
	.st44{opacity:0.08;}
	.st45{opacity:0.08;fill:#275C73;}
	.st46{opacity:0.08;fill:#D77466;}
	.st47{opacity:0.53;fill:#D77466;}
	.st48{opacity:0.21;fill:#275C73;}
	.st49{fill:#EAE3CD;}
	.st50{fill:none;stroke:#D77466;stroke-width:1.5;stroke-linecap:round;stroke-miterlimit:10;}
	.st51{fill-rule:evenodd;clip-rule:evenodd;fill:#E0E0EB;}
	.st52{fill-rule:evenodd;clip-rule:evenodd;fill:#313151;}
	.st53{fill-rule:evenodd;clip-rule:evenodd;fill:#FFFFFF;}
	.st54{fill-rule:evenodd;clip-rule:evenodd;fill:#B7C9E6;}
	.st55{fill-rule:evenodd;clip-rule:evenodd;fill:#8A8D89;}
	.st56{fill-rule:evenodd;clip-rule:evenodd;fill:#F1EDE1;}
	.st57{fill-rule:evenodd;clip-rule:evenodd;fill:#2F3230;}
	.st58{fill:#F7DC7A;}
	.st59{fill:#E1706C;}
	.st60{fill:#624F2D;}
	.st61{fill:#8DBCAE;}
	.st62{clip-path:url(#SVGID_00000144311460021137563830000010562284399619668611_);fill:#8DBCAE;}
	.st63{fill:#E8E8EF;}
	.st64{fill:none;stroke:#262C57;stroke-linecap:round;stroke-linejoin:round;stroke-miterlimit:10;}
	.st65{fill:none;stroke:#E8E8EF;stroke-miterlimit:10;}
	.st66{fill:none;stroke:#262C57;stroke-width:4;stroke-linecap:round;stroke-miterlimit:10;}
	.st67{fill:none;stroke:#D77466;stroke-width:1.5;stroke-miterlimit:10;}
	.st68{fill:none;stroke:#262C57;stroke-width:1.5;stroke-linecap:round;stroke-linejoin:round;stroke-miterlimit:10;}
	.st69{clip-path:url(#SVGID_00000083056275701687136380000013756007595726004886_);fill:#8DBCAE;}
	.st70{clip-path:url(#SVGID_00000114756918187492184750000005447461597555617718_);fill:#8DBCAE;}
	.st71{opacity:0.09;fill:url(#SVGID_00000019657439563360259000000007955378534574139798_);}
	.st72{fill:url(#SVGID_00000031181473890569251700000010249160797769210301_);}
	.st73{opacity:0.39;clip-path:url(#SVGID_00000160872875084923766250000003498517130257467569_);fill:#D77466;}
	.st74{opacity:0.21;clip-path:url(#SVGID_00000160872875084923766250000003498517130257467569_);fill:#EAE3CD;}
	.st75{clip-path:url(#SVGID_00000160872875084923766250000003498517130257467569_);}
	.st76{fill:#FBF2DC;}
	.st77{clip-path:url(#SVGID_00000160872875084923766250000003498517130257467569_);fill:#DA7466;}
	.st78{clip-path:url(#SVGID_00000160872875084923766250000003498517130257467569_);fill:#080B10;}
	.st79{fill:#DA7466;}
	.st80{fill:none;stroke:#FFFFFF;stroke-linecap:round;stroke-linejoin:round;stroke-miterlimit:10;}
	.st81{fill:#DB5946;}
	.st82{fill:#96C254;}
	.st83{fill:#6C863D;}
	.st84{fill:#F4D2CE;}
	.st85{fill:url(#SVGID_00000032616739202996424020000002365657217919815575_);}
	.st86{opacity:0.22;clip-path:url(#SVGID_00000041277219647590353350000011620395867823672984_);fill:#EAE3CD;}
	.st87{clip-path:url(#SVGID_00000041277219647590353350000011620395867823672984_);}
	.st88{fill:#5A6DD1;}
	.st89{clip-path:url(#SVGID_00000041277219647590353350000011620395867823672984_);fill:#DA7466;}
	.st90{clip-path:url(#SVGID_00000041277219647590353350000011620395867823672984_);fill:#FCFAF1;}
	.st91{clip-path:url(#SVGID_00000041277219647590353350000011620395867823672984_);fill:#080B10;}
	.st92{fill:#8BD2F9;}
	.st93{fill:#F5D0AF;}
	.st94{fill:#D5A479;}
	.st95{fill:none;stroke:#FFFFFF;stroke-miterlimit:10;}
	.st96{clip-path:url(#SVGID_00000002373899098820145370000010893672292110848921_);fill:#8DBCAE;}
	.st97{fill:url(#SVGID_00000101823565451765169020000008752083231645093000_);}
	.st98{clip-path:url(#SVGID_00000132048182927908795440000003180975897977368250_);}
	.st99{opacity:0.53;fill:#EAE3CD;}
	.st100{opacity:0.31;fill:#D77466;}
	.st101{fill:#FCFAF1;}
	.st102{clip-path:url(#SVGID_00000132048182927908795440000003180975897977368250_);fill:#080B10;}
	.st103{fill:#F6F1DA;}
	.st104{fill:#DDD8C6;}
	.st105{fill:#F8E1A0;}
	.st106{fill:#EDEDED;}
	.st107{fill:#646477;}
	.st108{fill:none;stroke:#D77466;stroke-miterlimit:10;}
	.st109{clip-path:url(#SVGID_00000097471939369654572850000016158465379528245947_);fill:#8DBCAE;}
	.st110{fill:url(#SVGID_00000178899379672976503890000002998451739558471356_);}
	.st111{clip-path:url(#SVGID_00000052081345098010114860000013563544977323573176_);}
	.st112{clip-path:url(#SVGID_00000052081345098010114860000013563544977323573176_);fill:#080B10;}
	.st113{fill:none;stroke:#E8E8EF;stroke-width:0.75;stroke-miterlimit:10;}
	.st114{clip-path:url(#SVGID_00000145033896105985796100000012562111968108725415_);fill:#8DBCAE;}
	.st115{clip-path:url(#SVGID_00000007416197103515427210000017735088334891712693_);fill:#8DBCAE;}
	.st116{fill:#4599D6;}
	.st117{fill:#642673;}
	.st118{fill:#BE286F;}
	.st119{clip-path:url(#SVGID_00000037675651162334285240000017449561504884996281_);fill:#8DBCAE;}
	.st120{opacity:0.54;fill:#E8E8EF;}
	.st121{clip-path:url(#SVGID_00000116933250973165168340000005657778667265722780_);fill:#8DBCAE;}
	.st122{fill:#80808B;}
	.st123{clip-path:url(#SVGID_00000147201347979998426090000008362278032139160976_);fill:#8DBCAE;}
	.st124{fill:none;stroke:#B5AFAE;stroke-linecap:round;stroke-linejoin:round;stroke-miterlimit:10;}
</style>
<g id="Background">
</g>
<g id="Content">
	<g>
		<g id="LinkedIn_00000005255665379565626060000003314043242878795944_">
			<path class="st24" d="M14.76,0H5.47C2.45,0,0,2.45,0,5.47v9.29c0,3.02,2.45,5.47,5.47,5.47h9.29c3.02,0,5.47-2.45,5.47-5.47V5.47
				C20.22,2.45,17.78,0,14.76,0z"/>
		</g>
		<g>
			<path class="st18" d="M7.59,4.6C8,4.69,8.26,4.99,8.47,5.32c0.25,0.37,0.48,0.76,0.71,1.15C9.3,6.69,9.37,6.94,9.37,7.2
				c0,0.37-0.18,0.65-0.45,0.87C8.69,8.27,8.44,8.44,8.21,8.64C8,8.83,7.91,9.09,7.96,9.38c0.08,0.49,0.34,0.9,0.62,1.29
				c0.35,0.49,0.75,0.94,1.18,1.36c0.27,0.26,0.56,0.49,0.89,0.66c0.24,0.12,0.49,0.19,0.75,0.11c0.13-0.04,0.24-0.12,0.35-0.21
				c0.25-0.21,0.48-0.45,0.74-0.66c0.35-0.29,0.75-0.3,1.15-0.12c0.36,0.16,0.65,0.4,0.94,0.65c0.19,0.17,0.39,0.32,0.56,0.5
				c0.19,0.2,0.38,0.41,0.44,0.69c0.06,0.25,0,0.46-0.17,0.63c-0.31,0.3-0.63,0.6-0.98,0.86c-0.43,0.31-0.92,0.51-1.45,0.56
				c-0.21,0.02-0.43,0.05-0.64,0.04c-0.48-0.02-0.94-0.13-1.39-0.3c-0.48-0.19-0.93-0.43-1.35-0.73c-0.27-0.2-0.53-0.41-0.79-0.62
				c-0.21-0.18-0.43-0.37-0.62-0.57c-0.38-0.42-0.77-0.83-1.12-1.28c-0.32-0.41-0.63-0.84-0.9-1.28c-0.39-0.63-0.68-1.31-0.84-2.03
				C5.24,8.51,5.21,8.09,5.24,7.67c0.05-0.69,0.28-1.31,0.69-1.86c0.19-0.25,0.41-0.47,0.66-0.65c0.12-0.08,0.21-0.2,0.32-0.29
				C7.08,4.73,7.25,4.64,7.46,4.6C7.5,4.6,7.55,4.6,7.59,4.6z"/>
		</g>
	</g>
</g>
</svg>
