<?xml version="1.0" encoding="utf-8"?>
<!-- Generator: Adobe Illustrator 27.0.0, SVG Export Plug-In . SVG Version: 6.00 Build 0)  -->
<svg version="1.1" xmlns="http://www.w3.org/2000/svg" xmlns:xlink="http://www.w3.org/1999/xlink" x="0px" y="0px"
	 viewBox="0 0 13.47 13.47" style="enable-background:new 0 0 13.47 13.47;" xml:space="preserve">
<style type="text/css">
	.st0{opacity:0.08;fill:#355E74;}
	.st1{fill:#2B3059;}
	.st2{fill:#CB6D61;}
	.st3{fill:#CE6C61;}
</style>
<g id="Background">
</g>
<g id="Content">
	<g>
		<path class="st3" d="M0.86,9.71l-0.82,2.88c-0.17,0.59,0.25,1.01,0.84,0.84l2.88-0.82c0.32-0.09,0.62-0.28,0.88-0.52L1.38,8.83
			C1.13,9.09,0.95,9.39,0.86,9.71z"/>
		<path class="st3" d="M5.59,11.15c0.01-0.01,0.03-0.02,0.04-0.03l7.61-7.61c0.26-0.26,0.32-0.64,0.12-0.84L10.8,0.12
			c-0.2-0.2-0.57-0.14-0.84,0.12L2.36,7.85C2.34,7.86,2.33,7.87,2.32,7.89L5.59,11.15z"/>
	</g>
</g>
</svg>
