<?xml version="1.0" encoding="utf-8"?>
<!-- Generator: Adobe Illustrator 27.0.0, SVG Export Plug-In . SVG Version: 6.00 Build 0)  -->
<svg version="1.1" xmlns="http://www.w3.org/2000/svg" xmlns:xlink="http://www.w3.org/1999/xlink" x="0px" y="0px"
	 viewBox="0 0 19.92 19.92" style="enable-background:new 0 0 19.92 19.92;" xml:space="preserve">
<style type="text/css">
	.st0{opacity:0.08;fill:#355E74;}
	.st1{fill:#2B3059;}
	.st2{fill:#CB6D61;}
	.st3{fill:#CE6C61;}
</style>
<g id="Background">
</g>
<g id="Content">
	<path class="st2" d="M6,13.93c0.17-0.01,0.33-0.02,0.49-0.03c3.08-0.26,6.19-1.77,8.54-3.88c0.77-0.69,1.45-1.45,2.03-2.24
		c-0.46,0.13-0.97,0.2-1.47,0.18c-0.7-0.02-1.4-0.19-2.01-0.54c-0.67-0.38-1.24-0.95-1.59-1.75C11.88,5.42,12,5.13,12.25,5.02
		c0.25-0.11,0.54,0.01,0.65,0.26c0.25,0.59,0.67,1.01,1.16,1.28c0.47,0.26,1.02,0.4,1.56,0.41c0.55,0.02,1.09-0.08,1.55-0.28
		c0.4-0.17,0.75-0.42,0.97-0.73c0.5-1.08,0.78-2.2,0.78-3.3l0-0.22c-1.42-0.44-2.77-0.56-4.02-0.41c-1.18,0.14-2.27,0.51-3.27,1.06
		c-0.06,0.09-0.15,0.16-0.25,0.19c-0.04,0.01-0.07,0.02-0.11,0.02c-0.53,0.33-1.04,0.71-1.5,1.14c-1.42,1.31-2.5,3.02-3.14,4.87
		C6.12,10.81,5.89,12.39,6,13.93L6,13.93z M19.17,6.1c-0.01,0.06-0.03,0.13-0.06,0.19c-0.03,0.05-0.06,0.11-0.1,0.16
		c-0.74,1.57-1.89,3.05-3.31,4.32c-0.33,0.29-0.67,0.58-1.02,0.85c0.24,0.71,0.47,1.42,0.71,2.13c0.08,0.26-0.07,0.54-0.33,0.62
		c-2.13,0.65-3.77,0.63-6.88,0.6c-0.6-0.01-1.27-0.01-2.21-0.02l0,4.46c0.01,0.14-0.04,0.27-0.14,0.38c-0.19,0.19-0.51,0.2-0.7,0
		L0.15,14.8C0.06,14.71,0,14.58,0,14.44c0-0.27,0.22-0.5,0.5-0.5l4.51,0c-0.02-0.33-0.03-0.65-0.02-0.98v-0.59
		C4.98,6.46,4.97,1.66,10.31,0.02c0.26-0.08,0.53,0.06,0.62,0.32l0.56,1.69c1.01-0.51,2.11-0.86,3.3-1
		c1.48-0.17,3.08-0.02,4.76,0.56c0.19,0.06,0.33,0.23,0.35,0.44c0.02,0.21,0.03,0.42,0.03,0.63C19.92,3.81,19.65,4.97,19.17,6.1
		L19.17,6.1z M10.48,13.97c1.48-0.02,2.59-0.11,3.81-0.43l-0.45-1.33C12.79,12.92,11.65,13.52,10.48,13.97L10.48,13.97z M10.61,2.53
		l-0.47-1.41C7.19,2.24,6.32,4.74,6.07,8C6.78,6.38,7.81,4.89,9.1,3.7C9.57,3.27,10.08,2.88,10.61,2.53L10.61,2.53z M14.38,3.42
		c0.29-0.29,0.67-0.44,1.06-0.44c0.38,0,0.76,0.15,1.06,0.44c0.29,0.29,0.44,0.67,0.44,1.06c0,0.38-0.15,0.76-0.44,1.05
		c-0.29,0.29-0.67,0.44-1.06,0.44c-0.38,0-0.76-0.15-1.05-0.44c-0.29-0.29-0.44-0.67-0.44-1.06C13.94,4.1,14.09,3.72,14.38,3.42
		L14.38,3.42z M15.09,4.13c-0.1,0.1-0.15,0.22-0.15,0.35c0,0.13,0.05,0.25,0.15,0.35c0.1,0.1,0.22,0.15,0.35,0.15
		c0.13,0,0.25-0.05,0.35-0.15c0.1-0.1,0.15-0.22,0.15-0.35c0-0.13-0.05-0.26-0.15-0.35c-0.1-0.1-0.22-0.15-0.35-0.15
		C15.31,3.98,15.18,4.03,15.09,4.13L15.09,4.13z M4.98,18.22l0-3.29H1.69L4.98,18.22L4.98,18.22z"/>
</g>
</svg>
