<?xml version="1.0" encoding="utf-8"?>
<!-- Generator: Adobe Illustrator 26.5.0, SVG Export Plug-In . SVG Version: 6.00 Build 0)  -->
<svg version="1.1" id="Content" xmlns="http://www.w3.org/2000/svg" xmlns:xlink="http://www.w3.org/1999/xlink" x="0px" y="0px"
	 viewBox="0 0 28.7 27.6" style="enable-background:new 0 0 28.7 27.6;" xml:space="preserve">
<style type="text/css">
	.st0{fill:none;stroke:#D77466;stroke-width:1.5;stroke-linecap:round;stroke-miterlimit:10;}
</style>
<g>
	<g>
		<path class="st0" d="M1.3,8.8h6.2v2.3c0,1.9-1.5,3.4-3.3,3.4l0,0c-1.8,0-3.3-1.5-3.3-3.4V9.3C0.8,9,1,8.8,1.3,8.8L1.3,8.8z"/>
		<path class="st0" d="M7.6,8.8h6.7v2.3c0,1.9-1.5,3.4-3.3,3.4l0,0c-1.9,0-3.3-1.5-3.3-3.4L7.6,8.8C7.6,8.8,7.6,8.8,7.6,8.8z"/>
		<path class="st0" d="M14.2,8.8h6.7v2.3c0,1.9-1.5,3.4-3.4,3.4l0,0c-1.9,0-3.4-1.5-3.4-3.4V8.8C14.2,8.8,14.2,8.8,14.2,8.8z"/>
		<path class="st0" d="M21,8.8h6.7v2.3c0,1.9-1.5,3.4-3.4,3.4l0,0c-1.9,0-3.4-1.5-3.4-3.4V8.8C21,8.8,21,8.8,21,8.8z"/>
	</g>
	<g>
		<path class="st0" d="M7.4,0.8H2.3L0.9,8.1C0.8,8.5,1.1,8.8,1.4,8.8h6V0.8z"/>
		<rect x="7.6" y="0.8" class="st0" width="6.7" height="8.1"/>
		<rect x="14.2" y="0.8" class="st0" width="6.7" height="8.1"/>
		<polygon class="st0" points="26.2,0.8 21,0.8 21,8.8 27.8,8.8 		"/>
	</g>
	<polygon class="st0" points="27.9,26.8 0.8,26.8 0.8,8.8 2.4,0.9 26.3,0.9 27.9,8.9 	"/>
	<rect x="16.8" y="17.9" class="st0" width="6.5" height="8.9"/>
	<rect x="3.8" y="17.9" class="st0" width="10.3" height="5.4"/>
</g>
</svg>
