<?xml version="1.0" encoding="utf-8"?>
<!-- Generator: Adobe Illustrator 26.5.0, SVG Export Plug-In . SVG Version: 6.00 Build 0)  -->
<svg version="1.1" id="Content" xmlns="http://www.w3.org/2000/svg" xmlns:xlink="http://www.w3.org/1999/xlink" x="0px" y="0px"
	 viewBox="0 0 44.75 47.1" style="enable-background:new 0 0 44.75 47.1;" xml:space="preserve">
<style type="text/css">
	.st0{fill:#355E74;}
</style>
<path class="st0" d="M11.77,44.75h21.2v-4.71h-21.2V44.75L11.77,44.75z M18.84,34.15c0,0.65-0.53,1.18-1.18,1.18
	c-0.65,0-1.18-0.53-1.18-1.18c0-2.22-0.32-4.27-1.02-6.11c-0.69-1.81-1.77-3.43-3.29-4.79c-0.48-0.43-0.52-1.17-0.09-1.66
	c0.43-0.48,1.17-0.52,1.66-0.09c1.82,1.63,3.1,3.55,3.92,5.7C18.47,29.32,18.84,31.65,18.84,34.15L18.84,34.15z M23.55,34.15
	c0,0.65-0.53,1.18-1.18,1.18c-0.65,0-1.18-0.53-1.18-1.18V12.95c0-0.65,0.53-1.18,1.18-1.18c0.65,0,1.18,0.53,1.18,1.18V34.15
	L23.55,34.15z M28.26,34.11c0.02,0.65-0.48,1.19-1.13,1.21c-0.65,0.02-1.19-0.48-1.21-1.13c-0.13-3.41,0.44-6.15,1.39-8.54
	c0.93-2.36,2.21-4.34,3.52-6.29c0.36-0.54,1.1-0.68,1.63-0.32c0.54,0.36,0.68,1.09,0.32,1.63c-1.24,1.84-2.44,3.69-3.28,5.84
	C28.65,28.63,28.14,31.06,28.26,34.11L28.26,34.11z M32.97,37.68v-8.25c0-0.65,0.53-1.18,1.18-1.18c2.28,0,4.34-0.92,5.83-2.41
	c1.49-1.49,2.42-3.55,2.42-5.83c0-2.28-0.92-4.34-2.41-5.83c-1.49-1.49-3.56-2.42-5.83-2.42c-0.38,0-0.73,0.02-1.04,0.06
	c-0.35,0.04-0.7,0.11-1.03,0.2c-0.63,0.16-1.26-0.22-1.42-0.85c-0.03-0.1-0.04-0.21-0.04-0.31l0-0.28c0-2.28-0.92-4.34-2.41-5.83
	c-1.49-1.49-3.56-2.41-5.83-2.41c-2.28,0-4.34,0.92-5.83,2.41c-1.49,1.49-2.41,3.55-2.41,5.83v0.28c0.01,0.65-0.51,1.18-1.15,1.19
	c-0.12,0-0.25-0.01-0.36-0.05c-0.31-0.08-0.64-0.14-0.97-0.18c-0.32-0.04-0.67-0.06-1.05-0.06c-2.28,0-4.34,0.92-5.83,2.42
	c-1.49,1.49-2.41,3.55-2.41,5.83c0,2.28,0.92,4.34,2.41,5.83l0.06,0.06c1.48,1.46,3.52,2.36,5.77,2.36c0.65,0,1.18,0.53,1.18,1.18
	v8.25H32.97L32.97,37.68z M34.15,47.1H10.6c-0.65,0-1.18-0.53-1.18-1.18V30.55C7,30.28,4.82,29.2,3.17,27.57L3.1,27.51
	C1.19,25.59,0,22.94,0,20.02c0-2.93,1.19-5.58,3.1-7.49c1.92-1.92,4.57-3.1,7.49-3.1c0.4,0,0.81,0.03,1.23,0.08
	c0.26-2.49,1.38-4.72,3.05-6.39C16.8,1.19,19.45,0,22.37,0c2.93,0,5.58,1.19,7.49,3.1c1.67,1.68,2.79,3.91,3.05,6.39
	c0.43-0.05,0.84-0.08,1.23-0.08c2.93,0,5.58,1.19,7.49,3.1c1.92,1.92,3.1,4.57,3.1,7.49c0,2.92-1.18,5.57-3.1,7.48l-0.01,0.01
	c-1.66,1.66-3.86,2.77-6.31,3.04v15.38C35.33,46.57,34.8,47.1,34.15,47.1L34.15,47.1z"/>
</svg>
