<?xml version="1.0" encoding="utf-8"?>
<!-- Generator: Adobe Illustrator 26.5.0, SVG Export Plug-In . SVG Version: 6.00 Build 0)  -->
<svg version="1.1" xmlns="http://www.w3.org/2000/svg" xmlns:xlink="http://www.w3.org/1999/xlink" x="0px" y="0px"
	 viewBox="0 0 69.98 66.18" style="enable-background:new 0 0 69.98 66.18;" xml:space="preserve">
<style type="text/css">
	.st0{opacity:0.51;}
	.st1{fill:#8D8DA5;}
	.st2{opacity:0.8;fill:#ABABBA;}
	.st3{fill:#80A3D0;}
	.st4{fill:#9CB9DB;}
	.st5{fill:#7E9CC7;}
	.st6{fill:#DCBAAF;}
	.st7{fill:#AFA9B9;}
	.st8{fill:#BDB4D3;}
	.st9{fill:#E1BF89;}
	.st10{fill:#F3B186;}
	.st11{fill:#9A827A;}
	.st12{fill:#C3A479;}
	.st13{fill:#D4A594;}
	.st14{fill:#DFB88B;}
	.st15{fill:#CEA887;}
	.st16{fill:#C19977;}
	.st17{fill:#AB8658;}
	.st18{fill:#FFFFFF;}
	.st19{fill:#D77466;}
	.st20{opacity:0.8;fill:#D77466;}
	.st21{fill:none;stroke:#FFFFFF;stroke-width:3;stroke-linecap:round;stroke-linejoin:round;stroke-miterlimit:10;}
	.st22{fill:none;stroke:#D77466;stroke-width:3;stroke-linecap:round;stroke-linejoin:round;stroke-miterlimit:10;}
	.st23{opacity:0.5;fill:none;stroke:#88889F;stroke-miterlimit:10;}
	.st24{fill:#BEBEC9;}
	.st25{opacity:0.5;fill:none;stroke:#88889F;stroke-width:0.5;stroke-miterlimit:10;}
	.st26{fill:#31314F;}
	.st27{opacity:0.09;fill:url(#SVGID_1_);}
	.st28{fill:#275C73;}
	.st29{fill:none;stroke:#275C73;stroke-miterlimit:10;}
	.st30{opacity:0.09;fill:url(#SVGID_00000028309535781961806380000014875756621306158210_);}
	.st31{opacity:0.09;fill:url(#SVGID_00000129182159789693844340000010348392337778173600_);}
	.st32{opacity:0.09;fill:url(#SVGID_00000036235399674120042260000007526142857835554438_);}
	.st33{opacity:0.09;fill:url(#SVGID_00000157297975501594455360000009946189881855591566_);}
	.st34{opacity:0.09;fill:url(#SVGID_00000116223016409821448790000004655779001403869825_);}
	.st35{opacity:0.09;fill:url(#SVGID_00000134963550874452647530000008730070455743706772_);}
	.st36{opacity:0.09;fill:url(#SVGID_00000120543270091816942860000011391519443034174865_);}
	.st37{opacity:0.09;fill:url(#SVGID_00000058564762940526873350000012654947154367080587_);}
	.st38{opacity:0.09;fill:url(#SVGID_00000139983435023529877680000011217797775615932813_);}
	.st39{fill:none;}
	.st40{opacity:0.15;fill:#D77466;}
	.st41{fill:#F5D4C3;}
	.st42{fill:#262C57;}
	.st43{fill:none;stroke:#262C57;stroke-miterlimit:10;}
	.st44{opacity:0.08;}
	.st45{opacity:0.08;fill:#275C73;}
	.st46{opacity:0.08;fill:#D77466;}
	.st47{opacity:0.53;fill:#D77466;}
	.st48{opacity:0.21;fill:#275C73;}
	.st49{fill:#EAE3CD;}
	.st50{fill:none;stroke:#D77466;stroke-width:1.5;stroke-linecap:round;stroke-miterlimit:10;}
	.st51{fill-rule:evenodd;clip-rule:evenodd;fill:#E0E0EB;}
	.st52{fill-rule:evenodd;clip-rule:evenodd;fill:#313151;}
	.st53{fill-rule:evenodd;clip-rule:evenodd;fill:#FFFFFF;}
	.st54{fill-rule:evenodd;clip-rule:evenodd;fill:#B7C9E6;}
	.st55{fill-rule:evenodd;clip-rule:evenodd;fill:#8A8D89;}
	.st56{fill-rule:evenodd;clip-rule:evenodd;fill:#F1EDE1;}
	.st57{fill-rule:evenodd;clip-rule:evenodd;fill:#2F3230;}
	.st58{fill:#F7DC7A;}
	.st59{fill:#E1706C;}
	.st60{fill:#624F2D;}
	.st61{fill:#8DBCAE;}
	.st62{clip-path:url(#SVGID_00000064356122973718973420000017115956700590227846_);fill:#8DBCAE;}
	.st63{fill:#E8E8EF;}
	.st64{fill:none;stroke:#262C57;stroke-linecap:round;stroke-linejoin:round;stroke-miterlimit:10;}
	.st65{fill:none;stroke:#E8E8EF;stroke-miterlimit:10;}
	.st66{fill:none;stroke:#262C57;stroke-width:4;stroke-linecap:round;stroke-miterlimit:10;}
	.st67{fill:none;stroke:#D77466;stroke-width:1.5;stroke-miterlimit:10;}
	.st68{fill:none;stroke:#262C57;stroke-width:1.5;stroke-linecap:round;stroke-linejoin:round;stroke-miterlimit:10;}
	.st69{clip-path:url(#SVGID_00000060716425616794142260000002716472126404680349_);fill:#8DBCAE;}
	.st70{clip-path:url(#SVGID_00000134960448732525239810000016406053495840954244_);fill:#8DBCAE;}
	.st71{opacity:0.09;fill:url(#SVGID_00000085967265527471292130000002579049543023159702_);}
	.st72{fill:url(#SVGID_00000078742363018898540980000012813245723427301821_);}
	.st73{opacity:0.39;clip-path:url(#SVGID_00000146475962414216661140000002760432785253918866_);fill:#D77466;}
	.st74{opacity:0.21;clip-path:url(#SVGID_00000146475962414216661140000002760432785253918866_);fill:#EAE3CD;}
	.st75{clip-path:url(#SVGID_00000146475962414216661140000002760432785253918866_);}
	.st76{fill:#FBF2DC;}
	.st77{clip-path:url(#SVGID_00000146475962414216661140000002760432785253918866_);fill:#DA7466;}
	.st78{clip-path:url(#SVGID_00000146475962414216661140000002760432785253918866_);fill:#080B10;}
	.st79{fill:#DA7466;}
	.st80{fill:none;stroke:#FFFFFF;stroke-linecap:round;stroke-linejoin:round;stroke-miterlimit:10;}
	.st81{fill:#DB5946;}
	.st82{fill:#96C254;}
	.st83{fill:#6C863D;}
	.st84{fill:#F4D2CE;}
	.st85{fill:url(#SVGID_00000042738090435614574190000011592793233880937624_);}
	.st86{opacity:0.22;clip-path:url(#SVGID_00000014606676314346869460000017312725519720476302_);fill:#EAE3CD;}
	.st87{clip-path:url(#SVGID_00000014606676314346869460000017312725519720476302_);}
	.st88{fill:#5A6DD1;}
	.st89{clip-path:url(#SVGID_00000014606676314346869460000017312725519720476302_);fill:#DA7466;}
	.st90{clip-path:url(#SVGID_00000014606676314346869460000017312725519720476302_);fill:#FCFAF1;}
	.st91{clip-path:url(#SVGID_00000014606676314346869460000017312725519720476302_);fill:#080B10;}
	.st92{fill:#8BD2F9;}
	.st93{fill:#F5D0AF;}
	.st94{fill:#D5A479;}
	.st95{fill:none;stroke:#FFFFFF;stroke-miterlimit:10;}
	.st96{clip-path:url(#SVGID_00000140711233841437551850000016664958555729035928_);fill:#8DBCAE;}
	.st97{fill:url(#SVGID_00000141454894023480746190000011272349624157620891_);}
	.st98{clip-path:url(#SVGID_00000144333082407018379420000001469952745882937277_);}
	.st99{opacity:0.53;fill:#EAE3CD;}
	.st100{opacity:0.31;fill:#D77466;}
	.st101{fill:#FCFAF1;}
	.st102{clip-path:url(#SVGID_00000144333082407018379420000001469952745882937277_);fill:#080B10;}
	.st103{fill:#F6F1DA;}
	.st104{fill:#DDD8C6;}
	.st105{fill:#F8E1A0;}
	.st106{fill:#EDEDED;}
	.st107{fill:#646477;}
	.st108{fill:none;stroke:#D77466;stroke-miterlimit:10;}
	.st109{clip-path:url(#SVGID_00000104683523152973270230000008713602806562593956_);fill:#8DBCAE;}
	.st110{fill:url(#SVGID_00000058585726218004950620000002414336727086920873_);}
	.st111{clip-path:url(#SVGID_00000119829021109891761550000017498681397838090166_);}
	.st112{clip-path:url(#SVGID_00000119829021109891761550000017498681397838090166_);fill:#080B10;}
	.st113{fill:none;stroke:#E8E8EF;stroke-width:0.75;stroke-miterlimit:10;}
	.st114{clip-path:url(#SVGID_00000117674749570233641480000010567322257018117512_);fill:#8DBCAE;}
	.st115{clip-path:url(#SVGID_00000021115833408939612660000005760072534475995809_);fill:#8DBCAE;}
	.st116{fill:#4599D6;}
	.st117{fill:#642673;}
	.st118{fill:#BE286F;}
	.st119{clip-path:url(#SVGID_00000121241183991404741860000011805664286461804694_);fill:#8DBCAE;}
	.st120{opacity:0.54;fill:#E8E8EF;}
	.st121{clip-path:url(#SVGID_00000168797382079634486540000008001993435323594628_);fill:#8DBCAE;}
	.st122{fill:#80808B;}
	.st123{clip-path:url(#SVGID_00000125574856817887522440000017642385781917288619_);fill:#8DBCAE;}
	.st124{fill:none;stroke:#B5AFAE;stroke-linecap:round;stroke-linejoin:round;stroke-miterlimit:10;}
</style>
<g id="Background">
</g>
<g id="Content">
	<g>
		<path class="st47" d="M41.95,27.72c-0.27,0.18-0.6,0.29-0.95,0.29c-0.35,0-0.68-0.11-0.95-0.29c-1.37-0.78-2.85-1.4-4.42-1.82
			c-1.54-0.41-3.17-0.63-4.86-0.63c-5.18,0-9.87,2.1-13.26,5.5c-3.39,3.39-5.49,8.08-5.49,13.26c0,6.22,3.11,11.68,8.17,15.61
			c5.26,4.09,12.61,6.55,20.81,6.55c8.2,0,15.56-2.46,20.81-6.54c5.06-3.94,8.17-9.4,8.17-15.62c0-5.14-2.07-9.8-5.41-13.18
			l-0.08-0.08c-3.39-3.39-8.08-5.49-13.26-5.49c-1.69,0-3.32,0.22-4.86,0.63C44.8,26.32,43.32,26.93,41.95,27.72L41.95,27.72z"/>
		<path class="st42" d="M22.16,17.04c1.98,0,3.9,0.26,5.74,0.76c0.76,0.2,1.51,0.45,2.24,0.73c-0.62-1.73-1.75-3.36-3.18-4.73
			c-2.26-2.15-5.25-3.58-8.21-3.58c-0.94,0-1.7-0.76-1.7-1.7c0-0.94,0.76-1.7,1.7-1.7c3.86,0,7.69,1.81,10.55,4.53
			c0.58,0.55,1.12,1.14,1.61,1.76c0.13-1.5,0.35-2.91,0.68-4.24c0.97-3.8,2.93-6.73,6.85-8.68c0.84-0.42,1.86-0.08,2.28,0.76
			c0.42,0.84,0.08,1.86-0.76,2.28c-2.9,1.45-4.35,3.64-5.08,6.49c-0.22,0.85-0.38,1.78-0.49,2.77c0.34-0.4,0.71-0.77,1.09-1.13
			c2.85-2.72,6.69-4.53,10.55-4.53c0.94,0,1.7,0.76,1.7,1.7c0,0.94-0.76,1.7-1.7,1.7c-2.96,0-5.95,1.43-8.21,3.58
			c-1.43,1.36-2.56,3-3.19,4.73c0.73-0.28,1.48-0.52,2.24-0.73c1.84-0.49,3.76-0.76,5.74-0.76c6.12,0,11.66,2.48,15.67,6.49
			l0.09,0.1c3.96,4,6.4,9.5,6.4,15.57c0,7.34-3.61,13.73-9.49,18.3c-5.84,4.54-13.93,7.26-22.9,7.26c-8.97,0-17.06-2.73-22.9-7.27
			C3.61,52.93,0,46.53,0,39.2c0-6.12,2.48-11.66,6.49-15.67C10.5,19.52,16.04,17.04,22.16,17.04L22.16,17.04z M42.26,27.23
			c-0.92-0.2-1.5-1.1-1.3-2.02c0.2-0.92,1.11-1.5,2.02-1.31c0.65,0.14,1.29,0.32,1.91,0.52c0.62,0.2,1.24,0.45,1.84,0.72
			c0.86,0.39,1.24,1.4,0.85,2.25c-0.38,0.85-1.4,1.24-2.25,0.85c-0.48-0.22-0.98-0.41-1.51-0.59
			C43.31,27.48,42.78,27.34,42.26,27.23L42.26,27.23z M50.19,31.72c-0.63-0.69-0.59-1.76,0.11-2.4c0.69-0.63,1.77-0.59,2.4,0.11
			c2.2,2.4,3.64,5.36,3.93,8.56c0.26,2.9-0.42,5.98-2.35,8.96c-0.51,0.79-1.56,1.01-2.35,0.5c-0.79-0.51-1.01-1.56-0.5-2.35
			c1.49-2.3,2.02-4.62,1.82-6.8C53.03,35.87,51.9,33.59,50.19,31.72L50.19,31.72z M33.34,22.9c-0.27,0.18-0.6,0.29-0.95,0.29
			c-0.35,0-0.68-0.11-0.95-0.29c-1.37-0.78-2.85-1.4-4.42-1.82c-1.54-0.41-3.17-0.63-4.86-0.63c-5.18,0-9.87,2.1-13.26,5.5
			c-3.39,3.39-5.49,8.08-5.49,13.26c0,6.22,3.11,11.68,8.17,15.61c5.26,4.09,12.61,6.55,20.81,6.55c8.2,0,15.56-2.46,20.81-6.54
			c5.06-3.94,8.17-9.4,8.17-15.62c0-5.14-2.07-9.8-5.41-13.18l-0.08-0.08c-3.39-3.39-8.08-5.49-13.26-5.49
			c-1.69,0-3.32,0.22-4.86,0.63C36.19,21.5,34.71,22.12,33.34,22.9L33.34,22.9z"/>
	</g>
</g>
</svg>
