<?xml version="1.0" encoding="utf-8"?>
<!-- Generator: Adobe Illustrator 26.5.0, SVG Export Plug-In . SVG Version: 6.00 Build 0)  -->
<svg version="1.1" xmlns="http://www.w3.org/2000/svg" xmlns:xlink="http://www.w3.org/1999/xlink" x="0px" y="0px"
	 viewBox="0 0 69.04 47.98" style="enable-background:new 0 0 69.04 47.98;" xml:space="preserve">
<style type="text/css">
	.st0{opacity:0.51;}
	.st1{fill:#8D8DA5;}
	.st2{opacity:0.8;fill:#ABABBA;}
	.st3{fill:#80A3D0;}
	.st4{fill:#9CB9DB;}
	.st5{fill:#7E9CC7;}
	.st6{fill:#DCBAAF;}
	.st7{fill:#AFA9B9;}
	.st8{fill:#BDB4D3;}
	.st9{fill:#E1BF89;}
	.st10{fill:#F3B186;}
	.st11{fill:#9A827A;}
	.st12{fill:#C3A479;}
	.st13{fill:#D4A594;}
	.st14{fill:#DFB88B;}
	.st15{fill:#CEA887;}
	.st16{fill:#C19977;}
	.st17{fill:#AB8658;}
	.st18{fill:#FFFFFF;}
	.st19{fill:#D77466;}
	.st20{opacity:0.8;fill:#D77466;}
	.st21{fill:none;stroke:#FFFFFF;stroke-width:3;stroke-linecap:round;stroke-linejoin:round;stroke-miterlimit:10;}
	.st22{fill:none;stroke:#D77466;stroke-width:3;stroke-linecap:round;stroke-linejoin:round;stroke-miterlimit:10;}
	.st23{opacity:0.5;fill:none;stroke:#88889F;stroke-miterlimit:10;}
	.st24{fill:#BEBEC9;}
	.st25{opacity:0.5;fill:none;stroke:#88889F;stroke-width:0.5;stroke-miterlimit:10;}
	.st26{fill:#31314F;}
	.st27{opacity:0.09;fill:url(#SVGID_1_);}
	.st28{fill:#275C73;}
	.st29{fill:none;stroke:#275C73;stroke-miterlimit:10;}
	.st30{opacity:0.09;fill:url(#SVGID_00000183963680561906958410000013217807246159627650_);}
	.st31{opacity:0.09;fill:url(#SVGID_00000034791369573154905490000006222163935924750515_);}
	.st32{opacity:0.09;fill:url(#SVGID_00000121241173302233893100000017568741846475009957_);}
	.st33{opacity:0.09;fill:url(#SVGID_00000071529177515904062070000017263778342051048118_);}
	.st34{opacity:0.09;fill:url(#SVGID_00000096023757157832547080000001117010189162915491_);}
	.st35{opacity:0.09;fill:url(#SVGID_00000104705166406158624170000001652117840628533161_);}
	.st36{opacity:0.09;fill:url(#SVGID_00000095301520179748927940000010387622536914241674_);}
	.st37{opacity:0.09;fill:url(#SVGID_00000043452472872000828070000011555227213920344222_);}
	.st38{opacity:0.09;fill:url(#SVGID_00000062163272198491535140000015269057312061904798_);}
	.st39{fill:none;}
	.st40{opacity:0.15;fill:#D77466;}
	.st41{fill:#F5D4C3;}
	.st42{fill:#262C57;}
	.st43{fill:none;stroke:#262C57;stroke-miterlimit:10;}
	.st44{opacity:0.08;}
	.st45{opacity:0.08;fill:#275C73;}
	.st46{opacity:0.08;fill:#D77466;}
	.st47{opacity:0.53;fill:#D77466;}
	.st48{opacity:0.21;fill:#275C73;}
	.st49{fill:#EAE3CD;}
	.st50{fill:none;stroke:#D77466;stroke-width:1.5;stroke-linecap:round;stroke-miterlimit:10;}
	.st51{fill-rule:evenodd;clip-rule:evenodd;fill:#E0E0EB;}
	.st52{fill-rule:evenodd;clip-rule:evenodd;fill:#313151;}
	.st53{fill-rule:evenodd;clip-rule:evenodd;fill:#FFFFFF;}
	.st54{fill-rule:evenodd;clip-rule:evenodd;fill:#B7C9E6;}
	.st55{fill-rule:evenodd;clip-rule:evenodd;fill:#8A8D89;}
	.st56{fill-rule:evenodd;clip-rule:evenodd;fill:#F1EDE1;}
	.st57{fill-rule:evenodd;clip-rule:evenodd;fill:#2F3230;}
	.st58{fill:#F7DC7A;}
	.st59{fill:#E1706C;}
	.st60{fill:#624F2D;}
	.st61{fill:#8DBCAE;}
	.st62{clip-path:url(#SVGID_00000119823630560966254620000011500568851496971417_);fill:#8DBCAE;}
	.st63{fill:#E8E8EF;}
	.st64{fill:none;stroke:#262C57;stroke-linecap:round;stroke-linejoin:round;stroke-miterlimit:10;}
	.st65{fill:none;stroke:#E8E8EF;stroke-miterlimit:10;}
	.st66{fill:none;stroke:#262C57;stroke-width:4;stroke-linecap:round;stroke-miterlimit:10;}
	.st67{fill:none;stroke:#D77466;stroke-width:1.5;stroke-miterlimit:10;}
	.st68{fill:none;stroke:#262C57;stroke-width:1.5;stroke-linecap:round;stroke-linejoin:round;stroke-miterlimit:10;}
	.st69{clip-path:url(#SVGID_00000094598540552904335550000007191219887292164006_);fill:#8DBCAE;}
	.st70{clip-path:url(#SVGID_00000134971032340905520950000013389654388615506820_);fill:#8DBCAE;}
	.st71{opacity:0.09;fill:url(#SVGID_00000093856423720968349070000014220570184041144477_);}
	.st72{fill:url(#SVGID_00000021081183448479041990000005511736249781275832_);}
	.st73{opacity:0.39;clip-path:url(#SVGID_00000166641625951508803180000016504580229477727923_);fill:#D77466;}
	.st74{opacity:0.21;clip-path:url(#SVGID_00000166641625951508803180000016504580229477727923_);fill:#EAE3CD;}
	.st75{clip-path:url(#SVGID_00000166641625951508803180000016504580229477727923_);}
	.st76{fill:#FBF2DC;}
	.st77{clip-path:url(#SVGID_00000166641625951508803180000016504580229477727923_);fill:#DA7466;}
	.st78{clip-path:url(#SVGID_00000166641625951508803180000016504580229477727923_);fill:#080B10;}
	.st79{fill:#DA7466;}
	.st80{fill:none;stroke:#FFFFFF;stroke-linecap:round;stroke-linejoin:round;stroke-miterlimit:10;}
	.st81{fill:#DB5946;}
	.st82{fill:#96C254;}
	.st83{fill:#6C863D;}
	.st84{fill:#F4D2CE;}
	.st85{fill:url(#SVGID_00000180337332595832589040000005533327549414643598_);}
	.st86{opacity:0.22;clip-path:url(#SVGID_00000038411677779277493210000009398329110515204273_);fill:#EAE3CD;}
	.st87{clip-path:url(#SVGID_00000038411677779277493210000009398329110515204273_);}
	.st88{fill:#5A6DD1;}
	.st89{clip-path:url(#SVGID_00000038411677779277493210000009398329110515204273_);fill:#DA7466;}
	.st90{clip-path:url(#SVGID_00000038411677779277493210000009398329110515204273_);fill:#FCFAF1;}
	.st91{clip-path:url(#SVGID_00000038411677779277493210000009398329110515204273_);fill:#080B10;}
	.st92{fill:#8BD2F9;}
	.st93{fill:#F5D0AF;}
	.st94{fill:#D5A479;}
	.st95{fill:none;stroke:#FFFFFF;stroke-miterlimit:10;}
	.st96{clip-path:url(#SVGID_00000182517325069385855710000000970249727453569926_);fill:#8DBCAE;}
	.st97{fill:url(#SVGID_00000008110467194608648690000015313331758452551822_);}
	.st98{clip-path:url(#SVGID_00000159455461580186832700000001451483024081801622_);}
	.st99{opacity:0.53;fill:#EAE3CD;}
	.st100{opacity:0.31;fill:#D77466;}
	.st101{fill:#FCFAF1;}
	.st102{clip-path:url(#SVGID_00000159455461580186832700000001451483024081801622_);fill:#080B10;}
	.st103{fill:#F6F1DA;}
	.st104{fill:#DDD8C6;}
	.st105{fill:#F8E1A0;}
	.st106{fill:#EDEDED;}
	.st107{fill:#646477;}
	.st108{fill:none;stroke:#D77466;stroke-miterlimit:10;}
	.st109{clip-path:url(#SVGID_00000163059875468998616290000015778700028128593572_);fill:#8DBCAE;}
	.st110{fill:url(#SVGID_00000173855994947296574860000003662056074863764130_);}
	.st111{clip-path:url(#SVGID_00000181783147043145390750000013414030170375082880_);}
	.st112{clip-path:url(#SVGID_00000181783147043145390750000013414030170375082880_);fill:#080B10;}
	.st113{fill:none;stroke:#E8E8EF;stroke-width:0.75;stroke-miterlimit:10;}
	.st114{clip-path:url(#SVGID_00000024710303137769982060000011834912313561702321_);fill:#8DBCAE;}
	.st115{clip-path:url(#SVGID_00000132085314845516245800000007896279021017724583_);fill:#8DBCAE;}
	.st116{fill:#4599D6;}
	.st117{fill:#642673;}
	.st118{fill:#BE286F;}
	.st119{clip-path:url(#SVGID_00000003087493781808981510000004413783441227428249_);fill:#8DBCAE;}
	.st120{opacity:0.54;fill:#E8E8EF;}
	.st121{clip-path:url(#SVGID_00000086671166556436393790000009583905241210875014_);fill:#8DBCAE;}
	.st122{fill:#80808B;}
	.st123{clip-path:url(#SVGID_00000050636370007978142690000007679263988967266226_);fill:#8DBCAE;}
	.st124{fill:none;stroke:#B5AFAE;stroke-linecap:round;stroke-linejoin:round;stroke-miterlimit:10;}
</style>
<g id="Background">
</g>
<g id="Content">
	<path class="st47" d="M41.48,40.95H27.67c-1.23-2.9-4.11-4.94-7.45-4.94c-3.35,0-6.22,2.04-7.45,4.94H7.75
		c-0.63,0-1.15-0.51-1.15-1.15V9.08c0-0.63,0.51-1.15,1.15-1.15h33.73c0.63,0,1.15,0.51,1.15,1.15v6.09v24.64
		C42.63,40.44,42.12,40.95,41.48,40.95z"/>
	<path class="st47" d="M68.2,38.62c0,1.28-1.05,2.33-2.33,2.33h-2.32c-1.23-2.9-4.11-4.94-7.45-4.94c-3.35,0-6.22,2.04-7.45,4.94
		h-2.29v-1.15V18.89h10.53c1.96,0,3.76,0.99,4.81,2.64l6.14,9.65c0.24,0.38,0.36,0.81,0.36,1.25V38.62z"/>
	<path class="st42" d="M68.09,24.97l-6.14-9.65c-1.74-2.73-4.71-4.37-7.95-4.37H43.47V4.87C43.47,2.18,41.29,0,38.6,0H4.87
		C2.18,0,0,2.18,0,4.87v30.72c0,2.69,2.18,4.87,4.87,4.87h4.4c0.3,4.2,3.79,7.52,8.06,7.52c4.27,0,7.77-3.32,8.06-7.52H38.6
		c0.4,0,0.78-0.06,1.15-0.15v0.15h5.4c0.3,4.2,3.79,7.52,8.06,7.52c4.27,0,7.77-3.32,8.06-7.52h1.71c3.34,0,6.05-2.72,6.05-6.05
		v-6.19C69.04,27.07,68.71,25.94,68.09,24.97z M17.33,44.26c-2.21,0-4.03-1.66-4.31-3.8c-0.03-0.19-0.06-0.38-0.06-0.57
		c0-1.24,0.53-2.36,1.36-3.15c0.78-0.75,1.84-1.22,3.01-1.22s2.23,0.47,3.01,1.22c0.83,0.8,1.36,1.91,1.36,3.15
		c0,0.2-0.03,0.38-0.06,0.57C21.36,42.6,19.54,44.26,17.33,44.26z M38.6,36.74H24.79c-1.23-2.9-4.11-4.94-7.45-4.94
		c-3.35,0-6.22,2.04-7.45,4.94H4.87c-0.63,0-1.15-0.51-1.15-1.15V4.87c0-0.63,0.51-1.15,1.15-1.15H38.6c0.63,0,1.15,0.51,1.15,1.15
		v6.09v24.64C39.75,36.23,39.23,36.74,38.6,36.74z M48.9,40.46c-0.03-0.19-0.06-0.38-0.06-0.57c0-1.24,0.53-2.36,1.36-3.15
		c0.78-0.75,1.84-1.22,3.01-1.22s2.23,0.47,3.01,1.22c0.83,0.8,1.36,1.91,1.36,3.15c0,0.2-0.03,0.38-0.06,0.57
		c-0.28,2.14-2.1,3.8-4.31,3.8S49.19,42.6,48.9,40.46z M65.32,34.41c0,1.28-1.05,2.33-2.33,2.33h-2.32
		c-1.23-2.9-4.11-4.94-7.45-4.94c-3.35,0-6.22,2.04-7.45,4.94h-2.29v-1.15V14.68H54c1.96,0,3.76,0.99,4.81,2.64l6.14,9.65
		c0.24,0.38,0.36,0.81,0.36,1.25V34.41z"/>
</g>
</svg>
