<?xml version="1.0" encoding="utf-8"?>
<!-- Generator: Adobe Illustrator 26.5.0, SVG Export Plug-In . SVG Version: 6.00 Build 0)  -->
<svg version="1.1" xmlns="http://www.w3.org/2000/svg" xmlns:xlink="http://www.w3.org/1999/xlink" x="0px" y="0px"
	 viewBox="0 0 115.9 67.15" style="enable-background:new 0 0 115.9 67.15;" xml:space="preserve">
<style type="text/css">
	.st0{opacity:0.51;}
	.st1{fill:#8D8DA5;}
	.st2{opacity:0.8;fill:#ABABBA;}
	.st3{fill:#80A3D0;}
	.st4{fill:#9CB9DB;}
	.st5{fill:#7E9CC7;}
	.st6{fill:#DCBAAF;}
	.st7{fill:#AFA9B9;}
	.st8{fill:#BDB4D3;}
	.st9{fill:#E1BF89;}
	.st10{fill:#F3B186;}
	.st11{fill:#9A827A;}
	.st12{fill:#C3A479;}
	.st13{fill:#D4A594;}
	.st14{fill:#DFB88B;}
	.st15{fill:#CEA887;}
	.st16{fill:#C19977;}
	.st17{fill:#AB8658;}
	.st18{fill:#FFFFFF;}
	.st19{fill:#D77466;}
	.st20{opacity:0.8;fill:#D77466;}
	.st21{fill:none;stroke:#FFFFFF;stroke-width:3;stroke-linecap:round;stroke-linejoin:round;stroke-miterlimit:10;}
	.st22{fill:none;stroke:#D77466;stroke-width:3;stroke-linecap:round;stroke-linejoin:round;stroke-miterlimit:10;}
	.st23{opacity:0.5;fill:none;stroke:#88889F;stroke-miterlimit:10;}
	.st24{fill:#BEBEC9;}
	.st25{opacity:0.5;fill:none;stroke:#88889F;stroke-width:0.5;stroke-miterlimit:10;}
	.st26{fill:#31314F;}
	.st27{opacity:0.09;fill:url(#SVGID_1_);}
	.st28{fill:#275C73;}
	.st29{fill:none;stroke:#275C73;stroke-miterlimit:10;}
	.st30{opacity:0.09;fill:url(#SVGID_00000173873621076631331780000004114806942182054039_);}
	.st31{opacity:0.09;fill:url(#SVGID_00000115481810310022272120000007057216660346545851_);}
	.st32{opacity:0.09;fill:url(#SVGID_00000087405277971162903080000005623184950289025442_);}
	.st33{opacity:0.09;fill:url(#SVGID_00000035526192316404141050000011363791002426129321_);}
	.st34{opacity:0.09;fill:url(#SVGID_00000054258036873472668840000013799247511143466112_);}
	.st35{opacity:0.09;fill:url(#SVGID_00000166643657685075583160000000486868854238146233_);}
	.st36{opacity:0.09;fill:url(#SVGID_00000098909451723717585020000004325914133140193924_);}
	.st37{opacity:0.09;fill:url(#SVGID_00000121976388011066866890000013860202120624408242_);}
	.st38{opacity:0.09;fill:url(#SVGID_00000116216241049533743750000000569266105843150268_);}
	.st39{fill:none;}
	.st40{opacity:0.15;fill:#D77466;}
	.st41{fill:#F5D4C3;}
	.st42{fill:#262C57;}
	.st43{fill:none;stroke:#262C57;stroke-miterlimit:10;}
	.st44{opacity:0.08;}
	.st45{opacity:0.08;fill:#275C73;}
	.st46{opacity:0.08;fill:#D77466;}
	.st47{opacity:0.53;fill:#D77466;}
	.st48{opacity:0.21;fill:#275C73;}
	.st49{fill:#EAE3CD;}
	.st50{fill:none;stroke:#D77466;stroke-width:1.5;stroke-linecap:round;stroke-miterlimit:10;}
	.st51{fill-rule:evenodd;clip-rule:evenodd;fill:#E0E0EB;}
	.st52{fill-rule:evenodd;clip-rule:evenodd;fill:#313151;}
	.st53{fill-rule:evenodd;clip-rule:evenodd;fill:#FFFFFF;}
	.st54{fill-rule:evenodd;clip-rule:evenodd;fill:#B7C9E6;}
	.st55{fill-rule:evenodd;clip-rule:evenodd;fill:#8A8D89;}
	.st56{fill-rule:evenodd;clip-rule:evenodd;fill:#F1EDE1;}
	.st57{fill-rule:evenodd;clip-rule:evenodd;fill:#2F3230;}
	.st58{fill:#F7DC7A;}
	.st59{fill:#E1706C;}
	.st60{fill:#624F2D;}
	.st61{fill:#8DBCAE;}
	.st62{clip-path:url(#SVGID_00000080192031458494627670000009434787710560992390_);fill:#8DBCAE;}
	.st63{fill:#E8E8EF;}
	.st64{fill:none;stroke:#262C57;stroke-linecap:round;stroke-linejoin:round;stroke-miterlimit:10;}
	.st65{fill:none;stroke:#E8E8EF;stroke-miterlimit:10;}
	.st66{fill:none;stroke:#262C57;stroke-width:4;stroke-linecap:round;stroke-miterlimit:10;}
	.st67{fill:none;stroke:#D77466;stroke-width:1.5;stroke-miterlimit:10;}
	.st68{fill:none;stroke:#262C57;stroke-width:1.5;stroke-linecap:round;stroke-linejoin:round;stroke-miterlimit:10;}
	.st69{clip-path:url(#SVGID_00000138554539365936572450000016116866770761168813_);fill:#8DBCAE;}
	.st70{clip-path:url(#SVGID_00000051381159368150683190000006044555045844139444_);fill:#8DBCAE;}
	.st71{opacity:0.09;fill:url(#SVGID_00000096771698404574860120000000323180712177567666_);}
	.st72{fill:url(#SVGID_00000035505388239730524560000004240533089493994637_);}
	.st73{opacity:0.39;clip-path:url(#SVGID_00000079465395492704513330000004778681362867576251_);fill:#D77466;}
	.st74{opacity:0.21;clip-path:url(#SVGID_00000079465395492704513330000004778681362867576251_);fill:#EAE3CD;}
	.st75{clip-path:url(#SVGID_00000079465395492704513330000004778681362867576251_);}
	.st76{fill:#FBF2DC;}
	.st77{clip-path:url(#SVGID_00000079465395492704513330000004778681362867576251_);fill:#DA7466;}
	.st78{clip-path:url(#SVGID_00000079465395492704513330000004778681362867576251_);fill:#080B10;}
	.st79{fill:#DA7466;}
	.st80{fill:none;stroke:#FFFFFF;stroke-linecap:round;stroke-linejoin:round;stroke-miterlimit:10;}
	.st81{fill:#DB5946;}
	.st82{fill:#96C254;}
	.st83{fill:#6C863D;}
	.st84{fill:#F4D2CE;}
	.st85{fill:url(#SVGID_00000174584669871703310900000010825666469818583201_);}
	.st86{opacity:0.22;clip-path:url(#SVGID_00000135653243814636730650000017839091029071129233_);fill:#EAE3CD;}
	.st87{clip-path:url(#SVGID_00000135653243814636730650000017839091029071129233_);}
	.st88{fill:#5A6DD1;}
	.st89{clip-path:url(#SVGID_00000135653243814636730650000017839091029071129233_);fill:#DA7466;}
	.st90{clip-path:url(#SVGID_00000135653243814636730650000017839091029071129233_);fill:#FCFAF1;}
	.st91{clip-path:url(#SVGID_00000135653243814636730650000017839091029071129233_);fill:#080B10;}
	.st92{fill:#8BD2F9;}
	.st93{fill:#F5D0AF;}
	.st94{fill:#D5A479;}
	.st95{fill:none;stroke:#FFFFFF;stroke-miterlimit:10;}
	.st96{clip-path:url(#SVGID_00000105413003443230083040000016826486268136250001_);fill:#8DBCAE;}
	.st97{fill:url(#SVGID_00000097482673625096866280000002523934323069335965_);}
	.st98{clip-path:url(#SVGID_00000022546812379716722980000004196709079839526048_);}
	.st99{opacity:0.53;fill:#EAE3CD;}
	.st100{opacity:0.31;fill:#D77466;}
	.st101{fill:#FCFAF1;}
	.st102{clip-path:url(#SVGID_00000022546812379716722980000004196709079839526048_);fill:#080B10;}
	.st103{fill:#F6F1DA;}
	.st104{fill:#DDD8C6;}
	.st105{fill:#F8E1A0;}
	.st106{fill:#EDEDED;}
	.st107{fill:#646477;}
	.st108{fill:none;stroke:#D77466;stroke-miterlimit:10;}
	.st109{clip-path:url(#SVGID_00000173869341757392655090000007965382665305896322_);fill:#8DBCAE;}
	.st110{fill:url(#SVGID_00000021835463121063824520000016609771266169313688_);}
	.st111{clip-path:url(#SVGID_00000141424792968232081360000009266558680784798102_);}
	.st112{clip-path:url(#SVGID_00000141424792968232081360000009266558680784798102_);fill:#080B10;}
	.st113{fill:none;stroke:#E8E8EF;stroke-width:0.75;stroke-miterlimit:10;}
	.st114{clip-path:url(#SVGID_00000054256927704326496900000000847152598292238474_);fill:#8DBCAE;}
	.st115{clip-path:url(#SVGID_00000034050041499036546360000000232021352865341841_);fill:#8DBCAE;}
	.st116{fill:#4599D6;}
	.st117{fill:#642673;}
	.st118{fill:#BE286F;}
	.st119{clip-path:url(#SVGID_00000125570212698148375250000016427941875631437717_);fill:#8DBCAE;}
	.st120{opacity:0.54;fill:#E8E8EF;}
	.st121{clip-path:url(#SVGID_00000011742746606774237310000008320187556549076383_);fill:#8DBCAE;}
	.st122{fill:#80808B;}
	.st123{clip-path:url(#SVGID_00000110439160199658200140000015972507940796322727_);fill:#8DBCAE;}
	.st124{fill:none;stroke:#B5AFAE;stroke-linecap:round;stroke-linejoin:round;stroke-miterlimit:10;}
</style>
<g id="Background">
</g>
<g id="Content">
	<g>
		<g>
			<path class="st19" d="M26.94,18.56c-0.13-1.96-1.73-3.55-3.69-3.67c-1.2-0.07-2.29,0.39-3.05,1.17c-0.05,0.06-0.14,0.06-0.2,0
				c-0.77-0.78-1.86-1.24-3.06-1.17c-1.95,0.12-3.55,1.7-3.69,3.65c-0.09,1.23,0.39,2.35,1.2,3.13l5.31,5.31
				c0.18,0.18,0.48,0.18,0.67,0l5.28-5.28C26.54,20.92,27.03,19.8,26.94,18.56z"/>
			<g>
				<polygon class="st42" points="40.11,17.64 30.43,17.66 30.43,31.58 9.7,31.58 9.7,17.66 0.01,17.64 0,21.6 5.74,21.61 
					5.74,35.54 34.38,35.54 34.38,21.61 40.12,21.6 				"/>
				<path class="st42" d="M14.1,8.22l0.39-0.16c3.71-1.55,7.96-1.51,11.64,0.1c2.61,1.14,4.3,3.72,4.3,6.56v0.11h3.96v-0.11
					c0-4.42-2.62-8.42-6.67-10.19c-1.81-0.79-3.73-1.28-5.68-1.47l0.01-3.05L18.09,0l-0.01,3.09l-0.08,0
					c-1.72,0.2-3.41,0.64-5.03,1.31l-0.39,0.16C8.42,6.3,5.74,10.33,5.74,14.83H9.7C9.7,11.93,11.42,9.34,14.1,8.22z"/>
			</g>
		</g>
		<g>
			<path class="st19" d="M14.92,53.3c0-4.46,2.82-7.28,8.03-7.28c2.02,0,3.96,0.39,5.4,1.08v3.41c-1.55-0.61-3.43-0.97-5.23-0.97
				c-2.58,0-4.04,1.38-4.04,3.77c0,2.38,1.47,3.77,4.04,3.77c1.8,0,3.68-0.36,5.23-0.97v3.41c-1.44,0.69-3.38,1.08-5.4,1.08
				C17.75,60.59,14.92,57.76,14.92,53.3z"/>
			<path class="st19" d="M44.38,51v9.22h-3.96v-8.28c0-1.47-0.86-2.3-2.3-2.3c-2.1,0-3.77,1.72-3.77,3.99v6.59h-3.99V39.46h3.99
				v9.14c1.14-1.66,2.91-2.6,5.12-2.6C42.56,45.99,44.38,47.85,44.38,51z"/>
			<path class="st19" d="M46.24,53.3c0-4.46,2.91-7.28,7.67-7.28c4.21,0,6.95,2.52,6.95,6.4c0,0.8-0.08,1.66-0.22,2.19H50.53
				c0.44,1.83,1.91,2.74,4.43,2.74c1.69,0,3.35-0.42,4.57-1.05v3.21c-1.19,0.66-3.24,1.08-5.48,1.08
				C49.09,60.59,46.24,57.87,46.24,53.3z M57.09,52.31c0.03-0.11,0.06-0.25,0.06-0.42c0-1.41-1.11-2.71-3.18-2.71
				c-1.99,0-3.3,1.02-3.54,3.13H57.09z"/>
			<path class="st19" d="M77.44,46.38h9.41v13.85h-3.99V49.73h-5.43v10.49h-3.96V49.73h-5.45v10.49h-3.96V49.73h-2.19v-3.35h2.19
				v-0.78c0-4.24,1.97-6.51,5.04-6.51c1.05,0,1.77,0.11,2.41,0.33v3.32c-0.19-0.03-0.61-0.11-1.22-0.11c-1.22,0-2.27,0.69-2.27,2.77
				v0.97h5.45v-0.78c0-4.24,1.97-6.51,5.04-6.51c1.05,0,1.77,0.11,2.41,0.33v3.35c-0.19-0.06-0.61-0.14-1.22-0.14
				c-1.22,0-2.27,0.69-2.27,2.77V46.38z M86.86,39.46v4.93h-3.99v-4.93H86.86z"/>
			<path class="st19" d="M95.41,45.61v0.78h4.04v3.35h-4.04v10.49h-3.96V49.73h-2.46v-3.35h2.46v-0.78c0-4.24,2.33-6.51,5.76-6.51
				c1.44,0,2.38,0.17,3.02,0.42v3.35c-0.53-0.14-1.11-0.25-2.02-0.25C96.91,42.61,95.41,43.25,95.41,45.61z"/>
			<path class="st19" d="M101.59,66.79v-3.35c0.8,0.22,1.72,0.39,2.69,0.39c1.69,0,2.49-0.61,3.05-2.33l0.42-1.27h-2.6l-4.71-13.85
				h4.26l3.18,10.36h0.89l2.88-10.36h4.26l-5.1,16.09c-1.05,3.3-2.99,4.68-6.29,4.68C103.42,67.15,102.45,67.04,101.59,66.79z"/>
		</g>
	</g>
</g>
</svg>
