<?xml version="1.0" encoding="utf-8"?>
<!-- Generator: Adobe Illustrator 26.5.0, SVG Export Plug-In . SVG Version: 6.00 Build 0)  -->
<svg version="1.1" xmlns="http://www.w3.org/2000/svg" xmlns:xlink="http://www.w3.org/1999/xlink" x="0px" y="0px"
	 viewBox="0 0 86.79 46.45" style="enable-background:new 0 0 86.79 46.45;" xml:space="preserve">
<style type="text/css">
	.st0{opacity:0.08;fill:#CB6D61;}
	.st1{fill:#CB6D61;}
	.st2{fill:none;stroke:#FFFFFF;stroke-width:3;stroke-linecap:round;stroke-linejoin:round;stroke-miterlimit:10;}
	.st3{fill:none;stroke:#CB6D61;stroke-width:3;stroke-linecap:round;stroke-linejoin:round;stroke-miterlimit:10;}
	.st4{opacity:0.5;fill:none;stroke:#86869E;stroke-miterlimit:10;}
	.st5{fill:#BCBCC7;}
	.st6{fill:#FFFFFF;}
	.st7{opacity:0.5;fill:none;stroke:#86869E;stroke-width:0.5;stroke-miterlimit:10;}
	.st8{fill:#343451;}
	.st9{opacity:0.09;fill:url(#SVGID_1_);}
	.st10{fill:#355E74;}
	.st11{fill:none;stroke:#355E74;stroke-miterlimit:10;}
	.st12{opacity:0.09;fill:url(#SVGID_00000090275797608532039240000000602183494163302293_);}
	.st13{opacity:0.09;fill:url(#SVGID_00000173874054682633393500000001134447876985023635_);}
	.st14{opacity:0.09;fill:url(#SVGID_00000075127297501493718730000003108629158168918151_);}
	.st15{opacity:0.09;fill:url(#SVGID_00000056404075960900364300000006291486922895517570_);}
	.st16{opacity:0.09;fill:url(#SVGID_00000168100980363433882960000010738326828458484634_);}
	.st17{opacity:0.09;fill:url(#SVGID_00000086659752519731752060000010260037134925149372_);}
	.st18{opacity:0.09;fill:url(#SVGID_00000010297273853067013960000015053527576835769763_);}
	.st19{opacity:0.09;fill:url(#SVGID_00000155856711823918248440000002293277612438622862_);}
	.st20{opacity:0.09;fill:url(#SVGID_00000142152068451369474780000001164000657547599527_);}
	.st21{fill:#C99999;}
	.st22{fill:none;}
	.st23{opacity:0.15;fill:#CB6D61;}
	.st24{fill:#EFD0BF;}
	.st25{fill:#2B3059;}
	.st26{fill:none;stroke:#2B3059;stroke-miterlimit:10;}
	.st27{opacity:0.08;}
	.st28{opacity:0.08;fill:#355E74;}
	.st29{opacity:0.21;fill:#355E74;}
	.st30{opacity:0.53;fill:#CB6D61;}
	.st31{fill:#E7E1C9;}
	.st32{fill:none;stroke:#CB6D61;stroke-width:1.5;stroke-linecap:round;stroke-miterlimit:10;}
	.st33{fill-rule:evenodd;clip-rule:evenodd;fill:#DEDEEA;}
	.st34{fill-rule:evenodd;clip-rule:evenodd;fill:#343453;}
	.st35{fill-rule:evenodd;clip-rule:evenodd;fill:#FFFFFF;}
	.st36{fill-rule:evenodd;clip-rule:evenodd;fill:#B7C7E6;}
	.st37{fill-rule:evenodd;clip-rule:evenodd;fill:#EFEBDE;}
	.st38{fill-rule:evenodd;clip-rule:evenodd;fill:#333533;}
	.st39{fill-rule:evenodd;clip-rule:evenodd;fill:#888B87;}
	.st40{opacity:0.08;clip-path:url(#SVGID_00000088118298693716068530000008113942280495540118_);}
	.st41{opacity:0.08;clip-path:url(#SVGID_00000088118298693716068530000008113942280495540118_);fill:#355E74;}
	.st42{opacity:0.08;clip-path:url(#SVGID_00000068661574067565480510000002297233542983767217_);}
	.st43{opacity:0.08;clip-path:url(#SVGID_00000068661574067565480510000002297233542983767217_);fill:#CB6D61;}
	.st44{fill:none;stroke:#FFFFFF;stroke-linecap:round;stroke-linejoin:round;stroke-miterlimit:10;}
	.st45{fill:#F2D970;}
	.st46{fill:#D46767;}
	.st47{fill:#604F2E;}
	.st48{opacity:0.08;clip-path:url(#SVGID_00000066500784992457410110000008347144035774456193_);fill:#355E74;}
	.st49{opacity:0.08;clip-path:url(#SVGID_00000042697138056674284930000007359910581896710279_);fill:#CB6D61;}
	.st50{opacity:0.08;clip-path:url(#SVGID_00000125600406127579119070000004586122697614260384_);fill:#CB6D61;}
	.st51{fill:#EBEBEB;}
	.st52{fill:#646477;}
	.st53{fill:none;stroke:#CB6D61;stroke-miterlimit:10;}
	.st54{clip-path:url(#SVGID_00000151522153994687192640000016815411945859230652_);fill:#92BBAC;}
	.st55{clip-path:url(#SVGID_00000129181456691894076510000003898984945183454613_);fill:#92BBAC;}
	.st56{fill:#E7E7EF;}
	.st57{fill:none;stroke:#2B3059;stroke-linecap:round;stroke-linejoin:round;stroke-miterlimit:10;}
	.st58{fill:none;stroke:#E7E7EF;stroke-miterlimit:10;}
	.st59{fill:none;stroke:#2B3059;stroke-width:4;stroke-linecap:round;stroke-miterlimit:10;}
	.st60{fill:none;stroke:#CB6D61;stroke-width:1.5;stroke-miterlimit:10;}
	.st61{fill:none;stroke:#2B3059;stroke-width:1.5;stroke-linecap:round;stroke-linejoin:round;stroke-miterlimit:10;}
	.st62{clip-path:url(#SVGID_00000094590071085372617340000007064390910364358038_);fill:#92BBAC;}
	.st63{clip-path:url(#SVGID_00000056421458328348257300000016171103139805917086_);fill:#92BBAC;}
	.st64{opacity:0.09;fill:url(#SVGID_00000176736407078494447730000012405072351056677557_);}
	.st65{fill:url(#SVGID_00000036244701708455007520000004047881113866460041_);}
	.st66{opacity:0.39;clip-path:url(#SVGID_00000035524883031268532690000013902329349707215013_);fill:#CB6D61;}
	.st67{opacity:0.21;clip-path:url(#SVGID_00000035524883031268532690000013902329349707215013_);fill:#E7E1C9;}
	.st68{clip-path:url(#SVGID_00000035524883031268532690000013902329349707215013_);}
	.st69{fill:#F9F0D9;}
	.st70{clip-path:url(#SVGID_00000035524883031268532690000013902329349707215013_);fill:#CE6C61;}
	.st71{clip-path:url(#SVGID_00000035524883031268532690000013902329349707215013_);fill:#111318;}
	.st72{fill:#CE6C61;}
	.st73{fill:#CD4E3F;}
	.st74{fill:#9AC14C;}
	.st75{fill:#6F853A;}
	.st76{fill:#EECECB;}
	.st77{fill:url(#SVGID_00000041291645647663644010000014220990571116101819_);}
	.st78{opacity:0.22;clip-path:url(#SVGID_00000049906325453400901820000004636132396108839045_);fill:#E7E1C9;}
	.st79{clip-path:url(#SVGID_00000049906325453400901820000004636132396108839045_);}
	.st80{fill:#5D6DD3;}
	.st81{clip-path:url(#SVGID_00000049906325453400901820000004636132396108839045_);fill:#CE6C61;}
	.st82{clip-path:url(#SVGID_00000049906325453400901820000004636132396108839045_);fill:#FBF9EF;}
	.st83{clip-path:url(#SVGID_00000049906325453400901820000004636132396108839045_);fill:#111318;}
	.st84{fill:#95D2FB;}
	.st85{fill:#EFCCA9;}
	.st86{fill:#CD9F74;}
	.st87{fill:none;stroke:#FFFFFF;stroke-miterlimit:10;}
	.st88{clip-path:url(#SVGID_00000098913954674060106890000009973007373241549962_);fill:#92BBAC;}
	.st89{fill:url(#SVGID_00000022533929816084711670000007402069332361638325_);}
	.st90{clip-path:url(#SVGID_00000096038768399460433640000015846005053327459467_);}
	.st91{opacity:0.53;fill:#E7E1C9;}
	.st92{opacity:0.31;fill:#CB6D61;}
	.st93{fill:#FBF9EF;}
	.st94{clip-path:url(#SVGID_00000096038768399460433640000015846005053327459467_);fill:#111318;}
	.st95{fill:#F4EFD7;}
	.st96{fill:#DAD6C2;}
	.st97{fill:#F4DE98;}
	.st98{clip-path:url(#SVGID_00000012468343358785050290000006438757617587831684_);fill:#92BBAC;}
	.st99{fill:url(#SVGID_00000112605694152482627380000004529328865796695699_);}
	.st100{clip-path:url(#SVGID_00000181082274719054698390000009277756953674692007_);}
	.st101{clip-path:url(#SVGID_00000181082274719054698390000009277756953674692007_);fill:#111318;}
	.st102{fill:none;stroke:#E7E7EF;stroke-width:0.75;stroke-miterlimit:10;}
	.st103{clip-path:url(#SVGID_00000025421395012385535030000001215123990936372141_);fill:#92BBAC;}
	.st104{clip-path:url(#SVGID_00000152264636672189612310000004145476525590619304_);fill:#92BBAC;}
	.st105{fill:#5799D7;}
	.st106{fill:#5F2674;}
	.st107{fill:#B0086E;}
	.st108{clip-path:url(#SVGID_00000083065616640059596910000010413909591816790667_);fill:#92BBAC;}
	.st109{opacity:0.54;fill:#E7E7EF;}
	.st110{clip-path:url(#SVGID_00000098917190020217513760000006229956489538790586_);fill:#92BBAC;}
	.st111{fill:#7F7F89;}
	.st112{clip-path:url(#SVGID_00000022536948884465711940000003998226071451915965_);fill:#92BBAC;}
	.st113{fill:none;stroke:#B2ACAB;stroke-linecap:round;stroke-linejoin:round;stroke-miterlimit:10;}
</style>
<g id="Background">
	<g>
		<path class="st21" d="M40.87,46.41c3.04-1.95,3.04-1.95,3.04-5.45c0-11.96-0.02-23.91,0.02-35.87c0.01-2.16,0.11-4.24-3.05-4.53
			c0.11-0.16,0.23-0.31,0.34-0.47c2.14,0,4.28-0.01,6.42,0c6.99,0.03,14.02-0.61,20.92,1.15c6.16,1.58,11.59,4.3,14.95,10.01
			c7.82,13.25,1.07,29.69-13.71,33.72c-5.61,1.53-11.29,1.53-17.01,1.45C48.95,46.37,45.12,46.41,40.87,46.41z M53.67,23.03
			c0,6.88,0.05,13.75-0.04,20.63c-0.02,1.6,0.54,2.26,2.06,2.2c1.54-0.06,3.08-0.12,4.61-0.25c7.27-0.62,12.47-5.01,14.14-12.11
			c1.69-7.19,1.49-14.42-0.13-21.58c-1.21-5.36-4.36-9.21-9.88-10.45c-2.85-0.64-5.84-0.65-8.78-0.91
			c-1.61-0.14-2.04,0.69-2.02,2.22C53.71,9.54,53.67,16.29,53.67,23.03z"/>
		<path class="st21" d="M0.46,0.12c11.32,0,22.64-0.02,33.96,0.05c0.61,0,1.71,0.71,1.73,1.12c0.14,3.57,0.08,7.15,0.08,10.73
			c-0.16,0.05-0.33,0.1-0.49,0.14c-0.26-0.58-0.44-1.22-0.8-1.74c-1.62-2.36-2.96-5.05-5.04-6.92c-1.58-1.42-4.06-2.22-6.24-2.52
			c-3.16-0.43-6.42-0.14-9.64-0.17c-0.91-0.01-1.64,0.06-1.63,1.3c0.05,6.18,0.05,12.35,0.07,18.53c0,0.11,0.09,0.23,0.21,0.5
			c3.16,0.23,6.34,0.29,9.16-1.66c2.75-1.9,3.59-4.99,4.9-7.88c0,6.56,0,13.12,0,19.68c-2-7.2-6.42-10.67-14.18-9.27
			c-0.05,0.43-0.15,0.92-0.15,1.42c-0.02,6.76,0.02,13.51-0.06,20.27c-0.02,1.52,0.44,2.04,1.96,1.97c2.38-0.11,4.76-0.12,7.14-0.01
			c7.33,0.35,11.96-3.48,15.07-9.64c0.77-1.53,1.28-3.19,2.11-5.28c0.16,0.92,0.31,1.37,0.31,1.82c0.02,3.99,0,7.98,0.02,11.97
			c0,0.99-0.11,1.79-1.4,1.79c-12.15-0.01-24.29-0.01-36.64-0.23c2.14-0.96,1.71-2.71,1.71-4.3c0-12.35-0.02-24.71,0.03-37.06
			C2.66,2.77,2.48,1.12,0.46,0.12z"/>
		<path class="st21" d="M0.76,42.94c0.01,0.13,0.01,0.25,0,0.38l0.02-0.02C0.52,43.29,0.26,43.29,0,43.28
			c0.04-0.17,0.08-0.34,0.12-0.51c0.22,0.07,0.44,0.13,0.67,0.2C0.78,42.96,0.76,42.94,0.76,42.94z"/>
		<polygon class="st21" points="0.78,42.96 0.81,42.89 0.76,42.94 		"/>
		<polygon class="st21" points="0.76,43.32 0.81,43.37 0.78,43.3 		"/>
	</g>
</g>
<g id="Content">
</g>
</svg>
