<?xml version="1.0" encoding="utf-8"?>
<!-- Generator: Adobe Illustrator 26.5.0, SVG Export Plug-In . SVG Version: 6.00 Build 0)  -->
<svg version="1.1" xmlns="http://www.w3.org/2000/svg" xmlns:xlink="http://www.w3.org/1999/xlink" x="0px" y="0px"
	 viewBox="0 0 222.55 38.98" style="enable-background:new 0 0 222.55 38.98;" xml:space="preserve">
<style type="text/css">
	.st0{opacity:0.08;fill:#CB6D61;}
	.st1{fill:#CB6D61;}
	.st2{fill:none;stroke:#FFFFFF;stroke-width:3;stroke-linecap:round;stroke-linejoin:round;stroke-miterlimit:10;}
	.st3{fill:none;stroke:#CB6D61;stroke-width:3;stroke-linecap:round;stroke-linejoin:round;stroke-miterlimit:10;}
	.st4{opacity:0.5;fill:none;stroke:#86869E;stroke-miterlimit:10;}
	.st5{fill:#BCBCC7;}
	.st6{fill:#FFFFFF;}
	.st7{opacity:0.5;fill:none;stroke:#86869E;stroke-width:0.5;stroke-miterlimit:10;}
	.st8{fill:#343451;}
	.st9{opacity:0.09;fill:url(#SVGID_1_);}
	.st10{fill:#355E74;}
	.st11{fill:none;stroke:#355E74;stroke-miterlimit:10;}
	.st12{opacity:0.09;fill:url(#SVGID_00000038414225449438096400000011403215570434344368_);}
	.st13{opacity:0.09;fill:url(#SVGID_00000126289735743808273650000014342853817332197285_);}
	.st14{opacity:0.09;fill:url(#SVGID_00000059284943587568288840000009745339228560754059_);}
	.st15{opacity:0.09;fill:url(#SVGID_00000119796001626593808510000015420103020193419157_);}
	.st16{opacity:0.09;fill:url(#SVGID_00000012461347224163064220000010254406239191447963_);}
	.st17{opacity:0.09;fill:url(#SVGID_00000083798357488937154330000005910037421436034965_);}
	.st18{opacity:0.09;fill:url(#SVGID_00000044893668613781462250000017025578662883714741_);}
	.st19{opacity:0.09;fill:url(#SVGID_00000106148031169711036470000006164450539402354597_);}
	.st20{opacity:0.09;fill:url(#SVGID_00000120558753336040990220000001572720601950735293_);}
	.st21{fill:#C99999;}
	.st22{fill:none;}
	.st23{opacity:0.15;fill:#CB6D61;}
	.st24{fill:#EFD0BF;}
	.st25{fill:#2B3059;}
	.st26{fill:none;stroke:#2B3059;stroke-miterlimit:10;}
	.st27{opacity:0.08;}
	.st28{opacity:0.08;fill:#355E74;}
	.st29{opacity:0.21;fill:#355E74;}
	.st30{opacity:0.53;fill:#CB6D61;}
	.st31{fill:#E7E1C9;}
	.st32{fill:none;stroke:#CB6D61;stroke-width:1.5;stroke-linecap:round;stroke-miterlimit:10;}
	.st33{fill-rule:evenodd;clip-rule:evenodd;fill:#DEDEEA;}
	.st34{fill-rule:evenodd;clip-rule:evenodd;fill:#343453;}
	.st35{fill-rule:evenodd;clip-rule:evenodd;fill:#FFFFFF;}
	.st36{fill-rule:evenodd;clip-rule:evenodd;fill:#B7C7E6;}
	.st37{fill-rule:evenodd;clip-rule:evenodd;fill:#EFEBDE;}
	.st38{fill-rule:evenodd;clip-rule:evenodd;fill:#333533;}
	.st39{fill-rule:evenodd;clip-rule:evenodd;fill:#888B87;}
	.st40{opacity:0.08;clip-path:url(#SVGID_00000155121901315126979990000013172247595602899126_);}
	.st41{opacity:0.08;clip-path:url(#SVGID_00000155121901315126979990000013172247595602899126_);fill:#355E74;}
	.st42{opacity:0.08;clip-path:url(#SVGID_00000023978661980436158270000010507106683691113862_);}
	.st43{opacity:0.08;clip-path:url(#SVGID_00000023978661980436158270000010507106683691113862_);fill:#CB6D61;}
	.st44{fill:none;stroke:#FFFFFF;stroke-linecap:round;stroke-linejoin:round;stroke-miterlimit:10;}
	.st45{fill:#F2D970;}
	.st46{fill:#D46767;}
	.st47{fill:#604F2E;}
	.st48{opacity:0.08;clip-path:url(#SVGID_00000183238585461453157490000013782345078639917474_);fill:#355E74;}
	.st49{opacity:0.08;clip-path:url(#SVGID_00000018239223349741918940000012632431799367223959_);fill:#CB6D61;}
	.st50{opacity:0.08;clip-path:url(#SVGID_00000136406174832230228300000010443591753878290849_);fill:#CB6D61;}
	.st51{fill:#EBEBEB;}
	.st52{fill:#646477;}
	.st53{fill:none;stroke:#CB6D61;stroke-miterlimit:10;}
	.st54{clip-path:url(#SVGID_00000049943632384207193020000000521047632177022391_);fill:#92BBAC;}
	.st55{clip-path:url(#SVGID_00000025442193435172139180000007734192804992018363_);fill:#92BBAC;}
	.st56{fill:#E7E7EF;}
	.st57{fill:none;stroke:#2B3059;stroke-linecap:round;stroke-linejoin:round;stroke-miterlimit:10;}
	.st58{fill:none;stroke:#E7E7EF;stroke-miterlimit:10;}
	.st59{fill:none;stroke:#2B3059;stroke-width:4;stroke-linecap:round;stroke-miterlimit:10;}
	.st60{fill:none;stroke:#CB6D61;stroke-width:1.5;stroke-miterlimit:10;}
	.st61{fill:none;stroke:#2B3059;stroke-width:1.5;stroke-linecap:round;stroke-linejoin:round;stroke-miterlimit:10;}
	.st62{clip-path:url(#SVGID_00000126281411798701859180000009486035390133530018_);fill:#92BBAC;}
	.st63{clip-path:url(#SVGID_00000034067546028321669820000016569152705744300692_);fill:#92BBAC;}
	.st64{opacity:0.09;fill:url(#SVGID_00000114788459251312601170000016034979985546127492_);}
	.st65{fill:url(#SVGID_00000103979665339879564070000000152361675555356607_);}
	.st66{opacity:0.39;clip-path:url(#SVGID_00000155131435670158922730000003391177878610486148_);fill:#CB6D61;}
	.st67{opacity:0.21;clip-path:url(#SVGID_00000155131435670158922730000003391177878610486148_);fill:#E7E1C9;}
	.st68{clip-path:url(#SVGID_00000155131435670158922730000003391177878610486148_);}
	.st69{fill:#F9F0D9;}
	.st70{clip-path:url(#SVGID_00000155131435670158922730000003391177878610486148_);fill:#CE6C61;}
	.st71{clip-path:url(#SVGID_00000155131435670158922730000003391177878610486148_);fill:#111318;}
	.st72{fill:#CE6C61;}
	.st73{fill:#CD4E3F;}
	.st74{fill:#9AC14C;}
	.st75{fill:#6F853A;}
	.st76{fill:#EECECB;}
	.st77{fill:url(#SVGID_00000155118430457279539090000013735415069317782947_);}
	.st78{opacity:0.22;clip-path:url(#SVGID_00000009590685724859410240000013910827533056454571_);fill:#E7E1C9;}
	.st79{clip-path:url(#SVGID_00000009590685724859410240000013910827533056454571_);}
	.st80{fill:#5D6DD3;}
	.st81{clip-path:url(#SVGID_00000009590685724859410240000013910827533056454571_);fill:#CE6C61;}
	.st82{clip-path:url(#SVGID_00000009590685724859410240000013910827533056454571_);fill:#FBF9EF;}
	.st83{clip-path:url(#SVGID_00000009590685724859410240000013910827533056454571_);fill:#111318;}
	.st84{fill:#95D2FB;}
	.st85{fill:#EFCCA9;}
	.st86{fill:#CD9F74;}
	.st87{fill:none;stroke:#FFFFFF;stroke-miterlimit:10;}
	.st88{clip-path:url(#SVGID_00000116942938854505354150000000006820891230999175_);fill:#92BBAC;}
	.st89{fill:url(#SVGID_00000098218866122545915410000012986416179728538256_);}
	.st90{clip-path:url(#SVGID_00000149348856902002971970000010087774548210062237_);}
	.st91{opacity:0.53;fill:#E7E1C9;}
	.st92{opacity:0.31;fill:#CB6D61;}
	.st93{fill:#FBF9EF;}
	.st94{clip-path:url(#SVGID_00000149348856902002971970000010087774548210062237_);fill:#111318;}
	.st95{fill:#F4EFD7;}
	.st96{fill:#DAD6C2;}
	.st97{fill:#F4DE98;}
	.st98{clip-path:url(#SVGID_00000077307381824193828680000002287816710065329572_);fill:#92BBAC;}
	.st99{fill:url(#SVGID_00000163766763941914439290000017638885894004248498_);}
	.st100{clip-path:url(#SVGID_00000000913846442783076580000007304513706190230938_);}
	.st101{clip-path:url(#SVGID_00000000913846442783076580000007304513706190230938_);fill:#111318;}
	.st102{fill:none;stroke:#E7E7EF;stroke-width:0.75;stroke-miterlimit:10;}
	.st103{clip-path:url(#SVGID_00000073692452544834347310000015465908705136710331_);fill:#92BBAC;}
	.st104{clip-path:url(#SVGID_00000104670207060982141210000010718238502267890352_);fill:#92BBAC;}
	.st105{fill:#5799D7;}
	.st106{fill:#5F2674;}
	.st107{fill:#B0086E;}
	.st108{clip-path:url(#SVGID_00000072274410368437446600000010925882652133276590_);fill:#92BBAC;}
	.st109{opacity:0.54;fill:#E7E7EF;}
	.st110{clip-path:url(#SVGID_00000175295710508484187610000006806731202776375691_);fill:#92BBAC;}
	.st111{fill:#7F7F89;}
	.st112{clip-path:url(#SVGID_00000129914302931039746480000002747117848773989509_);fill:#92BBAC;}
	.st113{fill:none;stroke:#B2ACAB;stroke-linecap:round;stroke-linejoin:round;stroke-miterlimit:10;}
</style>
<g id="Background">
	<g>
		<g>
			<path class="st21" d="M177.67,8.78h-2.75v14.47h2.75c5.73,0,8.04-2.71,8.04-7.26C185.71,11.49,183.35,8.78,177.67,8.78z"/>
			<polygon class="st21" points="199.74,26.05 209.53,26.05 204.68,14.29 			"/>
			<polygon class="st21" points="29.06,26.05 38.85,26.05 34,14.29 			"/>
			<path class="st21" d="M0,0v38.98h222.55V0H0z M42.31,34.35l-1.7-4.15H27.31l-1.7,4.15h-4.72l0,0H4.63V4.63l4.68,0V30.2h13.11
				v0.59L33.91,4.02h0.26l13.07,30.33H42.31z M70.89,8.78h-8.83v25.57h-4.68V8.78h-8.83V4.63h22.33V8.78z M92.74,34.35H73.21V4.63
				h18.93v4.15H77.88v12.33h12.63v4.07H77.88v5.03h14.86V34.35z M110.4,34.35l-5.07-7.21c-0.66,0.09-1.4,0.13-2.14,0.13h-2.93v7.08
				h-4.68V4.63h7.61c8.17,0,12.68,4.5,12.68,11.36c0,4.59-2.05,8.13-5.94,9.92l6.03,8.44H110.4z M132.82,34.74
				c-8.48,0-15.04-6.47-15.04-15.25c0-8.79,6.69-15.25,15.17-15.25c5.51,0,9.31,2.14,11.89,5.77l-3.58,2.53
				c-1.97-2.67-4.5-4.06-8.44-4.06c-5.9,0-10.18,4.72-10.18,11.01c0,6.43,4.37,11.01,10.36,11.01c3.85,0,6.69-1.44,8.92-4.33
				l3.63,2.49C142.48,32.73,138.59,34.74,132.82,34.74z M167.62,34.35h-19.54V4.63H167v4.15h-14.25v12.33h12.63v4.07h-12.63v5.03
				h14.86V34.35z M185.06,34.35l-5.07-7.21c-0.66,0.09-1.4,0.13-2.14,0.13h-2.93v7.08h-4.68V4.63h7.6c8.17,0,12.68,4.5,12.68,11.36
				c0,4.59-2.05,8.13-5.94,9.92l6.03,8.44H185.06z M212.99,34.35l-1.71-4.15h-13.29l-1.7,4.15h-4.72l13.03-30.33h0.26l13.07,30.33
				H212.99z"/>
			<path class="st21" d="M103.02,8.78h-2.75v14.47h2.75c5.73,0,8.04-2.71,8.04-7.26C111.06,11.49,108.7,8.78,103.02,8.78z"/>
		</g>
	</g>
</g>
<g id="Content">
</g>
</svg>
