<?xml version="1.0" encoding="utf-8"?>
<!-- Generator: Adobe Illustrator 26.5.0, SVG Export Plug-In . SVG Version: 6.00 Build 0)  -->
<svg version="1.1" xmlns="http://www.w3.org/2000/svg" xmlns:xlink="http://www.w3.org/1999/xlink" x="0px" y="0px"
	 viewBox="0 0 220.06 30.66" style="enable-background:new 0 0 220.06 30.66;" xml:space="preserve">
<style type="text/css">
	.st0{opacity:0.08;fill:#CB6D61;}
	.st1{fill:#CB6D61;}
	.st2{fill:none;stroke:#FFFFFF;stroke-width:3;stroke-linecap:round;stroke-linejoin:round;stroke-miterlimit:10;}
	.st3{fill:none;stroke:#CB6D61;stroke-width:3;stroke-linecap:round;stroke-linejoin:round;stroke-miterlimit:10;}
	.st4{opacity:0.5;fill:none;stroke:#86869E;stroke-miterlimit:10;}
	.st5{fill:#BCBCC7;}
	.st6{fill:#FFFFFF;}
	.st7{opacity:0.5;fill:none;stroke:#86869E;stroke-width:0.5;stroke-miterlimit:10;}
	.st8{fill:#343451;}
	.st9{opacity:0.09;fill:url(#SVGID_1_);}
	.st10{fill:#355E74;}
	.st11{fill:none;stroke:#355E74;stroke-miterlimit:10;}
	.st12{opacity:0.09;fill:url(#SVGID_00000010995543004273530110000012647469059096471174_);}
	.st13{opacity:0.09;fill:url(#SVGID_00000086655890482523527120000014839247640967500207_);}
	.st14{opacity:0.09;fill:url(#SVGID_00000175313096285890511690000002673302886057172880_);}
	.st15{opacity:0.09;fill:url(#SVGID_00000070076613371693037740000003600940268693082814_);}
	.st16{opacity:0.09;fill:url(#SVGID_00000095296282313708509510000013703769895629308606_);}
	.st17{opacity:0.09;fill:url(#SVGID_00000088834361331009111520000009374474789546596497_);}
	.st18{opacity:0.09;fill:url(#SVGID_00000166656124597369582140000014847708679099006374_);}
	.st19{opacity:0.09;fill:url(#SVGID_00000092425505374624536840000000369842236587062443_);}
	.st20{opacity:0.09;fill:url(#SVGID_00000091728307088734153840000005673262224273621685_);}
	.st21{fill:#C99999;}
	.st22{fill:none;}
	.st23{opacity:0.15;fill:#CB6D61;}
	.st24{fill:#EFD0BF;}
	.st25{fill:#2B3059;}
	.st26{fill:none;stroke:#2B3059;stroke-miterlimit:10;}
	.st27{opacity:0.08;}
	.st28{opacity:0.08;fill:#355E74;}
	.st29{opacity:0.21;fill:#355E74;}
	.st30{opacity:0.53;fill:#CB6D61;}
	.st31{fill:#E7E1C9;}
	.st32{fill:none;stroke:#CB6D61;stroke-width:1.5;stroke-linecap:round;stroke-miterlimit:10;}
	.st33{fill-rule:evenodd;clip-rule:evenodd;fill:#DEDEEA;}
	.st34{fill-rule:evenodd;clip-rule:evenodd;fill:#343453;}
	.st35{fill-rule:evenodd;clip-rule:evenodd;fill:#FFFFFF;}
	.st36{fill-rule:evenodd;clip-rule:evenodd;fill:#B7C7E6;}
	.st37{fill-rule:evenodd;clip-rule:evenodd;fill:#EFEBDE;}
	.st38{fill-rule:evenodd;clip-rule:evenodd;fill:#333533;}
	.st39{fill-rule:evenodd;clip-rule:evenodd;fill:#888B87;}
	.st40{opacity:0.08;clip-path:url(#SVGID_00000003103115311461174730000017847691209114762395_);}
	.st41{opacity:0.08;clip-path:url(#SVGID_00000003103115311461174730000017847691209114762395_);fill:#355E74;}
	.st42{opacity:0.08;clip-path:url(#SVGID_00000147218528300111167410000004073766301258698419_);}
	.st43{opacity:0.08;clip-path:url(#SVGID_00000147218528300111167410000004073766301258698419_);fill:#CB6D61;}
	.st44{fill:none;stroke:#FFFFFF;stroke-linecap:round;stroke-linejoin:round;stroke-miterlimit:10;}
	.st45{fill:#F2D970;}
	.st46{fill:#D46767;}
	.st47{fill:#604F2E;}
	.st48{opacity:0.08;clip-path:url(#SVGID_00000111903398720192940930000013797273992805995677_);fill:#355E74;}
	.st49{opacity:0.08;clip-path:url(#SVGID_00000039855631091132647780000013180556889272099200_);fill:#CB6D61;}
	.st50{opacity:0.08;clip-path:url(#SVGID_00000119119868291565371460000013738859530848553142_);fill:#CB6D61;}
	.st51{fill:#EBEBEB;}
	.st52{fill:#646477;}
	.st53{fill:none;stroke:#CB6D61;stroke-miterlimit:10;}
	.st54{clip-path:url(#SVGID_00000076572626080201859760000007031697556273719435_);fill:#92BBAC;}
	.st55{clip-path:url(#SVGID_00000134211827399199747830000014804889343120775858_);fill:#92BBAC;}
	.st56{fill:#E7E7EF;}
	.st57{fill:none;stroke:#2B3059;stroke-linecap:round;stroke-linejoin:round;stroke-miterlimit:10;}
	.st58{fill:none;stroke:#E7E7EF;stroke-miterlimit:10;}
	.st59{fill:none;stroke:#2B3059;stroke-width:4;stroke-linecap:round;stroke-miterlimit:10;}
	.st60{fill:none;stroke:#CB6D61;stroke-width:1.5;stroke-miterlimit:10;}
	.st61{fill:none;stroke:#2B3059;stroke-width:1.5;stroke-linecap:round;stroke-linejoin:round;stroke-miterlimit:10;}
	.st62{clip-path:url(#SVGID_00000039845559208136266820000017580498665891607720_);fill:#92BBAC;}
	.st63{clip-path:url(#SVGID_00000182520000454640614430000004940276322792264849_);fill:#92BBAC;}
	.st64{opacity:0.09;fill:url(#SVGID_00000127758550074741594040000017150951342636466325_);}
	.st65{fill:url(#SVGID_00000088099077827123147510000015548893435642127271_);}
	.st66{opacity:0.39;clip-path:url(#SVGID_00000075154208258358114640000000613447097794086535_);fill:#CB6D61;}
	.st67{opacity:0.21;clip-path:url(#SVGID_00000075154208258358114640000000613447097794086535_);fill:#E7E1C9;}
	.st68{clip-path:url(#SVGID_00000075154208258358114640000000613447097794086535_);}
	.st69{fill:#F9F0D9;}
	.st70{clip-path:url(#SVGID_00000075154208258358114640000000613447097794086535_);fill:#CE6C61;}
	.st71{clip-path:url(#SVGID_00000075154208258358114640000000613447097794086535_);fill:#111318;}
	.st72{fill:#CE6C61;}
	.st73{fill:#CD4E3F;}
	.st74{fill:#9AC14C;}
	.st75{fill:#6F853A;}
	.st76{fill:#EECECB;}
	.st77{fill:url(#SVGID_00000121958844643742506460000009254783029247107493_);}
	.st78{opacity:0.22;clip-path:url(#SVGID_00000135674394518328885870000011334198442332853939_);fill:#E7E1C9;}
	.st79{clip-path:url(#SVGID_00000135674394518328885870000011334198442332853939_);}
	.st80{fill:#5D6DD3;}
	.st81{clip-path:url(#SVGID_00000135674394518328885870000011334198442332853939_);fill:#CE6C61;}
	.st82{clip-path:url(#SVGID_00000135674394518328885870000011334198442332853939_);fill:#FBF9EF;}
	.st83{clip-path:url(#SVGID_00000135674394518328885870000011334198442332853939_);fill:#111318;}
	.st84{fill:#95D2FB;}
	.st85{fill:#EFCCA9;}
	.st86{fill:#CD9F74;}
	.st87{fill:none;stroke:#FFFFFF;stroke-miterlimit:10;}
	.st88{clip-path:url(#SVGID_00000070800397501087364450000007607446151883300777_);fill:#92BBAC;}
	.st89{fill:url(#SVGID_00000148624750552848903200000018288410570715579030_);}
	.st90{clip-path:url(#SVGID_00000102504706293817940660000017151774209957851030_);}
	.st91{opacity:0.53;fill:#E7E1C9;}
	.st92{opacity:0.31;fill:#CB6D61;}
	.st93{fill:#FBF9EF;}
	.st94{clip-path:url(#SVGID_00000102504706293817940660000017151774209957851030_);fill:#111318;}
	.st95{fill:#F4EFD7;}
	.st96{fill:#DAD6C2;}
	.st97{fill:#F4DE98;}
	.st98{clip-path:url(#SVGID_00000047767640082353961000000001970440779729555335_);fill:#92BBAC;}
	.st99{fill:url(#SVGID_00000103985615952208696840000006363014580385132468_);}
	.st100{clip-path:url(#SVGID_00000169559025486337962960000004899570901430445999_);}
	.st101{clip-path:url(#SVGID_00000169559025486337962960000004899570901430445999_);fill:#111318;}
	.st102{fill:none;stroke:#E7E7EF;stroke-width:0.75;stroke-miterlimit:10;}
	.st103{clip-path:url(#SVGID_00000068668898379799974810000006528591190258701494_);fill:#92BBAC;}
	.st104{clip-path:url(#SVGID_00000176039500909774064350000006298251685396562560_);fill:#92BBAC;}
	.st105{fill:#5799D7;}
	.st106{fill:#5F2674;}
	.st107{fill:#B0086E;}
	.st108{clip-path:url(#SVGID_00000023239964097019235750000011792675805478105239_);fill:#92BBAC;}
	.st109{opacity:0.54;fill:#E7E7EF;}
	.st110{clip-path:url(#SVGID_00000011024219670702061310000008510347883687339707_);fill:#92BBAC;}
	.st111{fill:#7F7F89;}
	.st112{clip-path:url(#SVGID_00000083061120324402002310000013095401759556326039_);fill:#92BBAC;}
	.st113{fill:none;stroke:#B2ACAB;stroke-linecap:round;stroke-linejoin:round;stroke-miterlimit:10;}
</style>
<g id="Background">
	<g>
		<path class="st21" d="M15.94,15.25L22.22,0h9.41v0.63h-0.75c-0.68,0-1.23,0.12-1.64,0.36c-0.28,0.16-0.51,0.43-0.68,0.8
			c-0.13,0.27-0.19,0.98-0.19,2.13v15.25c0,1.18,0.06,1.92,0.19,2.22c0.12,0.3,0.38,0.55,0.77,0.78s0.9,0.33,1.55,0.33h0.75v0.63
			H19.56v-0.63h0.75c0.68,0,1.23-0.12,1.64-0.36c0.28-0.16,0.51-0.43,0.68-0.82c0.12-0.27,0.19-0.99,0.19-2.15V2.03l-8.87,21.09
			h-0.41l-9-20.94v16.29c0,1.14,0.03,1.84,0.09,2.1c0.15,0.57,0.47,1.03,0.96,1.39c0.49,0.36,1.27,0.54,2.33,0.54v0.63H0v-0.63h0.24
			c0.51,0.01,0.99-0.07,1.43-0.25c0.44-0.18,0.78-0.41,1.01-0.71c0.23-0.3,0.4-0.71,0.53-1.25c0.02-0.12,0.03-0.7,0.03-1.74V3.92
			c0-1.17-0.06-1.9-0.19-2.19C2.93,1.44,2.67,1.19,2.28,0.96s-0.9-0.33-1.55-0.33H0V0h9.45L15.94,15.25z"/>
		<path class="st21" d="M46.95,14.58H38.2c0.1,2.11,0.67,3.79,1.69,5.01c0.78,0.94,1.73,1.42,2.83,1.42c0.68,0,1.3-0.19,1.86-0.57
			c0.56-0.38,1.15-1.07,1.79-2.05l0.58,0.38c-0.86,1.76-1.82,3.01-2.86,3.74s-2.26,1.1-3.63,1.1c-2.36,0-4.16-0.91-5.37-2.73
			c-0.98-1.47-1.47-3.29-1.47-5.46c0-2.66,0.72-4.78,2.16-6.35c1.44-1.57,3.12-2.36,5.06-2.36c1.61,0,3.02,0.66,4.2,1.99
			C46.21,10.01,46.85,11.98,46.95,14.58z M42.75,13.44c0-1.83-0.1-3.09-0.3-3.77c-0.2-0.68-0.51-1.2-0.93-1.55
			c-0.24-0.21-0.56-0.31-0.95-0.31c-0.59,0-1.07,0.29-1.45,0.87c-0.67,1.01-1.01,2.4-1.01,4.16v0.6H42.75z"/>
		<path class="st21" d="M59.02,6.74l0.26,5.44h-0.58c-0.69-1.61-1.41-2.72-2.16-3.31c-0.74-0.59-1.49-0.89-2.23-0.89
			c-0.47,0-0.86,0.16-1.19,0.47c-0.33,0.31-0.49,0.67-0.49,1.08c0,0.31,0.11,0.6,0.34,0.89c0.36,0.47,1.38,1.26,3.05,2.4
			c1.67,1.13,2.77,2.09,3.3,2.88c0.53,0.79,0.79,1.67,0.79,2.65c0,0.89-0.22,1.76-0.67,2.61s-1.07,1.51-1.88,1.96
			c-0.81,0.46-1.7,0.68-2.68,0.68c-0.76,0-1.78-0.24-3.05-0.72c-0.34-0.12-0.57-0.19-0.7-0.19c-0.38,0-0.69,0.29-0.94,0.85h-0.56
			l-0.27-5.73h0.58c0.51,1.5,1.21,2.63,2.11,3.38c0.89,0.75,1.74,1.12,2.53,1.12c0.55,0,0.99-0.17,1.34-0.5
			c0.35-0.33,0.52-0.74,0.52-1.22c0-0.55-0.17-1.02-0.51-1.42c-0.34-0.4-1.1-1-2.28-1.81c-1.74-1.2-2.86-2.12-3.38-2.76
			c-0.75-0.93-1.13-1.96-1.13-3.09c0-1.23,0.42-2.34,1.27-3.33c0.85-0.99,2.07-1.49,3.67-1.49c0.86,0,1.7,0.21,2.51,0.63
			c0.31,0.17,0.56,0.26,0.75,0.26c0.2,0,0.37-0.04,0.49-0.13c0.12-0.09,0.32-0.33,0.6-0.73H59.02z"/>
		<path class="st21" d="M71.33,20.77c-1.94,1.72-3.69,2.58-5.24,2.58c-0.91,0-1.67-0.3-2.27-0.9c-0.6-0.6-0.9-1.34-0.9-2.24
			c0-1.22,0.52-2.31,1.57-3.28c1.05-0.97,3.33-2.27,6.84-3.88v-1.6c0-1.21-0.07-1.96-0.2-2.28C71,8.85,70.76,8.58,70.39,8.35
			C70.03,8.11,69.62,8,69.16,8c-0.74,0-1.35,0.16-1.82,0.49c-0.3,0.21-0.44,0.44-0.44,0.72c0,0.24,0.16,0.54,0.48,0.89
			c0.43,0.49,0.65,0.96,0.65,1.42c0,0.56-0.21,1.03-0.62,1.42c-0.42,0.39-0.96,0.59-1.63,0.59c-0.72,0-1.32-0.22-1.8-0.65
			c-0.48-0.43-0.72-0.94-0.72-1.52c0-0.82,0.32-1.6,0.97-2.34c0.65-0.75,1.55-1.32,2.71-1.71c1.16-0.4,2.36-0.6,3.61-0.6
			c1.51,0,2.71,0.32,3.59,0.96c0.88,0.64,1.45,1.34,1.71,2.09c0.16,0.48,0.24,1.58,0.24,3.29v6.19c0,0.73,0.03,1.18,0.09,1.37
			s0.14,0.33,0.26,0.42c0.11,0.09,0.24,0.14,0.39,0.14c0.3,0,0.6-0.21,0.9-0.63l0.51,0.41c-0.57,0.84-1.16,1.45-1.76,1.83
			c-0.61,0.38-1.3,0.57-2.07,0.57c-0.91,0-1.62-0.21-2.13-0.64C71.76,22.28,71.44,21.63,71.33,20.77z M71.33,19.53v-5.34
			c-1.38,0.81-2.4,1.67-3.07,2.59c-0.44,0.61-0.67,1.23-0.67,1.86c0,0.52,0.19,0.98,0.56,1.38c0.28,0.31,0.68,0.46,1.19,0.46
			C69.92,20.48,70.58,20.16,71.33,19.53z"/>
		<path class="st21" d="M96.04,23.77l-5.15-11.82c-0.77-1.79-1.34-2.88-1.71-3.29s-0.82-0.69-1.34-0.85V7.18h8.48v0.63
			c-0.56,0.02-0.95,0.13-1.18,0.32c-0.23,0.19-0.34,0.43-0.34,0.7c0,0.43,0.28,1.29,0.85,2.56l2.73,6.24l1.86-4.83
			c0.67-1.72,1.01-2.91,1.01-3.58c0-0.42-0.14-0.76-0.42-1.01s-0.77-0.39-1.47-0.41V7.18h5.34v0.63c-0.52,0.06-0.95,0.26-1.28,0.6
			c-0.33,0.35-0.88,1.53-1.65,3.54L97.2,23.77c-1.15,2.96-2,4.77-2.56,5.46c-0.78,0.96-1.77,1.43-2.95,1.43
			c-0.94,0-1.71-0.27-2.29-0.81c-0.59-0.54-0.88-1.19-0.88-1.95c0-0.66,0.2-1.21,0.61-1.64c0.4-0.43,0.9-0.65,1.49-0.65
			c0.57,0,1.03,0.18,1.37,0.55c0.35,0.36,0.53,0.93,0.54,1.69c0.01,0.43,0.06,0.71,0.15,0.83c0.09,0.12,0.22,0.19,0.39,0.19
			c0.27,0,0.56-0.17,0.87-0.5c0.45-0.48,0.99-1.57,1.6-3.27L96.04,23.77z"/>
		<path class="st21" d="M130.38,15.25L136.66,0h9.41v0.63h-0.75c-0.68,0-1.23,0.12-1.64,0.36c-0.28,0.16-0.51,0.43-0.68,0.8
			c-0.13,0.27-0.19,0.98-0.19,2.13v15.25c0,1.18,0.06,1.92,0.19,2.22c0.12,0.3,0.38,0.55,0.77,0.78s0.9,0.33,1.55,0.33h0.75v0.63
			H134v-0.63h0.75c0.68,0,1.23-0.12,1.64-0.36c0.28-0.16,0.51-0.43,0.68-0.82c0.12-0.27,0.19-0.99,0.19-2.15V2.03l-8.87,21.09h-0.41
			l-9-20.94v16.29c0,1.14,0.03,1.84,0.09,2.1c0.15,0.57,0.47,1.03,0.96,1.39c0.49,0.36,1.27,0.54,2.33,0.54v0.63h-7.91v-0.63h0.24
			c0.51,0.01,0.99-0.07,1.43-0.25c0.44-0.18,0.78-0.41,1.01-0.71c0.23-0.3,0.4-0.71,0.53-1.25c0.02-0.12,0.03-0.7,0.03-1.74V3.92
			c0-1.17-0.06-1.9-0.19-2.19c-0.13-0.29-0.38-0.54-0.77-0.77s-0.9-0.33-1.55-0.33h-0.73V0h9.45L130.38,15.25z"/>
		<path class="st21" d="M156.68,20.77c-1.94,1.72-3.69,2.58-5.24,2.58c-0.91,0-1.67-0.3-2.27-0.9c-0.6-0.6-0.9-1.34-0.9-2.24
			c0-1.22,0.52-2.31,1.57-3.28c1.05-0.97,3.33-2.27,6.84-3.88v-1.6c0-1.21-0.07-1.96-0.2-2.28c-0.13-0.31-0.38-0.59-0.74-0.82
			C155.37,8.11,154.97,8,154.51,8c-0.74,0-1.35,0.16-1.82,0.49c-0.3,0.21-0.44,0.44-0.44,0.72c0,0.24,0.16,0.54,0.48,0.89
			c0.43,0.49,0.65,0.96,0.65,1.42c0,0.56-0.21,1.03-0.62,1.42c-0.42,0.39-0.96,0.59-1.63,0.59c-0.72,0-1.32-0.22-1.8-0.65
			c-0.48-0.43-0.72-0.94-0.72-1.52c0-0.82,0.32-1.6,0.97-2.34c0.65-0.75,1.55-1.32,2.71-1.71c1.16-0.4,2.36-0.6,3.61-0.6
			c1.51,0,2.71,0.32,3.59,0.96c0.88,0.64,1.45,1.34,1.71,2.09c0.16,0.48,0.24,1.58,0.24,3.29v6.19c0,0.73,0.03,1.18,0.09,1.37
			s0.14,0.33,0.26,0.42c0.11,0.09,0.24,0.14,0.39,0.14c0.3,0,0.6-0.21,0.9-0.63l0.51,0.41c-0.57,0.84-1.16,1.45-1.76,1.83
			c-0.61,0.38-1.3,0.57-2.07,0.57c-0.91,0-1.62-0.21-2.13-0.64C157.1,22.28,156.79,21.63,156.68,20.77z M156.68,19.53v-5.34
			c-1.38,0.81-2.4,1.67-3.07,2.59c-0.44,0.61-0.67,1.23-0.67,1.86c0,0.52,0.19,0.98,0.56,1.38c0.28,0.31,0.68,0.46,1.19,0.46
			C155.27,20.48,155.93,20.16,156.68,19.53z"/>
		<path class="st21" d="M171.85,7.18v2.06c0.82-0.89,1.6-1.53,2.35-1.94c0.75-0.4,1.56-0.6,2.42-0.6c1.03,0,1.89,0.29,2.57,0.86
			c0.68,0.57,1.14,1.29,1.36,2.14c0.18,0.65,0.27,1.89,0.27,3.73v6.21c0,1.23,0.11,1.99,0.33,2.29c0.22,0.3,0.68,0.49,1.39,0.57
			v0.61h-8.07v-0.61c0.6-0.08,1.03-0.33,1.3-0.75c0.18-0.28,0.27-0.99,0.27-2.11v-7.09c0-1.31-0.05-2.13-0.15-2.47
			s-0.28-0.61-0.52-0.79C175.15,9.1,174.88,9,174.58,9c-0.98,0-1.89,0.7-2.73,2.1v8.54c0,1.19,0.11,1.95,0.33,2.27
			s0.63,0.52,1.24,0.6v0.61h-8.07v-0.61c0.67-0.07,1.15-0.28,1.43-0.65c0.19-0.25,0.29-0.99,0.29-2.22v-9
			c0-1.21-0.11-1.96-0.33-2.25c-0.22-0.29-0.69-0.49-1.39-0.58V7.18H171.85z"/>
		<path class="st21" d="M191.09,1.35v5.83h3.79v1.69h-3.79v9.84c0,0.92,0.04,1.52,0.13,1.78c0.09,0.27,0.24,0.48,0.45,0.65
			c0.22,0.17,0.41,0.25,0.6,0.25c0.74,0,1.44-0.56,2.1-1.69l0.51,0.38c-0.92,2.18-2.42,3.27-4.48,3.27c-1.01,0-1.87-0.28-2.57-0.84
			c-0.7-0.56-1.15-1.19-1.34-1.88c-0.11-0.39-0.17-1.43-0.17-3.14V8.87h-2.08v-0.6c1.43-1.01,2.65-2.07,3.66-3.19
			s1.88-2.36,2.63-3.73H191.09z"/>
		<path class="st21" d="M209.9,14.58h-8.75c0.1,2.11,0.67,3.79,1.69,5.01c0.78,0.94,1.73,1.42,2.83,1.42c0.68,0,1.3-0.19,1.86-0.57
			c0.56-0.38,1.15-1.07,1.79-2.05l0.58,0.38c-0.86,1.76-1.82,3.01-2.86,3.74s-2.26,1.1-3.63,1.1c-2.36,0-4.16-0.91-5.37-2.73
			c-0.98-1.47-1.47-3.29-1.47-5.46c0-2.66,0.72-4.78,2.16-6.35c1.44-1.57,3.12-2.36,5.06-2.36c1.61,0,3.02,0.66,4.2,1.99
			C209.17,10.01,209.81,11.98,209.9,14.58z M205.7,13.44c0-1.83-0.1-3.09-0.3-3.77c-0.2-0.68-0.51-1.2-0.93-1.55
			c-0.24-0.21-0.56-0.31-0.95-0.31c-0.59,0-1.07,0.29-1.45,0.87c-0.67,1.01-1.01,2.4-1.01,4.16v0.6H205.7z"/>
		<path class="st21" d="M218.13,0v19.81c0,1.13,0.13,1.84,0.39,2.16c0.26,0.31,0.77,0.49,1.53,0.54v0.61h-8.61v-0.61
			c0.7-0.02,1.23-0.23,1.57-0.61c0.23-0.26,0.34-0.96,0.34-2.08V3.31c0-1.11-0.13-1.83-0.39-2.14c-0.26-0.31-0.77-0.49-1.52-0.54V0
			H218.13z"/>
	</g>
</g>
<g id="Content">
</g>
</svg>
